<svg xmlns="http://www.w3.org/2000/svg" xmlns:xlink="http://www.w3.org/1999/xlink" width="505.001" height="374.544" viewBox="0 0 505.001 374.544">
  <defs>
    <linearGradient id="linear-gradient" x1="0.147" y1="1.029" x2="0.801" y2="0.143" gradientUnits="objectBoundingBox">
      <stop offset="0" stop-color="#fece2f"/>
      <stop offset="0.329" stop-color="#ccee2d"/>
      <stop offset="1" stop-color="#3ad0de"/>
    </linearGradient>
    <clipPath id="clip-path">
      <rect id="Rectángulo_401416" data-name="Rectángulo 401416" width="71.958" height="33.473" fill="#8746f8"/>
    </clipPath>
  </defs>
  <g id="_1" data-name="1" transform="translate(-915 -516.19)">
    <path id="Trazado_874172" data-name="Trazado 874172" d="M2509.925,781.4c46.479-44.368,57.583-134.954,14.532-197.938-35.883-52.5-101.976-106.5-185.26-122.236s-156.25-15.723-187.805,5.072c-25.823,17.018-13.819,40.718-5.72,60.859,10.811,26.886,12.4,48.233-32.069,87.291-50.769,44.585-64.51,61.323-67.054,104.436-2.07,35.064,27.205,82.231,65.618,88.988,53.478,9.409,73.326-15.443,125.646-32.2,41.97-13.44,71.081-7.156,109.134,18.6s94.773,52.232,162.981-12.88Z" transform="translate(-1131.445 68.631)" opacity="0.5" fill="url(#linear-gradient)"/>
    <g id="Grupo_1099595" data-name="Grupo 1099595" transform="translate(957.936 219.03)">
      <g id="Grupo_1099686" data-name="Grupo 1099686" transform="translate(0 297.16)">
        <g id="Grupo_1099608" data-name="Grupo 1099608" transform="translate(0 0)">
          <g id="Grupo_1099596" data-name="Grupo 1099596" transform="translate(182.545)">
            <path id="Trazado_874291" data-name="Trazado 874291" d="M464.121,352.972V340.649h-6.828a28.7,28.7,0,0,0-3.91-9.413l4.836-4.836-8.714-8.714-4.841,4.836a28.812,28.812,0,0,0-9.413-3.914V311.78H422.929v6.828a28.705,28.705,0,0,0-9.413,3.91l-4.836-4.841-8.714,8.714,4.836,4.841a28.812,28.812,0,0,0-3.914,9.413H394.06v12.322h6.828a28.7,28.7,0,0,0,3.91,9.413l-4.841,4.836,8.714,8.714,4.836-4.836a28.813,28.813,0,0,0,9.413,3.914v6.828h12.322v-6.828a28.7,28.7,0,0,0,9.413-3.91l4.836,4.836,8.714-8.714-4.836-4.836a28.815,28.815,0,0,0,3.914-9.413h6.828Zm-35.03,12.142a18.305,18.305,0,1,1,18.312-18.3,18.322,18.322,0,0,1-18.312,18.3Z" transform="translate(-394.06 -305.007)" fill="#4c317d"/>
            <path id="Trazado_874292" data-name="Trazado 874292" d="M582.521,317.751V311.59h-3.414a14.333,14.333,0,0,0-1.955-4.707l2.418-2.418-4.354-4.355-2.418,2.418a14.33,14.33,0,0,0-4.707-1.955V297.16H561.93v3.414a14.33,14.33,0,0,0-4.706,1.955l-2.418-2.418-4.354,4.355,2.418,2.418a14.33,14.33,0,0,0-1.955,4.707H547.5v6.161h3.414a14.33,14.33,0,0,0,1.955,4.707l-2.418,2.418,4.354,4.354,2.418-2.418a14.331,14.331,0,0,0,4.706,1.955v3.414h6.161v-3.414a14.331,14.331,0,0,0,4.707-1.955l2.418,2.418,4.354-4.354-2.418-2.418a14.333,14.333,0,0,0,1.955-4.707Zm-17.515,6.073a9.154,9.154,0,1,1,9.154-9.154A9.167,9.167,0,0,1,565.006,323.824Z" transform="translate(-476.42 -297.16)" fill="#4c317d"/>
          </g>
          <g id="Grupo_1099600" data-name="Grupo 1099600" transform="translate(0 238.519)">
            <g id="Grupo_1099597" data-name="Grupo 1099597" transform="translate(0 43.846)">
              <rect id="Rectángulo_401408" data-name="Rectángulo 401408" width="194.775" height="29.842" fill="#6b44af"/>
              <rect id="Rectángulo_401409" data-name="Rectángulo 401409" width="15.797" height="52.698" transform="translate(28.758 27.558)" fill="#6b44af"/>
              <rect id="Rectángulo_401410" data-name="Rectángulo 401410" width="15.797" height="52.698" transform="translate(164.914 27.558)" fill="#6b44af"/>
            </g>
            <g id="Grupo_1099599" data-name="Grupo 1099599" transform="translate(32.316)">
              <g id="Grupo_1099598" data-name="Grupo 1099598" transform="translate(11.173)">
                <path id="Trazado_874293" data-name="Trazado 874293" d="M158.312,856.179H93.88l10.761-44.129h64.432Z" transform="translate(-93.88 -812.05)" fill="#4c317d"/>
                <path id="Trazado_874294" data-name="Trazado 874294" d="M180.36,852.785a4.067,4.067,0,0,1-3.2-6.606,6.306,6.306,0,0,0-1.709-.259,6.374,6.374,0,1,0,6.351,6.587,4.077,4.077,0,0,1-1.45.278Z" transform="translate(-134.244 -830.23)" fill="#fff6f3"/>
              </g>
              <path id="Trazado_874452" data-name="Trazado 874452" d="M0,0H75.606V6.217H0Z" transform="translate(0 37.912)" fill="#412672"/>
            </g>
          </g>
          <g id="Grupo_1099603" data-name="Grupo 1099603" transform="translate(6.087 17.789)">
            <g id="Grupo_1099601" data-name="Grupo 1099601">
              <path id="Trazado_874295" data-name="Trazado 874295" d="M98.886,378.428a42.854,42.854,0,1,1-2.719-15.037,42.677,42.677,0,0,1,2.719,15.037Z" transform="translate(-13.14 -335.56)" fill="#6b44af"/>
              <circle id="Elipse_11510" data-name="Elipse 11510" cx="35.892" cy="35.892" r="35.892" transform="translate(6.981 6.981)" fill="#f6e6d7"/>
              <path id="Trazado_874453" data-name="Trazado 874453" d="M27.109,0A27.109,27.109,0,1,1,0,27.109,27.109,27.109,0,0,1,27.109,0Z" transform="translate(15.764 15.764)" fill="#6b44af"/>
              <circle id="Elipse_11512" data-name="Elipse 11512" cx="18.683" cy="18.683" r="18.683" transform="translate(16.454 42.871) rotate(-45)" fill="#f6e6d7"/>
              <circle id="Elipse_11513" data-name="Elipse 11513" cx="9.32" cy="9.32" r="9.32" transform="translate(29.694 42.871) rotate(-45)" fill="#6b44af"/>
            </g>
            <path id="Trazado_874296" data-name="Trazado 874296" d="M146.421,410.672a42.678,42.678,0,0,1-6.652,22.949l-5.916-3.7-7.458-4.66-7.152-4.47-7.94-4.961-9.6-6.008,10.131-3.428,8.913-3.006,8.009-2.71,8.329-2.807,6.624-2.242a42.555,42.555,0,0,1,2.719,15.042Z" transform="translate(-60.675 -367.803)" fill="#f4eefe" opacity="0.3"/>
            <g id="Grupo_1099602" data-name="Grupo 1099602" transform="translate(41.029 15.764)">
              <path id="Trazado_874297" data-name="Trazado 874297" d="M105.99,397.646l-4.28,6.407,7.407,2.112-.857-2.335,42.2-16.561-.88-2.4-42.113,16.07Z" transform="translate(-101.71 -377.792)" fill="#493737"/>
              <path id="Trazado_874298" data-name="Trazado 874298" d="M194.54,379.318,196.4,373.2l9.821-3.609-3.734,6.81,6.953,1.955-9.473,4.544Z" transform="translate(-151.537 -369.59)" fill="#493737"/>
            </g>
          </g>
          <g id="Grupo_1099607" data-name="Grupo 1099607" transform="translate(235.049 263.506)">
            <g id="Grupo_1099605" data-name="Grupo 1099605">
              <path id="Trazado_874299" data-name="Trazado 874299" d="M522.7,926.378s-18.326-35.549-14.861-42.91,21.559,32.77,21.559,32.77-6.092-39.329,2.483-48.946,13.6,36.8,7.569,48.946c0,0,12.572-38.477,24.186-34.577s-19.493,46.389-19.493,46.389l-21.448-1.677Z" transform="translate(-507.399 -865.99)" fill="#6e825e"/>
              <g id="Grupo_1099604" data-name="Grupo 1099604" transform="translate(8.042 16.306)">
                <path id="Trazado_874300" data-name="Trazado 874300" d="M565.212,945.962l-.333-.019a274.609,274.609,0,0,0-1.028-44.717l.333-.037A275.28,275.28,0,0,1,565.212,945.962Z" transform="translate(-545.742 -901.19)" fill="#f6e6d7"/>
                <path id="Trazado_874301" data-name="Trazado 874301" d="M535.91,971.1a211.812,211.812,0,0,0-11.15-33.506l.306-.134a211.832,211.832,0,0,1,11.169,33.557l-.324.079Z" transform="translate(-524.76 -920.658)" fill="#f6e6d7"/>
                <path id="Trazado_874302" data-name="Trazado 874302" d="M576.1,966.612l-.315-.12a211.535,211.535,0,0,1,15.333-31.871l.287.171A211.51,211.51,0,0,0,576.1,966.612Z" transform="translate(-552.145 -919.134)" fill="#f6e6d7"/>
              </g>
            </g>
            <g id="Grupo_1099606" data-name="Grupo 1099606" transform="translate(0.438 57.938)">
              <path id="Trazado_874303" data-name="Trazado 874303" d="M564.14,1009.859c-.181,3.789-5.179,22.87-5.179,22.87H515.05s-.514-.987-1.265-2.585c-1.973-4.211-5.545-12.647-5.439-18.243a29.65,29.65,0,0,1,4.063-14.022c.565-.987,1.135-1.885,1.677-2.677a30.046,30.046,0,0,1,3.363-4.132h38.417s.964,1.714,2.237,4.132c.431.825.9,1.728,1.385,2.677,2.27,4.489,4.753,9.918,4.651,11.989Z" transform="translate(-508.345 -991.065)" fill="#4c317d"/>
              <path id="Trazado_874304" data-name="Trazado 874304" d="M564.2,1002.648H517.12c.565-.987,1.135-1.885,1.677-2.678h44.017C563.245,1000.795,563.718,1001.7,564.2,1002.648Z" transform="translate(-513.055 -995.842)" fill="#f6e6d7"/>
              <path id="Trazado_874305" data-name="Trazado 874305" d="M570.445,1009.854c-.181,3.789-5.179,22.87-5.179,22.87H521.355s-.514-.987-1.265-2.585c22.287-3.595,30.569-21.249,33.59-32.269.259-.945.482-1.844.672-2.677.371-1.654.612-3.067.769-4.132h7.051s.964,1.714,2.237,4.132c.431.824.9,1.728,1.385,2.677,2.27,4.489,4.753,9.918,4.651,11.989Z" transform="translate(-514.649 -991.06)" fill="#8746f8" opacity="0.3"/>
            </g>
          </g>
        </g>
        <g id="Grupo_1099685" data-name="Grupo 1099685" transform="translate(45.958 23.668)">
          <g id="Grupo_1099633" data-name="Grupo 1099633" transform="translate(209.214 31.342)">
            <g id="Grupo_1099610" data-name="Grupo 1099610">
              <rect id="Rectángulo_401412" data-name="Rectángulo 401412" width="119.234" height="96.544" transform="translate(0 0.005)" fill="#f6ece5"/>
              <rect id="Rectángulo_401413" data-name="Rectángulo 401413" width="119.234" height="13.281" fill="#6b44af"/>
              <g id="Grupo_1099609" data-name="Grupo 1099609" transform="translate(6.953 4.781)">
                <path id="Trazado_874306" data-name="Trazado 874306" d="M570.529,428.569a2.339,2.339,0,1,1-2.339-2.339A2.339,2.339,0,0,1,570.529,428.569Z" transform="translate(-565.85 -426.23)" fill="#f6ece5"/>
                <circle id="Elipse_11514" data-name="Elipse 11514" cx="2.339" cy="2.339" r="2.339" transform="translate(8.982)" fill="#f6ece5"/>
                <circle id="Elipse_11515" data-name="Elipse 11515" cx="2.339" cy="2.339" r="2.339" transform="translate(17.965)" fill="#f6ece5"/>
              </g>
            </g>
            <g id="Grupo_1099631" data-name="Grupo 1099631" transform="translate(17.214 24.43)">
              <g id="Grupo_1099611" data-name="Grupo 1099611" transform="translate(12.142 9.735)">
                <path id="Trazado_874307" data-name="Trazado 874307" d="M624.721,504.238c-.88,1.32-2.511,2.075-3.141,3.53-.7,1.631.088,3.6-.556,5.258-.672,1.733-2.627,2.515-4.044,3.715a8.734,8.734,0,0,0-2.349,9.144,12.137,12.137,0,0,0,6.652,7.083,20.165,20.165,0,0,0,9.793,1.469c6.022-.435,11.891-2.668,17.918-2.372,3.094.153,6.124.968,9.209,1.246s6.407-.046,8.88-1.913,3.683-5.624,1.959-8.2c-1.26-1.881-3.822-2.909-4.331-5.114-.435-1.876.848-3.924.134-5.716-.95-2.395-4.739-2.64-5.615-5.063-.6-1.649.454-3.7-.537-5.156-.537-.792-1.543-1.144-2.159-1.881-1.172-1.4-.533-3.548-1.1-5.281-.755-2.3-3.363-3.34-5.7-3.965a29.215,29.215,0,0,0-11.447-1.186c-3.817.519-6.749,2.566-9.8,4.72-3.678,2.594-1.607,6.444-3.775,9.691Z" transform="translate(-614.211 -489.66)" fill="#4a0f2f"/>
                <path id="Trazado_874308" data-name="Trazado 874308" d="M633.141,510.867c-.727,1.733-2.71,2.872-2.918,4.739-.158,1.408.787,2.789.565,4.188-.283,1.788-2.233,2.724-3.349,4.146-2,2.543-.982,6.522,1.4,8.7s5.712,2.965,8.913,3.433A67.6,67.6,0,0,0,667,533.918a10.032,10.032,0,0,0,3.271-1.468,3.774,3.774,0,0,0,1.612-3.062c-.167-3.141-5.156-4.544-4.91-7.681.12-1.533,1.561-2.844,1.292-4.354-.463-2.613-5.054-2.339-5.906-4.85-.537-1.575.792-3.312.352-4.915-.51-1.853-2.955-2.39-4.026-3.988-.662-.991-.709-2.27-1.186-3.363-1.061-2.46-4-3.5-6.671-3.72-5.151-.417-9.807,1.594-14.254,3.961-4.785,2.548-1.728,6.337-3.428,10.4Z" transform="translate(-620.741 -493.311)" fill="#38102b"/>
              </g>
              <g id="Grupo_1099627" data-name="Grupo 1099627" transform="translate(25.391)">
                <g id="Grupo_1099624" data-name="Grupo 1099624" transform="translate(0 3.319)">
                  <g id="Grupo_1099612" data-name="Grupo 1099612" transform="translate(4.405 27.692)">
                    <path id="Trazado_874309" data-name="Trazado 874309" d="M674.23,547.626l-4.646.445-4.994-.676a30.107,30.107,0,0,0,.384-4.887c0-.287,0-.579,0-.866.009-2.687-.139-5.008-.139-5.008l8.445-1.033a48.543,48.543,0,0,0,.315,5.837c.023.264.042.537.07.8.264,2.812.556,5.383.556,5.383Z" transform="translate(-658.906 -535.595)" fill="#b77158"/>
                    <path id="Trazado_874310" data-name="Trazado 874310" d="M673.9,541.432a8.417,8.417,0,0,1-3.766,1.672,7.746,7.746,0,0,1-4.855-1.473c.009-2.687-.139-5.008-.139-5.008l8.445-1.033a48.531,48.531,0,0,0,.315,5.837Z" transform="translate(-659.201 -535.59)" fill="#8e503d"/>
                    <path id="Trazado_874311" data-name="Trazado 874311" d="M652.32,555.5s.954-3.984,1.7-4.118,16.144-.9,17.525,0,2.339,6.184,2.339,6.184l-9.547,3.22-10.928-3.159Z" transform="translate(-652.32 -543.834)" fill="#6e825e"/>
                  </g>
                  <g id="Grupo_1099623" data-name="Grupo 1099623">
                    <g id="Grupo_1099621" data-name="Grupo 1099621">
                      <g id="Grupo_1099613" data-name="Grupo 1099613" transform="translate(24.421 14.313)">
                        <path id="Trazado_874312" data-name="Trazado 874312" d="M695.53,516.191a5.143,5.143,0,0,0,3.655-2.58,5.024,5.024,0,0,0,.361-.69c.491-1.14.621-5.086-.653-6-.894-.639-1.538.3-1.848.913h0a4.4,4.4,0,0,0-.2.468Z" transform="translate(-695.53 -506.707)" fill="#cc836d"/>
                        <path id="Trazado_874313" data-name="Trazado 874313" d="M695.53,516.62a5.143,5.143,0,0,0,3.655-2.58q.083-.167.153-.32c.491-1.14.621-5.086-.653-6-.723-.519-1.283,0-1.635.537h0a4.384,4.384,0,0,0-.2.468l-1.316,7.889Z" transform="translate(-695.53 -507.137)" fill="#b77158"/>
                        <path id="Trazado_874314" data-name="Trazado 874314" d="M700.862,513.106a2.081,2.081,0,0,1-.056.954,7.387,7.387,0,0,1-2.376,3.28,4.085,4.085,0,0,0,.343-2.075c-.023-.246-.065-.491-.069-.737-.009-.991,1.774-3.289,2.154-1.427Z" transform="translate(-697.087 -509.76)" fill="#cc836d"/>
                        <path id="Trazado_874315" data-name="Trazado 874315" d="M697.35,517.711l.056-.042c.037-.028.093-.065.162-.12a2.676,2.676,0,0,0,.491-.565,2.917,2.917,0,0,0,.4-1.052,2.75,2.75,0,0,0-.13-1.39,1.122,1.122,0,0,0-.074-.171l-.019-.042v0h0v-.009l.019-.037.032-.074c.023-.051.046-.1.069-.148.093-.195.195-.375.3-.547s.213-.324.32-.468a3.441,3.441,0,0,1,.315-.375.657.657,0,0,1,.324-.181.423.423,0,0,1,.273.056.272.272,0,0,1,.12.139.615.615,0,0,1,.018.065.262.262,0,0,0,0-.07.365.365,0,0,0-.1-.181.506.506,0,0,0-.315-.125.757.757,0,0,0-.426.158,3.045,3.045,0,0,0-.389.357,3.833,3.833,0,0,0-.38.459,4.443,4.443,0,0,0-.352.56c-.028.051-.056.1-.079.153l-.037.079-.051.111-.037.079c.009.028.023.051.032.079l.051.111a1.535,1.535,0,0,1,.065.153,2.875,2.875,0,0,1,.167,1.228,3.157,3.157,0,0,1-.259,1.005,2.972,2.972,0,0,1-.375.611,1.78,1.78,0,0,1-.13.148.538.538,0,0,0-.046.051Z" transform="translate(-696.507 -509.747)" fill="#8e503d"/>
                      </g>
                      <g id="Grupo_1099614" data-name="Grupo 1099614" transform="translate(0 14.387)">
                        <path id="Trazado_874316" data-name="Trazado 874316" d="M647.216,516.338a5.151,5.151,0,0,1-3.674-2.557,5.676,5.676,0,0,1-.366-.69c-.5-1.135-.653-5.082.616-6,.889-.644,1.543.283,1.853.9h0a4,4,0,0,1,.2.468l1.367,7.88Z" transform="translate(-642.811 -506.869)" fill="#cc836d"/>
                        <path id="Trazado_874317" data-name="Trazado 874317" d="M647.463,516.766a5.151,5.151,0,0,1-3.674-2.557,3.312,3.312,0,0,1-.153-.32c-.5-1.135-.653-5.082.616-6,.723-.523,1.283-.014,1.64.528h0a3.993,3.993,0,0,1,.2.468l1.367,7.88Z" transform="translate(-643.058 -507.297)" fill="#b77158"/>
                        <path id="Trazado_874318" data-name="Trazado 874318" d="M644.043,513.3a2.084,2.084,0,0,0,.06.954,7.434,7.434,0,0,0,2.395,3.266,4.077,4.077,0,0,1-.357-2.071c.019-.246.06-.491.065-.737C646.207,513.718,644.414,511.429,644.043,513.3Z" transform="translate(-643.456 -509.937)" fill="#cc836d"/>
                        <path id="Trazado_874319" data-name="Trazado 874319" d="M647.338,517.867l-.056-.042c-.037-.028-.093-.065-.162-.12a2.51,2.51,0,0,1-.5-.56,2.8,2.8,0,0,1-.408-1.052,2.741,2.741,0,0,1,.12-1.39,1.42,1.42,0,0,1,.074-.176l.019-.042v0h0v0l-.019-.037-.032-.074c-.023-.051-.046-.1-.07-.148-.093-.195-.2-.375-.3-.547s-.213-.324-.32-.468a3.357,3.357,0,0,0-.315-.371.657.657,0,0,0-.324-.181.4.4,0,0,0-.273.06.271.271,0,0,0-.12.139.609.609,0,0,0-.019.065.265.265,0,0,1,0-.069.3.3,0,0,1,.1-.181.481.481,0,0,1,.315-.125.75.75,0,0,1,.426.153,2.736,2.736,0,0,1,.389.352,4.812,4.812,0,0,1,.384.454,4.973,4.973,0,0,1,.357.556c.028.051.056.1.079.153l.037.079.051.111.037.079c-.009.028-.023.051-.032.079l-.051.111a.878.878,0,0,0-.06.153,2.95,2.95,0,0,0-.158,1.232,3.034,3.034,0,0,0,.269,1.005,2.772,2.772,0,0,0,.38.612c.056.069.1.116.13.148a.543.543,0,0,1,.046.051Z" transform="translate(-643.791 -509.913)" fill="#8e503d"/>
                      </g>
                      <path id="Trazado_874320" data-name="Trazado 874320" d="M649.18,491.07s.338,7.671,2.381,10.511c1.709,2.376,4.141,6.166,8.009,7.449a3.678,3.678,0,0,0,2.33-.009c3.863-1.306,6.268-5.11,7.963-7.5C671.888,498.672,672.18,491,672.18,491c.014-.51.018-1,.009-1.478v-.014c-.278-14.523-11.558-13.689-11.558-13.689s-11.113.139-11.442,14.5c0,.245-.009.5-.009.755Z" transform="translate(-646.23 -475.811)" fill="#cc836d"/>
                      <path id="Trazado_874321" data-name="Trazado 874321" d="M649.2,490.319c.07,1.228.523,7.741,2.367,10.307,1.709,2.376,4.141,6.166,8.009,7.449a3.679,3.679,0,0,0,2.33-.009c3.863-1.306,6.268-5.11,7.963-7.5,2.024-2.854,2.316-10.525,2.316-10.525,0-.176.009-.352.014-.523v-.014c-.278-14.523-11.558-13.689-11.558-13.689s-11.113.139-11.442,14.5Z" transform="translate(-646.241 -475.811)" fill="#b77158"/>
                      <g id="Grupo_1099615" data-name="Grupo 1099615" transform="translate(10.742 23.194)">
                        <path id="Trazado_874322" data-name="Trazado 874322" d="M674.621,533.695a4.89,4.89,0,0,1-3.951.019,2.051,2.051,0,0,0,1.784.982,3.4,3.4,0,0,0,2.168-1.005Z" transform="translate(-668.507 -530.072)" fill="#8e503d"/>
                        <path id="Trazado_874323" data-name="Trazado 874323" d="M675.056,525.88l-.236.3a5.454,5.454,0,0,1-.741.75,7.335,7.335,0,0,1-3.169,1.566,7.436,7.436,0,0,1-3.558-.1,6.373,6.373,0,0,1-1.005-.371c-.222-.107-.347-.171-.347-.171s.139.028.38.079a9.479,9.479,0,0,0,1.033.153,11.024,11.024,0,0,0,3.349-.213,10.868,10.868,0,0,0,3.118-1.2,9.229,9.229,0,0,0,.866-.565c.195-.144.31-.227.31-.227Z" transform="translate(-666 -525.88)" fill="#8e503d"/>
                      </g>
                      <g id="Grupo_1099616" data-name="Grupo 1099616" transform="translate(2.517 18.795)">
                        <path id="Trazado_874324" data-name="Trazado 874324" d="M687.875,518.8c.19.5,1.57.445,3.085-.125s2.589-1.445,2.4-1.946-1.57-.445-3.085.125S687.685,518.3,687.875,518.8Z" transform="translate(-669.505 -516.386)" fill="#cc836d"/>
                        <path id="Trazado_874325" data-name="Trazado 874325" d="M648.271,516.7c-.2.5.843,1.4,2.339,2.02s2.877.718,3.081.218-.843-1.4-2.339-2.02S648.474,516.2,648.271,516.7Z" transform="translate(-648.245 -516.383)" fill="#cc836d"/>
                      </g>
                      <g id="Grupo_1099617" data-name="Grupo 1099617" transform="translate(12.682 15.305)">
                        <path id="Trazado_874326" data-name="Trazado 874326" d="M672.093,520.53a2,2,0,0,1,1.765,1.033.388.388,0,0,1,.06.255c-.028.13-.171.2-.3.241a6.787,6.787,0,0,1-2.789.357c-1.7-.144.431-1.867,1.265-1.885Z" transform="translate(-670.188 -515.119)" fill="#cc836d"/>
                        <path id="Trazado_874327" data-name="Trazado 874327" d="M671.949,515.692v-.283c0-.088,0-.2,0-.329s0-.269,0-.426,0-.329-.009-.51-.014-.375-.019-.579c-.019-.408-.046-.848-.079-1.306s-.074-.9-.116-1.306c-.023-.2-.042-.394-.065-.574s-.046-.352-.065-.5-.046-.3-.065-.422-.037-.236-.051-.324c-.032-.176-.042-.278-.042-.278s.065.079.171.227a2.86,2.86,0,0,1,.185.278,3.552,3.552,0,0,1,.218.385,4.827,4.827,0,0,1,.227.486c.079.176.144.371.213.579a6.556,6.556,0,0,1,.264,1.39,6.361,6.361,0,0,1-.06,1.413c-.037.213-.074.417-.125.607s-.1.361-.153.514-.111.292-.162.412a2.651,2.651,0,0,1-.144.3c-.083.162-.134.25-.134.25Z" transform="translate(-670.86 -508.85)" fill="#8e503d"/>
                      </g>
                      <g id="Grupo_1099620" data-name="Grupo 1099620" transform="translate(5.642 13.721)">
                        <g id="Grupo_1099618" data-name="Grupo 1099618" transform="translate(13.647)">
                          <path id="Trazado_874328" data-name="Trazado 874328" d="M687.781,505.43a2.473,2.473,0,0,1-1.218,1.065,1.045,1.045,0,0,0-.787-.394c-.746.009-1.339.982-1.325,2.177s.625,2.159,1.371,2.149,1.339-.982,1.325-2.177a3.074,3.074,0,0,0-.171-1.019,4.017,4.017,0,0,0,.806-1.8Z" transform="translate(-684.449 -505.43)" fill="#2a2b2b"/>
                          <path id="Trazado_874329" data-name="Trazado 874329" d="M687.21,510.833a2.775,2.775,0,1,0,1.4-.94A3.057,3.057,0,0,0,687.21,510.833Z" transform="translate(-685.931 -507.771)" fill="#fef1e8"/>
                        </g>
                        <g id="Grupo_1099619" data-name="Grupo 1099619" transform="translate(0 0.051)">
                          <path id="Trazado_874330" data-name="Trazado 874330" d="M657.185,505.54a2.484,2.484,0,0,0,1.223,1.056,1.041,1.041,0,0,1,.783-.4c.746,0,1.343.973,1.339,2.168s-.611,2.159-1.357,2.159-1.343-.973-1.339-2.168a3.25,3.25,0,0,1,.162-1.024,3.983,3.983,0,0,1-.815-1.793Z" transform="translate(-656.166 -505.54)" fill="#2a2b2b"/>
                          <path id="Trazado_874331" data-name="Trazado 874331" d="M658.075,510.928a2.776,2.776,0,1,1-1.4-.931A3.052,3.052,0,0,1,658.075,510.928Z" transform="translate(-654.99 -507.88)" fill="#fef1e8"/>
                        </g>
                      </g>
                    </g>
                    <g id="Grupo_1099622" data-name="Grupo 1099622" transform="translate(2.67 12.688)">
                      <path id="Trazado_874332" data-name="Trazado 874332" d="M695.39,516.373s.074-.153.194-.431.287-.69.473-1.209.38-1.144.561-1.853a21.256,21.256,0,0,0,.458-2.344,22.717,22.717,0,0,0,.185-2.395c.014-.741,0-1.408-.042-1.969s-.083-1.01-.13-1.32-.069-.482-.069-.482-.037.171-.1.477-.139.746-.236,1.288-.208,1.186-.32,1.895-.236,1.487-.343,2.307-.208,1.6-.282,2.321-.144,1.367-.2,1.918-.088,1-.116,1.311S695.39,516.373,695.39,516.373Z" transform="translate(-673.704 -503.828)" fill="#38102b"/>
                      <path id="Trazado_874333" data-name="Trazado 874333" d="M650.06,515.268s-.065-.158-.172-.44-.255-.7-.412-1.228-.324-1.158-.473-1.876a22.885,22.885,0,0,1-.347-2.363,21.582,21.582,0,0,1-.074-2.4c.019-.741.069-1.408.134-1.964s.134-1.005.19-1.316.093-.477.093-.477.028.171.074.482.107.75.176,1.3.153,1.191.232,1.909.162,1.5.236,2.321.13,1.612.176,2.33.079,1.371.107,1.927.042,1.005.056,1.316.014.486.014.486Z" transform="translate(-648.576 -503.2)" fill="#38102b"/>
                    </g>
                  </g>
                </g>
                <g id="Grupo_1099625" data-name="Grupo 1099625" transform="translate(4.261 12.274)">
                  <path id="Trazado_874334" data-name="Trazado 874334" d="M688.324,498.2s-4.957-3.817-6.8-2.594c-1.075.713-.255,1.255-.255,1.255l7.055,1.339Z" transform="translate(-667.557 -495.264)" fill="#4a0f2f"/>
                  <path id="Trazado_874335" data-name="Trazado 874335" d="M652.01,498.051s4.91-3.877,6.768-2.678c1.084.7.273,1.255.273,1.255l-7.037,1.422Z" transform="translate(-652.01 -495.143)" fill="#4a0f2f"/>
                </g>
                <g id="Grupo_1099626" data-name="Grupo 1099626" transform="translate(0.329)">
                  <path id="Trazado_874336" data-name="Trazado 874336" d="M670.987,486.492l-1.844.913-1.2-6.254c-2.335.987-12.5-1.362-12.5-1.362l-.973-4.535-1.612,4.91-7.194,6.842-1.468-.44a24.1,24.1,0,0,1-.6-3.975,14.533,14.533,0,0,1,.843-6.546c2.372-5.462,8.686-7.013,10.187-7.185a15.349,15.349,0,0,1,11.1,2.288c2.066,1.4,3.331,4.387,4.1,7.361A41.9,41.9,0,0,1,671,486.483Z" transform="translate(-643.531 -468.646)" fill="#38102b"/>
                  <path id="Trazado_874337" data-name="Trazado 874337" d="M669.8,478.54a14.857,14.857,0,0,1-9.181-3.641c-1.311-1.163-2.617-2.659-4.373-2.7-2.168-.046-3.623,2.1-4.943,3.826a25.048,25.048,0,0,1-7.727,6.6,15.077,15.077,0,0,1,.718-6.254c.037-.1.079-.195.12-.292,2.372-5.462,8.686-7.013,10.187-7.185a15.349,15.349,0,0,1,11.1,2.288,6.815,6.815,0,0,1,1.645,1.64,17.131,17.131,0,0,1,2.451,5.726Z" transform="translate(-643.522 -468.662)" fill="#4a0f2f"/>
                  <path id="Trazado_874338" data-name="Trazado 874338" d="M668.236,472.8a6.523,6.523,0,0,1-1.2.111,17.5,17.5,0,0,1-5.578-1.279,13.3,13.3,0,0,0-5.615-.977c-4.035.435-6.981,4.151-10.668,5.689.037-.1.079-.195.12-.292,2.372-5.462,8.686-7.013,10.187-7.185a15.349,15.349,0,0,1,11.1,2.288,6.82,6.82,0,0,1,1.645,1.64Z" transform="translate(-644.412 -468.651)" fill="#5f1234"/>
                </g>
              </g>
              <g id="Grupo_1099630" data-name="Grupo 1099630" transform="translate(0 39.799)">
                <g id="Grupo_1099628" data-name="Grupo 1099628" transform="translate(0 4.294)">
                  <path id="Trazado_874339" data-name="Trazado 874339" d="M617.791,578.848,613.6,589.206l-.9,2.65H588.009c0-.148-.009-.292-.009-.426,0-3.275,8.686-12.239,8.686-12.239s3.826-8.862,4.739-11.544a3.458,3.458,0,0,0,.195-.7c.028-.537,2.344-1.487,4.313-2.2,1.459-.523,2.719-.922,2.719-.922l4.633,7.611,1.746,2.872,2.761,4.53Z" transform="translate(-588 -563.83)" fill="#6e825e"/>
                  <path id="Trazado_874340" data-name="Trazado 874340" d="M722.056,591.774c0,.13,0,.273-.009.426H697.356l-.9-2.65-4.2-10.358,4.063-6.258.746-1.149,4.753-7.315a46.318,46.318,0,0,1,5.4,1.913c.709.338,1.2.658,1.214.913a26.5,26.5,0,0,0,1.3,3.581c1.459,3.632,3.632,8.663,3.632,8.663s8.686,8.964,8.686,12.239Z" transform="translate(-643.962 -564.174)" fill="#6e825e"/>
                </g>
                <g id="Grupo_1099629" data-name="Grupo 1099629" transform="translate(18.514)">
                  <path id="Trazado_874341" data-name="Trazado 874341" d="M668.574,581.887a7.566,7.566,0,0,1-.556,2.469c-.051.111-.1.222-.153.333a16.821,16.821,0,0,1-1.228,2.191H632.075a17.69,17.69,0,0,1-1.77-3.4c-1.844-4.887,2.761-12.026,2.761-12.026l-.408-2.645-.352-2.279-.259-1.677h0l-.922-5.99,6.615-1.95,2.9-.857.051-.014,5.587-1.478h0l8.982.208h0l3.794,1.7,2.214.639,2.1.607,4.952,1.432-1.214,6.175-.06.3-.366,1.862-.125.658-.6,3.034-.042.218s2.951,5.8,2.64,10.5Z" transform="translate(-628.988 -554.56)" fill="#6e825e"/>
                  <path id="Trazado_874342" data-name="Trazado 874342" d="M708.618,594.139a17.612,17.612,0,0,1-.709,2.8,18.561,18.561,0,0,1-.9,2.191h-1.547a13.9,13.9,0,0,0,1.909-6.606c.107-3.632-1.413-6.249-2.84-9.427a.45.45,0,0,1-.032-.287.408.408,0,0,1,0-.287c.273-.746.533-1.515.811-2.279.264-.723.542-1.441.871-2.126.079-.171.162-.338.25-.505a.429.429,0,0,1,.737-.037.4.4,0,0,1,.1.259.572.572,0,0,1-.009.125,16.728,16.728,0,0,1-.514,1.774c-.074.218-.153.435-.232.648-.3.82-.635,1.635-.931,2.437a.587.587,0,0,1-.046.093c.167.167.329.333.477.51,2.58,2.9,3.238,6.879,2.6,10.71Z" transform="translate(-669.033 -566.812)" fill="#516942"/>
                  <path id="Trazado_874343" data-name="Trazado 874343" d="M632.281,586.277c-3.215,4.683-4.021,10.224-.435,14.458h-1.529c-3.229-4.7-3.451-11.4,1.362-15.273-.176-.964-.31-1.932-.44-2.9-.079-.607-.148-1.209-.227-1.816a.321.321,0,0,1,.269-.366.39.39,0,0,1,.491.264c.171.718.347,1.441.514,2.163.195.811.371,1.626.51,2.441a.341.341,0,0,1,.032.176c.009.051.023.1.028.148a.617.617,0,0,1-.579.709Z" transform="translate(-627.967 -568.41)" fill="#516942"/>
                  <path id="Trazado_874344" data-name="Trazado 874344" d="M673.713,559.993a15.56,15.56,0,0,0-1.709-.667,11.215,11.215,0,0,0,1.047-1.751c.292-.579-.593-1.093-.871-.51a11.14,11.14,0,0,0-.811,2.061,18.454,18.454,0,0,0-1.895-.44h0c.144-.5.287-.987.431-1.482a2.962,2.962,0,0,0,.227-1.348.449.449,0,0,0-.746-.2,2.975,2.975,0,0,0-.477,1.269c-.125.5-.255,1-.38,1.5a.494.494,0,0,0,0,.116c-.584-.079-1.172-.139-1.765-.176a.684.684,0,0,0,.046-.06,4.334,4.334,0,0,0,.236-1.561,2.907,2.907,0,0,0-.1-1.584.436.436,0,0,0-.746,0,2.7,2.7,0,0,0-.195,1.478,4.444,4.444,0,0,0,.1,1.566.307.307,0,0,0,.056.125c-.862-.037-1.728-.037-2.589,0,.009-.009.019-.014.023-.028a2.467,2.467,0,0,0-.069-1.6c-.111-.542-.111-1.241-.621-1.552a.381.381,0,0,0-.51.134c-.306.514.037,1.144.2,1.672a2.574,2.574,0,0,0,.662,1.385c-1.061.051-2.117.148-3.145.278l-.51-1.241a2.827,2.827,0,0,0-.607-1.163.394.394,0,0,0-.662.273,2.682,2.682,0,0,0,.51,1.209c.19.338.375.676.565,1.015-.69.1-1.371.213-2.029.333-.213.042-.167.408.051.38a37.914,37.914,0,0,1,8.135-.283c2.733.232,5.309,1.07,8.009,1.431.306.042.426-.454.158-.584Z" transform="translate(-643.675 -554.767)" fill="#516942"/>
                </g>
              </g>
            </g>
          </g>
          <g id="Grupo_1099661" data-name="Grupo 1099661">
            <g id="Grupo_1099638" data-name="Grupo 1099638" transform="translate(167.49 105.733)">
              <g id="Grupo_1099636" data-name="Grupo 1099636" transform="translate(77.634)">
                <path id="Trazado_874347" data-name="Trazado 874347" d="M687.9,581.39S676.51,592.2,669.8,598.062c2.733,1.316,7.051,3.548,7.315,4.253.361.913,3.817,15.472,4.09,16.167.769,1.987-9.2,9.858-15.676,13.619a16.856,16.856,0,0,1-4.336,1.978l-6.045.31L639.5,647.342a37.293,37.293,0,0,1-5.869-5.791c-.389-.477-.778-.987-1.163-1.524a24.593,24.593,0,0,1-2.909-5.42,19.711,19.711,0,0,1-1.181-4.9c-.093-.894,7.94-8.195,7.94-8.195s-6.129-12.772-2.08-19.489c2.4-3.961,4.822-7.986,5.573-12.558a62.691,62.691,0,0,1,1.13-7.166c.658-2.339,2.047-4.623,4.253-5.605a1.556,1.556,0,0,1,.825-.19c.584.069.964.63,1.2,1.191a1.523,1.523,0,0,1,.079.181,30.2,30.2,0,0,1,.82,19.975s36.276-22.63,38.111-20.7a6.13,6.13,0,0,1,1.663,4.239Z" transform="translate(-628.369 -576.497)" fill="#f3a080"/>
                <path id="Trazado_874348" data-name="Trazado 874348" d="M647.213,577.714c-.32.394-.63.8-.908,1.2-2.307,3.354-2.464,7.676-3.581,11.581-1.552,5.378-5.035,10.205-5.563,15.773-.435,4.706,1.3,9.293,2.613,13.837a7.162,7.162,0,0,1,.287,4.3,7.388,7.388,0,0,1-2.224,2.8c-2.71,2.469-5.633,4.85-8.292,7.421a19.478,19.478,0,0,1-1.186-4.9c-.093-.9,7.94-8.195,7.94-8.195s-6.133-12.776-2.075-19.493c2.4-3.961,4.822-7.986,5.568-12.559a63.9,63.9,0,0,1,1.13-7.166c.662-2.335,2.043-4.618,4.257-5.61a1.6,1.6,0,0,1,.82-.185c.588.065.964.63,1.209,1.191Z" transform="translate(-628.358 -576.508)" fill="#f8bf92"/>
                <g id="Grupo_1099635" data-name="Grupo 1099635" transform="translate(26.289 21.565)">
                  <path id="Trazado_874349" data-name="Trazado 874349" d="M709.36,647.055a76.646,76.646,0,0,1-13.383,10.038c-.695-1.2-1.584-2.747-2.552-4.466-.134-.227-.264-.454-.394-.69-.255-.454-.51-.922-.769-1.394-.459-.829-.917-1.682-1.38-2.534-.107-.195-.213-.389-.32-.6l-.1-.195c-.31-.588-.625-1.177-.926-1.765-.607-1.167-1.186-2.326-1.723-3.433-.125-.273-.255-.533-.38-.8-.046-.107-.1-.2-.144-.306-.3-.658-.584-1.274-.834-1.871-.083-.208-.162-.412-.246-.611-.788-1.918-1.223-3.4-1.075-4.128.7-3.525,15.116-11.257,15.116-11.257a.087.087,0,0,0,.018.014c2.733,1.306,7.032,3.535,7.3,4.239.361.913,3.817,15.472,4.09,16.167.259.662-.685,1.987-2.293,3.581Z" transform="translate(-685.108 -623.05)" fill="#f8bf92"/>
                  <g id="Grupo_1099634" data-name="Grupo 1099634" transform="translate(1.34 9.899)">
                    <path id="Trazado_874350" data-name="Trazado 874350" d="M701.888,644.42s-.885.76-2.353,1.82a58.319,58.319,0,0,1-5.855,3.766c-1.728.968-3.419,1.76-4.846,2.386-.3-.658-.584-1.274-.834-1.871a25.7,25.7,0,0,1,4.29-3.006,26.629,26.629,0,0,1,6.643-2.576,22.811,22.811,0,0,1,2.956-.519Z" transform="translate(-688 -644.42)" fill="#b54b57"/>
                    <path id="Trazado_874351" data-name="Trazado 874351" d="M710.75,654.87a60.72,60.72,0,0,1-9.9,7.041c-1.807,1.019-3.572,1.876-5.142,2.58l-.1-.195c-.31-.588-.625-1.177-.927-1.765a45.86,45.86,0,0,1,4.758-3.108,47.21,47.21,0,0,1,11.317-4.554Z" transform="translate(-691.585 -650.029)" fill="#b54b57"/>
                    <path id="Trazado_874352" data-name="Trazado 874352" d="M711.825,670.48a27.234,27.234,0,0,1-6.888,5.971,26.77,26.77,0,0,1-3.224,1.635c-.134-.227-.264-.454-.394-.69-.255-.454-.51-.922-.769-1.394a29.941,29.941,0,0,1,2.918-2A32.656,32.656,0,0,1,711.825,670.48Z" transform="translate(-694.736 -658.408)" fill="#b54b57"/>
                  </g>
                </g>
              </g>
              <g id="Grupo_1099637" data-name="Grupo 1099637" transform="translate(0 11.712)">
                <path id="Trazado_874353" data-name="Trazado 874353" d="M479.267,601.78s11.183-.051,13.758,5.378,8.579,63.33,8.579,63.33l33.025-27.442,14.583,32.265s-39.024,44.073-53.824,43.216-34.618-23.588-34.618-23.588,9.89-87.233,18.5-93.158Z" transform="translate(-460.77 -601.78)" fill="#495445"/>
                <path id="Trazado_874354" data-name="Trazado 874354" d="M617.43,676.56l17.154,39.459,9.33-14.865L628.173,668.5Z" transform="translate(-544.859 -637.592)" fill="#f6ece5"/>
              </g>
            </g>
            <path id="Trazado_874355" data-name="Trazado 874355" d="M248.16,434.474a82.547,82.547,0,0,0,133.108,5.536,25.45,25.45,0,0,1-19.526-2.52A22.971,22.971,0,0,0,378.2,423.12a24.706,24.706,0,0,1-3.145-1.714c-11.405-7.185-16.13-22.148-19.906-35.508-4.827-16.987-11.813-33.418-30.648-36.86-16.626-3.03-34.7,2.59-42.725,18.655-4.646,9.311-5.11,20.1-8.287,30-3.2,9.886-10.942,19.855-21.337,19.822a34.023,34.023,0,0,0,2.423,4.91,34.979,34.979,0,0,0,11.979,12.109,18.918,18.918,0,0,1-18.391-.065Z" transform="translate(-179.16 -348.252)" fill="#1d1e1e"/>
            <g id="Grupo_1099639" data-name="Grupo 1099639" transform="translate(73.447 245.013)">
              <path id="Trazado_874356" data-name="Trazado 874356" d="M381.668,971.1H324.856l-4.4-18.039c0,5.476.009,11.609.018,18.039H261.41c-1.816-16.389-3.294-29.555-3.609-31.991-.811-6.342,10.4-51.086,13.327-59.378l90.379-2.571C365.153,893.049,373.983,933.708,381.668,971.1Z" transform="translate(-257.76 -877.16)" fill="#493737"/>
              <path id="Trazado_874357" data-name="Trazado 874357" d="M405.507,1029.053l2.288,9.937H397.512l-4.392-18.039,23.607-17.311Z" transform="translate(-330.415 -945.049)" fill="#493737" opacity="0.3"/>
              <path id="Trazado_874358" data-name="Trazado 874358" d="M267.9,951.034c.366,2.562,1.492,11.5,2.918,23.046h-9.4c-1.816-16.39-3.294-29.555-3.609-31.992-.811-6.342,10.4-51.086,13.327-59.378,0,0-4.526,59.151-3.238,68.328Z" transform="translate(-257.765 -880.139)" fill="#493737" opacity="0.3"/>
            </g>
            <g id="Grupo_1099644" data-name="Grupo 1099644" transform="translate(0 29.028)">
              <g id="Grupo_1099642" data-name="Grupo 1099642" transform="translate(6.073)">
                <path id="Trazado_874359" data-name="Trazado 874359" d="M119,629.655c21.156,4.665,80.368-31.853,80.368-31.853l3.206-39.1,1.506-7.634s-22.152.514-29.337,5.837c-6.856,5.091-35.41,31.209-35.41,31.209L151.256,522.5l-4.072-1.153-13.462-3.854s-35.873,107.5-14.731,112.165Z" transform="translate(-112.32 -468.119)" fill="#f3a080"/>
                <g id="Grupo_1099641" data-name="Grupo 1099641" transform="translate(21.402)">
                  <path id="Trazado_874360" data-name="Trazado 874360" d="M176.058,465.292l-4.067-1.149-13.471-3.859,2.182-6.351-1.885-4.531c-.917-3.419,6.059-35.924,8.274-36.082a14.443,14.443,0,0,1,1.9,0c.987.042,1.9.176,2.511.259.463.079.741.116.741.116a23.99,23.99,0,0,1,2.515-.839,13.138,13.138,0,0,1,2.515-.519,2.43,2.43,0,0,1,1.987.468c.394.417.662,2.5.82,5.267.463,6.81.473,17.65,1.14,17.2.922-.644,6.833-23.857,6.833-23.857a4.583,4.583,0,0,1,1.631-.472,4.5,4.5,0,0,1,2.057.2c2.048.667-1.825,35.146-1.825,35.146a24.521,24.521,0,0,1,14.9-6.4c.051.009.1,0,.148,0h.023a1.613,1.613,0,0,1,.366,0,1.53,1.53,0,0,1,.672.208.812.812,0,0,1,.246.241,1.786,1.786,0,0,1,.158.681,6.873,6.873,0,0,1-2.641,5.082,49.921,49.921,0,0,1-4.827,3.312c-3.113,2.159-5.193,5.318-7.25,8.473a8.961,8.961,0,0,1-3.539,2.923c-4.72,2.381-11.461,2.363-11.461,2.363v.023a.055.055,0,0,1,0,.051c-.1.246-.315,1.042-.649,2.02Z" transform="translate(-158.52 -410.914)" fill="#f3a080"/>
                  <path id="Trazado_874361" data-name="Trazado 874361" d="M181.765,487.579a9.355,9.355,0,0,1,.834-9.927,9.2,9.2,0,0,1,8.88-3.345C186.5,477.583,181.839,480.686,181.765,487.579Z" transform="translate(-170.434 -444.842)" fill="#ea7c6f"/>
                  <g id="Grupo_1099640" data-name="Grupo 1099640" transform="translate(10.196 1.43)">
                    <path id="Trazado_874362" data-name="Trazado 874362" d="M193.161,414.5c-.074.616-.144,1.251-.19,1.89a53.3,53.3,0,0,0,.139,9.622c.246,2.3.547,3.775.584,3.951.037-.171.334-1.644.686-3.919.38-2.432.834-5.767,1.121-9.45.069-.889.12-1.756.171-2.594a12.4,12.4,0,0,0-2.515.5Z" transform="translate(-187.124 -414)" fill="#b54b57"/>
                    <path id="Trazado_874363" data-name="Trazado 874363" d="M180.794,416.11a56.966,56.966,0,0,0,.009,11.122,56.255,56.255,0,0,0,2.511-10.863c-.616-.083-1.543-.2-2.525-.259Z" transform="translate(-180.53 -415.133)" fill="#b54b57"/>
                  </g>
                  <path id="Trazado_874364" data-name="Trazado 874364" d="M191.667,498.876l-4.067-1.149c.014-.028.032-.056.023-.079.162-.51.324-1.024.533-1.524a4.8,4.8,0,0,1,.741-1.075,5.737,5.737,0,0,1,3.257-1.283c3.771-.635,7.755-.968,11.044-2.942,3.887-2.326,6.2-6.573,9.612-9.58,2.451-2.177,5.55-3.826,7.213-6.666.185-.347.366-.718.565-1.093a2.427,2.427,0,0,1,.366.009,1.529,1.529,0,0,1,.672.208.812.812,0,0,1,.246.241,1.787,1.787,0,0,1,.157.681,6.873,6.873,0,0,1-2.64,5.082,49.928,49.928,0,0,1-4.827,3.312c-3.113,2.159-5.193,5.318-7.25,8.473a8.961,8.961,0,0,1-3.539,2.923c-4.716,2.4-11.456,2.386-11.456,2.386a.086.086,0,0,1-.009.051c-.1.246-.315,1.042-.649,2.02Z" transform="translate(-174.129 -444.498)" fill="#f8bf92"/>
                </g>
                <path id="Trazado_874365" data-name="Trazado 874365" d="M155.785,602.268s43.123-35.707,46.417-37.157c2.455-1.089,16.644-1.7,23.695-1.946l1.506-7.634s-22.152.514-29.337,5.837c-6.856,5.091-35.41,31.209-35.41,31.209l11.928-65.614-4.072-1.153L155.78,602.263Z" transform="translate(-135.648 -472.585)" fill="#f8bf92"/>
              </g>
              <g id="Grupo_1099643" data-name="Grupo 1099643" transform="translate(0 50.519)">
                <path id="Trazado_874366" data-name="Trazado 874366" d="M199.071,633.122S180.7,639.408,159.8,644.935c-26.1,6.912-56.154,12.628-59.369,3.46-5.791-16.51,10.937-93.825,10.937-93.825h34.071l-2.418,12.568-6.05,31.44s33.58-27.6,37.629-27.609,22.444,0,22.444,0l2.034,62.153Z" transform="translate(-99.21 -538.542)" fill="#495445"/>
                <path id="Trazado_874367" data-name="Trazado 874367" d="M159.8,644.935c-26.1,6.912-56.154,12.628-59.369,3.46-5.791-16.51,10.937-93.825,10.937-93.825h34.071l-2.418,12.568-25.965,2.325s-12.577,58.609-6.268,71.094c3.91,7.741,29.847,6.467,49.011,4.378Z" transform="translate(-99.21 -538.542)" fill="#495445" opacity="0.2"/>
                <path id="Trazado_874368" data-name="Trazado 874368" d="M119.92,536l38.926,1.362,2.909-9.376-40.117-8.014Z" transform="translate(-110.326 -519.97)" fill="#f6ece5"/>
              </g>
            </g>
            <g id="Grupo_1099645" data-name="Grupo 1099645" transform="translate(84.648 110.482)">
              <path id="Trazado_874369" data-name="Trazado 874369" d="M390.658,643.113c-2.024,14.485-13.666,30.009-13.666,30.009l1.737,37.347-4.243,10.812-90.379,2.571-2.168-16.464,5.235-17.3,3.938-13.008-1.473-87.7,12.281-2.636,60.106,2.39,21.249,4.577-3.289,12.693a145.808,145.808,0,0,1,6.93,16.158c2.492,7.027,4.526,14.921,3.738,20.549Z" transform="translate(-281.94 -586.75)" fill="#495445"/>
              <path id="Trazado_874370" data-name="Trazado 874370" d="M390.658,684.615c-2.024,14.486-13.666,30.009-13.666,30.009l1.737,37.347-4.243,10.812-90.379,2.571L281.94,748.89l5.235-17.3c75.147,22.444,94.738-38.861,99.745-67.522,2.492,7.027,4.526,14.921,3.738,20.549Z" transform="translate(-281.94 -628.252)" fill="#495445" opacity="0.2"/>
              <path id="Trazado_874371" data-name="Trazado 874371" d="M300.64,605.746s.079,55.422.269,66.563,3.122-22.578,2.9-33.279.227-39.83-3.159-33.279Z" transform="translate(-291.977 -596.439)" fill="#414a3d"/>
              <path id="Trazado_874372" data-name="Trazado 874372" d="M391.123,731.886s-15.607,4.975-30.338-2.446c0,0-18.122,10.3-33.585,2.038,0,0,4.405,9.5,11.632,9.955s21.847-3.761,21.847-3.761,6.008,3.91,12.554,3.761S388.019,738.742,391.123,731.886Z" transform="translate(-306.234 -663.34)" fill="#495445" opacity="0.3"/>
            </g>
            <g id="Grupo_1099660" data-name="Grupo 1099660" transform="translate(72.989 0)">
              <g id="Grupo_1099646" data-name="Grupo 1099646" transform="translate(31.644 79.547)">
                <path id="Trazado_874373" data-name="Trazado 874373" d="M343.327,567.91l-18.247,8.728,14.8,24.2,17.9-16.779,9.13,17.043,18.284-22.083-15.5-10.641Z" transform="translate(-325.08 -545.702)" fill="#f6ece5"/>
                <path id="Trazado_874374" data-name="Trazado 874374" d="M387.885,535.845a23.412,23.412,0,0,1-14.365-3.127c.607-5.767.987-12.748.987-12.748l19.512,1.357a100.759,100.759,0,0,0-.537,12.007,10.823,10.823,0,0,1-5.6,2.511Z" transform="translate(-351.081 -519.97)" fill="#ea7c6f"/>
                <path id="Trazado_874375" data-name="Trazado 874375" d="M385.91,562.851c2.145-1.385,3.428-3.544,4.929-5.429-.028-.028-.06-.056-.088-.079-1.478-1.362-2.006-5.193-2.117-9.237a10.823,10.823,0,0,1-5.6,2.511,23.411,23.411,0,0,1-14.365-3.127,37.579,37.579,0,0,1-1.149,6.967c-.236.616-1.371,1.487-3.043,2.492,3.243,3.687,6.8,6.99,11.234,8.348,3.363,1.093,6.9-.38,10.2-2.441Z" transform="translate(-346.228 -534.742)" fill="#f3a080"/>
              </g>
              <g id="Grupo_1099659" data-name="Grupo 1099659">
                <g id="Grupo_1099653" data-name="Grupo 1099653" transform="translate(30.743 14.745)">
                  <g id="Grupo_1099647" data-name="Grupo 1099647" transform="translate(0 34.255)">
                    <path id="Trazado_874376" data-name="Trazado 874376" d="M333.861,475.338c-3.97-.19-7-3.02-8.667-5.434a12.394,12.394,0,0,1-.913-1.533c-1.26-2.539-2.048-11.535.75-13.777,1.96-1.57,3.553.482,4.331,1.853v0a9.984,9.984,0,0,1,.514,1.042l3.988,17.844Z" transform="translate(-323.135 -454.028)" fill="#f8bf92"/>
                    <path id="Trazado_874377" data-name="Trazado 874377" d="M334.473,476.291c-3.97-.19-7-3.02-8.667-5.434-.148-.246-.273-.482-.384-.709-1.26-2.539-2.048-11.535.75-13.777,1.589-1.274,2.932-.171,3.8,1.024v0a9.99,9.99,0,0,1,.514,1.042l3.988,17.844Z" transform="translate(-323.747 -454.981)" fill="#f3a080"/>
                    <path id="Trazado_874378" data-name="Trazado 874378" d="M326,468.847a4.919,4.919,0,0,0,.245,2.177c.95,2.983,3.447,5.17,5.832,7.194a9.359,9.359,0,0,1-1.042-4.693c.019-.565.088-1.126.06-1.691-.1-2.27-4.456-7.291-5.1-2.983Z" transform="translate(-324.65 -461.078)" fill="#ea7c6f"/>
                    <path id="Trazado_874379" data-name="Trazado 874379" d="M333.914,478.932s-.046-.028-.134-.088-.222-.134-.38-.259a5.736,5.736,0,0,1-1.191-1.232A6.549,6.549,0,0,1,331.162,475a6.23,6.23,0,0,1,.125-3.192,4.269,4.269,0,0,1,.144-.408l.042-.1c.009-.023,0-.009,0-.014h0s0,0-.009-.014l-.042-.083-.088-.167c-.06-.111-.116-.222-.176-.329a13.8,13.8,0,0,0-.75-1.209c-.259-.375-.523-.718-.788-1.028a7.827,7.827,0,0,0-.764-.815,1.464,1.464,0,0,0-.76-.375.965.965,0,0,0-.621.162.7.7,0,0,0-.264.333.892.892,0,0,0-.032.153.48.48,0,0,1,0-.162.722.722,0,0,1,.213-.422,1.129,1.129,0,0,1,.7-.324,1.7,1.7,0,0,1,1,.306,6.874,6.874,0,0,1,.926.76,10.215,10.215,0,0,1,.926,1,10.583,10.583,0,0,1,.876,1.232c.069.111.134.227.2.343l.1.176.13.25.088.176c-.019.06-.046.12-.069.185l-.1.264a3.177,3.177,0,0,0-.125.352,6.617,6.617,0,0,0-.222,2.826,7.25,7.25,0,0,0,.718,2.261,6.676,6.676,0,0,0,.931,1.348c.13.148.246.25.32.324s.111.116.111.116Z" transform="translate(-325.304 -460.994)" fill="#b54b57"/>
                  </g>
                  <g id="Grupo_1099648" data-name="Grupo 1099648" transform="translate(56.425 31.253)">
                    <path id="Trazado_874380" data-name="Trazado 874380" d="M444.955,469.511c3.933-.6,6.657-3.72,8.065-6.291a12.142,12.142,0,0,0,.75-1.617c1-2.654.857-11.683-2.154-13.629-2.112-1.362-3.484.843-4.118,2.284v0a9.89,9.89,0,0,0-.408,1.089l-2.14,18.159Z" transform="translate(-444.945 -447.548)" fill="#f8bf92"/>
                    <path id="Trazado_874381" data-name="Trazado 874381" d="M444.949,470.525c3.933-.6,6.657-3.72,8.065-6.291.12-.259.222-.51.31-.746,1-2.654.857-11.683-2.159-13.624-1.709-1.1-2.937.13-3.678,1.408v0a9.884,9.884,0,0,0-.408,1.089l-2.14,18.159Z" transform="translate(-444.94 -448.562)" fill="#f3a080"/>
                    <path id="Trazado_874382" data-name="Trazado 874382" d="M456.221,462.013a4.863,4.863,0,0,1-.023,2.191c-.639,3.067-2.9,5.494-5.068,7.755a9.325,9.325,0,0,0,.556-4.776c-.079-.56-.2-1.112-.236-1.672-.134-2.265,3.687-7.708,4.767-3.493Z" transform="translate(-448.263 -454.48)" fill="#ea7c6f"/>
                    <path id="Trazado_874383" data-name="Trazado 874383" d="M448.76,472.842l.125-.1c.079-.07.208-.158.352-.3a5.75,5.75,0,0,0,1.056-1.348,6.521,6.521,0,0,0,.8-2.451,6.3,6.3,0,0,0-.449-3.159,2.993,2.993,0,0,0-.185-.389l-.051-.093c-.014-.023,0-.009,0-.009h0s0,0,0-.014l.032-.088.069-.176c.046-.116.093-.232.144-.343.195-.454.4-.88.621-1.279s.449-.769.676-1.107a8.066,8.066,0,0,1,.676-.889,1.425,1.425,0,0,1,.718-.449.944.944,0,0,1,.635.1.7.7,0,0,1,.3.306.556.556,0,0,1,.046.148.479.479,0,0,0-.014-.162.749.749,0,0,0-.255-.4,1.117,1.117,0,0,0-.732-.25,1.722,1.722,0,0,0-.959.4,7.013,7.013,0,0,0-.848.852,10.579,10.579,0,0,0-.82,1.089,11.465,11.465,0,0,0-.746,1.316l-.167.361-.079.185-.1.259-.069.185c.023.06.06.116.088.176l.13.25a2.239,2.239,0,0,1,.158.338,6.644,6.644,0,0,1,.514,2.789,7.14,7.14,0,0,1-.486,2.326,6.5,6.5,0,0,1-.787,1.436c-.116.162-.218.273-.283.357s-.1.125-.1.125Z" transform="translate(-446.99 -454.446)" fill="#b54b57"/>
                  </g>
                  <path id="Trazado_874384" data-name="Trazado 874384" d="M388.672,413.49s.185,17.552-4.123,24.288c-3.613,5.642-8.686,14.592-17.362,18a8.415,8.415,0,0,1-5.323.273c-8.978-2.5-14.944-10.882-19.113-16.125-4.98-6.258-6.592-23.741-6.592-23.741-.1-1.163-.167-2.284-.2-3.372v-.032c-1.177-33.187,24.682-32.691,24.682-32.691s25.39-1.07,27.929,31.686c.046.565.083,1.135.111,1.719Z" transform="translate(-329.995 -380.081)" fill="#f8bf92"/>
                  <path id="Trazado_874385" data-name="Trazado 874385" d="M388.561,411.771c0,2.807-.227,17.738-4.123,23.829-3.613,5.642-8.686,14.592-17.362,18a8.416,8.416,0,0,1-5.323.273c-8.978-2.5-14.944-10.882-19.113-16.125-4.98-6.258-6.592-23.741-6.592-23.741-.037-.4-.065-.8-.093-1.2v-.032c-1.177-33.187,24.682-32.691,24.682-32.691s25.39-1.07,27.929,31.686Z" transform="translate(-329.995 -380.081)" fill="#f3a080"/>
                  <g id="Grupo_1099651" data-name="Grupo 1099651" transform="translate(11.505 30.467)">
                    <g id="Grupo_1099649" data-name="Grupo 1099649" transform="translate(0 1.872)">
                      <path id="Trazado_874386" data-name="Trazado 874386" d="M352.47,449.89a5.674,5.674,0,0,0,2.914,2.279,2.385,2.385,0,0,1,1.746-1c1.7-.074,3.173,2.075,3.294,4.808s-1.163,5-2.863,5.077-3.173-2.075-3.294-4.808a7.388,7.388,0,0,1,.264-2.353C353.183,452.808,352.47,449.89,352.47,449.89Z" transform="translate(-350.385 -449.89)" fill="#1d1e1e"/>
                      <path id="Trazado_874387" data-name="Trazado 874387" d="M355.113,461.969a6.343,6.343,0,0,1-7.143-1.663,6.343,6.343,0,0,1,7.143,1.663Z" transform="translate(-347.97 -455.238)" fill="#fef1e8"/>
                    </g>
                    <g id="Grupo_1099650" data-name="Grupo 1099650" transform="translate(31.218)">
                      <path id="Trazado_874388" data-name="Trazado 874388" d="M422.66,445.85A5.653,5.653,0,0,1,420,448.412a2.392,2.392,0,0,0-1.839-.815c-1.7.1-2.946,2.39-2.784,5.119s1.668,4.859,3.368,4.758,2.946-2.39,2.784-5.119a7.447,7.447,0,0,0-.5-2.312c1.228-1.214,1.64-4.192,1.64-4.192Z" transform="translate(-415.359 -445.85)" fill="#1d1e1e"/>
                      <path id="Trazado_874389" data-name="Trazado 874389" d="M421.75,458.4a6.345,6.345,0,0,0,6.939-2.386,6.345,6.345,0,0,0-6.939,2.386Z" transform="translate(-418.79 -451.183)" fill="#fef1e8"/>
                    </g>
                  </g>
                  <path id="Trazado_874390" data-name="Trazado 874390" d="M388.338,485.75a3.7,3.7,0,0,1,3.252,1.922.69.69,0,0,1,.107.472c-.056.241-.32.361-.556.445a12.413,12.413,0,0,1-5.156.63c-3.136-.278.811-3.447,2.349-3.47Z" transform="translate(-356.238 -436.799)" fill="#ea7c6f"/>
                  <path id="Trazado_874391" data-name="Trazado 874391" d="M388.13,476.782s0-.19,0-.523c0-.167.014-.371.009-.6s.014-.5,0-.788,0-.607-.009-.945-.023-.695-.028-1.07c-.032-.75-.074-1.561-.13-2.413s-.13-1.663-.2-2.409c-.046-.371-.074-.727-.12-1.061s-.079-.648-.12-.936-.079-.547-.111-.778-.065-.431-.093-.6c-.056-.329-.079-.519-.079-.519s.116.148.31.422a5.527,5.527,0,0,1,.338.514c.125.2.269.44.4.709a9.689,9.689,0,0,1,.417.9c.144.329.264.69.389,1.075a11.85,11.85,0,0,1,.477,2.571,12.251,12.251,0,0,1-.12,2.613,11.226,11.226,0,0,1-.236,1.116,9.293,9.293,0,0,1-.292.95c-.093.287-.208.537-.3.76s-.185.408-.264.556c-.157.3-.25.459-.25.459Z" transform="translate(-357.549 -425.2)" fill="#dd5b67"/>
                  <g id="Grupo_1099652" data-name="Grupo 1099652" transform="translate(22.683 54.417)">
                    <path id="Trazado_874392" data-name="Trazado 874392" d="M393.442,497.643s-4.669,4.456-11.016,4.48A14.627,14.627,0,0,1,372.1,497.55S381.272,502.539,393.442,497.643Z" transform="translate(-372.1 -497.55)" fill="#dd5b67"/>
                    <path id="Trazado_874393" data-name="Trazado 874393" d="M393.531,509.551a10.1,10.1,0,0,1-6.272,2.552,8.323,8.323,0,0,1-5.879-2.6A15.035,15.035,0,0,0,393.531,509.551Z" transform="translate(-377.081 -503.964)" fill="#ea7c6f"/>
                  </g>
                </g>
                <g id="Grupo_1099658" data-name="Grupo 1099658">
                  <g id="Grupo_1099655" data-name="Grupo 1099655" transform="translate(36.054 36.211)">
                    <path id="Trazado_874394" data-name="Trazado 874394" d="M445.61,453.839s.046-.4.144-1.1c.023-.176.056-.371.083-.584s.056-.445.083-.695c.06-.5.144-1.056.2-1.682q.056-.466.111-.973c.037-.338.065-.69.1-1.052.083-.723.13-1.5.208-2.307.12-1.626.227-3.4.315-5.258s.116-3.641.134-5.276c0-.815.009-1.594-.009-2.325,0-.366,0-.723-.014-1.061s-.018-.672-.028-.982c0-.63-.046-1.2-.06-1.7-.009-.255-.019-.491-.023-.7s-.023-.417-.037-.593c-.037-.713-.046-1.121-.046-1.121s.157.357.417,1.019c.065.167.134.352.213.551s.148.426.227.667c.157.482.347,1.033.5,1.658.083.31.167.639.255.977s.157.7.236,1.075c.167.746.283,1.552.408,2.409a34.518,34.518,0,0,1,.25,5.605,34.144,34.144,0,0,1-.723,5.531c-.195.829-.38,1.612-.607,2.325-.111.357-.208.7-.324,1.028s-.232.635-.338.931c-.208.593-.445,1.112-.644,1.561-.1.227-.19.435-.283.625s-.181.361-.259.514c-.315.616-.5.945-.5.945Z" transform="translate(-394.186 -426.42)" fill="#1d1e1e"/>
                    <path id="Trazado_874395" data-name="Trazado 874395" d="M340.048,470.626s-.185-.338-.5-.964-.741-1.538-1.228-2.7-1.01-2.562-1.51-4.16a49.265,49.265,0,0,1-1.334-5.295,51.612,51.612,0,0,1-.727-5.448c-.13-1.691-.167-3.215-.148-4.5s.07-2.321.125-3.034.1-1.112.1-1.112.107.385.278,1.075.412,1.686.7,2.914.616,2.678.964,4.285.718,3.372,1.075,5.23.672,3.632.94,5.262.5,3.1.69,4.354.329,2.27.431,2.979.139,1.107.139,1.107Z" transform="translate(-334.6 -435.545)" fill="#1d1e1e"/>
                    <g id="Grupo_1099654" data-name="Grupo 1099654" transform="translate(0.353 20.06)">
                      <path id="Trazado_874396" data-name="Trazado 874396" d="M348.175,480.6c-.371,1.172-3.535,1.214-7.06.1s-6.087-2.974-5.716-4.146,3.53-1.214,7.06-.1S348.546,479.425,348.175,480.6Z" transform="translate(-335.363 -472.9)" fill="#ea7c6f"/>
                      <path id="Trazado_874397" data-name="Trazado 874397" d="M438.742,470.352c.528,1.107-1.746,3.3-5.086,4.9s-6.476,1.992-7,.885,1.746-3.3,5.086-4.9S438.214,469.245,438.742,470.352Z" transform="translate(-384.322 -469.724)" fill="#ea7c6f"/>
                    </g>
                  </g>
                  <g id="Grupo_1099657" data-name="Grupo 1099657">
                    <path id="Trazado_874398" data-name="Trazado 874398" d="M314.9,391.817c.065,1.005.162,2.006.31,3.006.116.968.264,1.913.431,2.877.5,2.872,1.214,5.74,1.936,8.533a45.329,45.329,0,0,0,14.93-24.209,46.094,46.094,0,0,0,1.357-10.673c2.96,4.971,5.948,7.787,9.742,9.719,3.145,1.645,6.865,2.678,11.549,3.877-.968-1.547-1.922-3.076-2.877-4.637-.246-.361-.473-.718-.686-1.084.422.315.876.667,1.39,1.033,9.385,6.837,29.485,18.7,29.485,18.7s-.334-5.035-.968-10.942c-.361-3.359-.825-6.972-1.408-10.108a43.334,43.334,0,0,0-1.348-5.591,32.55,32.55,0,0,0-1.626-4.007c-.158-.347-.334-.69-.5-1.019-.139-.292-.31-.57-.463-.843a.424.424,0,0,0-.074-.12,13.163,13.163,0,0,0-.727-1.255c-.134-.222-.25-.449-.4-.672-.324-.5-.662-1-1-1.473-.375-.533-.769-1.042-1.2-1.552a23.183,23.183,0,0,0-1.635-1.834c-.148-.171-.315-.338-.482-.51-.241-.255-.519-.5-.792-.76-.482-.454-1.01-.889-1.561-1.325-.5-.384-.968-.75-1.5-1.1a1.664,1.664,0,0,0-.31-.2c-.019-.019-.056-.032-.074-.051-.51-.329-1-.644-1.524-.94a29.962,29.962,0,0,0-10.52-3.4,27.108,27.108,0,0,0-15.435,2.39,19.48,19.48,0,0,0-3.414,2.237c-.273.222-.547.431-.815.672a9.294,9.294,0,0,0-.764.723,6.036,6.036,0,0,0-.491.482,7.158,7.158,0,0,0-.607.644c-.25.3-.486.551-.723.862l-.75.987a8.633,8.633,0,0,0-.6.838c-1.853,3.581-2.1,4.262-2.284,4.943a22.612,22.612,0,0,0-7.722,5.735c-.1.13-.218.259-.32.385a10.812,10.812,0,0,0-.9,1.116,16.6,16.6,0,0,0-1.093,1.6c-.347.547-.658,1.126-.95,1.686a23.846,23.846,0,0,0-2.247,6.953A32.379,32.379,0,0,0,314.9,391.817Z" transform="translate(-287.905 -349.746)" fill="#1d1e1e"/>
                    <g id="Grupo_1099656" data-name="Grupo 1099656">
                      <path id="Trazado_874399" data-name="Trazado 874399" d="M256.77,417.52a34.022,34.022,0,0,0,2.423,4.91c9.209-4.744,17.02-12.406,22.935-21.008,8.255-11.961,13.346-25.789,18.354-39.431a40.786,40.786,0,0,0,21.948,8.287,13.728,13.728,0,0,1-2.256-9.08,109.6,109.6,0,0,0,26.02,26.743c.232-2.5.477-5.008.709-7.528a47.136,47.136,0,0,0,32.774,40.992c-9.589-6.05-14.453-17.58-18.011-29.031-.676-2.177-1.3-4.35-1.895-6.476-4.827-16.987-11.813-33.418-30.648-36.86-16.626-3.03-34.7,2.589-42.725,18.655a54.713,54.713,0,0,0-4.118,12.211c-1.385,5.916-2.307,12.012-4.169,17.8-3.2,9.886-10.942,19.855-21.337,19.822Z" transform="translate(-256.77 -348.252)" fill="#444"/>
                      <path id="Trazado_874400" data-name="Trazado 874400" d="M311.83,379.9a67.217,67.217,0,0,0,17.761-25.01q9.242,2.321,18.47,4.628c.528-2.654,1.038-5.323,1.566-7.977a103.379,103.379,0,0,0,26.233,22.889q.347-3.46.69-6.921a79.087,79.087,0,0,0,14.666,24.867c-.676-2.177-1.3-4.35-1.895-6.476-4.827-16.987-11.813-33.418-30.648-36.86-16.626-3.03-34.7,2.589-42.725,18.655A54.712,54.712,0,0,0,311.83,379.9Z" transform="translate(-286.324 -348.252)" fill="#595959"/>
                    </g>
                    <path id="Trazado_874401" data-name="Trazado 874401" d="M338.27,432.045s13.378-5.077,16.593-1.186c1.881,2.275-.269,2.923-.269,2.923Z" transform="translate(-300.516 -391.804)" fill="#444"/>
                    <path id="Trazado_874402" data-name="Trazado 874402" d="M423.68,427.4s-13.828-3.678-16.63.523c-1.635,2.451.565,2.877.565,2.877l16.061-3.4Z" transform="translate(-337.109 -389.937)" fill="#444"/>
                  </g>
                </g>
              </g>
            </g>
          </g>
          <g id="Grupo_1099684" data-name="Grupo 1099684" transform="translate(240.071 166.345)">
            <g id="Grupo_1099663" data-name="Grupo 1099663">
              <rect id="Rectángulo_401414" data-name="Rectángulo 401414" width="133.099" height="107.773" fill="#f6ece5"/>
              <rect id="Rectángulo_401415" data-name="Rectángulo 401415" width="133.099" height="14.824" fill="#6b44af"/>
              <g id="Grupo_1099662" data-name="Grupo 1099662" transform="translate(7.759 5.332)">
                <path id="Trazado_874403" data-name="Trazado 874403" d="M639.425,721.463a2.613,2.613,0,1,1-2.613-2.613A2.613,2.613,0,0,1,639.425,721.463Z" transform="translate(-634.2 -718.85)" fill="#f6ece5"/>
                <path id="Trazado_874404" data-name="Trazado 874404" d="M661.075,721.463a2.613,2.613,0,1,1-2.613-2.613A2.613,2.613,0,0,1,661.075,721.463Z" transform="translate(-645.821 -718.85)" fill="#f6ece5"/>
                <path id="Trazado_874405" data-name="Trazado 874405" d="M682.725,721.463a2.613,2.613,0,1,1-2.613-2.613A2.613,2.613,0,0,1,682.725,721.463Z" transform="translate(-657.442 -718.85)" fill="#f6ece5"/>
              </g>
            </g>
            <g id="Grupo_1099682" data-name="Grupo 1099682" transform="translate(4.361 15.687)">
              <g id="Grupo_1099669" data-name="Grupo 1099669" transform="translate(0 42.318)">
                <g id="Grupo_1099668" data-name="Grupo 1099668" transform="translate(0 9.686)">
                  <g id="Grupo_1099667" data-name="Grupo 1099667">
                    <path id="Trazado_874406" data-name="Trazado 874406" d="M642.2,898.893l1.9-.843,3.057-1.367.551-.25.913-.4h0l.338.662a.662.662,0,0,1,.046.083l.139.264,1.014,1.946-7.217,2.349c-.459-1.5-.746-2.437-.746-2.437Z" transform="translate(-635.096 -876.312)" fill="#f3a080"/>
                    <path id="Trazado_874407" data-name="Trazado 874407" d="M642.2,901.233l1.9-.843.718.287s.264.839.681,2.168l-2.552.829c-.459-1.5-.746-2.437-.746-2.437Z" transform="translate(-635.096 -878.652)" fill="#ea7c6f"/>
                    <path id="Trazado_874408" data-name="Trazado 874408" d="M653.215,897.281l.4-.848.913-.4h0l.338.662a.648.648,0,0,1,.046.083l.139.264,1.015,1.946-1.9.616c-.584-1.417-.959-2.321-.959-2.321Z" transform="translate(-641.006 -876.312)" fill="#f8bf92"/>
                    <g id="Grupo_1099666" data-name="Grupo 1099666">
                      <g id="Grupo_1099665" data-name="Grupo 1099665">
                        <path id="Trazado_874409" data-name="Trazado 874409" d="M640.389,873.187s.1.338.227.8l-6.258,2.335-1-2.756-1.547-1.052c-1.005-.9-5.55-12.7-4.878-13.216a5.628,5.628,0,0,1,.6-.394c.324-.185.649-.338.862-.44.158-.074.259-.111.259-.111a8.155,8.155,0,0,1,.625-.8,4.851,4.851,0,0,1,.695-.686.936.936,0,0,1,.732-.269,5.7,5.7,0,0,1,1.357,1.505c1.561,2.075,3.822,5.526,3.938,5.244.157-.394-2.789-9.024-2.789-9.024a1.755,1.755,0,0,1,.422-.5,1.819,1.819,0,0,1,.695-.361c.792-.213,6.731,11.581,6.731,11.581a9.345,9.345,0,0,1,3.423-5.142l.046-.032a.549.549,0,0,1,.51-.12.462.462,0,0,1,.185.181,2.625,2.625,0,0,1,.222,2.163,20.038,20.038,0,0,1-.852,2.071,11.1,11.1,0,0,0-.547,4.211c-.009,2.418-3.678,4.808-3.678,4.808Z" transform="translate(-626.864 -853.464)" fill="#f3a080"/>
                        <path id="Trazado_874410" data-name="Trazado 874410" d="M633.367,877.18l-1.547-1.052c-1.005-.9-5.55-12.7-4.878-13.216a5.6,5.6,0,0,1,.6-.394c.324-.185.648-.338.862-.44.157-.074.259-.111.259-.111a8.115,8.115,0,0,1,.625-.8,4.863,4.863,0,0,1,.695-.686.937.937,0,0,1,.732-.269,5.7,5.7,0,0,1,1.357,1.505c-.32.69-.88,1.353-1.135,2.011a7.155,7.155,0,0,0-.449,3.238,11.336,11.336,0,0,0,1.987,4.966c.973,1.51,2.1,2.932,2.956,4.512a18.493,18.493,0,0,1,1.158,2.654l-2.5.964-.727-2.891Z" transform="translate(-626.87 -857.082)" fill="#ea7c6f"/>
                        <g id="Grupo_1099664" data-name="Grupo 1099664" transform="translate(0.674 3.398)">
                          <path id="Trazado_874411" data-name="Trazado 874411" d="M632.08,861.481c.107.213.213.426.333.644a20.268,20.268,0,0,0,2.048,3.034c.561.681.959,1.089,1.01,1.135-.023-.06-.236-.593-.6-1.39-.384-.852-.936-2.01-1.612-3.243q-.243-.445-.486-.862A4.819,4.819,0,0,0,632.08,861.481Z" transform="translate(-630.338 -860.8)" fill="#b54b57"/>
                          <path id="Trazado_874412" data-name="Trazado 874412" d="M628.32,864.675a20.832,20.832,0,0,0,2.321,3.539,21.379,21.379,0,0,0-1.464-3.984C628.964,864.332,628.644,864.485,628.32,864.675Z" transform="translate(-628.32 -862.641)" fill="#b54b57"/>
                        </g>
                        <path id="Trazado_874413" data-name="Trazado 874413" d="M653.071,881.8c-.009-.037-.028-.079-.037-.116a5.143,5.143,0,0,1-.148-.6,1.621,1.621,0,0,1,.014-.5,2.141,2.141,0,0,1,.764-1.084,11.874,11.874,0,0,0,2.914-3.238c.755-1.552.607-3.386,1.061-5.054.334-1.209.982-2.376.913-3.627-.009-.148-.028-.306-.046-.463a.556.556,0,0,1,.51-.12.577.577,0,0,1,.185.181,2.574,2.574,0,0,1,.218,2.163,19.958,19.958,0,0,1-.848,2.071,11.193,11.193,0,0,0-.551,4.206c0,2.423-3.674,4.813-3.674,4.813s.144.31.338.653c.014.023.032.056.046.083l.139.264-1.807.361Z" transform="translate(-640.825 -860.72)" fill="#f8bf92"/>
                      </g>
                      <path id="Trazado_874414" data-name="Trazado 874414" d="M646.422,887.931l-.1-.241a3.625,3.625,0,0,1-.19-.695,4.235,4.235,0,0,1,1.8-4.225,3.655,3.655,0,0,1,.635-.347c.153-.06.246-.093.246-.093s-.056.079-.158.208-.241.324-.4.561a12.107,12.107,0,0,0-1,1.881,11.738,11.738,0,0,0-.667,2.024c-.06.278-.107.51-.13.672s-.042.259-.042.259Z" transform="translate(-637.173 -868.958)" fill="#b54b57"/>
                    </g>
                  </g>
                  <path id="Trazado_874415" data-name="Trazado 874415" d="M650.236,895.7l10.377,20.517H644.6c-3.266-8.422-5.693-15.482-5.693-15.482l1.885-.834,2.46-1.1,2.525-1.121,1.654-.737Z" transform="translate(-633.33 -876.134)" fill="#493737"/>
                  <path id="Trazado_874416" data-name="Trazado 874416" d="M707.489,862.51,701.346,898.4H687.18c1.32-4.253,7.537-24.153,9.459-27.674,1.459-2.673,5.906-5.489,8.635-7.037C706.581,862.955,707.489,862.51,707.489,862.51Z" transform="translate(-659.239 -858.319)" fill="#493737"/>
                  <path id="Trazado_874417" data-name="Trazado 874417" d="M708.437,887.8q-2.786,11.785-4.957,23.695h-1.45q2.2-12.1,5.021-24.075C707.265,886.52,708.65,886.9,708.437,887.8Z" transform="translate(-667.21 -871.415)" fill="#493737" opacity="0.3"/>
                </g>
                <path id="Trazado_874418" data-name="Trazado 874418" d="M711.38,885.939c1.557-11.178,3.326-22.027,5.068-28.98a35.773,35.773,0,0,1,1.816-5.73,7.989,7.989,0,0,1,.389-.774,62.706,62.706,0,0,1,6.245-5.832.1.1,0,0,0,.032-.023.009.009,0,0,1,.009-.009l.037-.023a31.353,31.353,0,0,1,6.773-3.15,42.154,42.154,0,0,1,11.739-2.126,12.139,12.139,0,0,1,3.831,1.473c.431.222.862.449,1.283.686.218.116.426.236.63.352,1.181.676,2.2,1.311,2.65,1.631,6.828,4.836,8.959,21.708,9.177,39.343q.021,1.577.019,3.159H711.385Z" transform="translate(-672.229 -836.17)" fill="#493737"/>
                <path id="Trazado_874419" data-name="Trazado 874419" d="M758.574,833.335c2.353.787,4.336,2.228,4.975,4.581a7.383,7.383,0,0,1-.76,4.822,25.209,25.209,0,0,1-8.13,10.085,27.029,27.029,0,0,0-4.73-7.013,42.916,42.916,0,0,0-7.8,5.874,9.781,9.781,0,0,1-2.288-10.567c1.723-4.568,6.184-7.5,10.863-8.334A16.966,16.966,0,0,1,758.574,833.335Z" transform="translate(-687.158 -832.555)" fill="#6e825e"/>
                <path id="Trazado_874420" data-name="Trazado 874420" d="M814.038,888.531H798.983L794.818,862.9l-2.9-17.858v-.018l-.148-.908s.222.093.612.273c2.205,1.024,9.747,4.767,11.845,8.913,1.348,2.654,6.249,19.419,9.811,35.22Z" transform="translate(-715.379 -838.763)" fill="#493737"/>
                <path id="Trazado_874421" data-name="Trazado 874421" d="M799.957,901.759c-.857-6.541-1.895-13.466-1.649-20.109.023-.588.056-1.167.1-1.746a.89.89,0,0,1,1.779,0c.778,6.759.625,13.624,1.38,20.406.259,2.307.676,4.632,1.13,6.967h-2.075C800.388,905.4,800.188,903.543,799.957,901.759Z" transform="translate(-718.868 -857.508)" fill="#493737" opacity="0.3"/>
              </g>
              <g id="Grupo_1099681" data-name="Grupo 1099681" transform="translate(43.26)">
                <g id="Grupo_1099679" data-name="Grupo 1099679">
                  <g id="Grupo_1099670" data-name="Grupo 1099670" transform="translate(15.426 33.213)">
                    <path id="Trazado_874422" data-name="Trazado 874422" d="M766.122,825.13c-.269.269-12.077,9.005-12.077,9.005s.273-5.383.4-8.186c.037-.866.065-1.492.065-1.626,0-1.121-.959-5.976-.959-5.976l11.915-5.448s.19,2.455.371,5.17a60.413,60.413,0,0,1,.283,7.064Z" transform="translate(-753.55 -812.9)" fill="#f3a080"/>
                    <path id="Trazado_874423" data-name="Trazado 874423" d="M765.84,818.065c-3.308,2.4-10.6,7.662-11.331,7.87l-.065.014c.037-.866.065-1.492.065-1.626,0-1.121-.959-5.976-.959-5.976l11.915-5.448s.19,2.455.371,5.17Z" transform="translate(-753.55 -812.9)" fill="#ea7c6f"/>
                  </g>
                  <g id="Grupo_1099678" data-name="Grupo 1099678">
                    <g id="Grupo_1099673" data-name="Grupo 1099673">
                      <path id="Trazado_874424" data-name="Trazado 874424" d="M753.209,783.446a5.624,5.624,0,0,1-1.631,2.038h0c-.273.241-.588.5-.954.76-1.4,1-14.486,6.61-16.5,6.342s-3.919-7.2-4.021-7.926c-.648-4.47-2.432-18.289-2.432-18.289,4.975-15.055,22.717-7.259,24.737-5.781s.806,22.852.806,22.852Z" transform="translate(-724.233 -749.821)" fill="#f3a080"/>
                      <g id="Grupo_1099672" data-name="Grupo 1099672">
                        <path id="Trazado_874425" data-name="Trazado 874425" d="M720.264,754.089a6.972,6.972,0,0,0,1.005,3.317,6.811,6.811,0,0,0,1.76,1.95,6.145,6.145,0,0,1,3.91-4.09,15.017,15.017,0,0,1,5.8-.713,30.789,30.789,0,0,0,5.883-.13c1.941-.324,4.178-.95,5.327-2.539l4.012,2.756,1.228,11.952,2.77-2.817s.829-4.012,1.26-8.255c.417-4.072.473-8.357-.908-9.492-2.812-2.316-6.833-.222-6.833-.222-3.5-4.646-12.563-5.666-18.1-3.553a12.7,12.7,0,0,1,4.007,1.214,19.865,19.865,0,0,0-6.615,1.051,6.763,6.763,0,0,0-4.331,4.776,3.628,3.628,0,0,1,2.163-.662,7.019,7.019,0,0,0-2.353,5.466Z" transform="translate(-720.25 -741.203)" fill="#38102b"/>
                        <g id="Grupo_1099671" data-name="Grupo 1099671" transform="translate(0.001)">
                          <path id="Trazado_874426" data-name="Trazado 874426" d="M720.265,754.089a6.973,6.973,0,0,0,1.005,3.317,13.378,13.378,0,0,1,11.368-6.129c2.08.051,4.114.588,6.189.621s4.336-.6,5.494-2.321a30.587,30.587,0,0,1,5.86,3.993c-.107-.625-.218-1.251-.324-1.876a36.168,36.168,0,0,1,3.363,3.826c.153-1.468.25-2.946.259-4.308.014-2.437-.283-4.456-1.163-5.184-2.812-2.316-6.833-.222-6.833-.222-3.5-4.646-12.563-5.665-18.1-3.553a12.7,12.7,0,0,1,4.007,1.214,19.864,19.864,0,0,0-6.615,1.052,6.762,6.762,0,0,0-4.331,4.776,3.628,3.628,0,0,1,2.163-.662,6.873,6.873,0,0,0-2.02,3.122h-.009a7.05,7.05,0,0,0-.324,2.344Z" transform="translate(-720.251 -741.203)" fill="#4a0f2f"/>
                          <path id="Trazado_874427" data-name="Trazado 874427" d="M722.843,748.622a6.873,6.873,0,0,0-2.02,3.122,14.78,14.78,0,0,1,9.923-3.544c2.293.074,4.535.681,6.833.834s4.776-.232,6.42-1.825c1.612.964,3.215,1.936,4.818,2.9q-.077-.938-.167-1.862c1.691.991,3.372,1.969,5.063,2.965.014-2.437-.283-4.456-1.163-5.184-2.812-2.316-6.833-.222-6.833-.222-3.5-4.646-12.563-5.665-18.1-3.553a12.7,12.7,0,0,1,4.007,1.214,19.868,19.868,0,0,0-6.615,1.052,6.763,6.763,0,0,0-4.331,4.776,3.628,3.628,0,0,1,2.163-.663Z" transform="translate(-720.481 -741.202)" fill="#5f1234"/>
                        </g>
                      </g>
                      <path id="Trazado_874428" data-name="Trazado 874428" d="M754.4,817.235c-.273.241-.588.5-.954.76-1.4,1-14.486,6.61-16.5,6.342s-3.919-7.2-4.021-7.926c1.255,3.044,2.673,7.25,4.1,7.115,2.149-.2,15.787-5.457,17.376-6.3Z" transform="translate(-727.051 -781.571)" fill="#f8bf92"/>
                    </g>
                    <g id="Grupo_1099677" data-name="Grupo 1099677" transform="translate(3.204 15.39)">
                      <path id="Trazado_874429" data-name="Trazado 874429" d="M731.01,784.75s1.334-3.8,3-2.983,1.126,1.126,1.126,1.126Z" transform="translate(-729.229 -778.305)" fill="#4a0f2f"/>
                      <path id="Trazado_874430" data-name="Trazado 874430" d="M761.954,777.156s-6.133-4.257-7.894-2.14c-1.028,1.232-.032,1.816-.032,1.816l7.931.329Z" transform="translate(-741.351 -774.426)" fill="#4a0f2f"/>
                      <g id="Grupo_1099674" data-name="Grupo 1099674" transform="translate(2.42 7.599)">
                        <path id="Trazado_874431" data-name="Trazado 874431" d="M734.58,792.729c0,1.047.528,1.9,1.181,1.9s1.181-.848,1.181-1.9-.528-1.9-1.181-1.9S734.58,791.678,734.58,792.729Z" transform="translate(-733.566 -790.83)" fill="#1d1e1e"/>
                        <path id="Trazado_874432" data-name="Trazado 874432" d="M732.39,792.914a2.609,2.609,0,1,0,1.367.162A2.836,2.836,0,0,0,732.39,792.914Z" transform="translate(-732.39 -791.937)" fill="#fef1e8"/>
                      </g>
                      <path id="Trazado_874433" data-name="Trazado 874433" d="M731.767,804.967c-.208.551-1.4.616-2.659.144s-2.117-1.3-1.913-1.853,1.4-.616,2.659-.144S731.971,804.415,731.767,804.967Z" transform="translate(-727.165 -789.654)" fill="#ea7c6f"/>
                      <path id="Trazado_874434" data-name="Trazado 874434" d="M767.178,797.149c.213.829-1.153,1.9-3.057,2.4s-3.623.218-3.836-.611,1.154-1.9,3.057-2.4S766.965,796.32,767.178,797.149Z" transform="translate(-744.93 -786.163)" fill="#ea7c6f"/>
                      <g id="Grupo_1099675" data-name="Grupo 1099675" transform="translate(9.272 14.807)">
                        <path id="Trazado_874435" data-name="Trazado 874435" d="M762.326,818a5.516,5.516,0,0,1-4.4,1.376,2.383,2.383,0,0,0,2.335.523A3.944,3.944,0,0,0,762.326,818Z" transform="translate(-752.95 -812.622)" fill="#ea7c6f"/>
                        <path id="Trazado_874436" data-name="Trazado 874436" d="M747.18,809.364s3.78-2.432,10.923-2.974c0,0-.459,4.85-4.479,5.7S747.18,809.364,747.18,809.364Z" transform="translate(-747.18 -806.39)" fill="#fff"/>
                      </g>
                      <path id="Trazado_874437" data-name="Trazado 874437" d="M755.88,790.663a2.336,2.336,0,0,1,1.45-1.783,4.052,4.052,0,0,1,2.525-.171,6.374,6.374,0,0,1,2.256,1.089,15.871,15.871,0,0,0-3.178-.144A5.564,5.564,0,0,0,755.88,790.663Z" transform="translate(-742.578 -782.026)" fill="#1d1e1e"/>
                      <g id="Grupo_1099676" data-name="Grupo 1099676" transform="translate(7.594 5.107)">
                        <path id="Trazado_874438" data-name="Trazado 874438" d="M744.43,802.11a2.891,2.891,0,0,0,.653,1.01,8.419,8.419,0,0,0,1.279.977,3.024,3.024,0,0,0,2.2-1.844l-.347.07a6.893,6.893,0,0,1-2.65.107,5,5,0,0,1-1.13-.32Z" transform="translate(-744.026 -794.392)" fill="#ea7c6f"/>
                        <path id="Trazado_874439" data-name="Trazado 874439" d="M743.573,792.223a1.392,1.392,0,0,1,.463-.885,1.642,1.642,0,0,1,.8-.38,2.127,2.127,0,0,1,1.357.218.49.49,0,0,1,.093.055,20.948,20.948,0,0,1-.667-2.279,19.685,19.685,0,0,1-.458-3.5,18.675,18.675,0,0,1,1.1,3.359,20.82,20.82,0,0,1,.4,2.65c.009.079.009.148.014.208a2.213,2.213,0,0,0-.264-.083l-.334-.093a2.037,2.037,0,0,0-1.116.014.983.983,0,0,0-.746.806,2.472,2.472,0,0,0,.273,1.292,3.494,3.494,0,0,0,.676.954,3.312,3.312,0,0,0,.653.519,2.065,2.065,0,0,0,.273.148,2.5,2.5,0,0,1-.32-.056,3.066,3.066,0,0,1-.806-.347,3.021,3.021,0,0,1-.954-.945,2.489,2.489,0,0,1-.44-1.649Z" transform="translate(-743.558 -785.45)" fill="#dd5b67"/>
                      </g>
                    </g>
                  </g>
                </g>
                <g id="Grupo_1099680" data-name="Grupo 1099680" transform="translate(27.044 22.534)">
                  <path id="Trazado_874440" data-name="Trazado 874440" d="M778.64,801.471a8.213,8.213,0,0,0,5.707-3.15,6.8,6.8,0,0,0,.57-.848c.769-1.394.991-6.24-.991-7.361-1.39-.788-2.4.357-2.881,1.112h0a5.079,5.079,0,0,0-.315.574Z" transform="translate(-778.635 -789.847)" fill="#f8bf92"/>
                  <path id="Trazado_874441" data-name="Trazado 874441" d="M778.635,802a8.213,8.213,0,0,0,5.707-3.15,4.14,4.14,0,0,0,.236-.389c.769-1.394.991-6.24-.991-7.361a1.906,1.906,0,0,0-2.552.653h0a5.087,5.087,0,0,0-.315.574L778.63,802Z" transform="translate(-778.63 -790.378)" fill="#f3a080"/>
                  <path id="Trazado_874442" data-name="Trazado 874442" d="M786.982,797.712a2.072,2.072,0,0,1-.093,1.172c-.542,1.626-2.163,2.863-3.72,4.016a4.1,4.1,0,0,0,.547-2.543c-.032-.3-.1-.6-.1-.9-.014-1.218,2.78-4.03,3.363-1.742Z" transform="translate(-781.067 -793.602)" fill="#ea7c6f"/>
                  <path id="Trazado_874443" data-name="Trazado 874443" d="M781.489,803.341l.088-.051c.056-.032.148-.079.25-.148a3.476,3.476,0,0,0,.764-.69,3.136,3.136,0,0,0,.63-1.288,2.681,2.681,0,0,0-.195-1.7,1.333,1.333,0,0,0-.111-.213l-.032-.051v0h0v-.009l.028-.046.051-.093c.037-.06.069-.12.107-.181a7.37,7.37,0,0,1,.468-.667c.162-.208.333-.4.5-.574a4.415,4.415,0,0,1,.491-.459,1.132,1.132,0,0,1,.505-.222.8.8,0,0,1,.426.069.412.412,0,0,1,.19.171.342.342,0,0,1,.028.083.182.182,0,0,0,0-.088.385.385,0,0,0-.162-.222.856.856,0,0,0-.491-.153,1.39,1.39,0,0,0-.667.19,4.338,4.338,0,0,0-.607.435,6.667,6.667,0,0,0-.6.561,5.844,5.844,0,0,0-.551.686c-.042.06-.083.125-.125.19l-.06.1-.079.139-.056.1a1.057,1.057,0,0,0,.056.1l.079.139a1.393,1.393,0,0,1,.1.185,2.849,2.849,0,0,1,.25,1.51,3.2,3.2,0,0,1-.412,1.232,3.551,3.551,0,0,1-.588.75c-.083.083-.157.139-.2.181s-.074.065-.074.065Z" transform="translate(-780.16 -793.579)" fill="#b54b57"/>
                </g>
              </g>
            </g>
          </g>
          <g id="Grupo_1099687" data-name="Grupo 1099687" transform="translate(335.861 202.772)">
            <g id="Grupo_1099687-2" data-name="Grupo 1099687" clip-path="url(#clip-path)">
              <path id="Trazado_874444" data-name="Trazado 874444" d="M70.554,127.96H1.4a1.4,1.4,0,0,1,0-2.808h69.15a1.4,1.4,0,1,1,0,2.808" transform="translate(0 -107.537)" fill="#8746f8"/>
              <path id="Trazado_874445" data-name="Trazado 874445" d="M70.554,174.32H1.4a1.4,1.4,0,0,1,0-2.808h69.15a1.4,1.4,0,1,1,0,2.808" transform="translate(0 -147.372)" fill="#8746f8"/>
              <path id="Trazado_874446" data-name="Trazado 874446" d="M70.554,220.679H1.4a1.4,1.4,0,0,1,0-2.808h69.15a1.4,1.4,0,1,1,0,2.808" transform="translate(0 -187.206)" fill="#8746f8"/>
              <path id="Trazado_874447" data-name="Trazado 874447" d="M58.643,0l1.442,2.922,3.224.468L60.976,5.664l.551,3.211L58.643,7.359,55.759,8.876l.551-3.211L53.977,3.39,57.2,2.922Z" transform="translate(-46.38 0)" fill="#8746f8"/>
              <path id="Trazado_874448" data-name="Trazado 874448" d="M142.556,0,144,2.922l3.224.468L144.89,5.664l.551,3.211-2.884-1.516-2.884,1.516.551-3.211L137.89,3.39l3.224-.468Z" transform="translate(-118.482 0)" fill="#8746f8"/>
              <path id="Trazado_874449" data-name="Trazado 874449" d="M226.471,0l1.442,2.922,3.224.468L228.8,5.664l.551,3.211-2.884-1.516-2.884,1.516.551-3.211L221.8,3.39l3.224-.468Z" transform="translate(-190.585 0)" fill="#8746f8"/>
              <path id="Trazado_874450" data-name="Trazado 874450" d="M310.384,0l1.442,2.922,3.224.468-2.333,2.274.551,3.211-2.884-1.516L307.5,8.876l.551-3.211L305.718,3.39l3.224-.468Z" transform="translate(-262.688 0)" fill="#8746f8"/>
              <path id="Trazado_874451" data-name="Trazado 874451" d="M395.631,0l1.442,2.922,3.224.468-2.333,2.274.551,3.211-2.884-1.516-2.884,1.516.551-3.211L390.965,3.39l3.224-.468Z" transform="translate(-335.937 0)" fill="#8746f8"/>
            </g>
          </g>
        </g>
      </g>
    </g>
  </g>
</svg>
