<svg xmlns="http://www.w3.org/2000/svg" xmlns:xlink="http://www.w3.org/1999/xlink" width="295" height="303.402" viewBox="0 0 295 303.402">
  <defs>
    <clipPath id="clip-path">
      <path id="Trazado_180078" data-name="Trazado 180078" d="M148.939-15.869S154.976-5.778,155.7,2.75c.481,5.7-5.116,10.257-2.077,11.588A112.476,112.476,0,1,1,11.461,174.346c-1.157-1.96-2.687-.7-4.8,0-3.157,1.031-7.326-9.032-9.888-11.96-7.049-8.055-6.649-8.6-7.018-22.8-.015-.572-13.324-21.479-13.324-22.23V86.72s9.975-14.634,20.342-24.259C-1.1,60.49,36.543,30.885,39.084,28.878c2.334-1.844,4.983-3.763,7.716-5.569,2.685-1.775.583-7.348,3.6-8.971,6.93-3.73-7.564-13.886,0-23.747,3.815-4.975-26.583-11.807-18.2-20.614,3.052-3.208,17.76-12.424,33.754-16.108,8.668-2,72.982,10.141,75.85,9.381C146.589-38.021,148.939-15.869,148.939-15.869Z" transform="translate(23.568 46.354)" fill="#6b8dfc"/>
    </clipPath>
    <clipPath id="clip-path-2">
      <rect id="Rectángulo_45440" data-name="Rectángulo 45440" width="235.935" height="325.282" fill="none"/>
    </clipPath>
    <clipPath id="clip-path-3">
      <rect id="Rectángulo_45439" data-name="Rectángulo 45439" width="235.936" height="325.283" fill="none"/>
    </clipPath>
    <clipPath id="clip-path-4">
      <rect id="Rectángulo_45437" data-name="Rectángulo 45437" width="15.56" height="44.168" fill="none"/>
    </clipPath>
    <clipPath id="clip-path-5">
      <rect id="Rectángulo_45438" data-name="Rectángulo 45438" width="8.295" height="3.326" fill="none"/>
    </clipPath>
  </defs>
  <g id="_17" data-name="17" transform="translate(-180 -2283.399)">
    <g id="Grupo_1101134" data-name="Grupo 1101134" transform="translate(0 -35.831)">
      <path id="Trazado_873208" data-name="Trazado 873208" d="M0,0H295V303.4H0Z" transform="translate(180 2319.23)" fill="#a0a0ca"/>
      <path id="Trazado_873381" data-name="Trazado 873381" d="M325.19,465.185a20.711,20.711,0,0,0,6.084,14.692L352.3,500.9l-21.03,21.024a20.782,20.782,0,0,0,29.39,29.39l21.024-21.024,21.024,21.024a20.78,20.78,0,0,0,29.384-29.39L411.073,500.9,432.1,479.876a20.78,20.78,0,0,0,0-29.384h0a20.781,20.781,0,0,0-29.384,0l-21.024,21.025-21.024-21.025a20.789,20.789,0,0,0-29.39,0h0a20.715,20.715,0,0,0-6.084,14.693Z" transform="translate(-282.852 2065.37) rotate(-21)" fill="#e6e6f1"/>
      <g id="Grupo_175431" data-name="Grupo 175431" transform="translate(24.129 870.911)">
        <g id="Grupo_174381" data-name="Grupo 174381" transform="translate(179.611 1463.934)">
          <path id="Trazado_184293" data-name="Trazado 184293" d="M112.46,0A112.46,112.46,0,1,1,0,112.46,112.46,112.46,0,0,1,112.46,0Z" transform="translate(19.561 51.254)" fill="#464bc7"/>
          <g id="Enmascarar_grupo_283" data-name="Enmascarar grupo 283" clip-path="url(#clip-path)">
            <g id="Grupo_175404" data-name="Grupo 175404" transform="translate(4.273 -39.262)">
              <g id="Grupo_175412" data-name="Grupo 175412" clip-path="url(#clip-path-2)">
                <g id="Grupo_175411" data-name="Grupo 175411" transform="translate(0 -0.001)">
                  <g id="Grupo_175410" data-name="Grupo 175410" clip-path="url(#clip-path-3)">
                    <path id="Trazado_184315" data-name="Trazado 184315" d="M418.318,1161.617s-32.843,36.082-32.843,96.255l134.988.1s6.183-67.51-23.676-92.164Z" transform="translate(-309.67 -933.181)"/>
                    <path id="Trazado_184316" data-name="Trazado 184316" d="M518.9,1256.407h-.449l-135.479-.1v-.491a161.25,161.25,0,0,1,5.148-40.548,157.57,157.57,0,0,1,11.325-30.362c6.519-13.134,13.642-22.537,16.5-25.675l.157-.173.233.013,78.631,4.2.125.1c6.879,5.68,12.411,14.095,16.444,25.011a129.941,129.941,0,0,1,6.767,30.643,208.181,208.181,0,0,1,.641,36.935Zm-134.944-1.083,134.043.1a209.087,209.087,0,0,0-.679-36.308,128.944,128.944,0,0,0-6.713-30.4c-3.947-10.681-9.337-18.917-16.021-24.482l-78.073-4.169c-2.926,3.273-9.851,12.5-16.206,25.313a156.6,156.6,0,0,0-11.244,30.163,160.235,160.235,0,0,0-5.109,39.785" transform="translate(-307.662 -931.124)" fill="#fff"/>
                    <path id="Trazado_184317" data-name="Trazado 184317" d="M626.822,437.85s-1.365,41.908,5.034,40.287-5.157,15.6-5.157,15.6l-58.1-3.92V439.685Z" transform="translate(-456.78 -351.745)" fill="#31313c"/>
                    <path id="Trazado_184318" data-name="Trazado 184318" d="M859.382,1514.09s-1.293,10.374,1.542,14.516,23.724,5.45,31.938,5.45c6.046,0,9.818-.032,9.818,4.261,0,4.7-13.123,2.734-19.888,2.734l-46.293-.5,1.835-26.555Z" transform="translate(-671.999 -1216.261)" fill="#f9b485"/>
                    <rect id="Rectángulo_45436" data-name="Rectángulo 45436" width="18.08" height="33.394" transform="translate(132.569 108.618)" fill="#f9b485"/>
                    <path id="Trazado_184319" data-name="Trazado 184319" d="M316.07,334.815,330.564,318.7s-.386-20.679.978-27.113,9.963-16.971,13.17-19.777c2-1.753,12.8-4.5,19.294,1.759,3.9,3.756,3.04,12.036,2.42,18.313-1.651,16.713-7.4,28.994-15.534,29.376-1.748.082-17.6,25.152-17.6,25.152Z" transform="translate(-253.914 -216.642)" fill="#f9b485"/>
                    <path id="Trazado_184320" data-name="Trazado 184320" d="M674.128,568.511c6.6,4.7,14.722-.038,18.08-2.439v-6.556l-9.855,1.135-8.225.447Z" transform="translate(-541.558 -449.485)"/>
                    <path id="Trazado_184321" data-name="Trazado 184321" d="M568.6,334.657c0-15.212,12.809-27.545,28.608-27.545s28.608,12.332,28.608,27.545S613,362.2,597.2,362.2,568.6,349.869,568.6,334.657" transform="translate(-456.78 -246.717)" fill="#f9b485"/>
                    <path id="Trazado_184322" data-name="Trazado 184322" d="M710.5,475.563a.266.266,0,0,1-.011-.532,10.825,10.825,0,0,0,7.205-2.826,8.2,8.2,0,0,0,1.891-2.6.266.266,0,0,1,.5.193,8.538,8.538,0,0,1-2,2.778,11.336,11.336,0,0,1-7.569,2.991H710.5" transform="translate(-570.565 -377.116)"/>
                    <path id="Trazado_184323" data-name="Trazado 184323" d="M697.071,414.345a.266.266,0,0,1-.226-.405l2.661-4.32a.266.266,0,0,1,.4-.065l3.986,3.308a.266.266,0,0,1-.34.409l-3.75-3.113-2.5,4.059a.266.266,0,0,1-.227.126" transform="translate(-559.776 -328.965)"/>
                    <path id="Trazado_184324" data-name="Trazado 184324" d="M751.151,396.644s4.077-15.152,16.7-5.306c0,0-4.775,10.862-16.7,5.306" transform="translate(-603.435 -311.708)" fill="#fff"/>
                    <path id="Trazado_184325" data-name="Trazado 184325" d="M878.172,1501.951s1.382,12.839,4.216,16.981,28.979,5.45,37.193,5.45c6.046,0,9.819-.032,9.819,4.262,0,4.7-13.123,2.735-19.889,2.735l-46.293-.5,1.835-26.555Z" transform="translate(-693.463 -1206.587)" fill="#f9b485"/>
                    <path id="Trazado_184326" data-name="Trazado 184326" d="M841.829,1532.6l-.665,9.623,23.18.793c-1.3-2.4-1.55-6.3-1.5-9.372Z" transform="translate(-675.746 -1231.205)" fill="#000300"/>
                    <path id="Trazado_184327" data-name="Trazado 184327" d="M843.6,429.406s4.21-4.915,7.834.413c4.581,6.736-4.9,12.763-8.952,11.015s1.118-11.428,1.118-11.428" transform="translate(-675.559 -343.3)" fill="#f9b485"/>
                    <path id="Trazado_184328" data-name="Trazado 184328" d="M856.9,456.57a.266.266,0,0,1-.214-.424,6.2,6.2,0,0,1,3.76-2.11,12.252,12.252,0,0,1,2.4-.306h0a.266.266,0,0,1,0,.532c-.042,0-4.155.056-5.736,2.2a.266.266,0,0,1-.214.108" transform="translate(-688.178 -364.503)"/>
                    <path id="Trazado_184329" data-name="Trazado 184329" d="M563.308,1224.991q-1.128,0-2.269-.022a101.974,101.974,0,0,1-23.171-2.883,58.609,58.609,0,0,1-14.458-5.652c-7.06-4.023-9.476-7.924-9.576-8.089a.431.431,0,0,1,.135-.586.411.411,0,0,1,.573.138c.817,1.339,3.82,4.7,9.343,7.833a57.925,57.925,0,0,0,14.247,5.546,101.257,101.257,0,0,0,22.922,2.842,99.836,99.836,0,0,0,23.806-2.243,71.966,71.966,0,0,0,16.159-5.63c6.625-3.289,10.822-6.938,12.115-8.407a.41.41,0,0,1,.588-.033.432.432,0,0,1,.032.6c-.156.177-3.914,4.4-12.322,8.579a72.686,72.686,0,0,1-16.354,5.712,99.005,99.005,0,0,1-21.772,2.294" transform="translate(-412.738 -970.198)" fill="#fff"/>
                    <path id="Trazado_184330" data-name="Trazado 184330" d="M423.922,1284.757q-.783,0-1.58-.044a.425.425,0,0,1,.047-.849,23.328,23.328,0,0,0,14.768-3.955,30.958,30.958,0,0,0,9.052-10.062A51.719,51.719,0,0,0,452,1254.7a.425.425,0,1,1,.838.15,52.633,52.633,0,0,1-5.881,15.412,31.819,31.819,0,0,1-9.307,10.346,23.905,23.905,0,0,1-13.726,4.153" transform="translate(-338.965 -1007.674)" fill="#fff"/>
                    <path id="Trazado_184331" data-name="Trazado 184331" d="M937.863,1289.761a23.323,23.323,0,0,1-14.768-3.955,30.961,30.961,0,0,1-9.052-10.062,51.719,51.719,0,0,1-5.788-15.15.425.425,0,0,0-.837.15,52.64,52.64,0,0,0,5.881,15.412A31.819,31.819,0,0,0,922.6,1286.5c4.049,2.759,9.8,4.153,14.869,4.153Z" transform="translate(-728.965 -1012.412)" fill="#fff"/>
                    <path id="Trazado_184332" data-name="Trazado 184332" d="M730.635,1261.844a.425.425,0,0,1-.425-.426V1204.2a.425.425,0,0,1,.425-.426h11.486a.426.426,0,0,1,.426.426v37.132a.425.425,0,1,1-.851,0v-36.706H731.061v56.791a.426.426,0,0,1-.426.426" transform="translate(-586.612 -967.049)" fill="#fff"/>
                    <path id="Trazado_184333" data-name="Trazado 184333" d="M862.959,465.325a.265.265,0,0,1-.207-.1l-2.307-2.858a.266.266,0,0,1,.414-.334l2.307,2.858a.266.266,0,0,1-.207.433" transform="translate(-691.188 -371.093)"/>
                    <path id="Trazado_184334" data-name="Trazado 184334" d="M756.247,360.756s5.994-2.026,10.489.867c0,0-6.82-6.439-10.489-.867" transform="translate(-607.529 -287.988)" fill="#31313c"/>
                    <path id="Trazado_184335" data-name="Trazado 184335" d="M151.118,634.98l31.531-8.27a27.826,27.826,0,0,1,34.415,32.008L190,809.67l-27.146,1.2,7.217-69.85s-32.231,9.151-62.884-7.366L85.515,690.243,25.344,705.348A20.39,20.39,0,0,1,2.311,695.02h0a13.647,13.647,0,0,1,5.654-18.355L75.434,640.56a60.01,60.01,0,0,1,30.64-7.055l27.906,1.082,7.614,8.458Z" transform="translate(-0.607 -502.714)" fill="#3690d1"/>
                    <path id="Trazado_184336" data-name="Trazado 184336" d="M684.213,713.04l-20.419-.529s3.122,7.087,10.449,7.327,9.97-6.8,9.97-6.8" transform="translate(-533.257 -572.393)" fill="#7dbcf5"/>
                    <path id="Trazado_184337" data-name="Trazado 184337" d="M726.592,650.415l-9.662,12.423,10.133,13.81,13.916-25.683Z" transform="translate(-575.943 -522.508)" fill="#dceaef"/>
                    <path id="Trazado_184338" data-name="Trazado 184338" d="M602.245,675.031l9.945-13.338-8.417-12.7-17.223,3.56Z" transform="translate(-471.203 -521.363)" fill="#dceaef"/>
                    <path id="Trazado_184339" data-name="Trazado 184339" d="M364.956,273.892l-3.113,2.279-59.23,4.04a3.717,3.717,0,0,1-.507-7.417l59.231-4.039,3.054,1.316a1.933,1.933,0,0,0,.363,3.831q.1,0,.2-.01" transform="translate(-239.913 -215.903)" fill="#ff1300"/>
                    <path id="Trazado_184340" data-name="Trazado 184340" d="M436.585,249.771l.065-1.324a5.49,5.49,0,0,1,6.96-6.114c4.3,1.253,10.651,3.025,14.74,3.8a3.917,3.917,0,0,1,3.143,4.369,4.177,4.177,0,0,1-4.357,3.617l-14.669-4.754Z" transform="translate(-350.729 -194.501)" fill="#f9b485"/>
                    <path id="Trazado_184341" data-name="Trazado 184341" d="M434.9,296.026c5.157.324,6.448,5.541,6.708,9.26a3.9,3.9,0,0,0,7.788-.367,26.243,26.243,0,0,0-6.548-16.9c-3.884-4.356-7.975-5.2-11.026-5.005a8.945,8.945,0,0,0-6.5,3.511l-4.224,5.521Z" transform="translate(-338.284 -227.339)" fill="#f9b485"/>
                    <path id="Trazado_184342" data-name="Trazado 184342" d="M440.165,345.065c-.086,0-.172,0-.259-.008a4.271,4.271,0,0,1-3.91-4.29,14.565,14.565,0,0,0-1.117-5.991,5.846,5.846,0,0,0-4.761-3.6.266.266,0,1,1,.068-.527,6.349,6.349,0,0,1,5.176,3.9,15.086,15.086,0,0,1,1.166,6.211,3.738,3.738,0,0,0,3.412,3.763,3.519,3.519,0,0,0,2.607-.923,3.812,3.812,0,0,0,1.245-2.72,26.83,26.83,0,0,0-5.414-17.434c-3.542-4.6-7.5-5.636-10.2-5.693a11.873,11.873,0,0,0-5.044.979.266.266,0,0,1-.237-.476,12.265,12.265,0,0,1,5.292-1.035c2.814.059,6.938,1.131,10.608,5.9a27.356,27.356,0,0,1,5.524,17.776A4.339,4.339,0,0,1,442.9,344a4.053,4.053,0,0,1-2.738,1.068" transform="translate(-339.616 -254.839)"/>
                    <path id="Trazado_184343" data-name="Trazado 184343" d="M444.42,308.182a4.226,4.226,0,0,1-4.164-3.96.266.266,0,1,1,.53-.037,3.693,3.693,0,0,0,3.634,3.466h0A3.565,3.565,0,0,0,447,306.556a3.709,3.709,0,0,0,1.048-2.712,25.973,25.973,0,0,0-6.48-16.727c-3.916-4.392-8.04-5.1-10.81-4.917a8.672,8.672,0,0,0-6.311,3.407l-4.224,5.522a.266.266,0,1,1-.422-.323l4.224-5.521a9.2,9.2,0,0,1,6.7-3.615c2.889-.188,7.184.542,11.242,5.094a26.5,26.5,0,0,1,6.615,17.066,4.236,4.236,0,0,1-1.2,3.1,4.091,4.091,0,0,1-2.952,1.256Z" transform="translate(-337.197 -226.256)"/>
                    <path id="Trazado_184344" data-name="Trazado 184344" d="M508.753,365.667a27.1,27.1,0,0,0-5.469-17.605Z" transform="translate(-404.312 -279.614)" fill="#f9b485"/>
                    <path id="Trazado_184345" data-name="Trazado 184345" d="M440.165,345.065c-.086,0-.172,0-.259-.008a4.271,4.271,0,0,1-3.91-4.29,14.565,14.565,0,0,0-1.117-5.991,5.846,5.846,0,0,0-4.761-3.6.266.266,0,1,1,.068-.527,6.349,6.349,0,0,1,5.176,3.9,15.086,15.086,0,0,1,1.166,6.211,3.738,3.738,0,0,0,3.412,3.763,3.519,3.519,0,0,0,2.607-.923,3.812,3.812,0,0,0,1.245-2.72,26.83,26.83,0,0,0-5.414-17.434c-3.542-4.6-7.5-5.636-10.2-5.693a11.873,11.873,0,0,0-5.044.979.266.266,0,0,1-.237-.476,12.265,12.265,0,0,1,5.292-1.035c2.814.059,6.938,1.131,10.608,5.9a27.356,27.356,0,0,1,5.524,17.776A4.339,4.339,0,0,1,442.9,344a4.053,4.053,0,0,1-2.738,1.068" transform="translate(-339.616 -254.839)"/>
                    <path id="Trazado_184346" data-name="Trazado 184346" d="M406.989,372.2c4.884.608,5.8,5.558,5.82,9.049a3.714,3.714,0,0,0,7.425.117,24.275,24.275,0,0,0-5.209-16.175c-6.649-8.334-14.833-4.4-14.833-4.4Z" transform="translate(-321.494 -289.092)" fill="#f9b485"/>
                    <path id="Trazado_184347" data-name="Trazado 184347" d="M857.355,959.08a.427.427,0,0,1-.422-.488l9.364-63.269a.425.425,0,0,1,.842.125l-9.363,63.269a.426.426,0,0,1-.42.363" transform="translate(-688.411 -718.963)"/>
                    <path id="Trazado_184348" data-name="Trazado 184348" d="M415.443,384.133c-.083,0-.166,0-.249-.007a4,4,0,0,1-3.737-3.963,12.939,12.939,0,0,0-1.062-5.492,5.536,5.536,0,0,0-4.526-3.295.266.266,0,1,1,.065-.528,6.039,6.039,0,0,1,4.939,3.592,13.46,13.46,0,0,1,1.114,5.719,3.467,3.467,0,0,0,3.238,3.436,3.45,3.45,0,0,0,3.656-3.327,24.006,24.006,0,0,0-5.151-16c-3.371-4.225-7.139-5.174-9.707-5.226a11.671,11.671,0,0,0-4.8.9.266.266,0,1,1-.23-.479,12.078,12.078,0,0,1,5.043-.952c2.682.054,6.613,1.04,10.112,5.426a24.535,24.535,0,0,1,5.267,16.35,3.983,3.983,0,0,1-3.971,3.846" transform="translate(-320.407 -288.006)"/>
                    <path id="Trazado_184349" data-name="Trazado 184349" d="M878.813,898.656a.425.425,0,0,1-.327-.153l-5.29-6.358a.425.425,0,1,1,.654-.544l5.291,6.358a.425.425,0,0,1-.327.7" transform="translate(-701.4 -716.141)"/>
                    <path id="Trazado_184350" data-name="Trazado 184350" d="M921.419,707.974a.42.42,0,0,1-.178-.039.425.425,0,0,1-.208-.564,63.512,63.512,0,0,1,7.352-11.448,62.138,62.138,0,0,1,9.3-9.487,48.06,48.06,0,0,1,13.166-7.735.425.425,0,0,1,.3.795,47.182,47.182,0,0,0-12.921,7.59,61.274,61.274,0,0,0-9.164,9.347,62.7,62.7,0,0,0-7.261,11.293.425.425,0,0,1-.386.247" transform="translate(-739.877 -545.209)"/>
                    <path id="Trazado_184351" data-name="Trazado 184351" d="M410.374,745.756a.425.425,0,0,1-.421-.372L407.505,726.1a.425.425,0,1,1,.844-.107l2.448,19.288a.426.426,0,0,1-.368.476.418.418,0,0,1-.054,0" transform="translate(-327.365 -582.921)"/>
                    <path id="Trazado_184352" data-name="Trazado 184352" d="M749.194,1245.093c-1.671,0-3.031-1.66-3.031-3.7s1.36-3.7,3.031-3.7,3.031,1.66,3.031,3.7-1.36,3.7-3.031,3.7m0-6.551c-1.2,0-2.18,1.278-2.18,2.85s.978,2.85,2.18,2.85,2.18-1.279,2.18-2.85-.978-2.85-2.18-2.85" transform="translate(-599.428 -994.295)" fill="#fff"/>
                    <path id="Trazado_184353" data-name="Trazado 184353" d="M337.335,597.063c.736-1.153,1.874-2.93,3.221-5.006l-18.244-8.624-2.322,2.581Z" transform="translate(-257.063 -468.698)"/>
                    <path id="Trazado_184354" data-name="Trazado 184354" d="M83.4,596.29,60.843,581.87,4.234,642.19a15.6,15.6,0,0,0,7.51,25.782l13.154-.295Z" transform="translate(0 -467.443)" fill="#3690d1"/>
                    <path id="Trazado_184355" data-name="Trazado 184355" d="M608.761,396.644s-4.077-15.152-16.7-5.306c0,0,4.775,10.862,16.7,5.306" transform="translate(-475.628 -311.708)" fill="#fff"/>
                    <path id="Trazado_184356" data-name="Trazado 184356" d="M626.467,358.378s-5.909-2.263-10.515.449c0,0,7.072-6.163,10.515-.449" transform="translate(-494.823 -285.951)" fill="#31313c"/>
                    <path id="Trazado_184357" data-name="Trazado 184357" d="M756.644,393.919A6.426,6.426,0,0,0,762.7,398.2c.068,0,.136,0,.2-.005a10.464,10.464,0,0,0,1.706-.284,6.43,6.43,0,0,0,3.881-8.92c-6.611-3.014-10.222,1.664-11.847,4.932" transform="translate(-607.847 -311.711)"/>
                    <path id="Trazado_184358" data-name="Trazado 184358" d="M610.744,398.177a6.425,6.425,0,0,0,5.855-5.282c-1.936-3.289-5.76-7.022-12.341-3.378a6.427,6.427,0,0,0,1.466,6.789,10.4,10.4,0,0,0,5.021,1.871" transform="translate(-485.1 -311.712)"/>
                    <path id="Trazado_184359" data-name="Trazado 184359" d="M628.87,328.84c-2.773-12.419-14.24-21.728-27.967-21.728A28.807,28.807,0,0,0,576.1,320.928l-2.257,4.782q-.359,1.006-.639,2.045c11.5-14.69,37.927-17.413,37.927-17.413C624.056,315.485,629.1,330.8,629.1,330.8Z" transform="translate(-460.478 -246.717)" fill="#31313c"/>
                    <path id="Trazado_184360" data-name="Trazado 184360" d="M607.683,272.2a3.683,3.683,0,0,0-.829-2.1l-3.128-1.348a3.7,3.7,0,0,0,.51,7.385l.021,0,3.174-2.325a3.683,3.683,0,0,0,.253-1.613" transform="translate(-482.239 -215.903)" fill="#ffa88a"/>
                    <path id="Trazado_184361" data-name="Trazado 184361" d="M906.7,1601.427H880.622l5.331-11.981,20.75,3.333a4.343,4.343,0,0,1,0,8.648" transform="translate(-707.445 -1276.876)" fill="#f9b485"/>
                    <path id="Trazado_184362" data-name="Trazado 184362" d="M630.436,276.979l-1.508,1.1-1.572,1.152q-.1.01-.2.01a1.935,1.935,0,0,1-.364-3.836l1.993.859Z" transform="translate(-502.269 -221.247)" fill="#ff1300"/>
                    <path id="Trazado_184363" data-name="Trazado 184363" d="M326.52,294.688c-.489.036-.989.046-1.53.1a3.608,3.608,0,0,1-3.731-3.731,3.772,3.772,0,0,1,3.731-3.73c.372-.012.721-.033,1.06-.072a4.105,4.105,0,0,0-2.428,3.648,4.047,4.047,0,0,0,2.9,3.782" transform="translate(-258.082 -230.767)"/>
                    <g id="Grupo_175406" data-name="Grupo 175406" transform="translate(95.799 50.784)" style="mix-blend-mode: overlay;isolation: isolate">
                      <g id="Grupo_175405" data-name="Grupo 175405">
                        <g id="Grupo_175404-2" data-name="Grupo 175404" clip-path="url(#clip-path-4)">
                          <path id="Trazado_184364" data-name="Trazado 184364" d="M540.473,382.068c-1.551,0-2.813-1.671-2.813-3.725s1.262-3.726,2.813-3.726,2.813,1.671,2.813,3.726-1.262,3.725-2.813,3.725m0-6.919c-1.258,0-2.281,1.433-2.281,3.194s1.023,3.194,2.281,3.194,2.282-1.433,2.282-3.194-1.023-3.194-2.282-3.194" transform="translate(-527.726 -351.731)"/>
                          <path id="Trazado_184365" data-name="Trazado 184365" d="M489.214,457.026c-.832,0-1.536-1.19-1.536-2.6s.7-2.6,1.536-2.6a1.142,1.142,0,0,1,.842.44q-.022-.366-.057-.746a1.505,1.505,0,0,0-.786-.227c-1.159,0-2.068,1.375-2.068,3.131,0,1.544.7,2.794,1.661,3.073a3.75,3.75,0,0,0,.46-.475l-.053,0" transform="translate(-487.146 -413.33)"/>
                          <path id="Trazado_184366" data-name="Trazado 184366" d="M512.038,425.058a2.459,2.459,0,0,1,2.282-2.6,2.045,2.045,0,0,1,1.03.281q-.012-.3-.032-.608a2.549,2.549,0,0,0-1-.2,2.989,2.989,0,0,0-2.813,3.131,3.071,3.071,0,0,0,2.262,3.07,3.97,3.97,0,0,0,.516-.472,2.464,2.464,0,0,1-2.245-2.6" transform="translate(-506.716 -389.737)"/>
                          <path id="Trazado_184367" data-name="Trazado 184367" d="M530.74,259.666a5.117,5.117,0,0,1-.638,1.7c-.919,1.743-1.361,1.624-3.3.777a2.37,2.37,0,0,1-1.224-1.527,2.319,2.319,0,0,1,.207-1.935,1.879,1.879,0,0,1,.254-.307l-.586-.14c-.039.05-.078.1-.113.155a2.847,2.847,0,0,0-.273,2.378,2.9,2.9,0,0,0,1.52,1.863,5.76,5.76,0,0,0,2.072.645c.716,0,1.267-.445,1.908-1.661a6.659,6.659,0,0,0,.638-1.587,3.9,3.9,0,0,0-.47-.365" transform="translate(-517.502 -258.238)"/>
                        </g>
                      </g>
                    </g>
                    <path id="Trazado_184368" data-name="Trazado 184368" d="M205.242,738.441a.425.425,0,0,1-.329-.695L241.1,693.589a.425.425,0,1,1,.658.539l-36.188,44.157a.424.424,0,0,1-.329.156" transform="translate(-164.539 -557.067)"/>
                    <path id="Trazado_184369" data-name="Trazado 184369" d="M219.9,909.2a.425.425,0,0,1-.4-.28l-2.079-5.73a.426.426,0,0,1,.8-.29l2.079,5.73a.425.425,0,0,1-.4.57" transform="translate(-174.647 -725.115)"/>
                    <path id="Trazado_184370" data-name="Trazado 184370" d="M952.369,1603.892a.372.372,0,1,1,0-.745c1.834,0,3.5-2,3.5-4.191A3.705,3.705,0,0,0,952.49,1595a.39.39,0,0,1-.062-.005l-14.889-2.507a.372.372,0,0,1,.124-.734l14.858,2.5a4.45,4.45,0,0,1,4.1,4.7c0,2.629-1.986,4.936-4.25,4.936" transform="translate(-752.92 -1278.729)" fill="#000300"/>
                    <path id="Trazado_184371" data-name="Trazado 184371" d="M1128.955,1621.862a.372.372,0,0,1-.139-.718c1.067-.427,2.219-1.462,2.219-2.388a3.069,3.069,0,0,0-2.345-3.375c-1.62-.515-3.979-.512-6.968-.515h-.133a.372.372,0,1,1,0-.744h.133c3.05,0,5.463,0,7.193.549a3.8,3.8,0,0,1,2.864,4.084c0,1.3-1.384,2.558-2.687,3.079a.369.369,0,0,1-.138.027" transform="translate(-900.726 -1296.699)" fill="#000300"/>
                    <g id="Grupo_175409" data-name="Grupo 175409" transform="translate(192.8 314.77)" style="mix-blend-mode: overlay;isolation: isolate">
                      <g id="Grupo_175408" data-name="Grupo 175408">
                        <g id="Grupo_175407" data-name="Grupo 175407" clip-path="url(#clip-path-5)">
                          <path id="Trazado_184372" data-name="Trazado 184372" d="M982.507,1603.957a2.008,2.008,0,0,1-1.176-.39,1.972,1.972,0,0,1-.879-1.977,1.366,1.366,0,0,1,1.32-.937c2.329-.205,6.493,1.082,6.669,1.136a.372.372,0,0,1-.142.726,8.213,8.213,0,0,0-4.6,1.058,2.105,2.105,0,0,1-1.188.383m-.19-2.582c-.168,0-.329.006-.48.019-.38.034-.6.166-.666.392a1.279,1.279,0,0,0,.594,1.176,1.25,1.25,0,0,0,1.513,0,7.093,7.093,0,0,1,2.732-1.047,17.909,17.909,0,0,0-3.691-.536" transform="translate(-980.407 -1600.631)" fill="#000300"/>
                        </g>
                      </g>
                    </g>
                    <path id="Trazado_184373" data-name="Trazado 184373" d="M848.706,1108.329l-6.5,53.091,22.976,1.171,6.174-59.787Z" transform="translate(-676.583 -885.933)" fill="#3790d1"/>
                  </g>
                </g>
              </g>
            </g>
          </g>
        </g>
      </g>
      <path id="Trazado_873382" data-name="Trazado 873382" d="M325.19,455.827a11.383,11.383,0,0,0,3.344,8.075l11.559,11.555-11.559,11.555a11.422,11.422,0,0,0,16.153,16.153l11.555-11.555L367.8,503.166a11.421,11.421,0,0,0,16.15-16.153l-11.555-11.555L383.948,463.9a11.421,11.421,0,0,0,0-16.15h0a11.422,11.422,0,0,0-16.15,0l-11.555,11.556-11.555-11.556a11.426,11.426,0,0,0-16.153,0h0a11.385,11.385,0,0,0-3.344,8.075Z" transform="translate(64.811 2073.809)" fill="#fff"/>
    </g>
  </g>
</svg>
