<svg xmlns="http://www.w3.org/2000/svg" width="61.554" height="56.767" viewBox="0 0 61.554 56.767">
  <g id="_25" data-name="25" transform="translate(-334.621 -1399.423)">
    <g id="Rectángulo_401341" data-name="Rectángulo 401341" transform="translate(334.621 1399.423)" fill="#fece2f" stroke="#faedc1" stroke-width="3">
      <rect width="61.554" height="56.767" rx="12" stroke="none"/>
      <rect x="1.5" y="1.5" width="58.554" height="53.767" rx="10.5" fill="none"/>
    </g>
    <g id="busqueda-de-talentos_1_" data-name="busqueda-de-talentos (1)" transform="translate(344.433 1408.766)">
      <g id="Grupo_1101599" data-name="Grupo 1101599" transform="translate(6.749 0.558)">
        <path id="Trazado_875320" data-name="Trazado 875320" d="M101.779,9.6A12.822,12.822,0,0,1,114.1,18.885V7.5H89.452V18.885A12.827,12.827,0,0,1,101.779,9.6Z" transform="translate(-89.452 -7.5)" fill="#eff6ff" fill-rule="evenodd"/>
      </g>
      <g id="Grupo_1101600" data-name="Grupo 1101600" transform="translate(6.749 19.003)">
        <path id="Trazado_875321" data-name="Trazado 875321" d="M109.8,261.97A12.824,12.824,0,0,1,89.453,255.5v7.3a.585.585,0,0,1,.426.217l.81.97,1.288,1.545,1.942.681,1.216.428a.57.57,0,0,1,.306.873l-.7,1.041-1.145,1.668-.076,1.984-.027.936H114.1V255.5a12.835,12.835,0,0,1-4.3,6.468Z" transform="translate(-89.453 -255.502)" fill="#eff6ff" fill-rule="evenodd"/>
      </g>
      <g id="Grupo_1101601" data-name="Grupo 1101601" transform="translate(19.398 0.558)">
        <path id="Trazado_875322" data-name="Trazado 875322" d="M261.3,9.766a12.83,12.83,0,0,1,10.231,9.118V7.5h-12A16.576,16.576,0,0,1,261.3,9.766Z" transform="translate(-259.526 -7.5)" fill="#d9eeff" fill-rule="evenodd"/>
      </g>
      <g id="Grupo_1101602" data-name="Grupo 1101602" transform="translate(20.56 19.003)">
        <path id="Trazado_875323" data-name="Trazado 875323" d="M281.634,262.009a12.85,12.85,0,0,1-2.378,1.5,28.3,28.3,0,0,1-2.378,6.824,19.991,19.991,0,0,1-1.733,2.815h10.84V255.5a12.835,12.835,0,0,1-4.3,6.468Z" transform="translate(-275.145 -255.503)" fill="#d9eeff" fill-rule="evenodd"/>
      </g>
      <g id="Grupo_1101603" data-name="Grupo 1101603" transform="translate(8.077 4.452)">
        <path id="Trazado_875324" data-name="Trazado 875324" d="M129.306,70.853a11,11,0,1,0-18.681,7.87C110.608,83.856,129.306,85.467,129.306,70.853Z" transform="translate(-107.309 -59.856)" fill="#9fd4fe" fill-rule="evenodd"/>
      </g>
      <g id="Grupo_1101604" data-name="Grupo 1101604" transform="translate(12.055 18.607)">
        <path id="Trazado_875325" data-name="Trazado 875325" d="M164.226,250.174a4.347,4.347,0,0,0-3.428,4.056,10.012,10.012,0,0,0,5.621,2.762v-4.027l-.913.618Z" transform="translate(-160.798 -250.174)" fill="#ffd772" fill-rule="evenodd"/>
      </g>
      <g id="Grupo_1101605" data-name="Grupo 1101605" transform="translate(15.483 18.514)">
        <path id="Trazado_875326" data-name="Trazado 875326" d="M206.888,249.02l1.28,3.409.913-.618,1.4-.947-2.074-1.937h-.622A4.321,4.321,0,0,0,206.888,249.02Z" transform="translate(-206.888 -248.927)" fill="#eff6ff" fill-rule="evenodd"/>
      </g>
      <g id="Grupo_1101606" data-name="Grupo 1101606" transform="translate(17.676 20.451)">
        <path id="Trazado_875327" data-name="Trazado 875327" d="M236.368,275.924v4.027a10.152,10.152,0,0,0,2.8,0v-4.027l-1.4-.947Z" transform="translate(-236.368 -274.977)" fill="#eb5468" fill-rule="evenodd"/>
      </g>
      <g id="Grupo_1101607" data-name="Grupo 1101607" transform="translate(19.075 18.514)">
        <path id="Trazado_875328" data-name="Trazado 875328" d="M255.189,250.864l1.4.947.911.618,1.282-3.409a4.321,4.321,0,0,0-.9-.093h-.622Z" transform="translate(-255.189 -248.927)" fill="#eff6ff" fill-rule="evenodd"/>
      </g>
      <g id="Grupo_1101608" data-name="Grupo 1101608" transform="translate(20.475 18.607)">
        <path id="Trazado_875329" data-name="Trazado 875329" d="M276.2,250.174l-1.282,3.409-.911-.618v4.027a10.019,10.019,0,0,0,5.621-2.762A4.349,4.349,0,0,0,276.2,250.174Z" transform="translate(-274.011 -250.174)" fill="#ffd772" fill-rule="evenodd"/>
      </g>
      <g id="Grupo_1101609" data-name="Grupo 1101609" transform="translate(17.001 16.595)">
        <path id="Trazado_875330" data-name="Trazado 875330" d="M227.3,223.132v1.919l2.074,1.937,2.074-1.937v-1.919A3.011,3.011,0,0,1,227.3,223.132Z" transform="translate(-227.297 -223.132)" fill="#fed1a3" fill-rule="evenodd"/>
      </g>
      <g id="Grupo_1101610" data-name="Grupo 1101610" transform="translate(15.19 10.064)">
        <path id="Trazado_875331" data-name="Trazado 875331" d="M204.759,141.845a3.011,3.011,0,0,0,4.149,0c1.048-.926,1.811-2.633,1.811-5.117,0-.11,0-.219-.015-.327a7.726,7.726,0,0,1-7.488-1.088,3.846,3.846,0,0,0-.268,1.415C202.948,139.212,203.711,140.92,204.759,141.845Z" transform="translate(-202.948 -135.314)" fill="#ffe5c1" fill-rule="evenodd"/>
      </g>
      <g id="Grupo_1101611" data-name="Grupo 1101611" transform="translate(15.458 7.593)">
        <path id="Trazado_875332" data-name="Trazado 875332" d="M206.548,104.563a7.726,7.726,0,0,0,7.488,1.088,3.884,3.884,0,0,0-7.488-1.088Z" transform="translate(-206.548 -102.092)" fill="#375e7d" fill-rule="evenodd"/>
      </g>
      <g id="Grupo_1101612" data-name="Grupo 1101612" transform="translate(6.258 2.653)">
        <path id="Trazado_875333" data-name="Trazado 875333" d="M95.665,38.444a10.051,10.051,0,0,1,1.4,20,10.152,10.152,0,0,1-2.8,0,10.051,10.051,0,0,1,1.4-20Zm0-2.768A12.831,12.831,0,0,0,83.338,52.023v0a12.822,12.822,0,0,0,24.651,0v0A12.818,12.818,0,0,0,95.665,35.676Z" transform="translate(-82.847 -35.676)" fill="#375e7d" fill-rule="evenodd"/>
      </g>
      <g id="Grupo_1101613" data-name="Grupo 1101613" transform="translate(0.662 26.304)">
        <path id="Trazado_875334" data-name="Trazado 875334" d="M8.5,359.544l1.058,1.547.078,1.984.036,1.24a.6.6,0,0,0,.767.554l1.256-.308,2-.491,2,.491,1.256.308a.6.6,0,0,0,.767-.554l.008-.3.027-.936.076-1.984,1.145-1.668.7-1.042a.57.57,0,0,0-.306-.873l-1.216-.428-1.942-.681-1.288-1.545-.81-.97a.524.524,0,0,0-.85,0l-.81.97-1.29,1.545-1.94.681-1.219.428a.571.571,0,0,0-.3.873Z" transform="translate(-7.611 -353.668)" fill="#ffd772" fill-rule="evenodd"/>
      </g>
      <g id="Grupo_1101614" data-name="Grupo 1101614" transform="translate(28.722 27.36)">
        <path id="Trazado_875335" data-name="Trazado 875335" d="M385.634,368.506a2.367,2.367,0,0,0-.1,3.337l1.286,1.364,2.517-.774.917-2.467-1.286-1.364a2.2,2.2,0,0,0-.371-.318A2.367,2.367,0,0,0,385.634,368.506Z" transform="translate(-384.896 -367.865)" fill="#f5a96c" fill-rule="evenodd"/>
      </g>
      <g id="Grupo_1101615" data-name="Grupo 1101615" transform="translate(32.248 31.157)">
        <path id="Trazado_875336" data-name="Trazado 875336" d="M435.727,418.921l-2.515.772-.919,2.467.179.192,1.107,1.174a2.361,2.361,0,1,0,3.434-3.24Z" transform="translate(-432.293 -418.921)" fill="#f5a96c" fill-rule="evenodd"/>
      </g>
      <g id="Grupo_1101616" data-name="Grupo 1101616" transform="translate(0.662 26.304)">
        <path id="Trazado_875337" data-name="Trazado 875337" d="M7.713,358.382l.788,1.162,1.058,1.547.078,1.984.036,1.24a.6.6,0,0,0,.767.554l1.256-.308,2-.491,2,.491,1.256.308a.6.6,0,0,0,.767-.554l.008-.3.027-.936.076-1.984,1.145-1.668.7-1.042a.57.57,0,0,0-.306-.873l-1.216-.428-1.942-.681-1.288-1.545-.81-.97a.524.524,0,0,0-.85,0l-.81.97-1.29,1.545-1.94.681-1.219.428a.571.571,0,0,0-.3.873Z" transform="translate(-7.612 -353.668)" fill="#ffd772" fill-rule="evenodd"/>
      </g>
      <g id="Grupo_1101617" data-name="Grupo 1101617" transform="translate(6.35 26.304)">
        <path id="Trazado_875338" data-name="Trazado 875338" d="M84.918,353.884a.585.585,0,0,0-.426-.217.41.41,0,0,0-.072.006c.025.095.048.19.072.287a18.864,18.864,0,0,1,.5,4.434,17.515,17.515,0,0,1-.9,5.775l.4-.1,2,.491,1.256.308a.6.6,0,0,0,.767-.554l.008-.3.027-.936.076-1.984,1.145-1.668.7-1.041a.57.57,0,0,0-.306-.873l-1.216-.428-1.942-.681-1.288-1.545Z" transform="translate(-84.094 -353.667)" fill="#fbba58" fill-rule="evenodd"/>
      </g>
      <g id="Grupo_1101618" data-name="Grupo 1101618" transform="translate(28.921 27.36)">
        <path id="Trazado_875339" data-name="Trazado 875339" d="M391.389,371.229l1.337-1.261L391.44,368.6a2.2,2.2,0,0,0-.371-.318,2.367,2.367,0,0,0-2.966.221,2.325,2.325,0,0,0-.54.765,2.377,2.377,0,0,1,2.169.272,2.31,2.31,0,0,1,.371.32Z" transform="translate(-387.563 -367.866)" fill="#ea9a58" fill-rule="evenodd"/>
      </g>
      <g id="Grupo_1101619" data-name="Grupo 1101619" transform="translate(34.345 31.157)">
        <path id="Trazado_875340" data-name="Trazado 875340" d="M461.834,418.921,460.5,420.18l1.288,1.366a2.368,2.368,0,0,1,.441,2.57,2.309,2.309,0,0,0,.8-.493,2.367,2.367,0,0,0,.1-3.337Z" transform="translate(-460.497 -418.921)" fill="#ea9a58" fill-rule="evenodd"/>
      </g>
      <g id="Grupo_1101620" data-name="Grupo 1101620" transform="translate(18.401 7.593)">
        <path id="Trazado_875341" data-name="Trazado 875341" d="M246.119,102.151a3.9,3.9,0,0,1,2.273,3.533c0,.169,0,.333-.008.493a6.344,6.344,0,0,0,2.281-.527,3.9,3.9,0,0,0-3.871-3.559A3.958,3.958,0,0,0,246.119,102.151Z" transform="translate(-246.119 -102.092)" fill="#2b4d66" fill-rule="evenodd"/>
      </g>
      <g id="Grupo_1101621" data-name="Grupo 1101621" transform="translate(17.587 11.152)">
        <path id="Trazado_875342" data-name="Trazado 875342" d="M240.536,149.941a6.346,6.346,0,0,1-2.281.527c-.133,3.112-1.516,4.891-3.078,5.338a2.988,2.988,0,0,0,3.563-.422c1.048-.926,1.811-2.633,1.811-5.117C240.551,150.158,240.547,150.049,240.536,149.941Z" transform="translate(-235.177 -149.941)" fill="#fed1a3" fill-rule="evenodd"/>
      </g>
      <g id="Grupo_1101622" data-name="Grupo 1101622" transform="translate(17.001 16.595)">
        <path id="Trazado_875343" data-name="Trazado 875343" d="M227.3,224.09a3.036,3.036,0,0,0,2.675.763c.434-.093.379.019.379.466v.751l1.094-1.02v-1.919a2.988,2.988,0,0,1-3.563.422,3.507,3.507,0,0,1-.586-.422Z" transform="translate(-227.297 -223.131)" fill="#ffbc85" fill-rule="evenodd"/>
      </g>
      <g id="Grupo_1101623" data-name="Grupo 1101623" transform="translate(22.139 18.607)">
        <path id="Trazado_875344" data-name="Trazado 875344" d="M296.376,251.584a4.35,4.35,0,0,1,2.823,3.6,9.99,9.99,0,0,0,1.134-.955,4.349,4.349,0,0,0-3.428-4.056Z" transform="translate(-296.376 -250.174)" fill="#fbba58" fill-rule="evenodd"/>
      </g>
      <g id="Grupo_1101624" data-name="Grupo 1101624" transform="translate(19.99 18.514)">
        <path id="Trazado_875345" data-name="Trazado 875345" d="M268.68,250.1a4.29,4.29,0,0,1,.959.327l.529-1.41a4.321,4.321,0,0,0-.9-.093h-.622l-1.094,1.02-.065.061h.293A4.321,4.321,0,0,1,268.68,250.1Z" transform="translate(-267.491 -248.927)" fill="#d9eeff" fill-rule="evenodd"/>
      </g>
      <g id="Grupo_1101625" data-name="Grupo 1101625" transform="translate(30.65 29.462)">
        <path id="Trazado_875346" data-name="Trazado 875346" d="M414.241,396.13l-3.434,3.24,1.6,1.693,3.434-3.238Z" transform="translate(-410.807 -396.13)" fill="#eb5468" fill-rule="evenodd"/>
      </g>
      <g id="Grupo_1101626" data-name="Grupo 1101626" transform="translate(32.747 29.462)">
        <path id="Trazado_875347" data-name="Trazado 875347" d="M440.348,396.13l-1.337,1.261,1.6,1.693,1.337-1.259Z" transform="translate(-439.011 -396.13)" fill="#e5384f" fill-rule="evenodd"/>
      </g>
      <g id="Grupo_1101627" data-name="Grupo 1101627" transform="translate(18.616 5.422)">
        <path id="Trazado_875348" data-name="Trazado 875348" d="M256.477,82.62a10.03,10.03,0,0,1-1.174,4.72,4.32,4.32,0,0,1,1.187,2.8A10.05,10.05,0,0,0,249.47,72.9c-.154,0-.308,0-.46.011A10.055,10.055,0,0,1,256.477,82.62Z" transform="translate(-249.01 -72.895)" fill="#85beef" fill-rule="evenodd"/>
      </g>
      <g id="Grupo_1101628" data-name="Grupo 1101628" transform="translate(16.059 2.653)">
        <path id="Trazado_875349" data-name="Trazado 875349" d="M227.694,48.494a10.022,10.022,0,0,1-3.03,7.191c-.173.169-.35.331-.533.485a12.794,12.794,0,0,1-9.5,4.786,12.826,12.826,0,0,0,15.341-8.931v0a12.818,12.818,0,0,0-12.325-16.348c-.164,0-.329,0-.493.011a12.845,12.845,0,0,1,8.367,6.563,10.006,10.006,0,0,1,2.176,6.245Z" transform="translate(-214.627 -35.676)" fill="#2b4d66" fill-rule="evenodd"/>
      </g>
      <g id="Grupo_1101629" data-name="Grupo 1101629" transform="translate(0.103 0)">
        <path id="Trazado_875350" data-name="Trazado 875350" d="M226.178,415.031a.558.558,0,1,0,0-1.116h-3.554a.558.558,0,1,0,0,1.116Z" transform="translate(-205.558 -383.13)"/>
        <path id="Trazado_875351" data-name="Trazado 875351" d="M195.448,447.95a.558.558,0,0,0,.558.558h7.771a.558.558,0,0,0,0-1.116h-7.771A.558.558,0,0,0,195.448,447.95Z" transform="translate(-180.919 -414.117)"/>
        <path id="Trazado_875352" data-name="Trazado 875352" d="M37.374,32.139,33.2,27.715a2.9,2.9,0,0,0-1.246-.779V19.074a13.4,13.4,0,0,0,0-7.205V.558A.558.558,0,0,0,31.4,0H13.377a.558.558,0,1,0,0,1.116H30.842v8a13.371,13.371,0,0,0-23.536,0v-8h3.446a.558.558,0,0,0,0-1.116h-4a.558.558,0,0,0-.558.558V11.877a13.4,13.4,0,0,0,0,7.189v6.845a1.3,1.3,0,0,0-.281.237l-.013.015-2,2.4L.882,29.619l-.026.01a1.176,1.176,0,0,0-.7.718,1.141,1.141,0,0,0,.132.964l.013.02.788,1.162v0l.968,1.415.071,1.818.036,1.24c0,.01,0,.019,0,.029A1.144,1.144,0,0,0,3.329,38.08a1.367,1.367,0,0,0,.274-.028l.021,0,3.124-.766,3.127.766.02,0a1.2,1.2,0,0,0,.978-.2A1.139,1.139,0,0,0,11.3,37.2H24.367a.558.558,0,0,0,0-1.116H11.358l.01-.357.07-1.823,1.056-1.538.7-1.041.012-.019a1.139,1.139,0,0,0,.132-.964,1.177,1.177,0,0,0-.7-.719l-.025-.009L9.6,28.561l-2-2.4-.015-.017a1.309,1.309,0,0,0-.282-.236V21.823a13.362,13.362,0,0,0,19.683,4.425l1.721,1.766a2.928,2.928,0,0,0,.247,3.707l1.286,1.364h0l.008.009.59.626v2.369h-3.85a.558.558,0,1,0,0,1.116H31.4a.558.558,0,0,0,.558-.558V34.9l1.17,1.241a2.919,2.919,0,0,0,4.246-4.006ZM8.844,29.393a.557.557,0,0,0,.244.169l3.142,1.1a.042.042,0,0,1,.026.067l-.683,1.011-1.145,1.668a.558.558,0,0,0-.1.294l-.076,1.989-.035,1.219a.061.061,0,0,1-.091.046l-3.246-.8a.559.559,0,0,0-.266,0l-3.244.8a.074.074,0,0,1-.091-.044l-.035-1.227-.078-1.984a.558.558,0,0,0-.1-.293L2.013,31.866l-.779-1.148c-.006-.01-.012-.038.034-.052l3.142-1.1a.556.556,0,0,0,.243-.169l2.092-2.506a.01.01,0,0,1,.01,0Zm10.232-1.661a12.26,12.26,0,1,1,12.26-12.26,12.274,12.274,0,0,1-12.26,12.26Zm8.788-2.185a13.465,13.465,0,0,0,2.979-3.719v4.984a2.9,2.9,0,0,0-1.318.439Zm2.809,6.367-.9-.958a1.81,1.81,0,0,1,.074-2.548h0a1.8,1.8,0,0,1,2.549.074l.9.958Zm.766.812,2.623-2.474.833.883-2.623,2.473Zm5.05,2.727a1.807,1.807,0,0,1-2.549-.074l-.9-.959,2.624-2.474.9.958A1.805,1.805,0,0,1,36.488,35.453Z" transform="translate(-0.103 0)"/>
        <path id="Trazado_875353" data-name="Trazado 875353" d="M123.174,65.4A10.608,10.608,0,1,0,133.781,76,10.62,10.62,0,0,0,123.174,65.4Zm-1.958,19.9a9.477,9.477,0,0,1-4.486-2.325,3.817,3.817,0,0,1,2.51-3.149l1.1,2.926a.558.558,0,0,0,.835.266l.042-.029v2.312Zm-.082-3.6-.782-2.082c.041,0,.526,0,.526,0l1.4,1.31Zm1.874-9.028a8.458,8.458,0,0,0,1.394.118,7.281,7.281,0,0,0,2.089-.3c-.14,3.373-1.784,4.916-3.317,4.916-1.6,0-3.328-1.686-3.328-5.388a3.34,3.34,0,0,1,.039-.509A8.754,8.754,0,0,0,123.008,72.661Zm-2.753-2.248a3.327,3.327,0,0,1,6.175.915A7.276,7.276,0,0,1,120.255,70.413Zm4.435,7.751v.64l-1.517,1.417L121.657,78.8v-.64a3.46,3.46,0,0,0,3.033,0Zm-.675,7.294c-.278.025-.558.038-.842.038s-.564-.013-.842-.038V82.227l.842-.569.842.57v3.231Zm1.452-5.854s.485,0,.526,0l-.783,2.082-1.146-.776Zm-.337,5.689v-2.31l.04.027a.558.558,0,0,0,.835-.266l1.1-2.926a3.822,3.822,0,0,1,2.51,3.149A9.477,9.477,0,0,1,125.131,85.293Zm5.418-3.321a4.9,4.9,0,0,0-4.679-3.484h-.064V77.374a7.327,7.327,0,0,0,1.811-5.363,4.443,4.443,0,1,0-8.887,0,7.327,7.327,0,0,0,1.811,5.363v1.114h-.064a4.9,4.9,0,0,0-4.679,3.483,9.492,9.492,0,1,1,14.751,0Z" transform="translate(-104.202 -60.532)"/>
      </g>
    </g>
  </g>
</svg>
