<svg xmlns="http://www.w3.org/2000/svg" width="61.554" height="56.767" viewBox="0 0 61.554 56.767">
  <g id="_30" data-name="30" transform="translate(-334.621 -1399.423)">
    <g id="Trazado_875381" data-name="Trazado 875381" transform="translate(334.621 1399.423)" fill="#fece2f">
      <path d="M 49.55414199829102 55.2666015625 L 12.00000286102295 55.2666015625 C 6.210282802581787 55.2666015625 1.500002861022949 50.55632019042969 1.500002861022949 44.7666015625 L 1.500002861022949 12.00000095367432 C 1.500002861022949 6.210280895233154 6.210282802581787 1.500000834465027 12.00000286102295 1.500000834465027 L 49.55414199829102 1.500000834465027 C 55.34386444091797 1.500000834465027 60.05414199829102 6.210280895233154 60.05414199829102 12.00000095367432 L 60.05414199829102 44.7666015625 C 60.05414199829102 50.55632019042969 55.34386444091797 55.2666015625 49.55414199829102 55.2666015625 Z" stroke="none"/>
      <path d="M 11.99999618530273 3 C 7.037372589111328 3 2.999996185302734 7.037380218505859 2.999996185302734 12 L 2.999996185302734 44.7666015625 C 2.999996185302734 49.72922134399414 7.037372589111328 53.7666015625 11.99999618530273 53.7666015625 L 49.55413818359375 53.7666015625 C 54.51676177978516 53.7666015625 58.55413818359375 49.72922134399414 58.55413818359375 44.7666015625 L 58.55413818359375 12 C 58.55413818359375 7.037380218505859 54.51676177978516 3 49.55413818359375 3 L 11.99999618530273 3 M 11.99999618530273 0 L 49.55413818359375 0 C 56.18156051635742 0 61.55413818359375 5.372577667236328 61.55413818359375 12 L 61.55413818359375 44.7666015625 C 61.55413818359375 51.39402389526367 56.18156051635742 56.7666015625 49.55413818359375 56.7666015625 L 11.99999618530273 56.7666015625 C 5.372585296630859 56.7666015625 -3.814697265625e-06 51.39402389526367 -3.814697265625e-06 44.7666015625 L -3.814697265625e-06 12 C -3.814697265625e-06 5.372577667236328 5.372585296630859 0 11.99999618530273 0 Z" stroke="none" fill="#faedc1"/>
    </g>
    <g id="economic_5155998" transform="translate(346.755 1409.17)">
      <circle id="Elipse_11527" data-name="Elipse 11527" cx="12.215" cy="12.215" r="12.215" transform="translate(10.213 3.191)" fill="#ffe07d"/>
      <path id="Trazado_875381-2" data-name="Trazado 875381" d="M296.372,43.831q-.46,0-.912.034a12.215,12.215,0,0,1,0,24.362q.452.033.912.034a12.215,12.215,0,1,0,0-24.43Z" transform="translate(-273.944 -40.64)" fill="#ffd064"/>
      <path id="Trazado_875382" data-name="Trazado 875382" d="M20.26,254.4H15.5l-5.289,2.666a4.92,4.92,0,0,0-2.705,4.394v11.147H28.255V261.458a4.921,4.921,0,0,0-2.705-4.394Z" transform="translate(-6.955 -235.879)" fill="#bed8fb"/>
      <path id="Trazado_875383" data-name="Trazado 875383" d="M118,257.065,112.71,254.4h-4.757l-.736.371h3.713l5.289,2.666a4.92,4.92,0,0,1,2.705,4.394v10.776h1.78V261.459A4.921,4.921,0,0,0,118,257.065Z" transform="translate(-99.405 -235.88)" fill="#9dc6fb"/>
      <path id="Trazado_875384" data-name="Trazado 875384" d="M117.329,185.191h4.757v7.727h-4.757Z" transform="translate(-108.781 -171.71)" fill="#eaac9d"/>
      <path id="Trazado_875385" data-name="Trazado 875385" d="M130.155,286.353h-1.869l-.7-2.789h3.263Z" transform="translate(-118.294 -262.922)" fill="#5766cb"/>
      <path id="Trazado_875386" data-name="Trazado 875386" d="M81.735,254.4l2.378,2.123L82.5,257.9a.689.689,0,0,1-.874.018l-2.683-2.114Z" transform="translate(-73.186 -235.879)" fill="#ecf4ff"/>
      <path id="Trazado_875387" data-name="Trazado 875387" d="M152.379,254.4,150,256.521l1.616,1.382a.689.689,0,0,0,.874.018l2.683-2.114Z" transform="translate(-139.074 -235.879)" fill="#ecf4ff"/>
      <path id="Trazado_875388" data-name="Trazado 875388" d="M116.73,321.876H118.6l1.6,13.3h-5.078Z" transform="translate(-106.738 -298.445)" fill="#707dd3"/>
      <path id="Trazado_875389" data-name="Trazado 875389" d="M57.647,8.046l-.5.687a.809.809,0,0,1-1.337-.039l-.375-.587a1.282,1.282,0,0,0-1.08-.592H49.188A2.692,2.692,0,0,0,46.5,10.207v7.681a2.5,2.5,0,0,0,2.5,2.5H59.062a2.5,2.5,0,0,0,2.5-2.5V10.207a2.692,2.692,0,0,0-2.692-2.692h-.188a1.282,1.282,0,0,0-1.039.531Z" transform="translate(-43.104 -6.968)" fill="#5e6b75"/>
      <g id="Grupo_1101648" data-name="Grupo 1101648" transform="translate(14.417 0.547)">
        <path id="Trazado_875390" data-name="Trazado 875390" d="M199.293,7.515H199.1a1.281,1.281,0,0,0-.547.123,2.693,2.693,0,0,1,1.885,2.568v7.681a2.5,2.5,0,0,1-2.5,2.5h1.542a2.5,2.5,0,0,0,2.5-2.5V10.207A2.691,2.691,0,0,0,199.293,7.515Z" transform="translate(-197.939 -7.515)" fill="#4d5961"/>
      </g>
      <path id="Trazado_875391" data-name="Trazado 875391" d="M84.113,80.792A5.173,5.173,0,0,1,78.94,75.62v-4.23a.225.225,0,0,1,.258-.223c2.61.393,4.686.042,6.142-1.172a.225.225,0,0,1,.311.024,3.933,3.933,0,0,0,3.393,1.129.226.226,0,0,1,.242.225V75.62A5.173,5.173,0,0,1,84.113,80.792Z" transform="translate(-73.186 -64.851)" fill="#ffddce"/>
      <g id="Grupo_1101649" data-name="Grupo 1101649" transform="translate(7.397 6.281)">
        <path id="Trazado_875392" data-name="Trazado 875392" d="M109.973,86.293a6.017,6.017,0,0,1-1.074-.014v3.592a5.174,5.174,0,0,1-7.386,4.676,5.172,5.172,0,0,0,8.7-3.78V86.518A.226.226,0,0,0,109.973,86.293Z" transform="translate(-101.512 -86.279)" fill="#ffcbbe"/>
      </g>
      <g id="Grupo_1101650" data-name="Grupo 1101650" transform="translate(29.264 15.406)">
        <path id="Trazado_875393" data-name="Trazado 875393" d="M408.378,338.829H402.9a.994.994,0,0,1-.994-.994V336.81a.994.994,0,0,1,.994-.994h5.482a.994.994,0,0,1,.994.994v1.026A.994.994,0,0,1,408.378,338.829Z" transform="translate(-401.903 -326.776)" fill="#ebb044"/>
        <path id="Trazado_875394" data-name="Trazado 875394" d="M408.378,297.434H402.9a.994.994,0,0,1-.994-.994v-1.026a.994.994,0,0,1,.994-.994h5.482a.994.994,0,0,1,.994.994v1.026A.994.994,0,0,1,408.378,297.434Z" transform="translate(-401.903 -288.394)" fill="#ffc250"/>
        <path id="Trazado_875395" data-name="Trazado 875395" d="M408.378,256.04H402.9a.994.994,0,0,1-.994-.994v-1.026a.994.994,0,0,1,.994-.994h5.482a.994.994,0,0,1,.994.994v1.026A.994.994,0,0,1,408.378,256.04Z" transform="translate(-401.903 -250.014)" fill="#ebb044"/>
        <path id="Trazado_875396" data-name="Trazado 875396" d="M408.378,214.645H402.9a.994.994,0,0,1-.994-.994v-1.026a.994.994,0,0,1,.994-.994h5.482a.994.994,0,0,1,.994.994v1.026A.994.994,0,0,1,408.378,214.645Z" transform="translate(-401.903 -211.632)" fill="#ffc250"/>
      </g>
      <g id="Grupo_1101651" data-name="Grupo 1101651" transform="translate(0.008 0)">
        <path id="Trazado_875397" data-name="Trazado 875397" d="M271.449,143.981a3.343,3.343,0,0,0,1.835.64v.615a.546.546,0,1,0,1.092,0v-.658a2.721,2.721,0,0,0,2.145-2.234,2.388,2.388,0,0,0-1.644-2.733c-.165-.058-.333-.119-.5-.183v-2.662a1.711,1.711,0,0,1,.7.335.546.546,0,0,0,.737-.806,2.869,2.869,0,0,0-1.441-.639v-.549a.546.546,0,1,0-1.092,0v.591q-.128.028-.261.068a2.26,2.26,0,0,0-1.548,1.773,1.989,1.989,0,0,0,.651,1.96,5.382,5.382,0,0,0,1.159.663v3.366a2.3,2.3,0,0,1-1.237-.46.546.546,0,0,0-.6.914Zm1.35-5.342a.912.912,0,0,1-.251-.9,1.19,1.19,0,0,1,.736-.912v2.119A3.412,3.412,0,0,1,272.8,138.639Zm1.714,2a1.313,1.313,0,0,1,.931,1.522,1.652,1.652,0,0,1-1.069,1.285v-2.856Z" transform="translate(-251.461 -124.766)"/>
        <path id="Trazado_875398" data-name="Trazado 875398" d="M37.279,16.4a1.541,1.541,0,0,0-1.54-1.54h-.562A12.794,12.794,0,0,0,32.3,7.317a.546.546,0,1,0-.844.693,11.528,11.528,0,0,1,2.631,6.85H32.559A10.153,10.153,0,0,0,19.008,5.852V4.246a11.689,11.689,0,0,1,11,2.289.546.546,0,0,0,.71-.83A12.783,12.783,0,0,0,19,3.109,3.241,3.241,0,0,0,15.77,0,1.9,1.9,0,0,0,14.1.758l-.5.687a.26.26,0,0,1-.22.109.257.257,0,0,1-.214-.121L12.8.845A1.819,1.819,0,0,0,11.255,0H6.084A3.241,3.241,0,0,0,2.846,3.239V7.75a.546.546,0,1,0,1.092,0V3.239A2.148,2.148,0,0,1,6.084,1.093h5.171a.733.733,0,0,1,.62.34l.375.587a1.355,1.355,0,0,0,2.239.065l.5-.687a.846.846,0,0,1,.785-.3,2.148,2.148,0,0,1,2.146,2.146V10.92a1.96,1.96,0,0,1-1.664,1.935,5.69,5.69,0,0,0,.394-2.086V6.52a.772.772,0,0,0-.826-.769,3.4,3.4,0,0,1-2.95-.95A.769.769,0,0,0,11.8,4.724C10.516,5.8,8.595,6.151,6.093,5.775a.771.771,0,0,0-.885.763v4.23A5.69,5.69,0,0,0,5.6,12.855,1.96,1.96,0,0,1,3.938,10.92V9.861a.546.546,0,0,0-1.092,0V10.92A3.053,3.053,0,0,0,5.9,13.969h.294A5.764,5.764,0,0,0,8,15.682v2.5L3.014,20.7A5.439,5.439,0,0,0,.008,25.579V36.726a.546.546,0,0,0,.546.546H21.3a.546.546,0,0,0,.546-.546V28.154c.194.009.389.013.582.013a12.707,12.707,0,0,0,6.291-1.656,1.542,1.542,0,0,0,1.539,1.494H35.74a1.541,1.541,0,0,0,1.54-1.54V25.44a1.533,1.533,0,0,0-.364-.994,1.533,1.533,0,0,0,.364-.994V22.426a1.533,1.533,0,0,0-.364-.994,1.533,1.533,0,0,0,.364-.994V19.413a1.533,1.533,0,0,0-.364-.994,1.533,1.533,0,0,0,.364-.994Zm-1.092,0v1.026a.448.448,0,0,1-.448.448H30.258a.448.448,0,0,1-.448-.448V16.4a.448.448,0,0,1,.448-.448H35.74A.448.448,0,0,1,36.187,16.4Zm0,3.013v1.026a.448.448,0,0,1-.448.448H30.258a.448.448,0,0,1-.448-.448V19.413a.448.448,0,0,1,.448-.448H35.74A.448.448,0,0,1,36.187,19.413Zm0,3.013v1.026a.448.448,0,0,1-.448.448H30.258a.448.448,0,0,1-.448-.448V22.426a.448.448,0,0,1,.448-.448H35.74A.448.448,0,0,1,36.187,22.426ZM15.958,13.969a3.053,3.053,0,0,0,3.049-3.049v-3.9A9.059,9.059,0,0,1,31.465,14.86H30.258a1.541,1.541,0,0,0-1.54,1.54v1.026a1.533,1.533,0,0,0,.364.994,1.533,1.533,0,0,0-.364.994v1.026a1.533,1.533,0,0,0,.364.994,1.545,1.545,0,0,0-.219.341,8.983,8.983,0,0,1-6.436,2.686c-.234,0-.469-.009-.7-.027A5.436,5.436,0,0,0,18.84,20.7l-4.989-2.515v-2.5a5.764,5.764,0,0,0,1.813-1.713h.294Zm-7.5,5.205L10.1,20.633l-1.141.976a.143.143,0,0,1-.181,0L6.765,20.03Zm1.732,2.813.733-.627.733.627-.224.9H10.419Zm1.562-1.354,1.635-1.459,1.7.856-2.01,1.584a.143.143,0,0,1-.181,0ZM6.3,10.769V6.906a8.042,8.042,0,0,0,5.97-1.159,4.43,4.43,0,0,0,3.284,1.109v3.912A4.632,4.632,0,0,1,10.927,15.4h0A4.632,4.632,0,0,1,6.3,10.769Zm4.627,5.719a5.7,5.7,0,0,0,1.832-.3v2.088L10.927,19.91,9.095,18.275V16.187A5.7,5.7,0,0,0,10.927,16.488ZM1.1,25.579a4.353,4.353,0,0,1,2.405-3.906l2.184-1.1,2.41,1.9a1.239,1.239,0,0,0,1.142.205l.2.79L8.891,28a.546.546,0,0,0,1.084.131l.5-4.152h.9l1.472,12.2H9l.717-5.94a.546.546,0,1,0-1.084-.131L7.9,36.181H6.3v-8a.546.546,0,1,0-1.092,0v8H1.1Zm19.654,10.6H16.646v-8a.546.546,0,1,0-1.092,0v8h-1.6L12.416,23.466l.2-.79a1.238,1.238,0,0,0,1.142-.205l2.41-1.9,2.184,1.1a4.353,4.353,0,0,1,2.405,3.906v10.6Zm1.092-9.12V25.579q0-.022,0-.045c.194.011.389.017.582.017a10.056,10.056,0,0,0,6.29-2.183v.084a1.533,1.533,0,0,0,.364.994,1.534,1.534,0,0,0-.35.781,11.614,11.614,0,0,1-6.3,1.848C22.234,27.075,22.04,27.07,21.846,27.061Zm14.342-.6a.448.448,0,0,1-.448.448H30.258a.448.448,0,0,1-.448-.448V25.44a.448.448,0,0,1,.448-.448H35.74a.448.448,0,0,1,.448.448Z" transform="translate(-0.008 0)"/>
      </g>
    </g>
  </g>
</svg>
