<svg xmlns="http://www.w3.org/2000/svg" width="61.554" height="56.767" viewBox="0 0 61.554 56.767">
  <g id="_31" data-name="31" transform="translate(-334.621 -1399.423)">
    <g id="Rectángulo_401341" data-name="Rectángulo 401341" transform="translate(334.621 1399.423)" fill="#fece2f" stroke="#faedc1" stroke-width="3">
      <rect width="61.554" height="56.767" rx="12" stroke="none"/>
      <rect x="1.5" y="1.5" width="58.554" height="53.767" rx="10.5" fill="none"/>
    </g>
    <g id="cash_3407305" transform="translate(348.116 1409.348)">
      <g id="Grupo_1101666" data-name="Grupo 1101666" transform="translate(1.563 1.563)">
        <g id="Grupo_1101652" data-name="Grupo 1101652" transform="translate(10.7 18.585)">
          <path id="Trazado_875399" data-name="Trazado 875399" d="M23.253,35a7.411,7.411,0,0,1,1.07.141l-.507,4.928L21,37.816Z" transform="translate(-21 -35)" fill="#ffc729"/>
        </g>
        <g id="Grupo_1101653" data-name="Grupo 1101653" transform="translate(7.378 18.585)">
          <path id="Trazado_875400" data-name="Trazado 875400" d="M16.17,35l2.253,2.816-2.816,2.253L15.1,35.135A8.29,8.29,0,0,1,16.17,35Z" transform="translate(-15.1 -35)" fill="#ffc729"/>
        </g>
        <g id="Grupo_1101654" data-name="Grupo 1101654" transform="translate(0 18.72)">
          <path id="Trazado_875401" data-name="Trazado 875401" d="M22.522,50.311H6.505V46.932H2v-2.8A9.052,9.052,0,0,1,9.378,35.24l.507,4.933L12.7,37.921l2.816,2.253.507-4.928a8.843,8.843,0,0,1,3.435,1.419v.13l1.69,2.253-2.579,3.869a4.753,4.753,0,0,0,3.954,7.395Z" transform="translate(-2 -35.24)" fill="#fcd770"/>
        </g>
        <g id="Grupo_1101655" data-name="Grupo 1101655" transform="translate(2.816)">
          <path id="Trazado_875402" data-name="Trazado 875402" d="M20.516,9.321l-4.46-.344A3.773,3.773,0,0,1,13.3,7.446,9.522,9.522,0,0,1,9.253,9.321v1.126a2.242,2.242,0,0,0-1.678.749A6.519,6.519,0,0,1,13.522,2h2.726a6.521,6.521,0,0,1,5.947,9.2c-.028-.028-.056-.062-.084-.09a2.267,2.267,0,0,0-1.594-.659Z" transform="translate(-7 -2)" fill="#b27946"/>
        </g>
        <g id="Grupo_1101656" data-name="Grupo 1101656" transform="translate(25.906 0)">
          <path id="Trazado_875403" data-name="Trazado 875403" d="M55.665,6.742a1.264,1.264,0,0,1,.22.721,1.288,1.288,0,0,1-1.3,1.3h-.957V22.274l-3.379-.13V8.758H49.3a1.3,1.3,0,0,1-1.3-1.3,1.264,1.264,0,0,1,.22-.721l2.85-4.275a1.049,1.049,0,0,1,1.746,0Z" transform="translate(-48 -2)" fill="#ffeaa7"/>
        </g>
        <g id="Grupo_1101657" data-name="Grupo 1101657" transform="translate(20.274 7.884)">
          <path id="Trazado_875404" data-name="Trazado 875404" d="M43.632,22.758v9.011H41l-.749-1.126,1.69-2.253v-.563a1.687,1.687,0,0,0-1.69-1.69V22.758H39.3a1.3,1.3,0,0,1-1.3-1.3,1.264,1.264,0,0,1,.22-.721l2.85-4.275a1.049,1.049,0,0,1,1.746,0l2.85,4.275a1.264,1.264,0,0,1,.22.721,1.288,1.288,0,0,1-1.3,1.3Z" transform="translate(-38 -16)" fill="#ffeaa7"/>
        </g>
        <g id="Grupo_1101658" data-name="Grupo 1101658" transform="translate(0 30.412)">
          <path id="Trazado_875405" data-name="Trazado 875405" d="M2,56H6.505v3.379H2Z" transform="translate(-2 -56)" fill="#f0d0b4"/>
        </g>
        <g id="Grupo_1101659" data-name="Grupo 1101659" transform="translate(16.298 8.448)">
          <path id="Trazado_875406" data-name="Trazado 875406" d="M30.974,20.942V17a2.267,2.267,0,0,1,1.594.659c.028.028.056.062.084.09a2.253,2.253,0,0,1-1.678,3.756H30.94A4.652,4.652,0,0,0,30.974,20.942Z" transform="translate(-30.94 -17)" fill="#f0d0b4"/>
        </g>
        <g id="Grupo_1101660" data-name="Grupo 1101660" transform="translate(8.448 16.845)">
          <path id="Trazado_875407" data-name="Trazado 875407" d="M21.072,31.91l.434,1.74-2.253,2.816L17,33.65l.434-1.74a4.664,4.664,0,0,0,.693.051h2.253A4.664,4.664,0,0,0,21.072,31.91Z" transform="translate(-17 -31.91)" fill="#f0d0b4"/>
        </g>
        <g id="Grupo_1101661" data-name="Grupo 1101661" transform="translate(5.069 5.446)">
          <path id="Trazado_875408" data-name="Trazado 875408" d="M22.23,19.177a4.511,4.511,0,0,1-3.779,3.892,4.664,4.664,0,0,1-.693.051H15.505a4.664,4.664,0,0,1-.693-.051,4.511,4.511,0,0,1-3.779-3.892A4.653,4.653,0,0,1,11,18.614V13.545a9.522,9.522,0,0,0,4.044-1.875A3.773,3.773,0,0,0,17.8,13.2l4.46.344v5.069A4.653,4.653,0,0,1,22.23,19.177Z" transform="translate(-11 -11.67)" fill="#f0d0b4"/>
        </g>
        <g id="Grupo_1101662" data-name="Grupo 1101662" transform="translate(2.816 8.448)">
          <path id="Trazado_875409" data-name="Trazado 875409" d="M9.253,17v3.942a4.653,4.653,0,0,0,.034.563H9.253a2.253,2.253,0,0,1-1.678-3.756A2.242,2.242,0,0,1,9.253,17Z" transform="translate(-7 -17)" fill="#f0d0b4"/>
        </g>
        <g id="Grupo_1101663" data-name="Grupo 1101663" transform="translate(17.458 18.022)">
          <path id="Trazado_875410" data-name="Trazado 875410" d="M38.069,34a1.687,1.687,0,0,1,1.69,1.69v.563l-1.69,2.253H34.69L33,36.253V35.69a1.69,1.69,0,0,1,3.379,0A1.692,1.692,0,0,1,38.069,34Z" transform="translate(-33 -34)" fill="#a0d468"/>
        </g>
        <g id="Grupo_1101664" data-name="Grupo 1101664" transform="translate(15.769 22.527)">
          <path id="Trazado_875411" data-name="Trazado 875411" d="M33.379,42h3.379l.749,1.126,1.83,2.743a4.755,4.755,0,0,1-3.954,7.395h-.631A4.755,4.755,0,0,1,30.8,45.869Z" transform="translate(-30 -42)" fill="#b4dd7f"/>
        </g>
      </g>
      <g id="Grupo_1101667" data-name="Grupo 1101667" transform="translate(1 1)">
        <path id="Trazado_875416" data-name="Trazado 875416" d="M37.816,45H36.69v1.126a1.69,1.69,0,0,0,0,3.379h1.126a.563.563,0,1,1,0,1.126H36.69a.564.564,0,0,1-.563-.563H35a1.692,1.692,0,0,0,1.69,1.69v1.126h1.126V51.758a1.69,1.69,0,1,0,0-3.379H36.69a.563.563,0,0,1,0-1.126h1.126a.564.564,0,0,1,.563.563h1.126a1.692,1.692,0,0,0-1.69-1.69Z" transform="translate(-15.852 -20.22)"/>
        <path id="Trazado_875417" data-name="Trazado 875417" d="M35.6,5.993,32.755,1.719a1.615,1.615,0,0,0-2.688,0L27.218,5.993a1.861,1.861,0,0,0,1.548,2.892h.393v3.772L27.124,9.6a1.616,1.616,0,0,0-2.689,0l-2.849,4.273a1.861,1.861,0,0,0,1.548,2.892h.393V19.1a2.239,2.239,0,0,0-1.126.7,2.237,2.237,0,0,0-3.874.947,9.613,9.613,0,0,0-3.562-1.125l-.2-.794a5.057,5.057,0,0,0,3.573-3.795,2.8,2.8,0,0,0,1.873-4.365A7.062,7.062,0,0,0,13.628,1H10.9a7.062,7.062,0,0,0-6.584,9.669,2.8,2.8,0,0,0,1.872,4.362,5.08,5.08,0,0,0,3.574,3.795l-.2.8A9.64,9.64,0,0,0,1,29.177v6.74H22.714a5.318,5.318,0,0,0,4.425-8.268L24.78,24.11l1.563-2.084v-.752a2.251,2.251,0,0,0-1.69-2.173V15.643H23.135a.734.734,0,0,1-.61-1.141l2.849-4.273a.507.507,0,0,1,.814,0L29.036,14.5a.734.734,0,0,1-.61,1.142H26.906v9.574h1.126V16.769h.393a1.843,1.843,0,0,0,.734-.152v1.842h1.126V7.758H28.766a.734.734,0,0,1-.61-1.141L31,2.344a.507.507,0,0,1,.814,0l2.849,4.273a.734.734,0,0,1-.61,1.142H32.538v9.574h1.126V8.884h.393A1.86,1.86,0,0,0,35.6,5.993ZM14.97,20.759l-.345,3.372-1.569-1.255,1.71-2.137c.068.007.137.012.2.02Zm3.489-6.91V10.678a1.679,1.679,0,0,1,0,3.171ZM10.9,2.126h2.729a5.947,5.947,0,0,1,5.686,7.719,2.775,2.775,0,0,0-.856-.341v-1.1L16.9,8.148a2.977,2.977,0,0,1-2.4-2.216l-1.093.273a4.091,4.091,0,0,0,1.037,1.849l-.963-.074A3.238,3.238,0,0,1,10.563,5.4l-1.1.22a4.3,4.3,0,0,0,.46,1.236,8.949,8.949,0,0,1-3.4,1.481l-.453.091V9.5a2.789,2.789,0,0,0-.856.341A5.946,5.946,0,0,1,10.9,2.126ZM4.942,12.264a1.687,1.687,0,0,1,1.126-1.586v3.171A1.686,1.686,0,0,1,4.942,12.264Zm2.253,1.69V9.335a10.107,10.107,0,0,0,3.4-1.579,4.345,4.345,0,0,0,2.8,1.347l3.938.3v4.547A3.942,3.942,0,0,1,13.39,17.9H11.137a3.947,3.947,0,0,1-3.942-3.942Zm3.942,5.069H13.39c.088,0,.174-.008.261-.013l.251,1.005-1.639,2.048-1.639-2.048.252-1.006c.087,0,.172.014.261.014ZM9.765,20.743l1.706,2.133L9.9,24.131l-.345-3.365c.069-.008.138-.017.207-.024Zm-7.639,11.8H5.505v2.253H2.126Zm4.505,2.253V28.033H5.505v3.379H2.126V29.177a8.515,8.515,0,0,1,6.321-8.2L8.993,26.3l3.271-2.617L15.534,26.3l.545-5.328a8.453,8.453,0,0,1,2.379,1.041v.011l1.563,2.084-2.36,3.539a5.307,5.307,0,0,0,1.164,7.142ZM26.906,30.6a4.2,4.2,0,0,1-4.192,4.192h-.627A4.192,4.192,0,0,1,18.6,28.274l2.413-3.62h2.776l2.413,3.62A4.179,4.179,0,0,1,26.906,30.6Zm-1.69-9.325v.376l-1.408,1.877H20.993L19.585,21.65v-.376a1.126,1.126,0,1,1,2.253,0V22.4h1.126V21.274a1.126,1.126,0,0,1,2.253,0Z" transform="translate(-1 -1)"/>
        <path id="Trazado_875418" data-name="Trazado 875418" d="M57,32h1.126v1.126H57Z" transform="translate(-25.462 -14.542)"/>
        <path id="Trazado_875419" data-name="Trazado 875419" d="M57,36h1.126v1.126H57Z" transform="translate(-25.462 -16.289)"/>
        <path id="Trazado_875420" data-name="Trazado 875420" d="M20,53h1.126v1.126H20Z" transform="translate(-9.3 -23.715)"/>
        <path id="Trazado_875421" data-name="Trazado 875421" d="M20,49h1.126v1.126H20Z" transform="translate(-9.3 -21.967)"/>
        <path id="Trazado_875422" data-name="Trazado 875422" d="M20,57h1.126v1.126H20Z" transform="translate(-9.3 -25.462)"/>
        <path id="Trazado_875423" data-name="Trazado 875423" d="M20,45h1.126v1.126H20Z" transform="translate(-9.3 -20.22)"/>
      </g>
    </g>
  </g>
</svg>
