<svg xmlns="http://www.w3.org/2000/svg" xmlns:xlink="http://www.w3.org/1999/xlink" width="505" height="221" viewBox="0 0 505 221">
  <defs>
    <linearGradient id="linear-gradient" x1="1.043" y1="-0.125" x2="0.336" y2="1.321" gradientUnits="objectBoundingBox">
      <stop offset="0" stop-color="#64f6f0"/>
      <stop offset="0.645" stop-color="#4b31a8"/>
      <stop offset="1" stop-color="#461698"/>
    </linearGradient>
    <clipPath id="clip-path">
      <rect id="Rectángulo_401751" data-name="Rectángulo 401751" width="505" height="221" transform="translate(915.051 397)" fill="none"/>
    </clipPath>
    <clipPath id="clip-path-2">
      <path id="Rectangle_652" data-name="Rectangle 652" d="M1220.473,0H19.528C8.743,0,0,3.669,0,8.195V213.06c0,4.526,8.743,8.195,19.528,8.195H1220.473c10.785,0,19.527-3.669,19.527-8.195V8.195C1240,3.669,1231.258,0,1220.473,0Z" fill="url(#linear-gradient)"/>
    </clipPath>
    <clipPath id="clip-path-3">
      <rect id="Rectángulo_401432" data-name="Rectángulo 401432" width="295" height="221.79" transform="translate(-1.967 0)" fill="#d6c0fd"/>
    </clipPath>
    <clipPath id="clip-path-4">
      <rect id="Rectángulo_401431" data-name="Rectángulo 401431" width="183.111" height="712.968" fill="none"/>
    </clipPath>
    <clipPath id="clip-path-6">
      <rect id="Rectángulo_401428" data-name="Rectángulo 401428" width="4.467" height="3.582" fill="none"/>
    </clipPath>
    <clipPath id="clip-path-7">
      <rect id="Rectángulo_401429" data-name="Rectángulo 401429" width="11.326" height="3.715" fill="none"/>
    </clipPath>
  </defs>
  <g id="_4" data-name="4" transform="translate(-915.051 -397)" clip-path="url(#clip-path)">
    <g id="tarjeta-personaje" transform="translate(1.666 -970.255)">
      <g id="Enmascarar_grupo_45" data-name="Enmascarar grupo 45" transform="translate(178.333 1367)" clip-path="url(#clip-path-2)">
        <path id="Sustracción_4" data-name="Sustracción 4" d="M577.508,379.1h0c-20.883-2.08-41.859-4.891-62.344-8.354-20.256-3.424-40.532-7.572-60.262-12.327-19.546-4.709-39.03-10.126-57.908-16.1-18.738-5.929-37.34-12.551-55.293-19.682-17.848-7.09-35.48-14.851-52.408-23.068-16.847-8.178-33.42-17.013-49.254-26.259-15.767-9.206-31.189-19.048-45.836-29.252s-28.819-20.989-42.143-32.053c-13.382-11.111-26.231-22.771-38.189-34.655-12.013-11.939-23.44-24.409-33.965-37.063a487.652,487.652,0,0,1-29.471-39.277A448.961,448.961,0,0,1,25.716,59.718,417.474,417.474,0,0,1,6.031,16.6C3.9,11.121,1.872,5.536,0,0H183.354c1.469,3.138,3.012,6.3,4.589,9.39a331.782,331.782,0,0,0,17.35,29.994C211.585,49.068,218.551,58.695,226,68c7.387,9.228,15.42,18.346,23.878,27.1,8.408,8.708,17.448,17.271,26.868,25.454,9.392,8.157,19.377,16.123,29.679,23.675S327.6,159.1,338.731,165.988s22.821,13.519,34.749,19.715,24.387,12.1,37.009,17.536c12.695,5.467,25.848,10.589,39.094,15.225,13.338,4.67,27.127,8.97,40.986,12.781,13.966,3.838,28.333,7.27,42.7,10.2,14.518,2.959,29.4,5.478,44.237,7.489V379.1Z" transform="translate(729.794 -0.364)" fill="#464bc7"/>
        <path id="Sustracción_2" data-name="Sustracción 2" d="M405.691,0c224.056,0,405.69,132.663,405.69,296.312S629.747,592.623,405.691,592.623,0,459.96,0,296.312,181.633,0,405.691,0Z" transform="translate(640.743 125.306)" fill="#a0a0ca" opacity="0.444" style="mix-blend-mode: multiply;isolation: isolate"/>
        <path id="Sustracción_6" data-name="Sustracción 6" d="M373.3,232.633h0c-18.455-2.721-36.893-6.241-54.8-10.462a622.346,622.346,0,0,1-70.884-21.18,570.356,570.356,0,0,1-65.033-28.449,510.765,510.765,0,0,1-58.234-35.02A447.459,447.459,0,0,1,73.872,96.629,386.684,386.684,0,0,1,32.105,50.555,334.335,334.335,0,0,1,0,0H2.13C4.5,4.6,7.013,9.2,9.6,13.662a338.517,338.517,0,0,0,21.225,32.18A370.141,370.141,0,0,0,56.069,76.193c9.016,9.747,18.778,19.281,29.015,28.339,10.205,9.036,21.15,17.832,32.529,26.143s23.427,16.307,35.8,23.762c12.416,7.483,25.469,14.612,38.8,21.19,13.379,6.6,27.362,12.807,41.555,18.439,14.29,5.669,29.113,10.884,44.06,15.5,15.085,4.662,30.663,8.827,46.3,12.379,15.778,3.584,32.028,6.637,48.3,9.072l.875.129v1.485Z" transform="translate(934.997 -0.363)" fill="#fff"/>
      </g>
    </g>
    <g id="_4-2" data-name="4" transform="translate(1021.967 396.745)" clip-path="url(#clip-path-3)">
      <path id="Trazado_874464" data-name="Trazado 874464" d="M325.19,479.732a35.212,35.212,0,0,0,10.344,24.978l35.755,35.745L335.534,576.2A35.332,35.332,0,0,0,385.5,626.167l35.744-35.744,35.745,35.744A35.329,35.329,0,0,0,506.949,576.2L471.2,540.454l35.744-35.745a35.328,35.328,0,0,0,0-49.957h0a35.331,35.331,0,0,0-49.958,0L421.247,490.5,385.5,454.752a35.344,35.344,0,0,0-49.968,0h0a35.218,35.218,0,0,0-10.344,24.979Z" transform="translate(-268.174 -427.565)" fill="#d6c0fd"/>
      <g id="Grupo_1099706" data-name="Grupo 1099706" transform="translate(49.009 0)">
        <g id="Grupo_1099705" data-name="Grupo 1099705" clip-path="url(#clip-path-4)">
          <g id="Grupo_1099704" data-name="Grupo 1099704" transform="translate(0)">
            <g id="Grupo_1099703" data-name="Grupo 1099703" clip-path="url(#clip-path-4)">
              <path id="Trazado_874465" data-name="Trazado 874465" d="M15.784,418.2c3.642-5.872,36.279-37.178,36.279-37.178s6.673,5.23,6.35,10.989c-.309,5.484-.077,34.348-.158,37.389H54.3l-2.232-13.169s-9.023,14.436-15.8,19.38S6.6,439.667,1.108,438.935,12.144,424.073,15.784,418.2" transform="translate(0 272.564)" fill="#171612"/>
              <path id="Trazado_874466" data-name="Trazado 874466" d="M46.368,372.6l-.525,14.128s1.832,4.211,0,10.436-8.762,16.1-15.378,23.435c-5.709,6.325-17.942,12.634-21.6,10.985s6.957-14.28,10.069-20.871a113.156,113.156,0,0,0,6.743-18.555c1.707-6.288,1.943-21.08,1.943-21.08Z" transform="translate(5.795 265.449)" fill="#b1614f"/>
              <path id="Trazado_874467" data-name="Trazado 874467" d="M54.2,329.961s7.535,24.008,3.621,66.658c-2.938,32.019-3.235,76.4-3.2,96.528,0,.611,0,1.194,0,1.757,0,1.5.007,3.527,0,5.686,0,.576,0,1.163,0,1.753,0,5.465,0,11.129,0,11.129l-30,3s-.5-4.842-1.074-9.92q-.1-.867-.2-1.727c-.228-2.007-.461-3.966-.669-5.6-.072-.552-.146-1.129-.221-1.724C17.92,461.818,4.01,359.2,3.941,329.016c0-.949.01-1.825.034-2.628l.01-.259C4.732,306,12,214.874,19.441,185.507c5.3-20.919,53.824-8.719,53.824-8.719S62.932,266.739,57.317,291.16c-7.354,32.01-3.122,38.8-3.122,38.8" transform="translate(2.819 123.935)" fill="#314fa5"/>
              <path id="Trazado_874468" data-name="Trazado 874468" d="M26.549,264.855a94,94,0,0,1-13.913,1.1,56.336,56.336,0,0,1-8.7-.614c0-.95.01-1.827.034-2.628,9.623,1.618,22-.4,22.147-.42a1.3,1.3,0,0,1,.427,2.566" transform="translate(2.819 187.614)" fill="#1c2b74"/>
              <path id="Trazado_874469" data-name="Trazado 874469" d="M46.53,365.835l-31.079,4.208q-.1-.865-.2-1.727l31.271-4.235c0,.578,0,1.165,0,1.755" transform="translate(10.913 260.443)" fill="#171612"/>
              <path id="Trazado_874470" data-name="Trazado 874470" d="M49.055,191.586a.956.956,0,0,0-1.1.787c-.146.9-14.761,89.894-20.557,111.868a.941.941,0,0,0-.017.4c.053.322,5.42,32.562,4.649,54.9-.743,21.529-1.141,120.9-1.178,129.226.638-.015,1.184.034,1.82,0,.041-8.831.528-107.727,1.269-129.16.744-21.6-4.184-52.282-4.642-55.082,5.853-22.394,20.4-110.954,20.543-111.849a.955.955,0,0,0-.789-1.1" transform="translate(19.578 137.041)" fill="#171612"/>
              <path id="Trazado_874471" data-name="Trazado 874471" d="M59.3,237.355q2.087.525,4.192,1.007c17.946,4.1,36.784,5.767,49.968,2.614,6.506-1.554,10.668-9.532,13.316-18.443a34.563,34.563,0,0,0,1.847-7.4c1.614-24.761-4.475-35.266-4.475-35.266L27.106,169.026s-3.227,5.951-6.806,13.707a162.56,162.56,0,0,0-7.249,18.111l-.009.017a47.228,47.228,0,0,0-2.156,9.633c-.77,8.824,22.3,20.284,48.419,26.861" transform="translate(7.774 120.912)" fill="#314fa5"/>
              <path id="Trazado_874472" data-name="Trazado 874472" d="M115.614,378.05s7.415,3.021,7.69,13.457.165,41.4.165,41.4l-3.05.108-2.95-13.647s-1.305,10.314-6.523,16.906-16.478,6.865-23.893,5.767-1.921-14.831,1.1-22.519,9.34-26.09,9.34-26.09Z" transform="translate(59.62 270.437)" fill="#171612"/>
              <path id="Trazado_874473" data-name="Trazado 874473" d="M106.983,364.84s3.916,18.047,5.793,22.66c1.17,2.878,5.218,9.337,3.021,18.126s-3.662,21.6-8.789,27.1S88.516,438.4,87.418,434s6.774-20.689,7.141-29.111-4.535-35.334-4.535-35.334Z" transform="translate(62.459 260.987)" fill="#b1614f"/>
              <path id="Trazado_874474" data-name="Trazado 874474" d="M143.446,500.453l-28.006,7.095s-1.6-4.878-3.046-9.131c-.2-.568-.383-1.12-.568-1.654-.266-.777-.518-1.5-.741-2.132-.185-.52-.379-1.07-.581-1.645-10.4-29.386-44.671-127-50.2-152.6-.3-1.4-.618-2.938-.943-4.587-.16-.839-.329-1.705-.5-2.6-5.348-28.356-12.709-84.555-13.409-115.748a123.211,123.211,0,0,1,.491-17.358,11.626,11.626,0,0,1,1.4-4.2C56.571,179.6,104.394,185.1,104.394,185.1s.077,2.628.216,7.112c.642,22.217,2.256,88.306,3.561,109.113,1.582,25.123,5.594,34.255,5.594,34.255s9.028,23.571,14.332,66.068c3.945,31.605,11.213,67.523,13.167,83.978.075.607.139,1.189.209,1.741.082.674.178,1.434.292,2.235.074.557.16,1.139.244,1.727.633,4.335,1.437,9.124,1.437,9.124" transform="translate(32.464 131.77)" fill="#314fa5"/>
              <path id="Trazado_874475" data-name="Trazado 874475" d="M75.814,271.263a94.132,94.132,0,0,1-13.562,3.3,56.756,56.756,0,0,1-8.513.777c-.163-.837-.331-1.707-.5-2.6,9.747.053,21.6-3.894,21.744-3.937a1.3,1.3,0,0,1,.83,2.465" transform="translate(38.085 192.233)" fill="#1c2b74"/>
              <path id="Trazado_874476" data-name="Trazado 874476" d="M114.3,363.971l-1.676.4-1.59.379-26.349,6.307c-.2-.568-.386-1.122-.568-1.654l26.329-6.3,1.913-.456,1.695-.4c.075.557.16,1.139.247,1.727" transform="translate(60.173 259.13)" fill="#1c2b74"/>
              <path id="Trazado_874477" data-name="Trazado 874477" d="M83.955,223.376a.935.935,0,0,0,.211-1.846,29.883,29.883,0,0,1-10.831-5.77c-7.28-5.983-11.311-14.541-11.98-25.435a.935.935,0,1,0-1.866.115c.878,14.287,7.409,22.473,12.731,26.823a31.148,31.148,0,0,0,11.524,6.089.986.986,0,0,0,.211.024" transform="translate(42.553 135.519)" fill="#171612"/>
              <path id="Trazado_874478" data-name="Trazado 874478" d="M115.541,483.128c.123.715.192,1.117.2,1.17.038.2.784,4.36.7,4.532l-1.684.442c-.122-.129-.865-4.463-.9-4.65-.009-.051-.081-.472-.208-1.208-1.714-9.94-13.436-78.141-16.562-99.85-2.889-20.016-14.131-58.145-14.246-58.528a1.117,1.117,0,0,1-.036-.2c-2.654-37.82-8.673-134.83-8.733-135.806a.954.954,0,0,1,1.9-.118c.06.976,6.071,97.8,8.726,135.684.65,2.206,11.44,39.053,14.272,58.694,3.132,21.72,14.874,90.044,16.56,99.838" transform="translate(52.99 134.498)" fill="#171612"/>
              <path id="Trazado_874479" data-name="Trazado 874479" d="M46.256,217.57a.955.955,0,0,0,.444-1.8c-.146-.077-10.251-5.551-12.272-17.469a.955.955,0,1,0-1.883.319A27.46,27.46,0,0,0,45.813,217.46a.954.954,0,0,0,.443.11" transform="translate(23.271 141.284)" fill="#171612"/>
              <path id="Trazado_874480" data-name="Trazado 874480" d="M124.448,169.363c-3.019,20.184-2.12,17.718,6.834,57.763,0,0,1.77,12.371,3.722,28.214,2.161,17.545,8.906,40.3-4.422,43.65-9.278,2.329-24.514,3.841-41.65,3.468L87.194,279.92l-53.908-9a204.728,204.728,0,0,0-2.1,22c-.07-.026-.141-.048-.211-.074-11.771-4.211-20.092-9.369-21.229-14.369-2.1-9.213,1.947-31.526,8.029-57.457.11-.257.964-3.571,1.226-4.294.165-.449.357-.983.566-1.6,1.226-3.54,3.2-9.705,5.285-17.164.437-1.576.883-3.211,1.321-4.89,1.16-4.4,2.305-9.105,3.329-13.9q.579-2.712,1.1-5.443c.328-1.729.638-3.46.918-5.184.3-1.815.533-3.417.7-4.764.014-.112.026-.218.039-.321.026-.235.057-.468.074-.688a1.18,1.18,0,0,0,.015-.125s-.3-.292-.8-.829c-.07-.074-.144-.156-.218-.24-2.352-2.547-8.1-9.345-10.175-16.845s4.1-20.269,8.64-34.916c.18-.585.362-1.178.539-1.77a107.4,107.4,0,0,0,2.588-10.472c3.7-19.574,2.775-27.3,33.509-32.8l1.333-.122,33.712-3.026s1.863.652,4.8,1.667c6.071,2.106,16.73,5.784,24.879,8.5,18.5,6.168,17.256,26.36,9.568,44.277-1.767,4.1-3.45,8.366-5.017,12.644-.214.575-.427,1.149-.63,1.727-5.247,14.562-9.169,29.178-10.623,38.921" transform="translate(6.568 44.083)" fill="#171612"/>
              <path id="Trazado_874481" data-name="Trazado 874481" d="M28.552,84.908q-4.85,14.6-9.7,29.2c-.211.64.8.914,1.009.278l9.7-29.2c.213-.64-.8-.914-1.007-.278" transform="translate(13.464 60.48)" fill="#5a554d"/>
              <path id="Trazado_874482" data-name="Trazado 874482" d="M79.071,151.627a43.393,43.393,0,0,1-19.392,24.294.783.783,0,0,1-.791-1.352,41.76,41.76,0,0,0,18.673-23.36c.3-.957,1.815-.547,1.51.417" transform="translate(41.855 107.778)" fill="#5a554d"/>
              <path id="Trazado_874483" data-name="Trazado 874483" d="M16.43,152.908A26.645,26.645,0,0,0,24.2,171.645c.724.7-.384,1.811-1.106,1.108a28.247,28.247,0,0,1-8.232-19.845.784.784,0,0,1,1.566,0" transform="translate(10.633 108.841)" fill="#5a554d"/>
              <path id="Trazado_874484" data-name="Trazado 874484" d="M47.428,65.352C41.942,70.337,36.179,75,30.746,80.037c-.034-.271-.07-.542-.1-.813q7.063,3.926,13.79,8.417a.526.526,0,0,1,.1.813q-8.949,9.664-17.891,19.325v-.732c3.673,3.125,7.525,6.04,11.031,9.354.487.458-.247,1.19-.731.732-3.508-3.314-7.361-6.23-11.033-9.354a.524.524,0,0,1,0-.732L43.8,87.723c.034.269.07.54.1.813q-6.718-4.487-13.788-8.419a.523.523,0,0,1-.1-.813c5.432-5.041,11.2-9.7,16.68-14.685.492-.448,1.228.283.734.732" transform="translate(18.429 46.125)" fill="#5a554d"/>
              <path id="Trazado_874485" data-name="Trazado 874485" d="M19.712,265a.692.692,0,0,0,.688-.633C24.947,210.159,42.639,96.5,42.817,95.356a.691.691,0,0,0-1.365-.213c-.177,1.142-17.877,114.851-22.43,169.109a.693.693,0,0,0,.631.746c.019,0,.039,0,.058,0" transform="translate(13.606 67.643)" fill="#5a554d"/>
              <path id="Trazado_874486" data-name="Trazado 874486" d="M57.452,121.153a.655.655,0,0,0,.2-.029l17.762-5.3a.689.689,0,0,0,.441-.923L67.145,93.553,84,82.957a.689.689,0,0,0,.17-1.017L71.082,65.66a.69.69,0,1,0-1.076.865L82.612,82.2,65.92,92.692a.69.69,0,0,0-.273.846l8.638,21.183L57.254,119.8a.69.69,0,0,0,.2,1.352" transform="translate(40.604 46.785)" fill="#5a554d"/>
              <path id="Trazado_874487" data-name="Trazado 874487" d="M60.1,270.568a.775.775,0,0,0,.619-.322.691.691,0,0,0-.141-.966l-.039-.027c-.991-3.659-2.232-39.062-2.854-81.944-.532-36.581-.585-81.939,1.014-89.375a.69.69,0,1,0-1.35-.29c-1.647,7.661-1.58,53.937-1.022,91.239.309,20.572.792,40.882,1.328,55.721.916,25.341,1.537,25.622,2.136,25.895a.742.742,0,0,0,.31.069" transform="translate(40.036 69.459)" fill="#5a554d"/>
              <path id="Trazado_874488" data-name="Trazado 874488" d="M30.125,201.229a.69.69,0,0,0,.091-1.374c-9.68-1.3-19.344-13.911-19.44-14.038a.69.69,0,0,0-1.1.834c.407.539,10.105,13.193,20.356,14.574a.838.838,0,0,0,.093.005" transform="translate(6.821 132.728)" fill="#5a554d"/>
              <path id="Trazado_874489" data-name="Trazado 874489" d="M71.83,201.972c9.343,0,21.481-1.329,31.96-6.786a.691.691,0,1,0-.638-1.225c-19.9,10.362-46.029,5.5-46.29,5.453a.691.691,0,0,0-.262,1.357,90.836,90.836,0,0,0,15.231,1.2" transform="translate(40.088 138.694)" fill="#5a554d"/>
              <path id="Trazado_874490" data-name="Trazado 874490" d="M96.219,63.293C93.842,66.13,90.21,73.165,86.3,85.365c-.146.443-.288.9-.429,1.355-1.59,5.089-3.218,11.035-4.822,17.9-.1.422-.2.847-.293,1.276q-1.256,5.47-2.477,11.707c-.209,1.077-.407,2.3-.592,3.642-.05.359-.1.727-.146,1.108-.815,6.458-1.369,15.529-1.72,26.221l-.031,1.06c-.142,4.51-.252,9.294-.328,14.285-.007.412-.01.827-.017,1.242-.156,11.088-.163,23.149-.07,35.408l.01,1.175c.039,4.738.093,9.5.16,14.249,0,.322.007.645.014.964.063,4.583.142,9.141.232,13.644l.021,1.1q.085,4.49.185,8.882c.01.393.017.784.027,1.178.192,8.424.412,16.5.638,23.943.015.379.026.76.036,1.136.146,4.64.3,9.021.439,13.074a187.24,187.24,0,0,1-38.779-4.854q-7.644-1.762-15.128-4.148c.329-3.076.681-6.354,1.057-9.791v0c.053-.506.11-1.014.163-1.528.82-7.517,1.727-15.773,2.7-24.4.053-.48.11-.959.163-1.441.868-7.726,1.787-15.737,2.734-23.778v0c.082-.7.163-1.408.249-2.11v0c.9-7.623,1.82-15.253,2.741-22.685.043-.352.089-.7.132-1.053.933-7.5,1.87-14.771,2.791-21.606.058-.432.115-.861.175-1.292,1.189-8.779,2.345-16.8,3.431-23.571.074-.461.148-.919.22-1.371.05-.286.1-.57.142-.851,1.23-7.47,2.486-14.289,3.734-20.5.07-.34.139-.681.209-1.017,2.182-10.721,4.348-19.6,6.374-26.9.089-.322.178-.645.269-.961a191.743,191.743,0,0,1,7.191-21.4l33.71-3.026s1.863.648,4.8,1.667" transform="translate(16.621 44.084)" fill="#fff"/>
              <path id="Trazado_874491" data-name="Trazado 874491" d="M75.039,75.464c-.146.444-.288.9-.429,1.355A48.411,48.411,0,0,1,50,80.641a30.25,30.25,0,0,1-11.014-3.532c.089-.321.178-.645.269-.961,8.978,5.168,20.653,4.427,30.223,1.425a50.876,50.876,0,0,0,5.563-2.11" transform="translate(27.887 53.983)" fill="#dbccc1"/>
              <path id="Trazado_874492" data-name="Trazado 874492" d="M72.534,86.689c-.1.422-.2.847-.3,1.278a122.916,122.916,0,0,1-33.1,8.8c-1.3.136-2.635.216-3.99.226.07-.34.137-.681.209-1.017a64.359,64.359,0,0,0,9.506-1.132,138.029,138.029,0,0,0,17.611-4.462q5.1-1.649,10.06-3.693" transform="translate(25.141 62.013)" fill="#dbccc1"/>
              <path id="Trazado_874493" data-name="Trazado 874493" d="M70.88,96.382c-.05.359-.1.727-.146,1.106a139.64,139.64,0,0,0-37.976,15.3q.111-.692.22-1.369a141.116,141.116,0,0,1,37.9-15.033" transform="translate(23.433 68.947)" fill="#dbccc1"/>
              <path id="Trazado_874494" data-name="Trazado 874494" d="M70.517,112.313q-.015.527-.033,1.06A139.731,139.731,0,0,0,30.656,126.25q.085-.648.175-1.292a141.2,141.2,0,0,1,39.686-12.646" transform="translate(21.93 80.343)" fill="#dbccc1"/>
              <path id="Trazado_874495" data-name="Trazado 874495" d="M42.655,145.548c-1.571,3.019-3.906,7.112-3.062,10.628.959,4.007,5.652,4.674,9.1,4.837a33.816,33.816,0,0,0,15.764-3.1l.01,1.173A32.887,32.887,0,0,1,45.3,161.72c-16.663-3.069,1.815-26,7.661-31.664a61.054,61.054,0,0,1,11.589-8.8c-.007.412-.01.827-.017,1.242a58.946,58.946,0,0,0-21.876,23.046" transform="translate(27.54 86.743)" fill="#dbccc1"/>
              <path id="Trazado_874496" data-name="Trazado 874496" d="M36.353,145.177c-1.847,3.721-4.53,7.134-6.9,10.532q-1.112,1.6-2.242,3.179.121-1.055.249-2.112v0q3.191-4.534,6.225-9.165c1.986-3.029,4.458-7.376,1.937-10.827a7.421,7.421,0,0,0-5.42-2.691c.043-.352.089-.7.132-1.055.22.026.443.053.666.089a8.089,8.089,0,0,1,5.765,3.455c1.667,2.7.914,5.932-.408,8.6" transform="translate(19.464 95.165)" fill="#dbccc1"/>
              <path id="Trazado_874497" data-name="Trazado 874497" d="M73.929,152.582c-14.618,2.033-28.991,6.294-41.734,13.855-2.287,1.359-4.518,2.817-6.674,4.378.053-.479.11-.957.163-1.439,14.237-10.018,30.953-15.342,48.232-17.757,0,.323.007.645.014.964" transform="translate(18.256 108.459)" fill="#dbccc1"/>
              <path id="Trazado_874498" data-name="Trazado 874498" d="M75.375,161.236q-1.07.383-2.136.784a173.744,173.744,0,0,0-49.388,28.634c.053-.508.11-1.015.163-1.53a175.144,175.144,0,0,1,51.34-28.991l.021,1.1" transform="translate(17.062 114.551)" fill="#dbccc1"/>
              <path id="Trazado_874499" data-name="Trazado 874499" d="M65.5,192.211a85.168,85.168,0,0,1-10.22,3.321,36.136,36.136,0,0,1-9.453,1.606c-2.228-.041-4.77-.578-6.108-2.546-1.763-2.6-.386-5.688,1.182-8a63.7,63.7,0,0,1,23.9-20.634c.01.395.017.784.027,1.178a64.958,64.958,0,0,0-9.3,5.87A63.544,63.544,0,0,0,42.16,186.641c-2,2.806-3.7,7.294.556,8.921,2.58.983,5.53.427,8.138-.1a84.834,84.834,0,0,0,14.611-4.381c.015.377.026.758.036,1.134" transform="translate(27.822 118.715)" fill="#dbccc1"/>
              <path id="Trazado_874500" data-name="Trazado 874500" d="M70.9,175.318a477.635,477.635,0,0,1,14.834,86.327,1.022,1.022,0,0,0,1.017.94.671.671,0,0,0,.084,0,1.022,1.022,0,0,0,.938-1.1,479.977,479.977,0,0,0-14.9-86.69c-.81-3.007-.926-7.268-.549-12.321.127-1.714.316-3.522.552-5.4.2-1.624.446-3.3.72-5.028.087-.559.177-1.122.274-1.691,4.69-28,17.207-66.089,17.378-66.61a1.024,1.024,0,1,0-1.945-.643c-.707,2.142-12.994,39.537-17.543,67.382-.1.568-.184,1.13-.271,1.69-.391,2.53-.708,4.971-.947,7.287-.244,2.4-.4,4.673-.444,6.77a33.271,33.271,0,0,0,.8,9.095" transform="translate(50.138 58.937)" fill="#5a554d"/>
              <path id="Trazado_874501" data-name="Trazado 874501" d="M58.645,25.922S56.036,2.166,79.6.079c18.867-1.672,28.181,23.842,16,45.474s1.672,33.508,15.285,26.5c0,0-5.074,12.808-24.269,7.795S58.645,25.922,58.645,25.922" transform="translate(41.89 0)" fill="#171612"/>
              <path id="Trazado_874502" data-name="Trazado 874502" d="M102.87,61.737A41.874,41.874,0,0,1,90.995,75.742c-14.411,11.3-26.713,19.327-43.426,11.021-5.047-2.621-8.65-8.9-8.747-9.078-2.571-4.669-4.3-13.963-4.516-22.008-.209-7.94.844-5.2-2.316-16.857-4.8-17.709,18.256-26.5,18.256-26.5C58.636,7.1,82.4,3.233,98.321,20.608c9.8,10.7,11.99,22.692,5.256,38.523a13.508,13.508,0,0,0-.707,2.606" transform="translate(22.413 5.658)" fill="#171612"/>
              <path id="Trazado_874503" data-name="Trazado 874503" d="M60.143,9.878a36.618,36.618,0,0,1,25.027,25.3.644.644,0,0,0,1.24-.343,37.94,37.94,0,0,0-25.926-26.2.644.644,0,0,0-.341,1.24" transform="translate(42.699 6.159)" fill="#e59f3f"/>
              <path id="Trazado_874504" data-name="Trazado 874504" d="M68.835,16.887c1.825-4.851,6.551-8.6,11.928-8.129,1.088.094,2.307.508,1.88,1.921-.17.568-1.172,1.395-1.63,1.8a15.887,15.887,0,0,1-3.53,2.341,16.609,16.609,0,0,1-8.568,1.59c-.827-.058-.823,1.228,0,1.287a17.76,17.76,0,0,0,11.272-2.957c1.708-1.165,5.866-4.436,3.045-6.573C80.9,6.4,76.418,7.72,74.116,8.909a13.849,13.849,0,0,0-6.522,7.638c-.292.775.95,1.11,1.24.34" transform="translate(48.322 5.226)" fill="#e59f3f"/>
              <path id="Trazado_874505" data-name="Trazado 874505" d="M71.1,19.415c.926-3.64,1.914-7.625.732-11.33-.772-2.429-2.889-4.923-5.724-4.209-2.673.672-3.1,3.743-2.3,5.988a22.592,22.592,0,0,0,6.187,8.566c.612.557,1.523-.35.911-.911-1.988-1.825-9.889-10.762-4.343-12.107a2.513,2.513,0,0,1,2.926.943,4.928,4.928,0,0,1,.894,1.539,10.378,10.378,0,0,1,.695,3.856,29.067,29.067,0,0,1-1.216,7.323.644.644,0,0,0,1.242.341" transform="translate(45.382 2.684)" fill="#e59f3f"/>
              <path id="Trazado_874506" data-name="Trazado 874506" d="M38.283,34.585s-3.371.274-4.045,4.57,1.443,11.483,5.8,10.628-1.755-15.2-1.755-15.2" transform="translate(24.404 24.74)" fill="#632829"/>
              <path id="Trazado_874507" data-name="Trazado 874507" d="M39.36,52.644a5.93,5.93,0,1,1,5.683-6.167,5.937,5.937,0,0,1-5.683,6.167m-.412-10.117a4.2,4.2,0,1,0,4.364,4.021,4.2,4.2,0,0,0-4.364-4.021" transform="translate(23.742 29.178)" fill="#e59f3f"/>
              <line id="Línea_568" data-name="Línea 568" y2="0.003" transform="translate(74.384 92.782)" fill="#b1614f"/>
              <path id="Trazado_874508" data-name="Trazado 874508" d="M80.1,75.824A31.761,31.761,0,0,1,60.707,86.191c-16,2.225-17.79-4.674-17.79-4.674A30.256,30.256,0,0,0,44.222,74.9c.075-.873.124-1.77.139-2.7a73.285,73.285,0,0,0-.422-8.5c-.074-.748-.154-1.527-.247-2.329l-.009-.1C54.77,58.708,63.856,53.84,70.1,45.7l1.666-.981,1.124-.667.2.645-.221,2.058C71.795,56.427,75,67.413,80.1,75.824" transform="translate(30.7 31.512)" fill="#b1614f"/>
              <path id="Trazado_874509" data-name="Trazado 874509" d="M80.909,62.076c-3.415,5.87-7.1,11.584-11.073,17.093-3.781,5.251-7.9,11.383-13.153,15.284-2.918,2.165-6.829,3.779-10.41,2.278-3.758-1.576-4.215-5.812-4.252-9.378-.081-7.637.64-15.431,3.774-22.476.334-.751-.775-1.407-1.11-.65A50.11,50.11,0,0,0,40.8,82.768c-.19,4.818-.834,11.843,4.057,14.709,4.565,2.676,10.122.2,13.752-2.913,4.343-3.724,7.884-8.673,11.256-13.258A207.362,207.362,0,0,0,82.021,62.726a.644.644,0,0,0-1.112-.65" transform="translate(29.089 44.183)" fill="#1e1d12"/>
              <path id="Trazado_874510" data-name="Trazado 874510" d="M62.059,49.953c-2.365,5.273-7.839,14.594-18.021,18.025a73.3,73.3,0,0,0-.422-8.5c-.072-.748-.154-1.527-.247-2.329.22.027.443.046.667.062,6.029.429,12.6-2.648,18.023-7.258" transform="translate(31.024 35.734)" fill="#171612"/>
              <path id="Trazado_874511" data-name="Trazado 874511" d="M92.736,48.627c.348,6-4.305,13.651-12.145,14.323l-.041.005h0l-.166.015c-.106.353-.233.7-.367,1.055-.057.153-.117.309-.177.461a.33.33,0,0,1-.021.043c-4.3,10.482-18.479,17.328-26.325,18a17.971,17.971,0,0,1-5.338-.379C39.718,80.826,37.505,69.66,38.31,60.979a32.929,32.929,0,0,1,.535-3.582c.017-.077.033-.154.05-.23,0,0-3.492-11.874-4.451-17.085-1.854-10.1,3.381-20.781,25.579-24.114s28.355,10.208,30.35,17.466c.336,1.208.513,8.517-.638,9.764,2.178.955,2.885,3.412,3,5.429" transform="translate(24.393 11.052)" fill="#b1614f"/>
              <path id="Trazado_874512" data-name="Trazado 874512" d="M45.244,48.637a6.9,6.9,0,0,0,.823-.194c2.769-.837,4.252-3.873,4.314-4a.895.895,0,1,0-1.612-.775c-.019.036-1.218,2.458-3.22,3.064a3.166,3.166,0,0,1-3.209-.506.9.9,0,0,0-1.261-.027.889.889,0,0,0-.046,1.25,4.75,4.75,0,0,0,4.211,1.19" transform="translate(29.185 30.873)" fill="#632829"/>
              <path id="Trazado_874513" data-name="Trazado 874513" d="M45.842,49.412a3.35,3.35,0,0,0,1.787-1.331.564.564,0,0,0-.962-.587,2.289,2.289,0,0,1-2.395.887.563.563,0,1,0-.206,1.106,3.659,3.659,0,0,0,1.775-.075" transform="translate(31.193 33.782)" fill="#632829"/>
              <path id="Trazado_874514" data-name="Trazado 874514" d="M39.36,38.143c.209,1.472,1,2.575,1.762,2.467s1.214-1.388,1.005-2.858-1-2.576-1.762-2.468-1.214,1.389-1.005,2.859" transform="translate(28.119 25.234)" fill="#171612"/>
              <path id="Trazado_874515" data-name="Trazado 874515" d="M44.251,36.8a.394.394,0,0,0,.05-.7c-.156-.093-3.844-2.268-6.842.13a.394.394,0,0,0,.492.614c2.573-2.06,5.911-.091,5.944-.07a.4.4,0,0,0,.357.026" transform="translate(26.691 25.115)" fill="#171612"/>
              <path id="Trazado_874516" data-name="Trazado 874516" d="M46.85,37.208c.209,1.47,1,2.575,1.762,2.467s1.214-1.389,1.005-2.859-1-2.575-1.763-2.467-1.213,1.389-1,2.859" transform="translate(33.477 24.566)" fill="#171612"/>
              <path id="Trazado_874517" data-name="Trazado 874517" d="M52.09,36.334a.393.393,0,0,0,.137-.688c-.142-.112-3.525-2.738-6.8-.736a.393.393,0,0,0,.41.671c2.815-1.719,5.875.659,5.906.683a.4.4,0,0,0,.35.07" transform="translate(32.359 24.436)" fill="#171612"/>
              <path id="Trazado_874518" data-name="Trazado 874518" d="M66.392,39.707a1.177,1.177,0,0,0,.072,1.75,4.2,4.2,0,1,1-3.144.914l-.082-2.009a5.922,5.922,0,1,0,3.155-.655" transform="translate(42.947 28.404)" fill="#e59f3f"/>
              <path id="Trazado_874519" data-name="Trazado 874519" d="M90.391,43.907a12.94,12.94,0,0,0-1.8.316c-3.738.933-5.956,3.362-7.666,5.753-.293-2.043-2.379-11.416-16.016-13.095-.2-.022-.4-.045-.626-.063a11.662,11.662,0,0,1-1.443-5.875c1.419-5.535-25.334-3-26.32,5.513-.413,3.566-.64,5.89-.76,7.4v0a14.46,14.46,0,0,0-.123,2.77s-2.384,2.432-2.46-9.3A15.929,15.929,0,0,1,37.252,26.9c5.4-6.426,15.575-10.97,26.787-12.287,16.6-1.949,28.5,15.6,29.231,21.962s-2.878,7.335-2.878,7.335" transform="translate(23.736 10.344)" fill="#171612"/>
              <g id="Grupo_1099699" data-name="Grupo 1099699" transform="translate(62.703 68.449)" opacity="0.5">
                <g id="Grupo_1099698" data-name="Grupo 1099698" transform="translate(0)">
                  <g id="Grupo_1099697" data-name="Grupo 1099697" clip-path="url(#clip-path-6)">
                    <path id="Trazado_874520" data-name="Trazado 874520" d="M41.021,41.5c.034.892-1.883,1.714-4.467,1.988a32.924,32.924,0,0,1,.537-3.582c2.251.154,3.9.779,3.93,1.594" transform="translate(-36.554 -39.904)" fill="#632829"/>
                  </g>
                </g>
              </g>
              <path id="Trazado_874521" data-name="Trazado 874521" d="M46.988,33.647a1.655,1.655,0,0,1-2.374-2.218,4.8,4.8,0,0,1,2.741-1.954,12,12,0,0,1,10.506,1.9s-6.372.007-9.271,1.335a9.239,9.239,0,0,0-1.6.933" transform="translate(31.717 20.726)" fill="#171612"/>
              <path id="Trazado_874522" data-name="Trazado 874522" d="M43.526,34.253a1.654,1.654,0,0,0,1.793-2.709,4.8,4.8,0,0,0-3.12-1.264C35.97,29.9,34.436,34,34.436,34a21.942,21.942,0,0,1,7.314-.281,9.328,9.328,0,0,1,1.775.535" transform="translate(24.634 21.643)" fill="#171612"/>
              <g id="Grupo_1099702" data-name="Grupo 1099702" transform="translate(81.043 67.266)" opacity="0.5">
                <g id="Grupo_1099701" data-name="Grupo 1099701" transform="translate(0)">
                  <g id="Grupo_1099700" data-name="Grupo 1099700" clip-path="url(#clip-path-7)">
                    <path id="Trazado_874523" data-name="Trazado 874523" d="M47.246,41.3c.041,1.017,2.609,1.741,5.736,1.616s5.63-1.055,5.589-2.072-2.609-1.741-5.736-1.616-5.63,1.053-5.589,2.072" transform="translate(-47.246 -39.214)" fill="#632829"/>
                  </g>
                </g>
              </g>
              <path id="Trazado_874524" data-name="Trazado 874524" d="M63.589,44.123l-.041,0,0,0-.166.015c-.1.352-.232.7-.365,1.055-.057.153-.118.309-.178.461a.233.233,0,0,1-.019.043,7.211,7.211,0,0,1-3.1-1.024,5.732,5.732,0,0,1-1.7-1.64.813.813,0,0,1,1.341-.918,4.373,4.373,0,0,0,2.031,1.58,5.894,5.894,0,0,0,1.441.359,6.894,6.894,0,0,0,.765.063" transform="translate(41.395 29.879)" fill="#632829"/>
              <path id="Trazado_874525" data-name="Trazado 874525" d="M61.025,44.949a.81.81,0,0,0,.626-.686c.753-5.71,7.349-8.548,7.415-8.577a.811.811,0,0,0-.626-1.5c-.307.127-7.523,3.216-8.4,9.86a.812.812,0,0,0,.7.911.782.782,0,0,0,.283-.012" transform="translate(42.945 24.413)" fill="#632829"/>
              <path id="Trazado_874526" data-name="Trazado 874526" d="M66.812,39.784a.8.8,0,0,0,.285-.125.812.812,0,0,0,.2-1.13,5.576,5.576,0,0,0-5.033-2.134.812.812,0,0,0,.16,1.616,3.954,3.954,0,0,1,3.54,1.444.81.81,0,0,0,.844.329" transform="translate(44.02 26.013)" fill="#632829"/>
              <path id="Trazado_874527" data-name="Trazado 874527" d="M70.243,64.236c-4.455,3.22-8.987,4.9-13.822.563-.441-7.057,1.247-15.08,3.664-19.7,3.969-7.585-2.722-17.057-2.722-17.057,4.309,1.837,9.1,1.835,11.616,6.923-4.342,4.906-1.8,18.378,1.264,29.267" transform="translate(40.31 20.063)" fill="#171612"/>
              <path id="Trazado_874528" data-name="Trazado 874528" d="M51.495,47.252a8.149,8.149,0,1,0-7.867-8.422,8.159,8.159,0,0,0,7.867,8.422m-6.733-8.395a4.44,4.44,0,0,1,.074-.763,6.713,6.713,0,0,1,.453-1.686,6.822,6.822,0,0,1,1.444-2.189,7.081,7.081,0,0,1,3.525-1.976,7.77,7.77,0,0,1,1.751-.146,7.006,7.006,0,0,1,6.774,7.247,5.472,5.472,0,0,1-.06.7,6.933,6.933,0,0,1-3.733,5.292,7.113,7.113,0,0,1-1.643.618,7.428,7.428,0,0,1-1.825.163,7.008,7.008,0,0,1-6.76-7.261" transform="translate(31.205 22.146)" fill="#fff"/>
              <path id="Trazado_874529" data-name="Trazado 874529" d="M40.681,48.354a8.149,8.149,0,1,0-7.865-8.424,8.16,8.16,0,0,0,7.865,8.424M33.95,39.959a4.441,4.441,0,0,1,.074-.763,6.713,6.713,0,0,1,.453-1.686,6.794,6.794,0,0,1,1.444-2.189,7.083,7.083,0,0,1,3.523-1.976A7.7,7.7,0,0,1,41.2,33.2a7.006,7.006,0,0,1,6.774,7.247,5.472,5.472,0,0,1-.06.7,7.116,7.116,0,0,1-5.376,5.909,7.436,7.436,0,0,1-1.825.163,7.008,7.008,0,0,1-6.76-7.261" transform="translate(23.471 22.934)" fill="#fff"/>
              <path id="Trazado_874530" data-name="Trazado 874530" d="M52.97,36.331a.675.675,0,0,0,.336-.106,16.807,16.807,0,0,1,10.366-2.661.67.67,0,1,0,.184-1.328A17.9,17.9,0,0,0,52.579,35.1a.671.671,0,0,0,.391,1.233" transform="translate(37.393 23.006)" fill="#fff"/>
              <path id="Trazado_874531" data-name="Trazado 874531" d="M33.558,38.861a.676.676,0,0,0,.281-.075,9.187,9.187,0,0,1,4.729-.894.658.658,0,0,0,.746-.587.67.67,0,0,0-.587-.744A10.5,10.5,0,0,0,33.217,37.6a.67.67,0,0,0,.341,1.262" transform="translate(23.506 26.114)" fill="#fff"/>
              <path id="Trazado_874532" data-name="Trazado 874532" d="M44.134,46.082a.672.672,0,0,1-.374-.072L40.6,44.4a.681.681,0,0,1-.07-1.172c2.326-1.563,3.654-3.837,4.179-7.16a.681.681,0,0,1,1.345.213,11.331,11.331,0,0,1-3.86,7.4L44.378,44.8a.681.681,0,0,1-.244,1.285" transform="translate(28.775 25.39)" fill="#632829"/>
              <path id="Trazado_874533" data-name="Trazado 874533" d="M42.4,37.443a.671.671,0,0,0,.439-.189,1.907,1.907,0,0,1,2.244-.3.67.67,0,0,0,.655-1.17,3.269,3.269,0,0,0-3.832.511.67.67,0,0,0,.494,1.151" transform="translate(29.83 25.31)" fill="#fff"/>
              <path id="Trazado_874534" data-name="Trazado 874534" d="M115.769,145.662c-.906.338-22.416,8.381-45.211,15.141-13.707,4.062-25.065,6.815-33.763,8.184a77.771,77.771,0,0,1-11.856,1.069q-1.513,0-2.892-.094a26.351,26.351,0,0,1-8.976-2.086q-.805-.355-1.525-.751a17.563,17.563,0,0,1-6.589-6.162,18.233,18.233,0,0,1-2.486-11.79c.031-.379.075-.765.129-1.151a60.278,60.278,0,0,1,4.36-14.345c2.739-6.633,6.882-15.112,12.316-25.193,9.045-16.792,18.551-32.291,18.953-32.942,1.36-2.218,5.757-5.527,7.9-6.666-2.674,8.381-6.234,18.521-8.644,27-1.938,6.813-4.671,13.2-5.854,20.183-.9,5.321-2.739,11.3-1.75,16.677.6,3.281,2.28,6.112,5.29,6.788-.2.431-.393.856-.575,1.263,6.843-1.228,17.593-3.767,34.192-8.908,19.491-6.035,36.914-12.551,37.087-12.616a14.1,14.1,0,0,1,9.9,26.4" transform="translate(1.687 49.27)" fill="#171612"/>
              <path id="Trazado_874535" data-name="Trazado 874535" d="M11.545,133.638a17.6,17.6,0,0,1-6.59-6.162,18.253,18.253,0,0,1-2.484-11.79c5,3.9,10.5,10.119,9.074,17.951" transform="translate(1.687 82.756)" fill="#5a554d"/>
              <path id="Trazado_874536" data-name="Trazado 874536" d="M18.787,117.227Z" transform="translate(13.439 83.858)" fill="#171612"/>
              <path id="Trazado_874537" data-name="Trazado 874537" d="M145.2,142.332c-.029-1.949-.1-3.808-.194-5.638-.185-3.649-.465-7.167-.78-10.652-.642-6.957-1.443-13.759-2.321-20.533q-.654-5.074-1.381-10.129l-.738-5.057-.784-5.124c-.034-.223-.082-.513-.129-.738a17.513,17.513,0,0,0-34.363,6.779l.036.192.933,4.738.913,4.81q.9,4.814,1.738,9.635c1.112,6.419,2.148,12.834,2.995,19.133.4,2.949.756,5.877,1.036,8.7-2.184-.149-4.443-.362-6.714-.6-3.124-.333-6.294-.731-9.482-1.165-6.381-.875-12.827-1.9-19.284-3s-12.927-2.29-19.394-3.532q-4.853-.934-9.7-1.907l-4.837-.99-4.782-1-.192-.041a14.1,14.1,0,0,0-6.328,27.473l4.968,1.261,4.921,1.221q4.917,1.212,9.849,2.378,9.87,2.334,19.817,4.487c6.644,1.427,13.328,2.787,20.121,4.012,3.4.612,6.827,1.194,10.316,1.717s7.043.995,10.784,1.347c1.88.17,3.8.317,5.87.389,1.031.039,2.1.057,3.245.043s2.357-.06,3.757-.192c.7-.067,1.446-.153,2.288-.293.333-.055.676-.118,1.046-.19.559-.111,1.166-.254,1.844-.443a21.706,21.706,0,0,0,4.23-1.65,19.243,19.243,0,0,0,3.091-2,18.159,18.159,0,0,0,3.743-4.038A17.576,17.576,0,0,0,143,158.653c.159-.379.307-.767.448-1.156l.2-.585.142-.46c.091-.3.18-.609.257-.914l.062-.226.045-.189.086-.372.094-.427L144.4,154c.093-.449.163-.856.235-1.288.245-1.59.352-2.851.434-4.052.146-2.353.158-4.376.13-6.328" transform="translate(14.897 50.314)" fill="#171612"/>
              <path id="Trazado_874538" data-name="Trazado 874538" d="M99.457,119.3l-.094.429-.086.372-.046.187-.058.226c-.081.307-.168.612-.259.916l-.142.46-.2.585c-.139.389-.288.775-.444,1.154a17.573,17.573,0,0,1-1.657,3.074,18.117,18.117,0,0,1-3.741,4.038,19.149,19.149,0,0,1-3.091,2.005,21.663,21.663,0,0,1-4.23,1.65c-.679.187-1.285.329-1.844.441.94-8.892,9.781-13.438,15.9-15.538" transform="translate(59.775 85.339)" fill="#5a554d"/>
              <path id="Trazado_874539" data-name="Trazado 874539" d="M40.543,116.091c1.4-2.777,1.172-5.53.974-8.438-1.66-1.508-3.168-2.77-3.889-3.491-2.007-2-5.679-4.432-9.606-6.832S21.459,94.817,17.9,94.248s-9.314.973-7.781,2.916c1.5,1.9,6.427.343,10.071,2.1a32.982,32.982,0,0,1,5.58,3.278,19.7,19.7,0,0,0-11.666-.669c-6.1,1.242-7.5,4.59-5.77,5.115s3.419.75,7.764-.25,9.251,1.062,9.251,1.062c-2.642-.549-12.026.014-14.544,2.5s-.125,4.232,3.057,3.388,11.445.367,11.445.367a57.017,57.017,0,0,0-7.755,1.348c-.5.137-4.263,1.77-.775,3.3,2.362,1.036,8.3.48,13.174,1.156a17.7,17.7,0,0,1,5.153,1.789,13.6,13.6,0,0,0,5.438-5.554" transform="translate(5.473 67.334)" fill="#b1614f"/>
              <path id="Trazado_874540" data-name="Trazado 874540" d="M32.231,106.442c-1.283-2.446-3.415-6.18-4.992-7.27-2.4-1.662-5.148-5.448-6.4-3.928s2.252,6.083,2.252,6.083l9.235,6.606c-.031-.492-.067-.99-.1-1.491" transform="translate(14.716 67.88)" fill="#b1614f"/>
              <path id="Trazado_874541" data-name="Trazado 874541" d="M23.5,110.64a28.617,28.617,0,0,0-7.405,9.637c-.336.75.772,1.4,1.112.65a27.836,27.836,0,0,1,7.2-9.378c.616-.556-.3-1.463-.909-.909" transform="translate(11.466 79.022)" fill="#5a554d"/>
              <path id="Trazado_874542" data-name="Trazado 874542" d="M48.736,128.9A242.468,242.468,0,0,1,87.1,113.6a.644.644,0,0,0-.343-1.24,244.448,244.448,0,0,0-38.671,15.426c-.741.372-.091,1.482.648,1.112" transform="translate(34.165 80.355)" fill="#5a554d"/>
              <path id="Trazado_874543" data-name="Trazado 874543" d="M75.6,115.541a17.5,17.5,0,0,1,6.738,6.549.643.643,0,0,0,1.11-.65,18.78,18.78,0,0,0-7.2-7.011c-.726-.4-1.376.712-.648,1.112" transform="translate(53.855 81.796)" fill="#5a554d"/>
              <path id="Trazado_874544" data-name="Trazado 874544" d="M29.348,112.545a180.341,180.341,0,0,1,20.55-6.072c.808-.189.465-1.429-.341-1.242a180.692,180.692,0,0,0-20.55,6.074c-.774.28-.441,1.523.341,1.24" transform="translate(20.435 75.263)" fill="#5a554d"/>
              <path id="Trazado_874545" data-name="Trazado 874545" d="M60.61,110.39c.333,5.173,4.992,8.918,10.172,8.76a23.764,23.764,0,0,1,8.021.868c5.47,1.9,11.4,5.666,14.438,5.844,4.477.264,1.4-3.468.954-3.878a67.023,67.023,0,0,0-7.414-5.568s9.319,3.158,12.2,5.746,6.331,2.038,5.019-1.918-10.855-9.57-13.918-10.41c0,0,6.251.463,10.273,3.841s5.914,4.048,8.009,4.422,2.422-3.885-3.314-8.455-9.081-4.884-12.594-5.547a38.768,38.768,0,0,1,7.609-.451c4.762.108,9.1,4.383,11.688,3.192,2.649-1.216-2.564-5.92-6.6-7.227s-6.86-2.6-12.266-2.185-10.558,1-13.736,2.021S64.2,102.63,61.425,106.562a5.942,5.942,0,0,0-.815,3.829" transform="translate(43.341 69.635)" fill="#b1614f"/>
              <path id="Trazado_874546" data-name="Trazado 874546" d="M66.8,103.568s8.074-6.225,11.488-6.68,8.318-2.957,8.815-.695-5.619,5.177-5.619,5.177Z" transform="translate(47.788 68.144)" fill="#b1614f"/>
            </g>
          </g>
        </g>
      </g>
    </g>
  </g>
</svg>
