<svg xmlns="http://www.w3.org/2000/svg" width="90" height="83" viewBox="0 0 90 83">
  <g id="_8" data-name="8" transform="translate(-1174.621 -1407.423)">
    <g id="Rect치ngulo_401341" data-name="Rect치ngulo 401341" transform="translate(1174.621 1407.423)" fill="#f4eefe" stroke="#fff" stroke-width="3">
      <rect width="90" height="83" rx="12" stroke="none"/>
      <rect x="1.5" y="1.5" width="87" height="80" rx="10.5" fill="none"/>
    </g>
    <g id="Grupo_1101100" data-name="Grupo 1101100" transform="translate(0 8)">
      <g id="Grupo_1099157" data-name="Grupo 1099157" transform="translate(1177.621 1399.423)">
        <rect id="Rect치ngulo_401243" data-name="Rect치ngulo 401243" width="83" height="83" fill="none"/>
      </g>
      <g id="learn-more_12663145" transform="translate(1163.688 1413.571)">
        <g id="Grupo_1101098" data-name="Grupo 1101098" transform="translate(32.572 0.804)">
          <g id="Grupo_1101090" data-name="Grupo 1101090" transform="translate(3.422)">
            <path id="Trazado_874592" data-name="Trazado 874592" d="M69.364,395.028v10.1a.426.426,0,0,0,.426.426h4.752l6.04-6.794-5.159-5.042Z" transform="translate(-69.364 -352.462)" fill="#dff6fd"/>
            <path id="Trazado_874593" data-name="Trazado 874593" d="M120.177,421.045h-2.348v-9.171l3.25-.812Z" transform="translate(-112.651 -367.95)" fill="#c8effe"/>
            <path id="Trazado_874594" data-name="Trazado 874594" d="M168.668,319.327V331.6a.667.667,0,0,1-.667.667l-3.059-.535-1.307.8H133.247V321.664c0-.758-1.006-3.671-.74-4.344.7-1.773,3.4-3.167,5.35-3.6l7.784-1.753h10.9l1.929.434h0l5.231,1.868c2.615.578,4.964,2.376,4.964,5.056Z" transform="translate(-125.722 -279.443)" fill="#f2fbff"/>
            <path id="Trazado_874595" data-name="Trazado 874595" d="M270.519,243.815h7.775V253.4h-7.775Z" transform="translate(-249.029 -218.57)" fill="#bc7c63"/>
            <path id="Trazado_874596" data-name="Trazado 874596" d="M276.726,313.86l3.228,3.174,3.429-3.372-3.431-2.452Z" transform="translate(-254.573 -278.765)" fill="#b288d3"/>
            <g id="Grupo_1101087" data-name="Grupo 1101087" transform="translate(25.379 30.25)">
              <path id="Trazado_874597" data-name="Trazado 874597" d="M314.248,293.423l-3.446,3.75a.4.4,0,0,1-.613-.028l-3.267-4.287a4.621,4.621,0,0,0,3.886-2.2l3.123,1.223A.968.968,0,0,1,314.248,293.423Z" transform="translate(-306.922 -290.662)" fill="#c7a6dd"/>
            </g>
            <g id="Grupo_1101088" data-name="Grupo 1101088" transform="translate(17.797 30.25)">
              <path id="Trazado_874598" data-name="Trazado 874598" d="M236.211,293.423l3.446,3.75a.4.4,0,0,0,.613-.028l3.267-4.287a4.846,4.846,0,0,1-3.889-2.2l-3.121,1.223a.968.968,0,0,0-.316,1.538Z" transform="translate(-235.955 -290.662)" fill="#c7a6dd"/>
            </g>
            <path id="Trazado_874599" data-name="Trazado 874599" d="M386.232,322.955V335.5a.667.667,0,0,1-.667.667h-4.5l.031-9.76.428-.75a10.934,10.934,0,0,0-5.625-9.625l5.854,1.347A5.712,5.712,0,0,1,386.232,322.955Z" transform="translate(-343.152 -283.071)" fill="#dff6fd"/>
            <path id="Trazado_874600" data-name="Trazado 874600" d="M287.062,376.309l-.934-7.774a3.9,3.9,0,0,0-1.759-2.812,3.9,3.9,0,0,0-1.759,2.812l-.934,7.774a.429.429,0,0,0,.138.369l2.268,2.049a.428.428,0,0,0,.574,0l2.268-2.049A.428.428,0,0,0,287.062,376.309Z" transform="translate(-258.991 -327.454)" fill="#976bc1"/>
            <path id="Trazado_874601" data-name="Trazado 874601" d="M194.052,24.489c-1.693-6.322,1.746-13.253,8.18-15.059a11.44,11.44,0,0,1,1.251-.283,22.4,22.4,0,0,1,5.422.747c6.434,1.806,8.674,8.273,6.981,14.6Z" transform="translate(-180.349 -8.971)" fill="#918291"/>
            <path id="Trazado_874602" data-name="Trazado 874602" d="M299.552,23.024h-4.2c1.694-6.322-1.746-13.252-8.18-15.059a11.442,11.442,0,0,0-1.251-.283,12.527,12.527,0,0,1,5.454.283C297.807,9.772,301.246,16.7,299.552,23.024Z" transform="translate(-262.784 -7.507)" fill="#7a6d79"/>
            <g id="Grupo_1101089" data-name="Grupo 1101089" transform="translate(13.064 14.946)">
              <path id="Trazado_874603" data-name="Trazado 874603" d="M214.335,147.414A1.662,1.662,0,0,1,216,149.076V150.1a3.273,3.273,0,0,1-3.273,3.273h-17.8a3.273,3.273,0,0,1-3.273-3.273v-1.027a1.662,1.662,0,0,1,1.662-1.662Z" transform="translate(-191.653 -147.414)" fill="#bc7c63"/>
            </g>
            <path id="Trazado_874604" data-name="Trazado 874604" d="M244.4,112.826l-1.929,1.5a5.077,5.077,0,0,1-6.239,0l-1.929-1.5a7.454,7.454,0,0,1-2.873-5.88v-4.317a2.541,2.541,0,0,1,2.7-2.536l2.653.164a8.18,8.18,0,0,0,4.769-1.183l2.424-1.48a2.17,2.17,0,0,1,3.3,1.852v7.5A7.453,7.453,0,0,1,244.4,112.826Z" transform="translate(-214.115 -87.682)" fill="#c68d7a"/>
          </g>
          <g id="Grupo_1101093" data-name="Grupo 1101093" transform="translate(2.285 24.389)">
            <g id="Grupo_1101092" data-name="Grupo 1101092" transform="translate(0.304)">
              <g id="Grupo_1101091" data-name="Grupo 1101091">
                <path id="Trazado_874605" data-name="Trazado 874605" d="M70.386,310.5l.6-.429a1.667,1.667,0,0,1,2.383-.021,1.462,1.462,0,0,1-.256,2.112l-2.864,2.528a3.369,3.369,0,0,0-.705,2.445H62.8a10.356,10.356,0,0,1-1.229-4.956v-1.355l5.954-1.265Z" transform="translate(-61.567 -301.678)" fill="#c68d7a"/>
                <path id="Trazado_874606" data-name="Trazado 874606" d="M121.7,237.271a1.469,1.469,0,0,0-1.47-1.47c-.037,0-.073,0-.109,0-.618,0-1.1.669-1.1,1.444l.023,7.486c0,.812.3,1.237,1.114,1.237a1.015,1.015,0,0,0,.606-.027c.382-.221.859-.333.924-.789.01-.069.015-.648.015-.719l-.188-.24.188-1.044v-5.883" transform="translate(-112.883 -235.801)" fill="#c68d7a"/>
                <path id="Trazado_874607" data-name="Trazado 874607" d="M94.182,289.816a1.469,1.469,0,0,0-1.47-1.47c-.037,0-.073,0-.109,0-.618,0-1.1.669-1.1,1.444l.023,1.873c0,.812.3,1.237,1.114,1.237a1.015,1.015,0,0,0,.606-.027c.382-.221.859-.333.924-.789a1.477,1.477,0,0,0,.015-.211l.314-1.208Z" transform="translate(-88.301 -282.733)" fill="#c68d7a"/>
                <path id="Trazado_874608" data-name="Trazado 874608" d="M66.66,289.816a1.469,1.469,0,0,0-1.47-1.47c-.037,0-.073,0-.109,0-.618,0-1.1.669-1.1,1.444L64,291.667c0,.812.3,1.237,1.114,1.237a1.015,1.015,0,0,0,.606-.027c.382-.221.859-.333.924-.789a1.477,1.477,0,0,0,.015-.211l.419-1.316Z" transform="translate(-63.72 -282.733)" fill="#c68d7a"/>
              </g>
              <path id="Trazado_874609" data-name="Trazado 874609" d="M62.929,288.4v2.27a1.47,1.47,0,0,0,1.47,1.47c.032,0,.063,0,.094,0a1.47,1.47,0,0,1-2.925-.211v-2.061a1.469,1.469,0,0,1,1.361-1.465Z" transform="translate(-61.568 -282.779)" fill="#bc7c63"/>
              <path id="Trazado_874610" data-name="Trazado 874610" d="M90.451,288.4v2.27a1.47,1.47,0,0,0,1.47,1.47c.032,0,.063,0,.094,0a1.47,1.47,0,0,1-2.925-.211v-2.061A1.469,1.469,0,0,1,90.451,288.4Z" transform="translate(-86.15 -282.779)" fill="#bc7c63"/>
              <path id="Trazado_874611" data-name="Trazado 874611" d="M119.442,244.992a1.471,1.471,0,0,1-1.47-1.47v-7.669a1.469,1.469,0,0,0-1.361,1.465v7.461a1.47,1.47,0,0,0,2.925.211C119.505,244.991,119.474,244.992,119.442,244.992Z" transform="translate(-110.731 -235.847)" fill="#bc7c63"/>
            </g>
            <path id="Trazado_874612" data-name="Trazado 874612" d="M59.255,378.387h5.99l2.769.213a.538.538,0,0,1,.538.538v2.8a.538.538,0,0,1-.538.538l-2.769.213h-5.99a.538.538,0,0,1-.538-.538v-3.226A.538.538,0,0,1,59.255,378.387Z" transform="translate(-58.717 -363.154)" fill="#c7a6dd"/>
            <path id="Trazado_874613" data-name="Trazado 874613" d="M121.024,378.388h-3.2a.538.538,0,0,1,.538.538v3.226a.538.538,0,0,1-.538.538h3.2a.538.538,0,0,0,.538-.538v-3.226A.538.538,0,0,0,121.024,378.388Z" transform="translate(-111.514 -363.155)" fill="#b288d3"/>
          </g>
          <g id="Grupo_1101097" data-name="Grupo 1101097" transform="translate(0 0.145)">
            <g id="Grupo_1101096" data-name="Grupo 1101096">
              <g id="Grupo_1101095" data-name="Grupo 1101095">
                <g id="Grupo_1101094" data-name="Grupo 1101094" transform="translate(4.628 17.915)">
                  <path id="Trazado_874614" data-name="Trazado 874614" d="M84.709,179.983l-1.959.17H81.428a.781.781,0,0,1-.781-.781v-2.813h5.2v2.288A1.034,1.034,0,0,1,84.709,179.983Z" transform="translate(-80.647 -176.559)" fill="#7a6d79"/>
                  <path id="Trazado_874615" data-name="Trazado 874615" d="M100.047,178.133v2.12a1.306,1.306,0,0,1-1.306,1.306h2.654a.781.781,0,0,0,.781-.781v-2.645h-2.129Z" transform="translate(-96.808 -177.965)" fill="#685e68"/>
                </g>
                <path id="Trazado_874616" data-name="Trazado 874616" d="M79.677,156.219l-1.328.17h-3.32a.781.781,0,0,1-.781-.781v-2.813h6.565v2.288A1.034,1.034,0,0,1,79.677,156.219Z" transform="translate(-70.304 -137.418)" fill="#918291"/>
                <path id="Trazado_874617" data-name="Trazado 874617" d="M111.649,154.37v2.12c0,.721-.037,1.306-.684,1.306H113a.781.781,0,0,0,.781-.781V154.37h-2.129Z" transform="translate(-103.099 -138.825)" fill="#7a6d79"/>
                <path id="Trazado_874618" data-name="Trazado 874618" d="M49.582,21.41a4.088,4.088,0,0,0-1.133,2.816l.062,1.123a.478.478,0,0,1-.478.478l-1.368.186H45.105l-.463-.637-.463.637h-3.11a.478.478,0,0,1-.478-.478V24.364a3.847,3.847,0,0,0-1.134-2.712A7.311,7.311,0,0,1,43.814,9.233a7.351,7.351,0,0,1,1.079.084c3.921.133,6.607,3.226,6.607,7.18A6.559,6.559,0,0,1,49.582,21.41Z" transform="translate(-37.33 -9.185)" fill="#ffe177"/>
                <path id="Trazado_874619" data-name="Trazado 874619" d="M99.1,8.864a7.262,7.262,0,0,0-1.08.044,7.311,7.311,0,0,1,4.343,12.419,3.856,3.856,0,0,0-1.137,2.716v1.167a.478.478,0,0,1-.478.478h1.669a.478.478,0,0,0,.478-.478V24.043a3.856,3.856,0,0,1,1.137-2.716A7.311,7.311,0,0,0,99.1,8.864Z" transform="translate(-91.537 -8.86)" fill="#ffd15b"/>
              </g>
            </g>
          </g>
        </g>
        <g id="Grupo_1101099" data-name="Grupo 1101099" transform="translate(32.002 0.003)">
          <path id="Trazado_874620" data-name="Trazado 874620" d="M280.347,203.7a4.781,4.781,0,0,0,4.717,0,.8.8,0,0,0-.794-1.392,3.172,3.172,0,0,1-3.129,0,.8.8,0,0,0-.794,1.392Z" transform="translate(-253.455 -180.6)"/>
          <path id="Trazado_874621" data-name="Trazado 874621" d="M465.806,436.107a.8.8,0,0,0-.8.8v6.506a.8.8,0,0,0,1.6,0v-6.506A.8.8,0,0,0,465.806,436.107Z" transform="translate(-418.747 -389.518)"/>
          <path id="Trazado_874622" data-name="Trazado 874622" d="M94.541,36.829a6.52,6.52,0,0,0-3.663-2.277L85.73,33.394a1.759,1.759,0,0,0-1.043-1.619s-2.777-1.242-2.805-1.251V27.413l1.03-.8a8.215,8.215,0,0,0,2.819-4.072h.543a4.083,4.083,0,0,0,4.078-4.078V17.432a2.454,2.454,0,0,0-.621-1.633,12.667,12.667,0,0,0-.842-8.685.8.8,0,0,0-1.445.693A11.072,11.072,0,0,1,88.276,15a2.471,2.471,0,0,0-.389-.031H86.1V12.581a2.973,2.973,0,0,0-4.523-2.538l-2.427,1.482a7.36,7.36,0,0,1-4.308,1.069l-2.657-.165a3.341,3.341,0,0,0-3.453,2.537H66.842a2.464,2.464,0,0,0-.389.031,11.167,11.167,0,0,1,1.2-7.893,10.732,10.732,0,0,1,6.572-5.086,12.089,12.089,0,0,1,6.289,0,10.747,10.747,0,0,1,4.941,2.911A.8.8,0,1,0,86.608,3.82,12.345,12.345,0,0,0,80.935.475a13.735,13.735,0,0,0-7.135,0,12.32,12.32,0,0,0-7.541,5.838A12.768,12.768,0,0,0,65,15.8a2.454,2.454,0,0,0-.621,1.633V18.46a4.083,4.083,0,0,0,4.078,4.078H69a8.215,8.215,0,0,0,2.819,4.072l1.043.813v3.095c-.034.01-2.822,1.257-2.822,1.257A1.76,1.76,0,0,0,69,33.394l-5.014,1.129-.1.023A2.331,2.331,0,0,0,60.8,32.538v-5.86a2.276,2.276,0,1,0-4.552,0v3.33a2.269,2.269,0,0,0-2.148.444,2.273,2.273,0,0,0-3.751,1.73v3.845a11.326,11.326,0,0,0,.632,3.731,1.343,1.343,0,0,0-.937,1.279v3.236A1.342,1.342,0,0,0,51.181,45.6v8.3a.8.8,0,1,0,1.6,0V45.612h6.2V53.9a.8.8,0,1,0,1.6,0V45.6a1.342,1.342,0,0,0,1.141-1.325V41.035a1.343,1.343,0,0,0-1.341-1.341h-.33a2.962,2.962,0,0,1,.992-1.528l1.912-1.557a5.068,5.068,0,0,1,1.376-.522l5.4-1.215,3.5,3.8a.8.8,0,0,0,.59.259h.037a.8.8,0,0,0,.6-.315l.623-.818,1.091,1.072a4.648,4.648,0,0,0-1.345,2.755l-.119.989a.8.8,0,1,0,1.591.191l.119-.99a3.076,3.076,0,0,1,.953-1.879,3.065,3.065,0,0,1,.953,1.88l.905,7.537-1.859,1.68-1.86-1.68.34-2.833a.8.8,0,0,0-1.591-.191l-.39,3.246a.8.8,0,0,0,.258.69l2.7,2.443a.8.8,0,0,0,1.074,0l2.7-2.443a.8.8,0,0,0,.258-.69l-.955-7.95a4.662,4.662,0,0,0-1.344-2.756L79.653,37.8l.623.817a.8.8,0,0,0,.6.315h.037a.8.8,0,0,0,.59-.259l3.5-3.8,5.531,1.245A4.93,4.93,0,0,1,94.371,40.9v2.754a.8.8,0,0,0,1.6,0V40.9a6.524,6.524,0,0,0-1.432-4.071ZM86.1,20.091V16.569h1.79a.863.863,0,0,1,.862.862V18.46a2.479,2.479,0,0,1-2.476,2.476h-.219A8.414,8.414,0,0,0,86.1,20.091Zm-17.642.845A2.479,2.479,0,0,1,65.98,18.46V17.432a.863.863,0,0,1,.862-.862h1.79v3.521a8.414,8.414,0,0,0,.043.844Zm-10.609,13V26.678a.673.673,0,1,1,1.347,0V33.69l-.358.3a3.457,3.457,0,0,0-1.011.246A2.254,2.254,0,0,0,57.847,33.939ZM54.9,32.181a.673.673,0,1,1,1.347,0v1.758a.673.673,0,0,1-1.347,0Zm-2.949,0a.673.673,0,1,1,1.347,0v1.758a.673.673,0,0,1-1.347,0ZM60.12,41.3V44.01H51.643V41.3Zm1.962-6.043-2.051,1.67a4.557,4.557,0,0,0-1.62,2.77H52.674a9.359,9.359,0,0,1-.724-3.58A2.269,2.269,0,0,0,54.1,35.67a2.23,2.23,0,0,0,1.829.515,3.51,3.51,0,0,0-.189.712l-.032.2a.8.8,0,0,0,1.583.248l.032-.2a1.84,1.84,0,0,1,1.826-1.563.8.8,0,0,0,.518-.19l1.357-1.15a.739.739,0,0,1,1.069-.005.732.732,0,0,1-.007,1.017Zm8.152-15.163V15.768a1.743,1.743,0,0,1,1.85-1.739l2.657.165a8.948,8.948,0,0,0,5.242-1.3L82.41,11.41A1.371,1.371,0,0,1,84.5,12.58v7.51a6.619,6.619,0,0,1-2.568,5.255L80,26.851a4.277,4.277,0,0,1-5.262,0l-1.932-1.5a6.618,6.618,0,0,1-2.568-5.255ZM80.3,31.445a4.11,4.11,0,0,1-5.851.011.806.806,0,0,0,.019-.172V28.591a5.868,5.868,0,0,0,5.816-.007v2.7a.806.806,0,0,0,.016.161Zm-6.54,5.441L70.642,33.5a.164.164,0,0,1,.054-.261l2.218-1a7.415,7.415,0,0,0,2.992,1.825Zm3.607.919-1.31-1.289,1.31-1.72,1.31,1.72ZM84.085,33.5,80.97,36.887l-2.149-2.82a7.416,7.416,0,0,0,2.992-1.825l2.218,1a.164.164,0,0,1,.054.261Z" transform="translate(-48.113 -0.003)"/>
          <path id="Trazado_874623" data-name="Trazado 874623" d="M191.439,399.181a.8.8,0,0,0-.8.8v10.451a.8.8,0,0,0,1.6,0V399.982A.8.8,0,0,0,191.439,399.181Z" transform="translate(-173.691 -356.536)"/>
          <path id="Trazado_874624" data-name="Trazado 874624" d="M406.769,399.181a.8.8,0,0,0-.8.8v10.451a.8.8,0,0,0,1.6,0V399.982A.8.8,0,0,0,406.769,399.181Z" transform="translate(-366.017 -356.536)"/>
          <path id="Trazado_874625" data-name="Trazado 874625" d="M34.989,17.333v.736a1.27,1.27,0,0,0,.648,1.106v1.572a1.315,1.315,0,0,0,.682,1.152v1.6a1.217,1.217,0,0,0,1.215,1.215h4.479A1.217,1.217,0,0,0,43.228,23.5V21.9a1.316,1.316,0,0,0,.682-1.152V19.173a1.27,1.27,0,0,0,.644-1.1v-.732a2.979,2.979,0,0,1,.885-2.107A7.99,7.99,0,1,0,32.091,7.406a.8.8,0,1,0,1.54.443A6.388,6.388,0,1,1,44.3,14.1a4.571,4.571,0,0,0-1.352,3.237v.4H40.575v-5.8l2.578-2.45a.8.8,0,0,0-1.1-1.162l-2.276,2.162L37.5,8.329a.8.8,0,0,0-1.1,1.162l2.578,2.45v5.8H36.591v-.4A4.565,4.565,0,0,0,35.243,14.1a6.374,6.374,0,0,1-1.663-2.93.8.8,0,1,0-1.554.393,7.975,7.975,0,0,0,2.08,3.667,2.972,2.972,0,0,1,.881,2.1Zm6.637,5.774h-3.7V22.062h3.7ZM37.239,19.34h5.069v1.12H37.239Z" transform="translate(-32.002 -1.434)"/>
        </g>
      </g>
    </g>
  </g>
</svg>
