<svg xmlns="http://www.w3.org/2000/svg" xmlns:xlink="http://www.w3.org/1999/xlink" width="90" height="83" viewBox="0 0 90 83">
  <defs>
    <clipPath id="clip-path">
      <path id="path5577" d="M0-682.665H55.679v55.679H0Z" transform="translate(0 682.665)" fill="#464bc7"/>
    </clipPath>
  </defs>
  <g id="a2" transform="translate(-989.333 -463)">
    <g id="Grupo_1099433" data-name="Grupo 1099433" transform="translate(-90.448 -1773)">
      <g id="Rectángulo_401341" data-name="Rectángulo 401341" transform="translate(1079.781 2236)" fill="#d6c0fd" stroke="#fff" stroke-width="3">
        <rect width="90" height="83" rx="12" stroke="none"/>
        <rect x="1.5" y="1.5" width="87" height="80" rx="10.5" fill="none"/>
      </g>
    </g>
    <g id="g5575" transform="translate(1006.333 477)" clip-path="url(#clip-path)">
      <g id="g5581" transform="translate(10.461 26.152)">
        <path id="path5583" d="M-209.649-23.225a3.435,3.435,0,0,1-3.431-3.431V-49.321a3.435,3.435,0,0,1,3.431-3.431h7.634a3.408,3.408,0,0,1,2.426,1l1.955,1.955a1.788,1.788,0,0,0,1.273.527h.661a.816.816,0,0,1,.816.816.816.816,0,0,1-.816.816h-.661a3.408,3.408,0,0,1-2.426-1l-1.955-1.955a1.788,1.788,0,0,0-1.273-.527h-7.634a1.8,1.8,0,0,0-1.8,1.8v22.665a1.8,1.8,0,0,0,1.8,1.8.816.816,0,0,1,.816.816A.816.816,0,0,1-209.649-23.225Z" transform="translate(213.079 52.752)" fill="#464bc7"/>
      </g>
      <g id="g5585" transform="translate(30.51 29.639)">
        <path id="path5587" d="M-156.433-47.634a.816.816,0,0,1-.816-.816v-.872a1.8,1.8,0,0,0-1.8-1.8h-10.461a.816.816,0,0,1-.816-.816.816.816,0,0,1,.816-.816h10.461a3.435,3.435,0,0,1,3.431,3.431v.872A.816.816,0,0,1-156.433-47.634Z" transform="translate(170.325 52.752)" fill="#464bc7"/>
      </g>
      <g id="g5589" transform="translate(33.998 49.689)">
        <path id="path5591" d="M-77.9-8.369H-84a.816.816,0,0,1-.816-.816A.816.816,0,0,1-84-10h6.1a.816.816,0,0,1,.816.816A.816.816,0,0,1-77.9-8.369Z" transform="translate(84.817 10)" fill="#464bc7"/>
      </g>
      <g id="g5593" transform="translate(35.741 46.202)">
        <path id="path5595" d="M-77.9-8.369H-84a.816.816,0,0,1-.816-.816A.816.816,0,0,1-84-10h6.1a.816.816,0,0,1,.816.816A.816.816,0,0,1-77.9-8.369Z" transform="translate(84.817 10)" fill="#464bc7"/>
      </g>
      <g id="g5597" transform="translate(10.929 33.126)">
        <path id="path5599" d="M21.585-226.724H-7.041a.816.816,0,0,1-.816-.816.816.816,0,0,1,.816-.816H21.585a1.8,1.8,0,0,0,1.707-1.231l6-17.986-.053-.074H-.8a1.8,1.8,0,0,0-1.707,1.23l-5.909,17.727a.816.816,0,0,1-1.032.516.816.816,0,0,1-.516-1.032l5.909-17.727A3.427,3.427,0,0,1-.8-249.277H29.235a1.692,1.692,0,0,1,1.369.7,1.692,1.692,0,0,1,.232,1.52l-6,17.986A3.427,3.427,0,0,1,21.585-226.724Z" transform="translate(10.003 249.277)" fill="#464bc7"/>
      </g>
      <g id="g5601" transform="translate(1.743 0)">
        <path id="path5603" d="M-104.506-10h6.974a.816.816,0,0,1,.577.239L-92.6-5.4a.816.816,0,0,1,.239.577V5.635a1.689,1.689,0,0,1-1.687,1.687h-10.461a1.689,1.689,0,0,1-1.687-1.687V-8.313A1.689,1.689,0,0,1-104.506-10Zm6.636,1.631h-6.636a.056.056,0,0,0-.056.056V5.635l10.517.056.054-10.181Z" transform="translate(106.193 10)" fill="#464bc7"/>
      </g>
      <g id="g5605" transform="translate(9.589 0)">
        <path id="path5607" d="M-58.267-57.451h-3.487a1.689,1.689,0,0,1-1.687-1.687v-3.487a.816.816,0,0,1,.816-.816.816.816,0,0,1,.816.816v3.487l3.543.056a.816.816,0,0,1,.816.816A.816.816,0,0,1-58.267-57.451Z" transform="translate(63.441 63.441)" fill="#464bc7"/>
      </g>
      <g id="g5609" transform="translate(5.23 7.846)">
        <path id="path5611" d="M-4.826-8.369H-9.184A.816.816,0,0,1-10-9.184.816.816,0,0,1-9.184-10h4.359a.816.816,0,0,1,.816.816A.816.816,0,0,1-4.826-8.369Z" transform="translate(10 10)" fill="#464bc7"/>
      </g>
      <g id="g5613" transform="translate(5.23 11.333)">
        <path id="path5615" d="M-4.826-8.369H-9.184A.816.816,0,0,1-10-9.184.816.816,0,0,1-9.184-10h4.359a.816.816,0,0,1,.816.816A.816.816,0,0,1-4.826-8.369Z" transform="translate(10 10)" fill="#464bc7"/>
      </g>
      <g id="g5617" transform="translate(20.922 0)">
        <path id="path5619" d="M-104.506-10h6.974a.816.816,0,0,1,.577.239L-92.6-5.4a.816.816,0,0,1,.239.577V5.635a1.689,1.689,0,0,1-1.687,1.687h-10.461a1.689,1.689,0,0,1-1.687-1.687V-8.313A1.689,1.689,0,0,1-104.506-10Zm6.636,1.631h-6.636a.056.056,0,0,0-.056.056V5.635l10.517.056.054-10.181Z" transform="translate(106.193 10)" fill="#464bc7"/>
      </g>
      <g id="g5621" transform="translate(28.767 0)">
        <path id="path5623" d="M-58.267-57.451h-3.487a1.689,1.689,0,0,1-1.687-1.687v-3.487a.816.816,0,0,1,.816-.816.816.816,0,0,1,.816.816v3.487l3.543.056a.816.816,0,0,1,.816.816A.816.816,0,0,1-58.267-57.451Z" transform="translate(63.441 63.441)" fill="#464bc7"/>
      </g>
      <g id="g5625" transform="translate(24.409 7.846)">
        <path id="path5627" d="M-4.826-8.369H-9.184A.816.816,0,0,1-10-9.184.816.816,0,0,1-9.184-10h4.359a.816.816,0,0,1,.816.816A.816.816,0,0,1-4.826-8.369Z" transform="translate(10 10)" fill="#464bc7"/>
      </g>
      <g id="g5629" transform="translate(24.409 11.333)">
        <path id="path5631" d="M-4.826-8.369H-9.184A.816.816,0,0,1-10-9.184.816.816,0,0,1-9.184-10h4.359a.816.816,0,0,1,.816.816A.816.816,0,0,1-4.826-8.369Z" transform="translate(10 10)" fill="#464bc7"/>
      </g>
      <g id="g5633" transform="translate(40.1 0)">
        <path id="path5635" d="M-104.507-10h6.974a.816.816,0,0,1,.577.239L-92.6-5.4a.816.816,0,0,1,.239.577V5.635a1.689,1.689,0,0,1-1.687,1.687h-10.461a1.689,1.689,0,0,1-1.687-1.687V-8.313A1.689,1.689,0,0,1-104.507-10Zm6.636,1.631h-6.636a.056.056,0,0,0-.056.056V5.635l10.517.056.054-10.181Z" transform="translate(106.194 10)" fill="#464bc7"/>
      </g>
      <g id="g5637" transform="translate(47.945 0)">
        <path id="path5639" d="M-58.267-57.451h-3.487a1.689,1.689,0,0,1-1.687-1.687v-3.487a.816.816,0,0,1,.816-.816.816.816,0,0,1,.816.816v3.487l3.543.056a.816.816,0,0,1,.816.816A.816.816,0,0,1-58.267-57.451Z" transform="translate(63.441 63.441)" fill="#464bc7"/>
      </g>
      <g id="g5641" transform="translate(43.587 7.846)">
        <path id="path5643" d="M-4.826-8.369H-9.184A.816.816,0,0,1-10-9.184.816.816,0,0,1-9.184-10h4.359a.816.816,0,0,1,.816.816A.816.816,0,0,1-4.826-8.369Z" transform="translate(10 10)" fill="#464bc7"/>
      </g>
      <g id="g5645" transform="translate(43.587 11.333)">
        <path id="path5647" d="M-4.826-8.369H-9.184A.816.816,0,0,1-10-9.184.816.816,0,0,1-9.184-10h4.359a.816.816,0,0,1,.816.816A.816.816,0,0,1-4.826-8.369Z" transform="translate(10 10)" fill="#464bc7"/>
      </g>
      <g id="g5649" transform="translate(27.024 22.665)">
        <path id="path5651" d="M-9.184,2.092A.816.816,0,0,1-10,1.276V-9.184A.816.816,0,0,1-9.184-10a.816.816,0,0,1,.816.816V1.276A.816.816,0,0,1-9.184,2.092Z" transform="translate(10 10)" fill="#464bc7"/>
      </g>
      <g id="g5653" transform="translate(28.767 15.691)">
        <path id="path5655" d="M6.507-67.268H-9.184A.816.816,0,0,1-10-68.083a.816.816,0,0,1,.816-.816H6.507a.929.929,0,0,0,.928-.928v-3.487a.816.816,0,0,1,.816-.816.816.816,0,0,1,.816.816v3.487A2.562,2.562,0,0,1,6.507-67.268Z" transform="translate(10 74.129)" fill="#464bc7"/>
      </g>
      <g id="g5657" transform="translate(7.846 15.691)">
        <path id="path5659" d="M8.25-3.138H-7.441A2.562,2.562,0,0,1-10-5.7V-9.184A.816.816,0,0,1-9.184-10a.816.816,0,0,1,.816.816V-5.7a.929.929,0,0,0,.928.928H8.25a.816.816,0,0,1,.816.816A.816.816,0,0,1,8.25-3.138Z" transform="translate(10 10)" fill="#464bc7"/>
      </g>
      <g id="g5661" transform="translate(25.28 19.178)">
        <path id="path5663" d="M-50.193-31.376a2.562,2.562,0,0,1,2.559,2.559,2.562,2.562,0,0,1-2.559,2.559,2.562,2.562,0,0,1-2.559-2.559A2.562,2.562,0,0,1-50.193-31.376Zm0,3.487a.929.929,0,0,0,.928-.928.929.929,0,0,0-.928-.928.929.929,0,0,0-.928.928A.929.929,0,0,0-50.193-27.889Z" transform="translate(52.752 31.376)" fill="#464bc7"/>
      </g>
      <g id="g5665" transform="translate(27.024 15.691)">
        <path id="path5667" d="M-9.184-47.634A.816.816,0,0,1-10-48.449v-3.487a.816.816,0,0,1,.816-.816.816.816,0,0,1,.816.816v3.487A.816.816,0,0,1-9.184-47.634Z" transform="translate(10 52.752)" fill="#464bc7"/>
      </g>
    </g>
  </g>
</svg>
