<svg xmlns="http://www.w3.org/2000/svg" width="90" height="83" viewBox="0 0 90 83">
  <g id="a3" transform="translate(-1230.333 -282)">
    <g id="Grupo_1099434" data-name="Grupo 1099434" transform="translate(150.552 -1954)">
      <g id="Rectángulo_401341" data-name="Rectángulo 401341" transform="translate(1079.781 2236)" fill="#d6c0fd" stroke="#fff" stroke-width="3">
        <rect width="90" height="83" rx="12" stroke="none"/>
        <rect x="1.5" y="1.5" width="87" height="80" rx="10.5" fill="none"/>
      </g>
    </g>
    <g id="g5785" transform="translate(1242.321 288.967)">
      <g id="Grupo_1099352" data-name="Grupo 1099352" transform="translate(0.012 3.033)">
        <g id="g5793" transform="translate(0 41.488)">
          <path id="path5795" d="M-8.309-93.694a2.369,2.369,0,0,1-.475-.049L-14.3-95.1l-5.481,1.345a2.457,2.457,0,0,1-.513.057,2,2,0,0,1-2.042-1.9l-.066-2.225-.125-3.188-1.7-2.482-1.385-2.041a2.024,2.024,0,0,1-.254-1.727,2.063,2.063,0,0,1,1.227-1.26l5.331-1.874L-15.8-114.6a2.007,2.007,0,0,1,1.495-.731,1.993,1.993,0,0,1,1.472.7l3.533,4.235,5.286,1.856a2.092,2.092,0,0,1,1.275,1.277,2,2,0,0,1-.231,1.692l-1.257,1.861-1.852,2.7-.122,3.2-.062,2.165A2.015,2.015,0,0,1-8.309-93.694Zm-6-3.388a.978.978,0,0,1,.233.028l5.717,1.4h.046a.149.149,0,0,0,.07-.012.225.225,0,0,0,.023-.095l.06-2.119.134-3.489a.978.978,0,0,1,.171-.516l2.008-2.925,1.231-1.821c.014-.016-.02-.046-.094-.076l-5.5-1.929a.978.978,0,0,1-.428-.3l-3.673-4.4-.018.019-3.66,4.385a.978.978,0,0,1-.427.3l-5.54,1.945a.234.234,0,0,0-.066.051l1.4,2.045,1.854,2.712a.979.979,0,0,1,.17.514l.137,3.48.063,2.185.088.052,2.251-.541,3.509-.862A.979.979,0,0,1-14.3-97.082Z" transform="translate(25.961 115.328)" fill="#464bc7"/>
        </g>
        <g id="g5797" transform="translate(25.999 27.822)">
          <path id="path5799" d="M-6.779-3.563a.978.978,0,0,1-.3-.046A.978.978,0,0,1-7.7-4.2l-2.245-5.98a.978.978,0,0,1,.572-1.26.978.978,0,0,1,1.26.572L-6.3-6.047l2.012-1.361L-7.029-9.969a.978.978,0,0,1-.047-1.383A.978.978,0,0,1-5.693-11.4L-2.055-8a.978.978,0,0,1,.308.792.978.978,0,0,1-.427.734L-6.231-3.731A.978.978,0,0,1-6.779-3.563Z" transform="translate(10.003 11.663)" fill="#464bc7"/>
        </g>
        <g id="g5801" transform="translate(32.3 27.822)">
          <path id="path5803" d="M-69.371-3.563a.978.978,0,0,1-.549-.168l-4.053-2.744a.979.979,0,0,1-.427-.734A.979.979,0,0,1-74.092-8l3.639-3.4a.978.978,0,0,1,1.383.047.978.978,0,0,1-.047,1.383l-2.742,2.561,2.01,1.36,1.812-4.818a.978.978,0,0,1,1.26-.572.978.978,0,0,1,.572,1.26L-68.455-4.2a.979.979,0,0,1-.619.588A.978.978,0,0,1-69.371-3.563Z" transform="translate(74.403 11.663)" fill="#464bc7"/>
        </g>
        <g id="g5805" transform="translate(34.756 32.881)">
          <path id="path5807" d="M41.17-73.17a.978.978,0,0,1-.978-.978v-7.064a.978.978,0,0,1,.978-.978.978.978,0,0,1,.978.978v7.064A.978.978,0,0,1,41.17-73.17Z" transform="translate(-40.192 82.19)" fill="#464bc7"/>
        </g>
        <g id="g5809" transform="translate(25.485 8.665)">
          <path id="path5811" d="M-71.86-10a7.8,7.8,0,0,1,7.794,7.794c0,7.838-4.04,11.407-7.794,11.407s-7.794-3.57-7.794-11.407A7.8,7.8,0,0,1-71.86-10Zm0,17.245c2.811,0,5.837-2.957,5.837-9.451A5.844,5.844,0,0,0-71.86-8.043,5.844,5.844,0,0,0-77.7-2.206C-77.7,4.287-74.672,7.245-71.86,7.245Z" transform="translate(79.654 10)" fill="#464bc7"/>
        </g>
        <g id="g5813" transform="translate(25.954 12.999)">
          <path id="path5815" d="M-.534-5.178A15.306,15.306,0,0,1-9.624-8.251a.978.978,0,0,1-.169-1.373A.978.978,0,0,1-8.42-9.793C-5.505-7.517-.4-6.172,3.716-8.007a.978.978,0,0,1,1.292.5.978.978,0,0,1-.5,1.292A12.336,12.336,0,0,1-.534-5.178Z" transform="translate(10 10)" fill="#464bc7"/>
        </g>
        <g id="g5817" transform="translate(49.223 43.339)">
          <path id="path5819" d="M-18.12-21.494a5.142,5.142,0,0,1,3.726,1.6l7.315,7.759A5.126,5.126,0,0,1-7.288-4.9,5.1,5.1,0,0,1-10.8-3.506a5.14,5.14,0,0,1-3.724-1.6l-7.315-7.759a5.082,5.082,0,0,1-1.389-3.664,5.079,5.079,0,0,1,1.6-3.574A5.092,5.092,0,0,1-18.12-21.494ZM-10.8-5.463a3.151,3.151,0,0,0,2.17-.857A3.166,3.166,0,0,0-8.5-10.79l-7.315-7.759a3.135,3.135,0,0,0-2.3-.988,3.144,3.144,0,0,0-2.168.858,3.136,3.136,0,0,0-.987,2.208,3.139,3.139,0,0,0,.856,2.263L-13.1-6.449A3.132,3.132,0,0,0-10.8-5.463Z" transform="translate(23.233 21.494)" fill="#464bc7"/>
        </g>
        <g id="g5821" transform="translate(52.603 47.027)">
          <path id="path5823" d="M-64.565-10h.029a.979.979,0,0,1,.683.307l2.8,2.973a.978.978,0,0,1-.041,1.383L-67.115.344A.978.978,0,0,1-68.5.3l-2.8-2.97a.978.978,0,0,1-.267-.7.978.978,0,0,1,.307-.683l6.024-5.684A.979.979,0,0,1-64.565-10Zm1.42,3.911-1.461-1.549-4.6,4.341,1.46,1.547Z" transform="translate(71.568 10)" fill="#464bc7"/>
        </g>
        <g id="g5825" transform="translate(46.22 40.026)">
          <path id="path5827" d="M-46.254-46.233a.975.975,0,0,1-.7-.3l-4.038-4.142a.978.978,0,0,1,.018-1.384.978.978,0,0,1,1.384.018l4.038,4.142a.978.978,0,0,1-.018,1.384A.975.975,0,0,1-46.254-46.233Z" transform="translate(51.271 52.332)" fill="#464bc7"/>
        </g>
        <g id="g5829" transform="translate(9.816)">
          <path id="path5831" d="M-216.328-422.667a23.49,23.49,0,0,1-23.463-23.464,23.49,23.49,0,0,1,23.463-23.464,23.49,23.49,0,0,1,23.463,23.464A23.49,23.49,0,0,1-216.328-422.667Zm0-44.971a21.531,21.531,0,0,0-21.506,21.507,21.531,21.531,0,0,0,21.506,21.507,21.531,21.531,0,0,0,21.506-21.507A21.531,21.531,0,0,0-216.328-467.638Z" transform="translate(239.791 469.595)" fill="#464bc7"/>
        </g>
        <g id="g5833" transform="translate(14.672 4.856)">
          <path id="path5835" d="M-171.559-10A18.629,18.629,0,0,1-152.951,8.608a18.629,18.629,0,0,1-18.608,18.608A18.629,18.629,0,0,1-190.166,8.608,18.629,18.629,0,0,1-171.559-10Zm0,35.259A16.67,16.67,0,0,0-154.908,8.608,16.67,16.67,0,0,0-171.559-8.043a16.67,16.67,0,0,0-16.65,16.651A16.67,16.67,0,0,0-171.559,25.259Z" transform="translate(190.166 10)" fill="#464bc7"/>
        </g>
        <g id="g5837" transform="translate(23.314 24.456)">
          <path id="path5839" d="M46.289-106.175a.978.978,0,0,1-.977-.938,6.677,6.677,0,0,0-6.607-6.34H37.614a.978.978,0,0,1-.978-.979V-117.8a.978.978,0,0,1,.978-.978.978.978,0,0,1,.978.978v2.387H38.7a8.549,8.549,0,0,1,8.563,8.216.978.978,0,0,1-.937,1.018Zm-21.252-6.49a.907.907,0,0,1-.872-.54c-.41-.8-.091-1.045,1.979-2.613.833-.631,2.006-1.52,3.592-2.752a.979.979,0,0,1,1.03-.106.978.978,0,0,1,.548.879v3.365a.978.978,0,0,1-.978.979H29.245a11.457,11.457,0,0,0-3.29.6A3.312,3.312,0,0,1,25.037-112.665Zm4.321-3.141-.53.405q.207-.01.417-.01h.112Z" transform="translate(-24.009 118.776)" fill="#464bc7"/>
        </g>
      </g>
    </g>
  </g>
</svg>
