<svg xmlns="http://www.w3.org/2000/svg" width="61.554" height="56.767" viewBox="0 0 61.554 56.767">
  <g id="_12" data-name="12" transform="translate(-334.621 -1399.423)">
    <g id="Rectángulo_401341" data-name="Rectángulo 401341" transform="translate(334.621 1399.423)" fill="#fece2f" stroke="#faedc1" stroke-width="3">
      <rect width="61.554" height="56.767" rx="12" stroke="none"/>
      <rect x="1.5" y="1.5" width="58.554" height="53.767" rx="10.5" fill="none"/>
    </g>
    <g id="workers_4490381" transform="translate(346.952 1393.138)">
      <g id="Grupo_1101148" data-name="Grupo 1101148" transform="translate(0.54 18.022)">
        <g id="Grupo_1101145" data-name="Grupo 1101145" transform="translate(0 10.003)">
          <path id="Trazado_874713" data-name="Trazado 874713" d="M18,346.685v8.668H7.5v-8.668l3.737-1.556H14.26Z" transform="translate(-7.502 -332.065)" fill="#fea613"/>
          <path id="Trazado_874714" data-name="Trazado 874714" d="M34.805,252.516H31.27a1.9,1.9,0,0,1-1.9-1.9V247.26H36.71v3.351A1.9,1.9,0,0,1,34.805,252.516Z" transform="translate(-27.79 -241.247)" fill="#ffdfcf"/>
          <path id="Trazado_874715" data-name="Trazado 874715" d="M93.433,247.26v3.351a1.9,1.9,0,0,1-1.9,1.9H90.494a1.9,1.9,0,0,0,1.9-1.9V247.26Z" transform="translate(-84.514 -241.247)" fill="#ffcebf"/>
          <path id="Trazado_874716" data-name="Trazado 874716" d="M22.7,222.258H13.9a.413.413,0,0,1-.413-.413V220.73a.413.413,0,0,1,.413-.413H22.7a.413.413,0,0,1,.413.413v1.116A.413.413,0,0,1,22.7,222.258Z" transform="translate(-13.054 -216.245)" fill="#fea613"/>
          <path id="Trazado_874717" data-name="Trazado 874717" d="M128.458,220.733v1.115a.413.413,0,0,1-.412.413H127a.413.413,0,0,0,.413-.413v-1.115a.412.412,0,0,0-.413-.413h1.04A.412.412,0,0,1,128.458,220.733Z" transform="translate(-118.394 -216.248)" fill="#fe9901"/>
          <path id="Trazado_874718" data-name="Trazado 874718" d="M31.846,179.544H23.683a3.166,3.166,0,0,1,3.166-3.166H28.68A3.166,3.166,0,0,1,31.846,179.544Z" transform="translate(-22.517 -175.472)" fill="#ffd15b"/>
          <path id="Trazado_874719" data-name="Trazado 874719" d="M84.463,179.546h-.911a3.166,3.166,0,0,0-3.166-3.166H81.3A3.166,3.166,0,0,1,84.463,179.546Z" transform="translate(-75.133 -175.474)" fill="#ffc344"/>
          <path id="Trazado_874720" data-name="Trazado 874720" d="M69.142,163.806h-1.1a.361.361,0,0,0-.361.361v3.711H69.5v-3.711A.361.361,0,0,0,69.142,163.806Z" transform="translate(-63.344 -163.806)" fill="#fea613"/>
          <path id="Trazado_874721" data-name="Trazado 874721" d="M76.6,164.17v3.711h-.911V164.17a.36.36,0,0,0-.36-.36h.911A.361.361,0,0,1,76.6,164.17Z" transform="translate(-70.438 -163.81)" fill="#fe9901"/>
          <path id="Trazado_874722" data-name="Trazado 874722" d="M59.364,320.2h3.021V322H59.364Z" transform="translate(-55.627 -308.931)" fill="#ffdfcf"/>
          <path id="Trazado_874723" data-name="Trazado 874723" d="M86.365,320.2h1.076V322H86.365Z" transform="translate(-80.682 -308.931)" fill="#ffcebf"/>
          <path id="Trazado_874724" data-name="Trazado 874724" d="M59.364,345.129l1.51,3,1.51-3Z" transform="translate(-55.627 -332.064)" fill="#0593fc"/>
          <path id="Trazado_874725" data-name="Trazado 874725" d="M74.913,345.13l-1.511,3-.537-1.069.973-1.935Z" transform="translate(-68.155 -332.065)" fill="#0181fa"/>
          <path id="Trazado_874726" data-name="Trazado 874726" d="M7.5,416.073H18v2.393H7.5Z" transform="translate(-7.5 -397.896)" fill="#eaf6ff"/>
          <path id="Trazado_874727" data-name="Trazado 874727" d="M99.719,357.116v8.668H95.57l2.358-9.414Z" transform="translate(-89.224 -342.495)" fill="#fe9901"/>
          <path id="Trazado_874728" data-name="Trazado 874728" d="M108.488,416.07v2.394H105.02l.6-2.394Z" transform="translate(-97.993 -397.893)" fill="#c8effe"/>
        </g>
        <g id="Grupo_1101146" data-name="Grupo 1101146" transform="translate(25.316 10.003)">
          <path id="Trazado_874729" data-name="Trazado 874729" d="M369.342,346.685v8.668H358.847v-8.668l3.737-1.556h3.021Z" transform="translate(-358.847 -332.065)" fill="#fea613"/>
          <path id="Trazado_874730" data-name="Trazado 874730" d="M490.646,360.948v8.668H489.57V360.5Z" transform="translate(-480.151 -346.327)" fill="#fe9901"/>
          <path id="Trazado_874731" data-name="Trazado 874731" d="M386.152,252.516h-3.535a1.9,1.9,0,0,1-1.9-1.9V247.26h7.344v3.351A1.9,1.9,0,0,1,386.152,252.516Z" transform="translate(-379.136 -241.247)" fill="#ffdfcf"/>
          <path id="Trazado_874732" data-name="Trazado 874732" d="M444.779,247.26v3.351a1.9,1.9,0,0,1-1.9,1.9H441.84a1.9,1.9,0,0,0,1.9-1.9V247.26Z" transform="translate(-435.86 -241.247)" fill="#ffcebf"/>
          <path id="Trazado_874733" data-name="Trazado 874733" d="M374.051,222.258h-8.807a.413.413,0,0,1-.413-.413V220.73a.413.413,0,0,1,.413-.413h8.807a.413.413,0,0,1,.413.413v1.116A.413.413,0,0,1,374.051,222.258Z" transform="translate(-364.4 -216.245)" fill="#fea613"/>
          <path id="Trazado_874734" data-name="Trazado 874734" d="M479.8,220.733v1.115a.413.413,0,0,1-.412.413h-1.04a.413.413,0,0,0,.413-.413v-1.115a.412.412,0,0,0-.413-.413h1.04A.412.412,0,0,1,479.8,220.733Z" transform="translate(-469.739 -216.248)" fill="#fe9901"/>
          <path id="Trazado_874735" data-name="Trazado 874735" d="M383.192,179.544h-8.163a3.166,3.166,0,0,1,3.166-3.166h1.831A3.166,3.166,0,0,1,383.192,179.544Z" transform="translate(-373.863 -175.472)" fill="#ffd15b"/>
          <path id="Trazado_874736" data-name="Trazado 874736" d="M435.808,179.546H434.9a3.166,3.166,0,0,0-3.166-3.166h.911A3.166,3.166,0,0,1,435.808,179.546Z" transform="translate(-426.478 -175.474)" fill="#ffc344"/>
          <path id="Trazado_874737" data-name="Trazado 874737" d="M420.487,163.806h-1.1a.361.361,0,0,0-.361.361v3.711h1.823v-3.711A.361.361,0,0,0,420.487,163.806Z" transform="translate(-414.689 -163.806)" fill="#fea613"/>
          <path id="Trazado_874738" data-name="Trazado 874738" d="M427.942,164.17v3.711h-.911V164.17a.36.36,0,0,0-.36-.36h.911A.361.361,0,0,1,427.942,164.17Z" transform="translate(-421.783 -163.81)" fill="#fe9901"/>
          <path id="Trazado_874739" data-name="Trazado 874739" d="M410.71,320.2h3.021V322H410.71Z" transform="translate(-406.973 -308.931)" fill="#ffdfcf"/>
          <path id="Trazado_874740" data-name="Trazado 874740" d="M437.71,320.2h1.076V322H437.71Z" transform="translate(-432.027 -308.931)" fill="#ffcebf"/>
          <path id="Trazado_874741" data-name="Trazado 874741" d="M410.71,345.129l1.51,3,1.51-3Z" transform="translate(-406.973 -332.064)" fill="#0593fc"/>
          <path id="Trazado_874742" data-name="Trazado 874742" d="M426.259,345.13l-1.511,3-.538-1.069.973-1.935Z" transform="translate(-419.5 -332.065)" fill="#0181fa"/>
          <path id="Trazado_874743" data-name="Trazado 874743" d="M358.845,416.073h10.5v2.393h-10.5Z" transform="translate(-358.845 -397.896)" fill="#eaf6ff"/>
          <path id="Trazado_874744" data-name="Trazado 874744" d="M489.57,416.07h1.076v2.394H489.57Z" transform="translate(-480.151 -397.893)" fill="#c8effe"/>
        </g>
        <g id="Grupo_1101147" data-name="Grupo 1101147" transform="translate(7.428)">
          <path id="Trazado_874745" data-name="Trazado 874745" d="M322.461,142.137a2.225,2.225,0,1,0,0-4.449l-.428,2.225Z" transform="translate(-306.797 -129.567)" fill="#ffcebf"/>
          <path id="Trazado_874746" data-name="Trazado 874746" d="M155.38,142.137a2.225,2.225,0,0,1,0-4.449l.388,2.225Z" transform="translate(-150.088 -129.567)" fill="#ffdfcf"/>
          <path id="Trazado_874747" data-name="Trazado 874747" d="M170.091,139.914l-.388,2.225a2.219,2.219,0,0,1-1.113-.3v-3.854a2.211,2.211,0,0,1,1.113-.3Z" transform="translate(-164.411 -129.569)" fill="#ffcebf"/>
          <path id="Trazado_874748" data-name="Trazado 874748" d="M191.712,145.884h-4.992a2.689,2.689,0,0,1-2.689-2.689v-5.506H194.4v5.506A2.689,2.689,0,0,1,191.712,145.884Z" transform="translate(-178.738 -129.568)" fill="#ffdfcf"/>
          <path id="Trazado_874749" data-name="Trazado 874749" d="M276.608,137.69V143.2a2.689,2.689,0,0,1-2.69,2.69h-1.3a2.689,2.689,0,0,0,2.69-2.69V137.69Z" transform="translate(-260.945 -129.569)" fill="#ffcebf"/>
          <path id="Trazado_874750" data-name="Trazado 874750" d="M174.622,107.16H162.184a.583.583,0,0,1-.583-.583v-1.2a.583.583,0,0,1,.583-.583h12.438a.583.583,0,0,1,.583.583v1.2A.583.583,0,0,1,174.622,107.16Z" transform="translate(-157.925 -99.039)" fill="#fea613"/>
          <path id="Trazado_874751" data-name="Trazado 874751" d="M327.341,105.373v1.2a.583.583,0,0,1-.583.583H325.55a.583.583,0,0,0,.583-.583v-1.2a.583.583,0,0,0-.583-.583h1.208A.583.583,0,0,1,327.341,105.373Z" transform="translate(-310.061 -99.039)" fill="#fe9901"/>
          <path id="Trazado_874752" data-name="Trazado 874752" d="M187.532,47.208H176a4.471,4.471,0,0,1,4.471-4.471h2.586A4.471,4.471,0,0,1,187.532,47.208Z" transform="translate(-171.29 -41.458)" fill="#ffd15b"/>
          <path id="Trazado_874753" data-name="Trazado 874753" d="M262.767,47.211h-1.216a4.471,4.471,0,0,0-4.471-4.471h1.215A4.471,4.471,0,0,1,262.767,47.211Z" transform="translate(-246.525 -41.46)" fill="#ffc344"/>
          <path id="Trazado_874754" data-name="Trazado 874754" d="M240.2,24.982h-1.555a.509.509,0,0,0-.509.509v5.241h2.574V25.491A.509.509,0,0,0,240.2,24.982Z" transform="translate(-228.947 -24.982)" fill="#fea613"/>
          <path id="Trazado_874755" data-name="Trazado 874755" d="M251.728,25.489v5.241h-1.209V25.489a.51.51,0,0,0-.509-.509h1.209A.509.509,0,0,1,251.728,25.489Z" transform="translate(-239.964 -24.98)" fill="#fe9901"/>
          <path id="Trazado_874756" data-name="Trazado 874756" d="M226.4,251.428h4.266v2.536H226.4Z" transform="translate(-218.051 -235.112)" fill="#ffdfcf"/>
          <path id="Trazado_874757" data-name="Trazado 874757" d="M267.3,251.43h1.319v2.536H267.3Z" transform="translate(-256.008 -235.113)" fill="#ffcebf"/>
          <path id="Trazado_874758" data-name="Trazado 874758" d="M131.542,301.07H110.587l2.709-10.81a2.942,2.942,0,0,1,1.72-2l3.915-1.63H123.2l3.915,1.63a2.942,2.942,0,0,1,1.72,2Z" transform="translate(-110.587 -267.779)" fill="#0593fc"/>
          <path id="Trazado_874759" data-name="Trazado 874759" d="M276.963,301.069h-1.319l-2.708-10.811a2.944,2.944,0,0,0-1.72-2L267.3,286.63h1.319l3.915,1.631a2.944,2.944,0,0,1,1.72,2Z" transform="translate(-256.008 -267.777)" fill="#0181fa"/>
          <path id="Trazado_874760" data-name="Trazado 874760" d="M170.83,289.086a5.113,5.113,0,0,0-1.258,3.36v8.623H157.748v-8.623a5.113,5.113,0,0,0-1.258-3.36,2.915,2.915,0,0,1,1.121-.825l3.915-1.631,2.134,3.254,2.134-3.254,3.915,1.631A2.915,2.915,0,0,1,170.83,289.086Z" transform="translate(-153.183 -267.777)" fill="#fea613"/>
          <path id="Trazado_874761" data-name="Trazado 874761" d="M287,289.086a5.113,5.113,0,0,0-1.258,3.36v8.623h-1.319v-8.623a5.113,5.113,0,0,1,1.258-3.36,2.914,2.914,0,0,0-1.121-.825l-2.879-1.2.283-.432,3.915,1.631A2.914,2.914,0,0,1,287,289.086Z" transform="translate(-269.352 -267.777)" fill="#fe9901"/>
          <path id="Trazado_874762" data-name="Trazado 874762" d="M173.953,386.825h11.824v3.38H173.953Z" transform="translate(-169.387 -360.753)" fill="#eaf6ff"/>
          <path id="Trazado_874763" data-name="Trazado 874763" d="M319.74,386.83h1.319v3.379H319.74Z" transform="translate(-304.67 -360.757)" fill="#c8effe"/>
        </g>
      </g>
      <g id="Grupo_1101149" data-name="Grupo 1101149" transform="translate(0 17.482)">
        <path id="Trazado_874764" data-name="Trazado 874764" d="M36.559,42.147l-3.4-1.417v-.912a2.448,2.448,0,0,0,2.161-2.428V34.579h.191a.954.954,0,0,0,.953-.953V32.51a.954.954,0,0,0-.772-.935,3.714,3.714,0,0,0-3.133-3.144.938.938,0,0,0-.9-.945h-1.1a.939.939,0,0,0-.9.945,3.714,3.714,0,0,0-3.133,3.144.954.954,0,0,0-.772.935v1.116a.954.954,0,0,0,.953.953h.191V37.39a2.448,2.448,0,0,0,2.161,2.428v.912l-2.014.838-.3-1.2A3.543,3.543,0,0,0,24.7,38.007l-.4-.168a.54.54,0,0,0-.415,1l.4.168a2.4,2.4,0,0,1,.607.367,5.653,5.653,0,0,0-1.077,3.319v.864H18.986V40.29l1.8-2.744.945.393a.54.54,0,1,0,.415-1l-1.026-.427V34.874a3.234,3.234,0,0,0,3.053-3.225v-.57a2.764,2.764,0,0,0,1.317-4.759,1.118,1.118,0,0,0,.3-.761v-1.2a1.124,1.124,0,0,0-1.067-1.121,5.043,5.043,0,0,0-4.448-4.445v-.258a1.051,1.051,0,0,0-1.05-1.05H17.668a1.051,1.051,0,0,0-1.05,1.05v.258a5.04,5.04,0,0,0-4.448,4.445A1.124,1.124,0,0,0,11.1,24.356v1.2a1.118,1.118,0,0,0,.3.761A2.764,2.764,0,0,0,12.72,31.08v.57a3.234,3.234,0,0,0,3.053,3.225v1.641l-3.583,1.492a3.535,3.535,0,0,0-2.037,2.365l-.3,1.2L7.839,40.73v-.912A2.448,2.448,0,0,0,10,37.39V34.579a1.012,1.012,0,0,0,1.144-.953V32.51a.954.954,0,0,0-.772-.935A3.714,3.714,0,0,0,7.239,28.43v-.044a.9.9,0,0,0-.9-.9h-1.1a.9.9,0,0,0-.9.9v.045a3.7,3.7,0,0,0-1.266.426A.54.54,0,1,0,3.6,29.8a2.613,2.613,0,0,1,.74-.274v2.029H2.3q.015-.07.033-.14a.54.54,0,0,0-1.044-.279,3.7,3.7,0,0,0-.088.436.954.954,0,0,0-.773.936v1.116a1.01,1.01,0,0,0,1.144.953V37.39a2.448,2.448,0,0,0,2.161,2.428v.912l-3.4,1.417a.54.54,0,0,0-.333.5v8.668a.54.54,0,0,0,1.081,0V49.136H5.247v2.178a.54.54,0,1,0,1.081,0V49.136H7.957l-.513,2.047a.54.54,0,1,0,1.048.263L11.2,40.634a2.36,2.36,0,0,1,.114-.339,4.571,4.571,0,0,1,.679,2.4v8.623a.54.54,0,0,0,1.081,0v-3.3h4.831v3.3a.54.54,0,1,0,1.081,0v-3.3h4.831v3.3a.54.54,0,0,0,1.081,0V42.69a4.571,4.571,0,0,1,.679-2.4,2.366,2.366,0,0,1,.114.34L28.4,51.445a.54.54,0,0,0,1.048-.263l-.513-2.047h1.628v2.178a.54.54,0,1,0,1.081,0V49.136h4.167v2.178a.54.54,0,1,0,1.081,0V42.646a.54.54,0,0,0-.333-.5ZM8.827,45.662h-2.5V44.223l1.227-2.44,2.032.846ZM6.758,40.55H4.818v-.715h1.94Zm-.336,1.081-.634,1.261-.634-1.261ZM9.273,31.557H7.24v-2.03a2.633,2.633,0,0,1,2.033,2.03ZM5.417,28.566h.742v2.991H5.417Zm-3.9,4.072h8.552V33.5H1.512ZM2.656,37.39V34.579H5.247v.74a.54.54,0,1,0,1.081,0v-.74H8.919V37.39a1.366,1.366,0,0,1-1.364,1.364H4.02A1.366,1.366,0,0,1,2.656,37.39Zm1.364,4.393,1.227,2.44v1.439H1.081V43.006Zm-2.94,6.272V46.742H5.247v1.313Zm5.247,0V46.742H8.556l-.329,1.313Zm12.118-8.912-1.133-1.728h2.265Zm1.593-2.809H16.853V34.879h3.186Zm4.133-6.371V26.773a1.684,1.684,0,0,1,0,3.191Zm-2.054-9.316L21.594,21a.54.54,0,1,0,.6.9l.694-.468a3.911,3.911,0,0,1,.74,1.8H20.273V19.879A3.91,3.91,0,0,1,22.118,20.647ZM17.7,18.563h1.493v4.67H17.7ZM14,21.43l.694.467a.54.54,0,1,0,.6-.9l-.524-.353a3.918,3.918,0,0,1,1.845-.769v3.353H13.259A3.907,3.907,0,0,1,14,21.43ZM12.227,25.6a.043.043,0,0,1-.043-.043v-1.2a.043.043,0,0,1,.043-.043H24.665a.043.043,0,0,1,.043.043v1.2a.043.043,0,0,1-.043.043Zm-.651,2.765a1.687,1.687,0,0,1,1.144-1.6v3.191a1.687,1.687,0,0,1-1.144-1.6ZM13.8,31.649V26.684h9.291v4.965A2.152,2.152,0,0,1,20.942,33.8H15.949A2.151,2.151,0,0,1,13.8,31.649ZM12,39.371A2.4,2.4,0,0,1,12.6,39l3.5-1.458,1.8,2.744v3.264H13.074V42.69A5.653,5.653,0,0,0,12,39.371Zm1.077,7.563v-2.3h4.831v2.3Zm10.743,0H18.986v-2.3h4.831ZM31.1,42.892l-.634-1.261h1.268Zm.97-2.342h-1.94v-.715h1.94Zm2.515-8.993H32.555v-2.03a2.633,2.633,0,0,1,2.033,2.03Zm-3.856-2.991h.742v2.991h-.742Zm-1.081.962v2.029H27.619A2.634,2.634,0,0,1,29.652,29.528Zm-2.824,3.11H35.38V33.5H26.828Zm1.144,4.752V34.579h2.591v.74a.54.54,0,1,0,1.081,0v-.74h2.591V37.39a1.366,1.366,0,0,1-1.364,1.364H29.336A1.366,1.366,0,0,1,27.972,37.39Zm1.364,4.393,1.227,2.44v1.439h-2.5l-.76-3.033Zm-.672,6.272-.329-1.313h2.228v1.313Zm2.98,0V46.742h.84a.54.54,0,1,0,0-1.081h-.84V44.223l1.227-2.44,2.94,1.224v2.655H35a.54.54,0,0,0,0,1.081h.808v1.313H31.644Z" transform="translate(0 -17.482)"/>
        <path id="Trazado_874765" data-name="Trazado 874765" d="M413.7,280.96a1.49,1.49,0,0,0,1.345-.856.54.54,0,0,0-.979-.457.4.4,0,0,1-.731,0,.54.54,0,0,0-.979.457,1.49,1.49,0,0,0,1.345.856Z" transform="translate(-382.597 -260.467)"/>
        <path id="Trazado_874766" data-name="Trazado 874766" d="M249.04,156.371a.54.54,0,0,0,.54-.54v-1.739a.54.54,0,1,0-1.081,0v1.739A.54.54,0,0,0,249.04,156.371Z" transform="translate(-230.595 -143.747)"/>
        <path id="Trazado_874767" data-name="Trazado 874767" d="M233.487,202.894a1.88,1.88,0,0,0,1.7-1.08.54.54,0,0,0-.979-.457.792.792,0,0,1-1.436,0,.54.54,0,0,0-.979.457A1.88,1.88,0,0,0,233.487,202.894Z" transform="translate(-215.041 -187.818)"/>
        <path id="Trazado_874768" data-name="Trazado 874768" d="M62.355,280.96A1.49,1.49,0,0,0,63.7,280.1a.54.54,0,0,0-.979-.457.4.4,0,0,1-.731,0,.54.54,0,0,0-.979.457A1.49,1.49,0,0,0,62.355,280.96Z" transform="translate(-56.567 -260.467)"/>
      </g>
    </g>
  </g>
</svg>
