<svg xmlns="http://www.w3.org/2000/svg" width="61.554" height="56.767" viewBox="0 0 61.554 56.767">
  <g id="_13" data-name="13" transform="translate(-334.621 -1399.423)">
    <g id="Trazado_874776" data-name="Trazado 874776" transform="translate(334.621 1399.423)" fill="#fece2f">
      <path d="M 49.55414199829102 55.2666015625 L 12.00000286102295 55.2666015625 C 6.210282802581787 55.2666015625 1.500002861022949 50.55632019042969 1.500002861022949 44.7666015625 L 1.500002861022949 12.00000095367432 C 1.500002861022949 6.210280895233154 6.210282802581787 1.500000834465027 12.00000286102295 1.500000834465027 L 49.55414199829102 1.500000834465027 C 55.34386444091797 1.500000834465027 60.05414199829102 6.210280895233154 60.05414199829102 12.00000095367432 L 60.05414199829102 44.7666015625 C 60.05414199829102 50.55632019042969 55.34386444091797 55.2666015625 49.55414199829102 55.2666015625 Z" stroke="none"/>
      <path d="M 11.99999618530273 3 C 7.037372589111328 3 2.999996185302734 7.037380218505859 2.999996185302734 12 L 2.999996185302734 44.7666015625 C 2.999996185302734 49.72922134399414 7.037372589111328 53.7666015625 11.99999618530273 53.7666015625 L 49.55413818359375 53.7666015625 C 54.51676177978516 53.7666015625 58.55413818359375 49.72922134399414 58.55413818359375 44.7666015625 L 58.55413818359375 12 C 58.55413818359375 7.037380218505859 54.51676177978516 3 49.55413818359375 3 L 11.99999618530273 3 M 11.99999618530273 0 L 49.55413818359375 0 C 56.18156051635742 0 61.55413818359375 5.372577667236328 61.55413818359375 12 L 61.55413818359375 44.7666015625 C 61.55413818359375 51.39402389526367 56.18156051635742 56.7666015625 49.55413818359375 56.7666015625 L 11.99999618530273 56.7666015625 C 5.372585296630859 56.7666015625 -3.814697265625e-06 51.39402389526367 -3.814697265625e-06 44.7666015625 L -3.814697265625e-06 12 C -3.814697265625e-06 5.372577667236328 5.372585296630859 0 11.99999618530273 0 Z" stroke="none" fill="#faedc1"/>
    </g>
    <g id="resource_3052567" transform="translate(345.049 1407.458)">
      <g id="Grupo_1101162" data-name="Grupo 1101162" transform="translate(1.624 1.624)">
        <g id="Grupo_1101150" data-name="Grupo 1101150" transform="translate(18.724 12.483)">
          <circle id="Elipse_11519" data-name="Elipse 11519" cx="6" cy="6" r="6" transform="translate(0 0.241)" fill="#e6e9ed"/>
        </g>
        <g id="Grupo_1101151" data-name="Grupo 1101151" transform="translate(24.966 24.966)">
          <circle id="Elipse_11520" data-name="Elipse 11520" cx="6.5" cy="6.5" r="6.5" transform="translate(-0.241 -0.241)" fill="#e6e9ed"/>
        </g>
        <g id="Grupo_1101152" data-name="Grupo 1101152" transform="translate(24.966)">
          <circle id="Elipse_11521" data-name="Elipse 11521" cx="6.5" cy="6.5" r="6.5" transform="translate(-0.241 -0.275)" fill="#e6e9ed"/>
        </g>
        <g id="Grupo_1101153" data-name="Grupo 1101153" transform="translate(26.969 7.49)">
          <path id="Trazado_874769" data-name="Trazado 874769" d="M49.448,14a4.365,4.365,0,0,1,4.238,3.327,6.222,6.222,0,0,1-8.476,0A4.365,4.365,0,0,1,49.448,14Z" transform="translate(-45.21 -14)" fill="#b4dd7f"/>
        </g>
        <g id="Grupo_1101154" data-name="Grupo 1101154" transform="translate(26.969 32.456)">
          <path id="Trazado_874770" data-name="Trazado 874770" d="M49.448,54a4.365,4.365,0,0,1,4.238,3.327,6.222,6.222,0,0,1-8.476,0A4.365,4.365,0,0,1,49.448,54Z" transform="translate(-45.21 -54)" fill="#b4dd7f"/>
        </g>
        <g id="Grupo_1101155" data-name="Grupo 1101155" transform="translate(20.728 19.973)">
          <path id="Trazado_874771" data-name="Trazado 874771" d="M39.448,34a4.365,4.365,0,0,1,4.238,3.327,6.222,6.222,0,0,1-8.476,0A4.365,4.365,0,0,1,39.448,34Z" transform="translate(-35.21 -34)" fill="#fcd770"/>
        </g>
        <g id="Grupo_1101156" data-name="Grupo 1101156" transform="translate(28.711 27.463)">
          <circle id="Elipse_11522" data-name="Elipse 11522" cx="2.5" cy="2.5" r="2.5" transform="translate(0.014 0.262)" fill="#f0d0b4"/>
        </g>
        <g id="Grupo_1101157" data-name="Grupo 1101157" transform="translate(22.469 14.98)">
          <circle id="Elipse_11523" data-name="Elipse 11523" cx="2.5" cy="2.5" r="2.5" transform="translate(0.255 -0.255)" fill="#f0d0b4"/>
        </g>
        <g id="Grupo_1101158" data-name="Grupo 1101158" transform="translate(28.711 2.497)">
          <circle id="Elipse_11524" data-name="Elipse 11524" cx="2.5" cy="2.5" r="2.5" transform="translate(0.014 0.228)" fill="#f0d0b4"/>
        </g>
        <g id="Grupo_1101159" data-name="Grupo 1101159" transform="translate(0 2.497)">
          <path id="Trazado_874772" data-name="Trazado 874772" d="M16.98,6H3.248A1.252,1.252,0,0,0,2,7.248v4.993A1.252,1.252,0,0,0,3.248,13.49H16.98a1.252,1.252,0,0,0,1.248-1.248V7.248A1.252,1.252,0,0,0,16.98,6Z" transform="translate(-2 -6)" fill="#e6e9ed"/>
        </g>
        <g id="Grupo_1101160" data-name="Grupo 1101160" transform="translate(3.745 28.711)">
          <path id="Trazado_874773" data-name="Trazado 874773" d="M17.986,52.126v4.612H8V52.126A7.454,7.454,0,0,1,9.248,48h7.49a7.454,7.454,0,0,1,1.248,4.126Z" transform="translate(-8 -48)" fill="#4fc1e9"/>
        </g>
        <g id="Grupo_1101161" data-name="Grupo 1101161" transform="translate(1.248 7.49)">
          <path id="Trazado_874774" data-name="Trazado 874774" d="M15.235,22.738l1.554.387a1.243,1.243,0,0,1,.942,1.211V30.79a3.73,3.73,0,0,1-.818,2.334l-1.679,2.1H7.745l-1.679-2.1a3.73,3.73,0,0,1-.818-2.334v-2.8a3.813,3.813,0,0,0-.393-1.679l-.749-1.492a1.01,1.01,0,0,1,.905-1.461A2.728,2.728,0,0,1,7.745,26.1V15.248A1.252,1.252,0,0,1,8.993,14a1.257,1.257,0,0,1,1.248,1.248V21.49l2.5.624Z" transform="translate(-4 -14)" fill="#f0d0b4"/>
        </g>
      </g>
      <path id="Trazado_874775" data-name="Trazado 874775" d="M32.832,25.966A6.872,6.872,0,0,0,26,32.207H15.658a8.015,8.015,0,0,0-.789-1.825l1.4-1.752a4.387,4.387,0,0,0,.957-2.729V20.973h2.528a6.866,6.866,0,1,0,0-1.248H17.228v-.273a1.87,1.87,0,0,0-1.418-1.816l-1.079-.27h0l-2.5-.624-1.248-.312-1.248-.312V12.235H16.6a1.875,1.875,0,0,0,1.872-1.872V8.49H26a6.866,6.866,0,1,0,0-1.248H18.476V5.369A1.875,1.875,0,0,0,16.6,3.5H2.872A1.875,1.875,0,0,0,1,5.369v4.993a1.875,1.875,0,0,0,1.872,1.872H5.993V18.62a3.324,3.324,0,0,0-2.111-.768,1.635,1.635,0,0,0-1.462,2.365l.746,1.493A3.138,3.138,0,0,1,3.5,23.1v2.8a4.384,4.384,0,0,0,.957,2.729l1.4,1.752a8.031,8.031,0,0,0-1.111,4.076V39.7H15.98v-5.24a8.1,8.1,0,0,0-.067-1H26a6.864,6.864,0,1,0,6.834-7.49Zm-9.757-1.243a3.72,3.72,0,0,1,7.03,0,5.593,5.593,0,0,1-7.03,0ZM24.718,19.1a1.872,1.872,0,1,1,1.872,1.872A1.875,1.875,0,0,1,24.718,19.1Zm1.872-4.369a5.607,5.607,0,0,1,4.465,9.013,4.972,4.972,0,0,0-2.4-2.324,3.121,3.121,0,1,0-4.134,0,4.972,4.972,0,0,0-2.4,2.324,5.607,5.607,0,0,1,4.465-9.013Zm2.726-2.491a3.72,3.72,0,0,1,7.03,0,5.593,5.593,0,0,1-7.03,0Zm1.643-5.623A1.872,1.872,0,1,1,32.832,8.49,1.875,1.875,0,0,1,30.959,6.617Zm1.872-4.369A5.607,5.607,0,0,1,37.3,11.261a4.972,4.972,0,0,0-2.4-2.324,3.121,3.121,0,1,0-4.134,0,4.972,4.972,0,0,0-2.4,2.324,5.607,5.607,0,0,1,4.465-9.013ZM2.872,10.986a.625.625,0,0,1-.624-.624V5.369a.625.625,0,0,1,.624-.624H16.6a.625.625,0,0,1,.624.624v4.993a.625.625,0,0,1-.624.624H9.738v-.624a1.872,1.872,0,1,0-3.745,0v.624ZM4.745,25.9v-2.8a4.386,4.386,0,0,0-.461-1.954l-.746-1.493a.386.386,0,0,1,.345-.559,2.114,2.114,0,0,1,2.111,2.111v2.882H7.241V10.362a.624.624,0,1,1,1.248,0V24.094H9.738V17.4l1.248.312v6.378h1.248V18.027l1.248.312v5.754h1.248V18.651l.775.194a.624.624,0,0,1,.473.606V25.9A3.13,3.13,0,0,1,15.3,27.85l-1.489,1.861H6.918L5.429,27.85A3.131,3.131,0,0,1,4.745,25.9Zm9.986,12.548H5.993V34.458a6.781,6.781,0,0,1,.967-3.5h6.8a6.781,6.781,0,0,1,.967,3.5Zm14.585-1.243a3.72,3.72,0,0,1,7.03,0,5.593,5.593,0,0,1-7.03,0Zm1.643-5.623a1.872,1.872,0,1,1,1.872,1.872A1.875,1.875,0,0,1,30.959,31.583ZM37.3,36.227A4.972,4.972,0,0,0,34.9,33.9a3.121,3.121,0,1,0-4.134,0,4.972,4.972,0,0,0-2.4,2.324,5.617,5.617,0,1,1,8.929,0Z"/>
    </g>
  </g>
</svg>
