<svg xmlns="http://www.w3.org/2000/svg" width="61.554" height="56.767" viewBox="0 0 61.554 56.767">
  <g id="_15" data-name="15" transform="translate(-334.621 -1399.423)">
    <g id="Rectángulo_401341" data-name="Rectángulo 401341" transform="translate(334.621 1399.423)" fill="#fece2f" stroke="#faedc1" stroke-width="3">
      <rect width="61.554" height="56.767" rx="12" stroke="none"/>
      <rect x="1.5" y="1.5" width="58.554" height="53.767" rx="10.5" fill="none"/>
    </g>
    <g id="collaborate_2849102" transform="translate(346.764 1409.172)">
      <g id="Grupo_1101212" data-name="Grupo 1101212" transform="translate(1.569 1.569)">
        <g id="Grupo_1101182" data-name="Grupo 1101182" transform="translate(7.964 29.581)">
          <path id="Trazado_874796" data-name="Trazado 874796" d="M16,54h4.551v4.551H16Z" transform="translate(-16 -54)" fill="#969faa"/>
        </g>
        <g id="Grupo_1101183" data-name="Grupo 1101183" transform="translate(3.413 29.581)">
          <path id="Trazado_874797" data-name="Trazado 874797" d="M8,54h4.551v4.551H8Z" transform="translate(-8 -54)" fill="#969faa"/>
        </g>
        <g id="Grupo_1101184" data-name="Grupo 1101184" transform="translate(5.689 18.204)">
          <path id="Trazado_874798" data-name="Trazado 874798" d="M15.413,34l1.138,4.551H12L13.138,34Z" transform="translate(-12 -34)" fill="#ff826e"/>
        </g>
        <g id="Grupo_1101185" data-name="Grupo 1101185" transform="translate(6.235 14.79)">
          <path id="Trazado_874799" data-name="Trazado 874799" d="M14.689,28l1.729,1.041-.592,2.372H13.552l-.592-2.372Z" transform="translate(-12.96 -28)" fill="#fc6e51"/>
        </g>
        <g id="Grupo_1101186" data-name="Grupo 1101186" transform="translate(9.102 13.875)">
          <path id="Trazado_874800" data-name="Trazado 874800" d="M24.752,29.792a1.3,1.3,0,0,1-.734.74c-.006.006-.011.006-.023.011a1.27,1.27,0,0,1-1.4-.245l-.654-.66-1.61,1.61.66.654a1.27,1.27,0,0,1,.245,1.4c-.006.011-.006.017-.011.023a1.255,1.255,0,0,1-1.155.808h-.933V35.27L18,30.719l.592-2.372,1.115.666.535-2.622,1.382.273A3.989,3.989,0,0,1,24.752,29.792Z" transform="translate(-18 -26.39)" fill="#e6e9ed"/>
        </g>
        <g id="Grupo_1101187" data-name="Grupo 1101187" transform="translate(3.413 26.168)">
          <path id="Trazado_874801" data-name="Trazado 874801" d="M17.1,49.7v1.718H8V48h8.624l-.66.569Z" transform="translate(-8 -48)" fill="#e6e9ed"/>
        </g>
        <g id="Grupo_1101188" data-name="Grupo 1101188" transform="translate(0 13.875)">
          <path id="Trazado_874802" data-name="Trazado 874802" d="M7.689,35.27H12.24v1.138h.933a1.255,1.255,0,0,1,1.155.808c.006.006.006.011.011.023a1.27,1.27,0,0,1-.245,1.4l-.057.046H4.844A2.845,2.845,0,0,1,2,35.839V30.571a3.989,3.989,0,0,1,3.2-3.908l1.382-.273.535,2.622,1.115-.666.592,2.372Z" transform="translate(-2 -26.39)" fill="#e6e9ed"/>
        </g>
        <g id="Grupo_1101189" data-name="Grupo 1101189" transform="translate(4.585 13.653)">
          <path id="Trazado_874803" data-name="Trazado 874803" d="M13.439,27.138,11.71,28.179l-1.115.666-.535-2.622,1.1-.222Z" transform="translate(-10.06 -26)" fill="#ccd1d9"/>
        </g>
        <g id="Grupo_1101190" data-name="Grupo 1101190" transform="translate(7.964 13.653)">
          <path id="Trazado_874804" data-name="Trazado 874804" d="M19.379,26.222l-.535,2.622-1.115-.666L16,27.138,18.275,26Z" transform="translate(-16 -26)" fill="#ccd1d9"/>
        </g>
        <g id="Grupo_1101191" data-name="Grupo 1101191" transform="translate(2.275 0)">
          <path id="Trazado_874805" data-name="Trazado 874805" d="M17.377,5.914a3.985,3.985,0,0,1-.2,1.24l-.336,1a1.711,1.711,0,0,0-1.172-.466H15.1a1.141,1.141,0,0,0-1.138-1.138h-.933A1.874,1.874,0,0,1,11.711,6,2.011,2.011,0,0,0,8.275,7.427v.262H7.707a1.711,1.711,0,0,0-1.172.466l-.336-1A3.985,3.985,0,0,1,6,5.914,3.923,3.923,0,0,1,9.914,2h3.55A3.914,3.914,0,0,1,17.377,5.914Z" transform="translate(-6 -2)" fill="#b27946"/>
        </g>
        <g id="Grupo_1101192" data-name="Grupo 1101192" transform="translate(20.479)">
          <path id="Trazado_874806" data-name="Trazado 874806" d="M44.826,5.413a1.146,1.146,0,0,1-1.138,1.138H41.413a1.141,1.141,0,0,0-1.138,1.138h-.569a1.711,1.711,0,0,0-1.172.466l-.336-1a3.985,3.985,0,0,1-.2-1.24A3.923,3.923,0,0,1,41.914,2h3.55a3.914,3.914,0,0,1,3.914,3.914,3.985,3.985,0,0,1-.2,1.24l-.336,1a1.711,1.711,0,0,0-1.172-.466H47.1A2.287,2.287,0,0,0,45.378,5.55Z" transform="translate(-38 -2)" fill="#656d78"/>
        </g>
        <g id="Grupo_1101193" data-name="Grupo 1101193" transform="translate(26.168 29.581)">
          <path id="Trazado_874807" data-name="Trazado 874807" d="M48,54h4.551v4.551H48Z" transform="translate(-48 -54)" fill="#969faa"/>
        </g>
        <g id="Grupo_1101194" data-name="Grupo 1101194" transform="translate(21.617 29.581)">
          <path id="Trazado_874808" data-name="Trazado 874808" d="M40,54h4.551v4.551H40Z" transform="translate(-40 -54)" fill="#969faa"/>
        </g>
        <g id="Grupo_1101195" data-name="Grupo 1101195" transform="translate(21.617 26.168)">
          <path id="Trazado_874809" data-name="Trazado 874809" d="M49.1,48v3.413H40V49.7l1.138-1.126L40.478,48Z" transform="translate(-40 -48)" fill="#4fc1e9"/>
        </g>
        <g id="Grupo_1101196" data-name="Grupo 1101196" transform="translate(23.892 18.204)">
          <path id="Trazado_874810" data-name="Trazado 874810" d="M47.413,34l1.138,4.551H44L45.138,34Z" transform="translate(-44 -34)" fill="#e6e9ed"/>
        </g>
        <g id="Grupo_1101197" data-name="Grupo 1101197" transform="translate(24.438 14.79)">
          <path id="Trazado_874811" data-name="Trazado 874811" d="M46.689,28l1.729,1.041-.592,2.372H45.552l-.592-2.372Z" transform="translate(-44.96 -28)" fill="#ccd1d9"/>
        </g>
        <g id="Grupo_1101198" data-name="Grupo 1101198" transform="translate(18.278 13.875)">
          <path id="Trazado_874812" data-name="Trazado 874812" d="M40.291,28.347l.592,2.372L39.745,35.27V34.132h-.933a1.255,1.255,0,0,1-1.155-.808c-.006-.006-.006-.011-.011-.023a1.27,1.27,0,0,1,.245-1.4l.66-.654-1.61-1.61-.654.66a1.27,1.27,0,0,1-1.4.245c-.011-.006-.017-.006-.023-.011a1.3,1.3,0,0,1-.734-.74,3.989,3.989,0,0,1,3.129-3.129l1.382-.273.535,2.622Z" transform="translate(-34.13 -26.39)" fill="#4fc1e9"/>
        </g>
        <g id="Grupo_1101199" data-name="Grupo 1101199" transform="translate(21.685 13.875)">
          <path id="Trazado_874813" data-name="Trazado 874813" d="M46.878,35.27,45.74,30.719l.592-2.372,1.115.666.535-2.622,1.382.273a3.989,3.989,0,0,1,3.2,3.908v5.268a2.845,2.845,0,0,1-2.844,2.844H40.53l-.057-.046a1.265,1.265,0,0,1-.273-1.325,1.043,1.043,0,0,1,.04-.1,1.255,1.255,0,0,1,1.155-.808h.933V35.27Z" transform="translate(-40.12 -26.39)" fill="#4fc1e9"/>
        </g>
        <g id="Grupo_1101200" data-name="Grupo 1101200" transform="translate(22.789 13.653)">
          <path id="Trazado_874814" data-name="Trazado 874814" d="M45.439,27.138,43.71,28.179l-1.115.666-.535-2.622,1.1-.222Z" transform="translate(-42.06 -26)" fill="#3bafda"/>
        </g>
        <g id="Grupo_1101201" data-name="Grupo 1101201" transform="translate(29.387 5.689)">
          <path id="Trazado_874815" data-name="Trazado 874815" d="M55.594,12.466a1.707,1.707,0,0,1-1.172,2.947H53.66a3.437,3.437,0,0,0,.193-1.138V12h.569A1.711,1.711,0,0,1,55.594,12.466Z" transform="translate(-53.66 -12)" fill="#f0d0b4"/>
        </g>
        <g id="Grupo_1101202" data-name="Grupo 1101202" transform="translate(22.755 3.413)">
          <path id="Trazado_874816" data-name="Trazado 874816" d="M48.826,10.344v2.207a3.437,3.437,0,0,1-.193,1.138,3.362,3.362,0,0,1-.808,1.274,3.124,3.124,0,0,1-.688.529,3.382,3.382,0,0,1-3.447,0A3.388,3.388,0,0,1,42,12.551V10.275a1.141,1.141,0,0,1,1.138-1.138h2.275A1.146,1.146,0,0,0,46.551,8l.552.137a2.287,2.287,0,0,1,1.724,2.139Z" transform="translate(-42 -8)" fill="#f0d0b4"/>
        </g>
        <g id="Grupo_1101203" data-name="Grupo 1101203" transform="translate(26.168 13.653)">
          <path id="Trazado_874817" data-name="Trazado 874817" d="M51.379,26.222l-.535,2.622-1.115-.666L48,27.138,50.275,26Z" transform="translate(-48 -26)" fill="#3bafda"/>
        </g>
        <g id="Grupo_1101204" data-name="Grupo 1101204" transform="translate(23.892 10.905)">
          <path id="Trazado_874818" data-name="Trazado 874818" d="M48,21.176l.546,2.742-2.275,1.138L44,23.918l.546-2.742.006-.006a3.382,3.382,0,0,0,3.447,0Z" transform="translate(-44 -21.17)" fill="#f0d0b4"/>
        </g>
        <g id="Grupo_1101205" data-name="Grupo 1101205" transform="translate(10.24 15.928)">
          <path id="Trazado_874819" data-name="Trazado 874819" d="M28.038,31.348a1.3,1.3,0,0,0,.734.74c.006.006.011.006.023.011a1.27,1.27,0,0,0,1.4-.245l.654-.66,1.61,1.61-.66.654a1.27,1.27,0,0,0-.245,1.4c.006.011.006.017.011.023a1.255,1.255,0,0,0,1.155.808h.933v2.275H32.72a1.255,1.255,0,0,0-1.155.808,1.043,1.043,0,0,0-.04.1,1.265,1.265,0,0,0,.273,1.325l.057.046.66.569-1.138,1.126-.529.523-.654-.66a1.27,1.27,0,0,0-1.4-.245c-.011.006-.017.006-.023.011a1.255,1.255,0,0,0-.808,1.155v.933H25.689V42.72a1.255,1.255,0,0,0-.808-1.155c-.006-.006-.011-.006-.023-.011a1.27,1.27,0,0,0-1.4.245l-.654.66-.529-.523-1.138-1.126.66-.569.057-.046a1.27,1.27,0,0,0,.245-1.4c-.006-.011-.006-.017-.011-.023a1.255,1.255,0,0,0-1.155-.808H20V35.689h.933a1.255,1.255,0,0,0,1.155-.808c.006-.006.006-.011.011-.023a1.27,1.27,0,0,0-.245-1.4l-.66-.654,1.61-1.61.654.66a1.27,1.27,0,0,0,1.4.245c.011-.006.017-.006.023-.011a1.3,1.3,0,0,0,.734-.74,1.249,1.249,0,0,0,.074-.415V30h2.275v.933A1.249,1.249,0,0,0,28.038,31.348Zm2.2,5.478a3.413,3.413,0,1,0-3.413,3.413A3.416,3.416,0,0,0,30.24,36.826Z" transform="translate(-20 -30)" fill="#ffc729"/>
        </g>
        <g id="Grupo_1101206" data-name="Grupo 1101206" transform="translate(20.479 5.689)">
          <path id="Trazado_874820" data-name="Trazado 874820" d="M40.469,15.413h-.762a1.707,1.707,0,0,1,0-3.413h.569v2.275A3.437,3.437,0,0,0,40.469,15.413Z" transform="translate(-38 -12)" fill="#f0d0b4"/>
        </g>
        <g id="Grupo_1101207" data-name="Grupo 1101207" transform="translate(13.653 19.341)">
          <path id="Trazado_874821" data-name="Trazado 874821" d="M29.413,36A3.413,3.413,0,1,1,26,39.413,3.416,3.416,0,0,1,29.413,36Zm1.138,3.413a1.138,1.138,0,1,0-1.138,1.138A1.141,1.141,0,0,0,30.551,39.413Z" transform="translate(-26 -36)" fill="#fcd770"/>
        </g>
        <g id="Grupo_1101208" data-name="Grupo 1101208" transform="translate(11.184 5.689)">
          <path id="Trazado_874822" data-name="Trazado 874822" d="M23.594,12.466a1.707,1.707,0,0,1-1.172,2.947H21.66a3.437,3.437,0,0,0,.193-1.138V12h.569A1.711,1.711,0,0,1,23.594,12.466Z" transform="translate(-21.66 -12)" fill="#f0d0b4"/>
        </g>
        <g id="Grupo_1101209" data-name="Grupo 1101209" transform="translate(4.551 3.413)">
          <path id="Trazado_874823" data-name="Trazado 874823" d="M16.826,10.275v2.275a3.388,3.388,0,0,1-1.69,2.941,3.382,3.382,0,0,1-3.447,0A3.124,3.124,0,0,1,11,14.963a3.362,3.362,0,0,1-.808-1.274A3.437,3.437,0,0,1,10,12.551V10.014a2.011,2.011,0,0,1,3.436-1.422,1.874,1.874,0,0,0,1.32.546h.933a1.141,1.141,0,0,1,1.138,1.138Z" transform="translate(-10 -8)" fill="#f0d0b4"/>
        </g>
        <g id="Grupo_1101210" data-name="Grupo 1101210" transform="translate(5.689 10.905)">
          <path id="Trazado_874824" data-name="Trazado 874824" d="M16,21.176l.546,2.742-2.275,1.138L12,23.918l.546-2.742.006-.006a3.382,3.382,0,0,0,3.447,0Z" transform="translate(-12 -21.17)" fill="#f0d0b4"/>
        </g>
        <g id="Grupo_1101211" data-name="Grupo 1101211" transform="translate(2.275 5.689)">
          <path id="Trazado_874825" data-name="Trazado 874825" d="M8.469,15.413H7.707a1.707,1.707,0,0,1,0-3.413h.569v2.275A3.437,3.437,0,0,0,8.469,15.413Z" transform="translate(-6 -12)" fill="#f0d0b4"/>
        </g>
      </g>
      <g id="Grupo_1101213" data-name="Grupo 1101213" transform="translate(1 1)">
        <path id="Trazado_874826" data-name="Trazado 874826" d="M32.611,15.161l-2.116-.423-.4-2a4.006,4.006,0,0,0,1.234-1.495h.39a2.278,2.278,0,0,0,2.275-2.275A2.25,2.25,0,0,0,33.53,7.6l.234-.7A4.485,4.485,0,0,0,29.51,1H25.963a4.485,4.485,0,0,0-4.255,5.9l.234.7a2.25,2.25,0,0,0-.464,1.361,2.278,2.278,0,0,0,2.275,2.275h.39a4.006,4.006,0,0,0,1.234,1.495l-.4,2-2.116.423a4.54,4.54,0,0,0-2.775,1.767h-2.9a4.538,4.538,0,0,0-2.775-1.767l-2.116-.423-.4-2a4.006,4.006,0,0,0,1.234-1.495h.391A2.278,2.278,0,0,0,15.79,8.964,2.25,2.25,0,0,0,15.327,7.6l.233-.7A4.484,4.484,0,0,0,11.306,1H7.76A4.485,4.485,0,0,0,3.505,6.9l.234.7a2.25,2.25,0,0,0-.464,1.361A2.278,2.278,0,0,0,5.551,11.24h.39a4.006,4.006,0,0,0,1.234,1.495l-.4,2-2.116.423A4.563,4.563,0,0,0,1,19.624v5.268a3.417,3.417,0,0,0,3.413,3.413V36.27h10.24V30.721L15.671,29.7a.717.717,0,0,1,.8-.113.691.691,0,0,1,.455.631v1.5h3.413v-1.5A.768.768,0,0,1,21.6,29.7l1.019,1.023V36.27h10.24V28.305a3.417,3.417,0,0,0,3.413-3.413V19.624a4.563,4.563,0,0,0-3.658-4.463ZM26.555,16.4l-1.266.759-.259-1.276.35-.07Zm.488,3.937H28.43l.853,3.413H26.19ZM28.43,19.2H27.043l-.383-1.535,1.077-.646,1.077.646Zm.488-2.8,1.174-.587.35.07-.259,1.276Zm2.8-6.3h-.046a4,4,0,0,0,.046-.569V7.826a1.138,1.138,0,1,1,0,2.275ZM25.963,2.138H29.51a3.346,3.346,0,0,1,3.175,4.4l-.106.317a2.268,2.268,0,0,0-.86-.171h-.081a2.834,2.834,0,0,0-2.073-2.121l-.184-.046a1.709,1.709,0,0,0-1.643-1.246h-.569V4.413h.569a.569.569,0,0,1,0,1.138H25.461a1.7,1.7,0,0,0-1.6,1.138h-.1a2.268,2.268,0,0,0-.86.171l-.106-.317a3.346,3.346,0,0,1,3.175-4.4ZM23.755,10.1a1.138,1.138,0,1,1,0-2.275V9.533a4,4,0,0,0,.046.569Zm1.138-.569V7.257a.57.57,0,0,1,.569-.569h2.275A1.71,1.71,0,0,0,29.3,5.674a1.7,1.7,0,0,1,1.284,1.654V9.533a2.844,2.844,0,1,1-5.689,0Zm2.844,3.982a3.961,3.961,0,0,0,1.309-.225l.324,1.617-1.633.816L26.1,14.907l.324-1.617A3.961,3.961,0,0,0,27.737,13.515Zm-4.652,2.762.83-.166.58,2.857,1.145-.687.373,1.492L25.3,22.617h-.773a.768.768,0,0,1-.519-1.257L25.072,20.3l-2.417-2.417L21.6,18.948a.717.717,0,0,1-.8.113.757.757,0,0,1-.342-.275,3.4,3.4,0,0,1,2.63-2.509Zm-6.271,2.506a.812.812,0,0,1-.366.288.705.705,0,0,1-.778-.123l-1.058-1.062L12.2,20.3l1.062,1.057a.717.717,0,0,1,.113.8.692.692,0,0,1-.631.455h-.773l-.711-2.844.373-1.492,1.145.687.58-2.857.83.166A3.393,3.393,0,0,1,16.814,18.783ZM8.351,16.4l-1.266.759-.259-1.276.35-.07Zm3.537-.587.35.07-.259,1.276L10.714,16.4Zm-2.355,1.2,1.077.646L10.226,19.2H8.84l-.383-1.535ZM8.84,20.341h1.387l.853,3.413H7.986ZM13.515,10.1h-.046a4,4,0,0,0,.046-.569V7.826a1.138,1.138,0,1,1,0,2.275ZM7.76,2.138h3.546a3.346,3.346,0,0,1,3.175,4.4l-.106.317a2.268,2.268,0,0,0-.86-.171h-.1a1.7,1.7,0,0,0-1.6-1.138h-.931a1.314,1.314,0,0,1-.922-.382A2.57,2.57,0,0,0,5.582,6.689H5.551a2.268,2.268,0,0,0-.86.171l-.106-.317a3.346,3.346,0,0,1,3.175-4.4ZM5.551,10.1a1.138,1.138,0,0,1,0-2.275V9.533A4,4,0,0,0,5.6,10.1Zm1.138-.569V6.994a1.442,1.442,0,0,1,2.463-1.02,2.457,2.457,0,0,0,1.727.715h.931a.57.57,0,0,1,.569.569V9.533a2.844,2.844,0,1,1-5.689,0Zm2.844,3.982a3.961,3.961,0,0,0,1.309-.225l.324,1.617-1.633.816L7.9,14.907l.324-1.617A3.961,3.961,0,0,0,9.533,13.515Zm-7.4,11.377V19.624a3.422,3.422,0,0,1,2.744-3.347l.83-.166.58,2.857,1.145-.687.373,1.492-1,3.982H5.551V20.341H4.413v3.747l-.971.971.8.8.971-.971H11.24V26.03h1.5a.705.705,0,0,1,.642.479.733.733,0,0,1-.031.659H4.413a2.278,2.278,0,0,1-2.275-2.275Zm10,3.413,1.378,1.364v.912H5.551V28.305ZM5.551,31.719H8.964v3.413H5.551ZM10.1,35.132V31.719h3.413v3.413Zm10.259-6.6A1.833,1.833,0,0,0,19.2,30.217v.364H18.066v-.364a1.9,1.9,0,0,0-3.2-1.322l-.255.256-.827-.818.279-.241a1.9,1.9,0,0,0-1.321-3.2h-.364V23.755h.364a1.9,1.9,0,0,0,1.322-3.2l-.254-.253.8-.8.253.254a1.9,1.9,0,0,0,3.2-1.321v-.364H19.2v.364a1.9,1.9,0,0,0,3.2,1.322l.253-.254.8.8-.254.253a1.9,1.9,0,0,0,1.321,3.2h.364v1.138h-.364a1.833,1.833,0,0,0-1.683,1.158c-.008.02-.038.092-.049.125a1.832,1.832,0,0,0,.44,1.947l.248.213-.825.817L22.4,28.9a1.845,1.845,0,0,0-2.043-.361Zm3.393,3.184h3.413v3.413H23.755Zm4.551,3.413V31.719h3.413v3.413Zm3.413-4.551H23.755v-.912l1.378-1.364h6.586Zm3.413-5.689a2.278,2.278,0,0,1-2.275,2.275H23.922a.711.711,0,0,1-.053-.61l.028-.072a.692.692,0,0,1,.631-.455h1.5V24.892h6.022l.971.971.8-.8-.971-.971V20.341H31.719v3.413H30.456l-1-3.982.373-1.492,1.145.687.58-2.857.83.166a3.422,3.422,0,0,1,2.744,3.347Z" transform="translate(-1 -1)"/>
        <path id="Trazado_874827" data-name="Trazado 874827" d="M30.707,39a1.707,1.707,0,1,0,1.707,1.707A1.709,1.709,0,0,0,30.707,39Zm0,2.275a.569.569,0,1,1,.569-.569A.57.57,0,0,1,30.707,41.275Z" transform="translate(-13.072 -17.383)"/>
        <path id="Trazado_874828" data-name="Trazado 874828" d="M28.982,35a3.982,3.982,0,1,0,3.982,3.982A3.986,3.986,0,0,0,28.982,35Zm0,6.826a2.844,2.844,0,1,1,2.844-2.844A2.848,2.848,0,0,1,28.982,41.826Z" transform="translate(-11.347 -15.659)"/>
      </g>
    </g>
  </g>
</svg>
