<svg xmlns="http://www.w3.org/2000/svg" xmlns:xlink="http://www.w3.org/1999/xlink" width="505" height="221" viewBox="0 0 505 221">
  <defs>
    <linearGradient id="linear-gradient" x1="1.043" y1="-0.125" x2="0.336" y2="1.321" gradientUnits="objectBoundingBox">
      <stop offset="0" stop-color="#64f6f0"/>
      <stop offset="0.645" stop-color="#4b31a8"/>
      <stop offset="1" stop-color="#461698"/>
    </linearGradient>
    <clipPath id="clip-path">
      <rect id="Rectángulo_401751" data-name="Rectángulo 401751" width="505" height="221" transform="translate(915.051 397)" fill="none"/>
    </clipPath>
    <filter id="Rectángulo_34835" x="-765.885" y="-23.755" width="1302.334" height="283.432" filterUnits="userSpaceOnUse">
      <feOffset dy="8" input="SourceAlpha"/>
      <feGaussianBlur stdDeviation="10.5" result="blur"/>
      <feFlood flood-opacity="0.18"/>
      <feComposite operator="in" in2="blur"/>
      <feComposite in="SourceGraphic"/>
    </filter>
    <clipPath id="clip-path-2">
      <path id="Rectangle_652" data-name="Rectangle 652" d="M1220.473,0H19.528C8.743,0,0,3.669,0,8.195V213.06c0,4.526,8.743,8.195,19.528,8.195H1220.473c10.785,0,19.527-3.669,19.527-8.195V8.195C1240,3.669,1231.258,0,1220.473,0Z" fill="url(#linear-gradient)"/>
    </clipPath>
    <clipPath id="clip-path-3">
      <rect id="Rectángulo_401764" data-name="Rectángulo 401764" width="400" height="222" transform="translate(915.051 3190)" fill="#fff" stroke="#707070" stroke-width="1"/>
    </clipPath>
    <clipPath id="clip-path-4">
      <rect id="Rectángulo_401757" data-name="Rectángulo 401757" width="264.762" height="208.001" fill="none"/>
    </clipPath>
  </defs>
  <g id="_20" data-name="20" transform="translate(-915.051 -397)">
    <g id="Enmascarar_grupo_1098713" data-name="Enmascarar grupo 1098713" clip-path="url(#clip-path)">
      <g id="tarjeta-personaje" transform="translate(1.666 -970.255)">
        <g transform="matrix(1, 0, 0, 1, 913.38, 1367.25)" filter="url(#Rectángulo_34835)">
          <rect id="Rectángulo_34835-2" data-name="Rectángulo 34835" width="1239.334" height="220.432" rx="18" transform="translate(-734.38 -0.25)" fill="#f4eefe"/>
        </g>
        <g id="Enmascarar_grupo_45" data-name="Enmascarar grupo 45" transform="translate(178.333 1367)" clip-path="url(#clip-path-2)">
          <path id="Sustracción_4" data-name="Sustracción 4" d="M577.508,379.1h0c-20.883-2.08-41.859-4.891-62.344-8.354-20.256-3.424-40.532-7.572-60.262-12.327-19.546-4.709-39.03-10.126-57.908-16.1-18.738-5.929-37.34-12.551-55.293-19.682-17.848-7.09-35.48-14.851-52.408-23.068-16.847-8.178-33.42-17.013-49.254-26.259-15.767-9.206-31.189-19.048-45.836-29.252s-28.819-20.989-42.143-32.053c-13.382-11.111-26.231-22.771-38.189-34.655-12.013-11.939-23.44-24.409-33.965-37.063a487.652,487.652,0,0,1-29.471-39.277A448.961,448.961,0,0,1,25.716,59.718,417.474,417.474,0,0,1,6.031,16.6C3.9,11.121,1.872,5.536,0,0H183.354c1.469,3.138,3.012,6.3,4.589,9.39a331.782,331.782,0,0,0,17.35,29.994C211.585,49.068,218.551,58.695,226,68c7.387,9.228,15.42,18.346,23.878,27.1,8.408,8.708,17.448,17.271,26.868,25.454,9.392,8.157,19.377,16.123,29.679,23.675S327.6,159.1,338.731,165.988s22.821,13.519,34.749,19.715,24.387,12.1,37.009,17.536c12.695,5.467,25.848,10.589,39.094,15.225,13.338,4.67,27.127,8.97,40.986,12.781,13.966,3.838,28.333,7.27,42.7,10.2,14.518,2.959,29.4,5.478,44.237,7.489V379.1Z" transform="translate(729.794 -0.364)" fill="#464bc7"/>
          <path id="Sustracción_2" data-name="Sustracción 2" d="M405.691,0c224.056,0,405.69,132.663,405.69,296.312S629.747,592.623,405.691,592.623,0,459.96,0,296.312,181.633,0,405.691,0Z" transform="translate(640.743 125.306)" fill="#a0a0ca" opacity="0.444" style="mix-blend-mode: multiply;isolation: isolate"/>
          <path id="Sustracción_6" data-name="Sustracción 6" d="M373.3,232.633h0c-18.455-2.721-36.893-6.241-54.8-10.462a622.346,622.346,0,0,1-70.884-21.18,570.356,570.356,0,0,1-65.033-28.449,510.765,510.765,0,0,1-58.234-35.02A447.459,447.459,0,0,1,73.872,96.629,386.684,386.684,0,0,1,32.105,50.555,334.335,334.335,0,0,1,0,0H2.13C4.5,4.6,7.013,9.2,9.6,13.662a338.517,338.517,0,0,0,21.225,32.18A370.141,370.141,0,0,0,56.069,76.193c9.016,9.747,18.778,19.281,29.015,28.339,10.205,9.036,21.15,17.832,32.529,26.143s23.427,16.307,35.8,23.762c12.416,7.483,25.469,14.612,38.8,21.19,13.379,6.6,27.362,12.807,41.555,18.439,14.29,5.669,29.113,10.884,44.06,15.5,15.085,4.662,30.663,8.827,46.3,12.379,15.778,3.584,32.028,6.637,48.3,9.072l.875.129v1.485Z" transform="translate(934.997 -0.363)" fill="#fff"/>
        </g>
      </g>
      <g id="Enmascarar_grupo_1098714" data-name="Enmascarar grupo 1098714" transform="translate(0 -2794)" clip-path="url(#clip-path-3)">
        <g id="Grupo_1102350" data-name="Grupo 1102350">
          <g id="Grupo_1102344" data-name="Grupo 1102344" transform="translate(7881.879 11468.21)">
            <rect id="Rectángulo_401752" data-name="Rectángulo 401752" width="72.154" height="106.363" rx="8" transform="translate(-6942.032 -8258.854)" fill="#00a1bd"/>
            <rect id="Rectángulo_401753" data-name="Rectángulo 401753" width="17.939" height="3.264" transform="translate(-6916.722 -8207.413)" fill="#ec4e50"/>
            <rect id="Rectángulo_401754" data-name="Rectángulo 401754" width="43.754" height="3.264" rx="1.632" transform="translate(-6932.473 -8198.709)" fill="#c6e7ea"/>
            <path id="Trazado_876399" data-name="Trazado 876399" d="M1328.426,1205.35h40.38a1.8,1.8,0,0,1,1.8,1.8v.542a1.8,1.8,0,0,1-1.8,1.8h-40.38a1.8,1.8,0,0,1-1.8-1.8v-.542A1.8,1.8,0,0,1,1328.426,1205.35Z" transform="translate(-8259.322 -9397.53)" fill="#c6e7ea"/>
            <rect id="Rectángulo_401755" data-name="Rectángulo 401755" width="32.815" height="3.264" rx="1.632" transform="translate(-6933.13 -8184.565)" fill="#c6e7ea"/>
            <rect id="Rectángulo_401756" data-name="Rectángulo 401756" width="43.973" height="3.481" rx="1.741" transform="translate(-6932.911 -8178.256)" fill="#c6e7ea"/>
            <ellipse id="Elipse_11633" data-name="Elipse 11633" cx="17.532" cy="16.808" rx="17.532" ry="16.808" transform="translate(-6924.271 -8249.283)" fill="#fff"/>
            <path id="Trazado_876400" data-name="Trazado 876400" d="M1475.022,627.021l-.056,3.106s-2.733,2.94-5.3,1.942-3.29-1.942-3.179-5.159c0,0,.279-.333-.446-.943s-3.569-1.609-2.9-4.493,4.295-4.66,4.295-4.66.836-5.048,1.84-6.49l1-1.442s4.963-4.826,9.76-.777c0,0,5.3-1,6.3,3.883,0,0,.279,2.108.39,4.105s-.167,1.332.446,2.219,3.848,3.495,3.513,5.547-3.123,2.829-3.123,3.55-1.283,4.6-4.517,4.16-3.123-1.387-3.123-1.387l-.111-2.829s4.015-1.775,4.071-3.828a3.4,3.4,0,0,1-1.171-3.328,17.081,17.081,0,0,0-.167-4.66s-2.454-3.162-3.346-3.439c0,0-3.513.277-4.126,1.5s-.837,4.826-2.063,6.379a7.954,7.954,0,0,1-2.175,2.053s.948,4.327,4.183,4.992Z" transform="translate(-8383.606 -8851.904)" fill="#00a1bd"/>
          </g>
          <g id="Grupo_1102349" data-name="Grupo 1102349" transform="translate(986.891 3185.933)">
            <path id="Trazado_876401" data-name="Trazado 876401" d="M325.19,479.732a35.212,35.212,0,0,0,10.344,24.978l35.755,35.745L335.534,576.2A35.332,35.332,0,0,0,385.5,626.167l35.744-35.744,35.745,35.744A35.329,35.329,0,0,0,506.949,576.2L471.2,540.454l35.744-35.745a35.328,35.328,0,0,0,0-49.957h0a35.331,35.331,0,0,0-49.958,0L421.247,490.5,385.5,454.752a35.344,35.344,0,0,0-49.968,0h0a35.218,35.218,0,0,0-10.344,24.979Z" transform="translate(-268.174 -427.565)" fill="#d6c0fd"/>
            <g id="Grupo_1102346" data-name="Grupo 1102346" transform="translate(-7.916 17.79)">
              <g id="Grupo_1102345" data-name="Grupo 1102345" clip-path="url(#clip-path-4)">
                <path id="Trazado_876402" data-name="Trazado 876402" d="M186.2,91.106a9.811,9.811,0,0,0,.69,3.731,60.057,60.057,0,0,0,3.855-14.494l.26.034q11.108-.136,22.226-.283c.577-.011,1.142-.011,1.718-.023h.011a142.645,142.645,0,0,1-1.074,19.411,12.672,12.672,0,0,1-2.092,6.048,9.319,9.319,0,0,1-4.33,2.928,26.079,26.079,0,0,1-4.669,1.04l.068.418q1.391,5.02,2.759,10.051c.057.215.124.43.181.644l-.407.113a68.332,68.332,0,0,1-11.78,10.48l-.136.17q-6.444-5.359-13.273-10.243l-.034-.1c.023-.17.045-.328.068-.5q1.526-10.361,2.148-20.813l-.17-.011a7.992,7.992,0,0,1-3.346-3.414,5.814,5.814,0,0,1-.215-4.714,4.725,4.725,0,0,1,2.227-2.385,4.036,4.036,0,0,1,1.436-.418,3.807,3.807,0,0,1,3.878,2.329" transform="translate(23.27 10.453)" fill="#ffbc8f"/>
                <path id="Trazado_876403" data-name="Trazado 876403" d="M186.6,96.869a9.811,9.811,0,0,1-.69-3.731,3.807,3.807,0,0,0-3.878-2.329,4.036,4.036,0,0,0-1.436.418l-.113-.26c.113-4.285.237-8.57.35-12.854.045-1.379.136-2.894,1.074-3.912a4.26,4.26,0,0,1,2.917-1.153c1.074-.057,2.148.113,3.222.124,4.262.045,8.208-2.352,11.215-5.359a15.826,15.826,0,0,1,2.951-2.623,3.88,3.88,0,0,1,3.765-.328c1.278.678,1.922,2.284,3.279,2.77s2.815-.339,4.081-1.051a8.268,8.268,0,0,1,1.153-.543,3.038,3.038,0,0,1,2.939.09,2.791,2.791,0,0,1,.893,2.645,8.143,8.143,0,0,1-1.119,2.691,2.032,2.032,0,0,1,2.532,1.447,4.552,4.552,0,0,1-.543,3.188,12.556,12.556,0,0,1-6.252,5.9v.124q-11.108.136-22.226.283l-.26-.034A60.057,60.057,0,0,1,186.6,96.869" transform="translate(23.56 8.421)" fill="#223342"/>
                <path id="Trazado_876404" data-name="Trazado 876404" d="M190.306,153.275c.882,4.228,1.617,8.49,2.25,12.764.475,3.166.893,6.331,1.277,9.5.215,1.8.362,3.821-.8,5.2a4.458,4.458,0,0,1-3.64,1.4,11.844,11.844,0,0,1-3.889-1.051,79.171,79.171,0,0,1-25.449-16.653,5.741,5.741,0,0,0,1.436-3.392,44.536,44.536,0,0,0,.78-12.3,3.89,3.89,0,0,0-.464-1.707,1.493,1.493,0,0,0-1.515-.735,1.979,1.979,0,0,0-1.108.995,8.043,8.043,0,0,0-1.029,2.679l.769-11.577-36.392,1.956v10.74h-.011a7.832,7.832,0,0,0-.95-2.318,1.963,1.963,0,0,0-1.1-.995,1.5,1.5,0,0,0-1.515.735,3.89,3.89,0,0,0-.464,1.707,44.537,44.537,0,0,0,.78,12.3,5.4,5.4,0,0,0,1.617,3.561,3.441,3.441,0,0,0,2.012.644c-.011.35-.011.712-.023,1.074q-3.035,3.985-6.218,7.9c-2.046,2.555-4.149,5.087-6.275,7.586-1.255,1.481-2.905,3.086-4.8,2.747a3.825,3.825,0,0,1-2.736-2.691,10.983,10.983,0,0,1-.26-3.991,192.77,192.77,0,0,1,4.5-31.237q1.374-6.054,3.143-12.018c.181-.611.362-1.21.554-1.809l.124.034q9.988-3.629,19.954-7.269,4.121-1.492,8.23-3c0,.045-.011.1-.011.147l-.124.43c1.538,1.775,2.77,3.81,4.466,5.438s4,2.86,6.308,2.465a6.957,6.957,0,0,0,4.081-2.566,20.608,20.608,0,0,0,2.5-4.228h.068c0-.486,0-.984-.011-1.47h.486c1.278.215,3.064.656,5.133,1.21,8.615,2.352,21.944,6.908,21.944,6.908a35.466,35.466,0,0,1,2.046,4.307,153.249,153.249,0,0,1,4.33,16.574" transform="translate(13.384 16.195)" fill="#c2efe8"/>
                <path id="Trazado_876405" data-name="Trazado 876405" d="M155.055,121.5c.113-.237.215-.486.305-.735l.667.226a11.492,11.492,0,0,0,2.521,1.911,3.88,3.88,0,0,0,3.064.305c1.933-.724,2.476-3.12,3.573-4.873,1.436-2.284,4.013-3.618,5.619-5.788a8.639,8.639,0,0,0,.509-9.248c-1.221-2.092-3.369-3.719-3.878-6.094-.486-2.318.735-4.647.859-7.009a8.124,8.124,0,0,0-3.55-6.953,9.066,9.066,0,0,0-7.823-1.029,10.343,10.343,0,0,0-5.947,5.268l-.057.305c-2.555-.418-5.144,1.119-7.767,1.628a17.066,17.066,0,0,1-7.45-.622,38.5,38.5,0,0,0,1.8-6.5c.09-.531.158-1.063.215-1.605q13.957-7.75,28.591-14.2c.068-.023.124-.057.192-.079l.226.158A21.758,21.758,0,0,0,170.2,69.7a6.611,6.611,0,0,0,9.282-1.176,21.735,21.735,0,0,0,3.052-4.714l.305-.124c-.034-.226-.068-.452-.113-.678l.362-.057Q200.084,60,216.873,55.93c3.686-10.876,6.828-21.944,9.429-33.125l1.888.079v-.972a46.524,46.524,0,0,1,6.014.464v.034q-1.967,20.146-3.934,40.27c-3.2,3.154-6.659,5.89-9.937,8.92a8.268,8.268,0,0,0-1.153.543c-1.266.712-2.713,1.549-4.081,1.051s-2-2.092-3.279-2.77a3.88,3.88,0,0,0-3.765.328,15.826,15.826,0,0,0-2.951,2.623c-3.007,3.007-6.953,5.4-11.215,5.359-1.074-.011-2.148-.181-3.222-.124a4.26,4.26,0,0,0-2.917,1.153c-.938,1.017-1.029,2.532-1.074,3.912-.113,4.285-.237,8.57-.35,12.854l.113.26a4.725,4.725,0,0,0-2.227,2.385,5.814,5.814,0,0,0,.215,4.714,7.992,7.992,0,0,0,3.346,3.414l.17.011q-.627,10.463-2.148,20.813h-.034l-18.326,3.6a19.268,19.268,0,0,0-6.342,2.012,6.7,6.7,0,0,0-3.437,5.087c-2.069-.554-3.855-.995-5.133-1.21h-.486q-.017-6.97-.045-13.928a3.74,3.74,0,0,0,3.064-2.182" transform="translate(17.715 2.86)" fill="#f9a138"/>
                <path id="Trazado_876406" data-name="Trazado 876406" d="M183.259,115.927c-.023.17-.045.328-.068.5l.034.1q6.817,4.884,13.273,10.243l.136-.17a68.332,68.332,0,0,0,11.78-10.48l.407-.113c-.057-.215-.124-.43-.181-.644a123.314,123.314,0,0,1,24.148,7.111l.8-.113q4.884,35.29,10.921,70.421h-81.2v-.509q.933-8.242,1.888-16.483l.271-.418a77.761,77.761,0,0,0,13.16,6.851,11.844,11.844,0,0,0,3.889,1.051,4.458,4.458,0,0,0,3.64-1.4c1.164-1.379,1.017-3.4.8-5.2-.384-3.166-.8-6.331-1.277-9.5l.984-.136q9.48-2.662,18.982-5.325l.26.859a27.456,27.456,0,0,0,8.038,1.549,2.579,2.579,0,0,0,1.967-.5,2.685,2.685,0,0,0,.543-1.9q.119-4.511.237-9.044a4.327,4.327,0,0,0-.5-2.623c-.746-1.074-2.3-1.221-3.584-1.006a11.212,11.212,0,0,1-3.9.384h-.1a93.743,93.743,0,0,0-.848-10.378,3.014,3.014,0,0,0-.4-1.3,1.024,1.024,0,0,0-1.187-.452c-.5.2-.622.837-.678,1.379a85.171,85.171,0,0,0-.158,14.9q-10.955.407-21.91.825a153.249,153.249,0,0,0-4.33-16.574,35.464,35.464,0,0,0-2.046-4.307s-13.329-4.556-21.944-6.908a6.7,6.7,0,0,1,3.437-5.087,19.268,19.268,0,0,1,6.342-2.012l18.326-3.6Z" transform="translate(20.25 15.06)" fill="#00aca1"/>
                <path id="Trazado_876407" data-name="Trazado 876407" d="M218.28,20.2c-.011-.045-.011-.09-.023-.136v.147a15.212,15.212,0,0,1-1.605.023,7.949,7.949,0,0,1-1.357-.17,4.429,4.429,0,0,1-3.12-2.216,6.343,6.343,0,0,1-.237-3.652,4.283,4.283,0,0,1,.837-2.385,4.125,4.125,0,0,1,2.419-1.063c.95-.181,1.911-.328,2.883-.418.6-.068,1.21-.113,1.809-.147.769-.045,1.526-.057,2.284-.045a3.454,3.454,0,0,1,2.826.995,3.588,3.588,0,0,1,.373,2.442q-.458,5.172-.916,10.356c-.057-.011-.124-.011-.181-.023a46.524,46.524,0,0,0-6.014-.464V20.216a.039.039,0,0,0,.023-.011" transform="translate(27.647 1.323)" fill="#f2b481"/>
                <path id="Trazado_876408" data-name="Trazado 876408" d="M186.861,20.363c-4.3,7.631-12.176,12.673-20.4,15.681L166.443,36a4.489,4.489,0,0,0-4.918,2.069,5.145,5.145,0,0,0,.328,5.427,5.955,5.955,0,0,0,4.567,2.419q.322,11.175.656,22.362-14.618,6.461-28.591,14.2c-.057.543-.124,1.074-.215,1.605-1.978.407-4.59-1.515-4.94-3.5s.407-3.991,1.221-5.845,1.73-3.753,1.7-5.777a6.634,6.634,0,0,0-.1-1.063c-.78-4.556-5.868-7.9-6.331-12.651-.407-4.228,3.052-7.846,6.67-10.062s7.8-3.8,10.537-7.055c2.86-3.4,3.652-8.027,4.986-12.278a30.66,30.66,0,0,1,5.766-10.9,19.014,19.014,0,0,1,10.367-6.41c7.529-1.538,15.477,2.849,19.479,9.406s4.093,15.443,2.453,22.95a117.747,117.747,0,0,0-3.211-20.531" transform="translate(16.942 1.074)" fill="#223342"/>
                <path id="Trazado_876409" data-name="Trazado 876409" d="M9.874,61.728c.226.124.452.249.667.384-2.182,4.217-5.167,9.994-7.405,14.313-.147-.079-.294-.17-.43-.26-.531-.317-1.063-.656-1.571-1.006a3.631,3.631,0,0,1-.791-1.911,7.722,7.722,0,0,1,.938-4.036A63.679,63.679,0,0,1,5.1,62.417,3.565,3.565,0,0,1,6.55,60.891a2.407,2.407,0,0,1,1.775.011,6.509,6.509,0,0,1,1.515.871Z" transform="translate(0.041 7.927)" fill="#ed9756"/>
                <path id="Trazado_876410" data-name="Trazado 876410" d="M120.425,150.987a6.557,6.557,0,0,0-.215-1.549h.011V138.7l36.392-1.956-.769,11.577a8.138,8.138,0,0,0-.136,1.176,16.871,16.871,0,0,0-5.054.531,8.767,8.767,0,0,0-4.737,3.12,5.847,5.847,0,0,0-.837,5.483,6.575,6.575,0,0,0,3.369,3.324,19.179,19.179,0,0,0,4.635,1.357,9.787,9.787,0,0,0,2.431.283s-.09,14.256.588,18.247H121.148s-.667-8.671-.577-15.692c.283-.362.565-.724.837-1.085a15.706,15.706,0,0,0,1.651-.271,19.179,19.179,0,0,0,4.635-1.357,6.575,6.575,0,0,0,3.369-3.324,5.82,5.82,0,0,0-.837-5.472,8.723,8.723,0,0,0-4.737-3.132,16.237,16.237,0,0,0-5.065-.52" transform="translate(15.692 17.851)" fill="#fff"/>
                <path id="Trazado_876411" data-name="Trazado 876411" d="M119.744,146.04a7.832,7.832,0,0,1,.95,2.318,6.557,6.557,0,0,1,.215,1.549,16.237,16.237,0,0,1,5.065.52,8.723,8.723,0,0,1,4.737,3.132,5.82,5.82,0,0,1,.837,5.472,6.575,6.575,0,0,1-3.369,3.324,19.179,19.179,0,0,1-4.635,1.357,15.706,15.706,0,0,1-1.651.271c-.271.011-.543.023-.814.011a3.441,3.441,0,0,1-2.012-.644,5.4,5.4,0,0,1-1.617-3.561,44.537,44.537,0,0,1-.78-12.3,3.89,3.89,0,0,1,.464-1.707,1.5,1.5,0,0,1,1.515-.735,1.963,1.963,0,0,1,1.1.995" transform="translate(15.209 18.931)" fill="#ed9756"/>
                <path id="Trazado_876412" data-name="Trazado 876412" d="M70.073,76.5a2.714,2.714,0,0,0-2.634.78l-1.119-.746q2.985-4.443,5.981-8.9a135.148,135.148,0,0,1,22.159-6.772c.09.113.192.215.283.317A66.932,66.932,0,0,0,107.2,72.012c3.561-5.065,7.518-9.451,11.079-14.5-.011-.068-.023-.147-.034-.215,7.71,1.345,18.462,3.414,26.183,4.194a6.633,6.633,0,0,1,.1,1.063c.034,2.024-.871,3.923-1.7,5.777s-1.571,3.855-1.221,5.845,2.962,3.912,4.94,3.5a38.5,38.5,0,0,1-1.8,6.5c-.283-.068-.577-.147-.859-.226-2.713-.735-5.461-1.571-8.264-1.436s-5.754,1.481-6.953,4.025c-1.334,2.838-.226,6.421-1.707,9.2-1.018,1.888-3.1,3.12-3.81,5.144a4.81,4.81,0,0,0,1.266,4.884,5.666,5.666,0,0,0,3.923,1.526c.882,3.052.995,6.286,1.707,9.395.746,3.29,2.408,6.67,5.449,8.14,2.792,1.357,6.071.814,9.112.2-.271,2.589-.531,5.167-.8,7.744q-4.1,1.509-8.23,3l-.543-1.492c-.644-1.718-1.289-3.426-1.933-5.144l-.644-.735q-13.261-3.036-26.511-6.082l-.09-.26c0-.057-.011-.124-.011-.181q-.814-9.514-1.594-19.016l-.09-.2a8.345,8.345,0,0,0,2.736-5.721,4.04,4.04,0,0,0-1.21-3.459l.034-.045c-.43-3.855-.848-7.722-1.278-11.588a5.766,5.766,0,0,0-1.2-3.516c-1.176-1.221-3.109-1.176-4.794-1.04L82.837,78.512c-3.3.26-6.772.5-9.813-.814a14.694,14.694,0,0,0-2.951-1.2" transform="translate(8.658 7.479)" fill="#ec4e50"/>
                <path id="Trazado_876413" data-name="Trazado 876413" d="M216.853,25.255l-8.773-.4L209.7,3.142q5.478.017,10.955.057l.249.023c-.192,2.532-.373,5.054-.554,7.586l.023.294c-.6.034-1.21.079-1.809.147l-.023-.192V5.629l-7.145-.43L210.126,22.44l7.009.6V21.152a15.212,15.212,0,0,0,1.605-.023v4.206Z" transform="translate(27.163 0.41)" fill="#ddd"/>
                <path id="Trazado_876414" data-name="Trazado 876414" d="M218.3,10.818l.023.192c-.972.09-1.933.237-2.883.418a4.125,4.125,0,0,0-2.419,1.063,4.283,4.283,0,0,0-.837,2.385,6.343,6.343,0,0,0,.237,3.652,4.429,4.429,0,0,0,3.12,2.216,7.949,7.949,0,0,0,1.357.17V22.8l-7.009-.6,1.266-17.241,7.145.43Z" transform="translate(27.4 0.648)" fill="#fff"/>
                <path id="Trazado_876415" data-name="Trazado 876415" d="M202.846,146.91h.1a11.212,11.212,0,0,0,3.9-.384c1.289-.215,2.838-.068,3.584,1.006a4.327,4.327,0,0,1,.5,2.623q-.119,4.528-.237,9.044a2.685,2.685,0,0,1-.543,1.9,2.579,2.579,0,0,1-1.967.5,27.456,27.456,0,0,1-8.038-1.549l-.26-.859.271-.271c-.158-2.385-.305-4.76-.464-7.156h-.057c-.023-.237-.034-.464-.057-.7a85.171,85.171,0,0,1,.158-14.9c.057-.543.181-1.176.678-1.379a1.024,1.024,0,0,1,1.187.452,3.014,3.014,0,0,1,.4,1.3,93.739,93.739,0,0,1,.848,10.378" transform="translate(26.021 17.586)" fill="#ffbc8f"/>
                <path id="Trazado_876416" data-name="Trazado 876416" d="M202.193,149.873c.158,2.4.305,4.771.464,7.156l-.271.271q-9.5,2.662-18.982,5.325l-.984.136c-.633-4.273-1.368-8.536-2.25-12.764q10.955-.424,21.91-.825c.023.237.034.464.057.7Z" transform="translate(23.52 19.473)" fill="#00aca1"/>
                <path id="Trazado_876417" data-name="Trazado 876417" d="M177.4,52.607a88.273,88.273,0,0,1,2.51,10.785c.045.226.079.452.113.678l-.305.124a21.735,21.735,0,0,1-3.052,4.714,6.611,6.611,0,0,1-9.282,1.176,21.758,21.758,0,0,1-3.482-3.132l-.226-.158c-.068.023-.124.057-.192.079q-.322-11.175-.656-22.362a5.955,5.955,0,0,1-4.567-2.419,5.145,5.145,0,0,1-.328-5.427A4.489,4.489,0,0,1,162.85,34.6l.023.045c8.219-3.007,16.1-8.049,20.4-15.681a117.747,117.747,0,0,1,3.211,20.531c.136,2.035.215,4.07.249,6.1.023,1.82-.045,3.8-1.153,5.246a5.706,5.706,0,0,1-3.923,2,15.815,15.815,0,0,1-4.251-.237" transform="translate(20.535 2.475)" fill="#f2b481"/>
                <path id="Trazado_876418" data-name="Trazado 876418" d="M169.555,96.389a8.639,8.639,0,0,1-.509,9.248c-1.605,2.171-4.183,3.5-5.619,5.788-1.1,1.752-1.639,4.149-3.573,4.873a3.88,3.88,0,0,1-3.064-.305,11.492,11.492,0,0,1-2.521-1.911l-.667-.226a13.012,13.012,0,0,0,.5-3.392,195.37,195.37,0,0,0,.475-20.09,16.83,16.83,0,0,0-.938-5.517,6.345,6.345,0,0,0-3.844-3.844,4.221,4.221,0,0,0-.633-.136l.057-.305a10.343,10.343,0,0,1,5.947-5.268,9.066,9.066,0,0,1,7.823,1.029,8.124,8.124,0,0,1,3.55,6.953c-.124,2.363-1.345,4.692-.859,7.009.509,2.374,2.657,4,3.878,6.094" transform="translate(19.472 9.771)" fill="#223342"/>
                <path id="Trazado_876419" data-name="Trazado 876419" d="M170.709,169.574l-.271.418q-.95,8.242-1.888,16.483v.509H117.913v-.011q-1.441-7.97-2.883-15.929,3.188-3.917,6.218-7.9c-.09,7.021.577,15.692.577,15.692h34.956c-.678-3.991-.588-18.247-.588-18.247a3.389,3.389,0,0,0,2.046-.644.85.85,0,0,0,.181-.17,78.338,78.338,0,0,0,12.289,9.8" transform="translate(15.016 20.857)" fill="#c2efe8"/>
                <path id="Trazado_876420" data-name="Trazado 876420" d="M154.913,161.869a.849.849,0,0,1-.181.17,3.388,3.388,0,0,1-2.046.644,9.787,9.787,0,0,1-2.431-.283,19.179,19.179,0,0,1-4.635-1.357,6.575,6.575,0,0,1-3.369-3.324,5.847,5.847,0,0,1,.837-5.483,8.767,8.767,0,0,1,4.737-3.12,16.871,16.871,0,0,1,5.054-.531,8.138,8.138,0,0,1,.136-1.176,8.043,8.043,0,0,1,1.029-2.679,1.979,1.979,0,0,1,1.108-.995,1.493,1.493,0,0,1,1.515.735,3.89,3.89,0,0,1,.464,1.707,44.536,44.536,0,0,1-.78,12.3,5.741,5.741,0,0,1-1.436,3.392" transform="translate(18.523 18.76)" fill="#ed9756"/>
                <path id="Trazado_876421" data-name="Trazado 876421" d="M142.945,92.865a5.577,5.577,0,0,0-5.7-1.187,11.229,11.229,0,0,0-5.087,3.98c-1.345,1.718-2.465,3.606-3.912,5.246a9.509,9.509,0,0,1-5.438,3.4,5.811,5.811,0,0,1-.995.079,5.666,5.666,0,0,1-3.923-1.526,4.81,4.81,0,0,1-1.266-4.884c.712-2.024,2.792-3.256,3.81-5.144,1.481-2.781.373-6.365,1.707-9.2,1.2-2.544,4.138-3.889,6.953-4.025s5.551.7,8.264,1.436c.283.079.577.158.859.226a17.066,17.066,0,0,0,7.45.622c2.623-.509,5.212-2.046,7.767-1.628a4.221,4.221,0,0,1,.633.136,6.345,6.345,0,0,1,3.844,3.844,16.83,16.83,0,0,1,.938,5.517,195.37,195.37,0,0,1-.475,20.09,13.012,13.012,0,0,1-.5,3.392c-.09.249-.192.5-.305.735a3.74,3.74,0,0,1-3.064,2.182c-.011-2.792-.011-5.574-.023-8.366a8.417,8.417,0,0,0-.339-2.872,2.888,2.888,0,0,0-1.99-1.945,2.758,2.758,0,0,0-2.5.938,5.968,5.968,0,0,0-1.221,2.487l-.068.034a13.929,13.929,0,0,1-5.427-13.567" transform="translate(15.195 10.39)" fill="#223342"/>
                <path id="Trazado_876422" data-name="Trazado 876422" d="M136.656,128.507c.271-2.578.531-5.155.8-7.744-3.041.61-6.32,1.153-9.112-.2-3.041-1.47-4.7-4.85-5.449-8.14-.712-3.109-.825-6.342-1.707-9.395a5.811,5.811,0,0,0,.995-.079,9.509,9.509,0,0,0,5.438-3.4c1.447-1.639,2.566-3.527,3.912-5.246a11.229,11.229,0,0,1,5.087-3.98,5.577,5.577,0,0,1,5.7,1.187,13.929,13.929,0,0,0,5.427,13.567l.068-.034a5.968,5.968,0,0,1,1.221-2.487,2.758,2.758,0,0,1,2.5-.938,2.888,2.888,0,0,1,1.99,1.945,8.417,8.417,0,0,1,.339,2.872c.011,2.792.011,5.574.023,8.366q.017,6.97.045,13.928c.011.486.011.984.011,1.47h-.068a20.608,20.608,0,0,1-2.5,4.228,6.957,6.957,0,0,1-4.081,2.566c-2.306.4-4.624-.837-6.308-2.465s-2.928-3.663-4.466-5.438l.124-.43c0-.045.011-.1.011-.147" transform="translate(15.82 11.751)" fill="#ed9756"/>
                <path id="Trazado_876423" data-name="Trazado 876423" d="M117.435,135.552c-.192.6-.373,1.2-.554,1.809H103.824v-.181a20.082,20.082,0,0,0-14.1,3.629,8.8,8.8,0,0,0-3.64,4.68c-.192.791-.023,1.888.78,2.024a1.7,1.7,0,0,0,1.21-.43c1.651-1.119,3.312-2.238,4.952-3.369l.068.1a5.842,5.842,0,0,0,10.695,2.973l.068-.237c3.29.938,6.591,1.877,9.881,2.826a192.77,192.77,0,0,0-4.5,31.237,10.983,10.983,0,0,0,.26,3.991,3.825,3.825,0,0,0,2.736,2.691c1.9.339,3.55-1.266,4.8-2.747,2.125-2.5,4.228-5.031,6.275-7.586q1.441,7.953,2.883,15.929v.011H51.57V175.29a12.366,12.366,0,0,0,9.983-6.229h44.634v-3.674H81.744L70.02,131.731H57.415a76.192,76.192,0,0,0,3.719-8.038c3.957-1.187,7.982-2.431,11.961-3.787,3.708-1.244,7.394-2.578,10.966-4.025-.023.113-.057.215-.079.328l.113.034A109.667,109.667,0,0,0,96.622,125.2l.023.034a83.7,83.7,0,0,0,10.865-10.785l.271-.023c0,.057.011.124.011.181l.09.26q13.261,3.035,26.511,6.082l.644.735c.644,1.718,1.289,3.426,1.933,5.144l.543,1.492q-9.971,3.646-19.954,7.269Z" transform="translate(6.732 14.937)" fill="#f9a138"/>
                <path id="Trazado_876424" data-name="Trazado 876424" d="M113.331,41.647l.011.023q1.221,10.022,3.075,19.931c.011.068.023.147.034.215-3.561,5.054-7.518,9.44-11.079,14.5A66.932,66.932,0,0,1,92.914,65.49c.034-.136.057-.26.09-.4A110.589,110.589,0,0,0,94.79,53.065V53a27.671,27.671,0,0,1-6.037-.475,9.65,9.65,0,0,1-5.393-3.086,12.676,12.676,0,0,1-2.272-6.184c-.95-6.116-.8-12.334-.656-18.53.045.057.1.1.147.158l.136.034c8.038-.52,16.122-.712,24.182-.6v.113a61.248,61.248,0,0,0,2.227,10.966,3.173,3.173,0,0,0,.577,1.232,1.149,1.149,0,0,0,1.221.407,1.661,1.661,0,0,0,.8-.995,12.842,12.842,0,0,0,.916-3.889,2.527,2.527,0,0,1,2.5-1.458,2.981,2.981,0,0,1,1.515.554,3.941,3.941,0,0,1,1.176,1.266,6.438,6.438,0,0,1,.746,3.245,7.848,7.848,0,0,1-.848,3.618,5.078,5.078,0,0,1-2.4,2.272" transform="translate(10.486 3.17)" fill="#ed9756"/>
                <path id="Trazado_876425" data-name="Trazado 876425" d="M110.9,33.44a12.842,12.842,0,0,1-.916,3.889,1.661,1.661,0,0,1-.8.995,1.149,1.149,0,0,1-1.221-.407,3.173,3.173,0,0,1-.577-1.232,61.248,61.248,0,0,1-2.227-10.966V25.6c-8.061-.113-16.144.079-24.182.6l-.136-.034c-.045-.057-.1-.1-.147-.158a8.243,8.243,0,0,1-2.272-6.783c.452-2.5,2.759-4.7,5.291-4.533,2.329.158,4.3,2.114,6.625,2.08,2.634-.034,4.816-2.589,7.439-2.352,1.945.181,3.482,1.865,5.427,2.08s3.787-1.1,5.732-.916,3.459,1.82,4.353,3.561c2.08,4.013,1.911,8.762,1.7,13.273l-.068.113a2.981,2.981,0,0,0-1.515-.554,2.527,2.527,0,0,0-2.5,1.458" transform="translate(10.225 1.881)" fill="#223342"/>
                <path id="Trazado_876426" data-name="Trazado 876426" d="M97.969,134.712h12.922q-1.764,5.952-3.143,12.018c-3.29-.95-6.591-1.888-9.881-2.826-.124-.045-.26-.079-.384-.113H97.46c.17-3.019.339-6.06.509-9.078" transform="translate(12.723 17.586)" fill="#f9a138"/>
                <path id="Trazado_876427" data-name="Trazado 876427" d="M98.823,94.536a8.222,8.222,0,0,1,2.012-3.618,3.471,3.471,0,0,1,4.172-.588.716.716,0,0,1,.147.124,4.04,4.04,0,0,1,1.21,3.459,8.345,8.345,0,0,1-2.736,5.721l.09.2q.8,9.514,1.594,19.016l-.271.023a83.7,83.7,0,0,1-10.865,10.785l-.023-.034a109.667,109.667,0,0,1-12.526-8.954l-.113-.034c.023-.113.057-.215.079-.328a85.3,85.3,0,0,0,1.99-10.378c-2.024-.226-4.1-.158-6.1-.531a7.722,7.722,0,0,1-5.291-3.132,10.571,10.571,0,0,1-1.108-5.3c-.2-6.738-.407-13.5-.6-20.237,8.456-.328,16.936-.35,25.381-.045V80.8q.424,6.648.995,13.284c.045.52.192,1.176.712,1.3a.877.877,0,0,0,.882-.43,1.772,1.772,0,0,0,.2-.475Z" transform="translate(9.201 10.505)" fill="#f2b481"/>
                <path id="Trazado_876428" data-name="Trazado 876428" d="M99.112,95.294a1.772,1.772,0,0,1-.2.475.877.877,0,0,1-.882.43c-.52-.124-.667-.78-.712-1.3q-.577-6.631-.995-13.284V81.5c-8.445-.305-16.924-.283-25.381.045a.55.55,0,0,1-.011-.136H70.8a6.389,6.389,0,0,1-3.64-3.946,2.8,2.8,0,0,1,.023-2.137,1.283,1.283,0,0,1,.17-.26,2.714,2.714,0,0,1,2.634-.78,14.694,14.694,0,0,1,2.951,1.2c3.041,1.311,6.512,1.074,9.813.814L98.378,75.08c1.685-.136,3.618-.181,4.794,1.04a5.766,5.766,0,0,1,1.2,3.516c.43,3.866.848,7.733,1.278,11.588l-.034.045a.716.716,0,0,0-.147-.124,3.471,3.471,0,0,0-4.172.588,8.222,8.222,0,0,0-2.012,3.618Z" transform="translate(8.741 9.69)" fill="#223342"/>
                <path id="Trazado_876429" data-name="Trazado 876429" d="M110.215,163.388v3.674H32.095L20.71,129.732H74.049l11.724,33.656Z" transform="translate(2.704 16.935)" fill="#ddd"/>
                <path id="Trazado_876430" data-name="Trazado 876430" d="M99.473,143.828H99.5c.124.034.26.068.384.113l-.068.237a5.842,5.842,0,0,1-10.695-2.973l-.068-.1c-1.639,1.131-3.3,2.25-4.952,3.369a1.7,1.7,0,0,1-1.21.43c-.8-.136-.972-1.232-.78-2.024a8.8,8.8,0,0,1,3.64-4.68,20.082,20.082,0,0,1,14.1-3.629v.181h.136c-.17,3.019-.339,6.06-.509,9.078" transform="translate(10.709 17.548)" fill="#f2b481"/>
                <path id="Trazado_876431" data-name="Trazado 876431" d="M57.925,97.813q7.665-11.4,15.319-22.792l1.119.746a1.283,1.283,0,0,0-.17.26,2.8,2.8,0,0,0-.023,2.137,6.389,6.389,0,0,0,3.64,3.946h.124a.55.55,0,0,0,.011.136c.192,6.738.4,13.5.6,20.237a10.571,10.571,0,0,0,1.108,5.3,7.722,7.722,0,0,0,5.291,3.132c2,.373,4.081.305,6.1.531a85.3,85.3,0,0,1-1.99,10.378c-3.573,1.447-7.258,2.781-10.966,4.025l-.011-.045a78.463,78.463,0,0,0,1.843-12.153H79.9a264.046,264.046,0,0,1-24.895,11.034l-.034.034A439.283,439.283,0,0,1,13.28,77.542c1.278-2.555,2.566-5.1,3.866-7.654a4.818,4.818,0,0,0,.418-.837c.011-.023.023-.057.034-.079a.266.266,0,0,0,.023-.09,436.917,436.917,0,0,0,40.3,28.931" transform="translate(1.734 8.992)" fill="#ec4e50"/>
                <path id="Trazado_876432" data-name="Trazado 876432" d="M42.23,162.752H62.772A12.116,12.116,0,0,1,42.23,163.8Z" transform="translate(5.513 21.246)" fill="#f2b481"/>
                <path id="Trazado_876433" data-name="Trazado 876433" d="M18.916,59.968a9.01,9.01,0,0,1-6.9-2.679c1.831-.859,3.652-1.718,5.483-2.566l.045.1c.52,1.707,1.029,3.426,1.538,5.133a.856.856,0,0,1-.17.011" transform="translate(1.569 7.144)" fill="#f2b481"/>
                <path id="Trazado_876434" data-name="Trazado 876434" d="M12.367,56.992a9.01,9.01,0,0,0,6.9,2.679c-.4.882-1.752,3.629-3.459,7.077A72.658,72.658,0,0,0,9.36,62.6c1.47-2.838,2.589-4.974,2.872-5.494l-.011-.034a.934.934,0,0,0,.147-.079" transform="translate(1.222 7.44)" fill="#f9a138"/>
                <path id="Trazado_876435" data-name="Trazado 876435" d="M18.167,69.308a.266.266,0,0,1-.023.09c-.011.023-.023.057-.034.079-.147.283-.283.554-.418.837-1.3,2.555-2.589,5.1-3.866,7.654-.147.294-.294.577-.441.871-.283.7-1.3.724-2.058.769a5.59,5.59,0,0,1-2.216-.452L9.1,79.143c2.035-4.1,4.647-9.327,6.738-13.521.384.271.757.543,1.131.825a3.417,3.417,0,0,1,1.2,1.311,2.278,2.278,0,0,1,0,1.549" transform="translate(1.188 8.566)" fill="#ed9756"/>
                <path id="Trazado_876436" data-name="Trazado 876436" d="M16.659,66.1c-2.092,4.194-4.7,9.417-6.738,13.521A40.876,40.876,0,0,1,2.81,76.265c2.238-4.319,5.223-10.1,7.405-14.313A72.658,72.658,0,0,1,16.659,66.1" transform="translate(0.367 8.087)" fill="#ed9756"/>
                <path id="Trazado_876437" data-name="Trazado 876437" d="M10.011,77.97l-1.051,2.1-.034-.023c-2.272-1.3-4.533-2.6-6.806-3.912l.78-1.526a40.876,40.876,0,0,0,7.111,3.358" transform="translate(0.277 9.74)" fill="#f9a138"/>
                <path id="Trazado_876438" data-name="Trazado 876438" d="M9.046,79.874l.034.023c-.35.7-.667,1.345-.95,1.922H8.119A45.973,45.973,0,0,1,1.2,77.963c.305-.588.656-1.266,1.04-2,2.272,1.311,4.533,2.612,6.806,3.912" transform="translate(0.157 9.916)" fill="#ddd"/>
                <path id="Trazado_876439" data-name="Trazado 876439" d="M8.276,81.587h.011c-.531,1.085-.938,1.922-1.164,2.4A7.994,7.994,0,0,1,0,80.151l.113-.068c.17-.305.61-1.142,1.244-2.352a45.972,45.972,0,0,0,6.919,3.855" transform="translate(0 10.147)" fill="#e08b4b"/>
                <path id="Trazado_876440" data-name="Trazado 876440" d="M167.931,36.55a3.853,3.853,0,0,0-.935.571.552.552,0,0,0-.292.153,3.776,3.776,0,0,0,4.493,6.012c3.812-2.335.906-8.464-3.266-6.736" transform="translate(21.609 4.732)" fill="#e08b4b"/>
                <path id="Trazado_876441" data-name="Trazado 876441" d="M179.329,36.126q-.348-2.44-.694-4.882c-.1-.717-1.23-.636-1.127.085l.644,4.533c.24,1.687,1.17,4.6-1.984,4.2-.719-.092-.941,1.017-.218,1.11,1.507.192,3.375.086,3.719-1.747a10.72,10.72,0,0,0-.34-3.3" transform="translate(22.911 4.014)" fill="#e08b4b"/>
                <path id="Trazado_876442" data-name="Trazado 876442" d="M201.941,93.107q-.1-2.583-.194-5.165c-.028-.728-1.155-.642-1.128.085q.09,2.384.181,4.769c.06,1.6.683,5.539-2.4,4.521-.69-.227-.9.885-.217,1.11,1.623.535,3.377.537,3.808-1.436a16.3,16.3,0,0,0-.048-3.883" transform="translate(25.816 11.414)" fill="#e08b4b"/>
                <path id="Trazado_876443" data-name="Trazado 876443" d="M189.865,94.2a3.489,3.489,0,0,0-.51,5.646,3.432,3.432,0,0,0,.773.885c2.477,1.933,5.491-.536,5.315-3.315a3.818,3.818,0,0,0-5.578-3.216" transform="translate(24.561 12.238)" fill="#e08b4b"/>
                <path id="Trazado_876444" data-name="Trazado 876444" d="M80.39,98.308c-1.577.317-3.263.808-3.639-2.255A13.282,13.282,0,0,1,77,93.6q.254-2.452.506-4.9c.075-.719-1.034-.941-1.109-.217l-.548,5.311a12.007,12.007,0,0,0-.2,3.764c.529,2.292,2.979,2.25,4.825,1.879.7-.141.627-1.271-.085-1.127" transform="translate(9.862 11.493)" fill="#e08b4b"/>
                <path id="Trazado_876445" data-name="Trazado 876445" d="M90.2,94.687a3.929,3.929,0,0,0-2.115-.006.512.512,0,0,0-.468.073c-.088.06-.166.132-.249.2a2.9,2.9,0,0,0-1.213,1.155,2.487,2.487,0,0,0-.141,2.09,3.224,3.224,0,0,0,.166.69,3.414,3.414,0,0,0,3.5,2.194,3.277,3.277,0,0,0,.522-6.4" transform="translate(11.207 12.341)" fill="#e08b4b"/>
                <path id="Trazado_876446" data-name="Trazado 876446" d="M75.484,86.583a4.457,4.457,0,0,0-5.184.4c-.556.461.08,1.4.642.93a3.372,3.372,0,0,1,4.046-.314c.627.371,1.118-.649.5-1.016" transform="translate(9.149 11.218)" fill="#223342"/>
                <path id="Trazado_876447" data-name="Trazado 876447" d="M86.42,86.127a5.1,5.1,0,0,0-5.865.469c-.56.457.077,1.393.642.93a4.007,4.007,0,0,1,4.728-.383c.632.363,1.124-.656.5-1.016" transform="translate(10.488 11.15)" fill="#223342"/>
                <path id="Trazado_876448" data-name="Trazado 876448" d="M84.737,89.392a1.643,1.643,0,0,0-1.348-1.609c-1.776-.174-1.949,2.606-1.276,3.675a1.143,1.143,0,0,0,1.756.327c.023-.019.031-.049.051-.069a1.03,1.03,0,0,0,.13-.077,2.691,2.691,0,0,0,.687-2.248" transform="translate(10.672 11.458)" fill="#223342"/>
                <path id="Trazado_876449" data-name="Trazado 876449" d="M74.068,89.085a1.183,1.183,0,0,0-1.982-.459c-.019.021-.033.05-.051.072a.551.551,0,0,0-.087.122,4.112,4.112,0,0,0,.038,3.154A1.168,1.168,0,0,0,74,91.953a3.4,3.4,0,0,0,.064-2.868" transform="translate(9.351 11.52)" fill="#223342"/>
                <path id="Trazado_876450" data-name="Trazado 876450" d="M106.267,88.276c-4.81.527-9.612,1.161-14.416,1.747a7.326,7.326,0,0,0-2.168-6.114,5.206,5.206,0,0,0-8.052.924A8.742,8.742,0,0,0,79.9,89.014a.292.292,0,0,0-.045,0l-1.353.147a7.811,7.811,0,0,0-3.759-5.79,5.113,5.113,0,0,0-7.086,1.877.577.577,0,0,0-.132.234c-.009.031-.016.063-.025.095a4.949,4.949,0,0,0-.326,1.309.6.6,0,0,0,.016.176c-.438,3.031.3,6.333,3.144,7.99A5.365,5.365,0,0,0,78.215,92.2a6.339,6.339,0,0,0,.346-1.914l1.3-.14a6.453,6.453,0,0,0,1.77,4.241,5.75,5.75,0,0,0,8.72-.313,7.542,7.542,0,0,0,1.307-2.886l8.6-1.043c2.263-.275,9.009-2.182,9.153,1.588.028.728,1.155.642,1.128-.085-.112-2.93-1.492-3.674-4.27-3.37M76.648,92.8c-1.805,2.812-5.632,2.245-7.386-.308a7.725,7.725,0,0,1-.7-6.515c1.171-3.029,5.437-2.578,7.376-.109,1.508,1.919,2.079,4.8.709,6.931M88.863,94a4.691,4.691,0,0,1-7.105-1.3,6,6,0,0,1,.168-6.261.471.471,0,0,0,.319-.3,4.86,4.86,0,0,1,.3-.621c.163-.214.326-.428.508-.627a.574.574,0,0,0,.125-.215c2.05-2.11,5.769-.985,7.053,1.881A6.788,6.788,0,0,1,88.863,94" transform="translate(8.756 10.76)" fill="#223342"/>
                <path id="Trazado_876451" data-name="Trazado 876451" d="M87.752,29.471a4.828,4.828,0,0,0-6.272.618c-.514.516.346,1.249.858.737a3.655,3.655,0,0,1,4.677-.5c.6.4,1.344-.457.737-.857" transform="translate(10.616 3.733)" fill="#223342"/>
                <path id="Trazado_876452" data-name="Trazado 876452" d="M100.825,29.289a7.054,7.054,0,0,0-7.394.586c-.588.426.052,1.359.643.93a5.907,5.907,0,0,1,6.255-.5.566.566,0,0,0,.5-1.016" transform="translate(12.166 3.722)" fill="#223342"/>
                <path id="Trazado_876453" data-name="Trazado 876453" d="M84.7,31.284a1.236,1.236,0,0,0-1.785.268,3.632,3.632,0,0,0-.366,2.581,2.153,2.153,0,0,0,.286.718,1.283,1.283,0,0,0,1.9.8c1.63-.691,1.15-3.473-.035-4.368" transform="translate(10.766 4.049)" fill="#223342"/>
                <path id="Trazado_876454" data-name="Trazado 876454" d="M99.424,34.041a4.5,4.5,0,0,0-.982-2.9,1.434,1.434,0,0,0-2.118.309,2.178,2.178,0,0,0-.107.2.545.545,0,0,0-.15.258c0,.014-.007.032-.01.045a3.175,3.175,0,0,0-.016,2.327l.018.04c.235,1.246.866,2.349,2.168,1.973a2.027,2.027,0,0,0,1.2-2.259" transform="translate(12.51 4.021)" fill="#223342"/>
                <path id="Trazado_876455" data-name="Trazado 876455" d="M93.783,42.009l-7.318.282a.516.516,0,0,0-.275.092.6.6,0,0,0-.435.725c.582,2.387,2.249,4.561,4.956,4.249a4.086,4.086,0,0,0,3.532-4.393.584.584,0,0,0-.46-.953" transform="translate(11.192 5.484)" fill="#fff"/>
                <path id="Trazado_876456" data-name="Trazado 876456" d="M91.113,40.1c-1.353.46-2.444.586-2.987-.975a9.85,9.85,0,0,1,.173-2.762q.148-2.169.294-4.339c.049-.718-1.06-.943-1.109-.218q-.159,2.337-.317,4.674a10.851,10.851,0,0,0-.085,3.446c.607,2.044,2.788,1.791,4.413,1.239a.566.566,0,0,0-.382-1.065" transform="translate(11.351 4.094)" fill="#e2762d"/>
                <path id="Trazado_876457" data-name="Trazado 876457" d="M102.306,39.189a3.315,3.315,0,0,0-4.184-1.3,2.921,2.921,0,0,0-1.62,3.3,2.948,2.948,0,0,0,.764,1.758,3.234,3.234,0,0,0,4.235.345,3.275,3.275,0,0,0,.8-4.1" transform="translate(12.586 4.908)" fill="#e2762d"/>
                <path id="Trazado_876458" data-name="Trazado 876458" d="M182.815,28.02a3.361,3.361,0,0,0-4.05.6c-.512.518.347,1.252.858.737a2.215,2.215,0,0,1,2.7-.326c.634.361,1.125-.659.5-1.016" transform="translate(23.316 3.602)" fill="#223342"/>
                <path id="Trazado_876459" data-name="Trazado 876459" d="M173.986,29.231a5.4,5.4,0,0,0-5.615.392.566.566,0,0,0,.642.93,4.255,4.255,0,0,1,4.478-.305c.649.332,1.142-.684.5-1.017" transform="translate(21.948 3.737)" fill="#223342"/>
                <path id="Trazado_876460" data-name="Trazado 876460" d="M171.957,31.336a1.237,1.237,0,0,0-1.441-.407.471.471,0,0,0-.486.313c-.017.04-.031.1-.046.14a1.746,1.746,0,0,0-.242,1.1c-.125,1.12.076,2.408,1.279,2.413,1.669.007,1.689-2.592.937-3.56" transform="translate(22.154 4.026)" fill="#223342"/>
                <path id="Trazado_876461" data-name="Trazado 876461" d="M182.182,30.974a1.227,1.227,0,0,0-1.287-.535.547.547,0,0,0-.768.388c-.211,1.019-.606,3.557,1.1,3.522,1.586-.032,1.622-2.392.956-3.375" transform="translate(23.489 3.968)" fill="#223342"/>
                <path id="Trazado_876462" data-name="Trazado 876462" d="M197.972,85.074a5.152,5.152,0,0,0-6.836.034c-.539.475.1,1.411.643.93a4.043,4.043,0,0,1,5.456-.107c.559.468,1.3-.389.737-.857" transform="translate(24.925 10.939)" fill="#223342"/>
                <path id="Trazado_876463" data-name="Trazado 876463" d="M209.806,85.423a5.511,5.511,0,0,0-6.75.227c-.558.458.078,1.393.643.93a4.374,4.374,0,0,1,5.37-.3c.6.4,1.34-.45.737-.857" transform="translate(26.479 11.015)" fill="#223342"/>
                <path id="Trazado_876464" data-name="Trazado 876464" d="M206.568,86.685c-1.169-.408-1.575.869-1.544,2.009v.017c0,.018,0,.035,0,.053a3.4,3.4,0,0,0,.167,1.188,1.116,1.116,0,0,0,1.539.78c.75-.376.823-1.415.793-2.155-.029-.7-.2-1.628-.956-1.893" transform="translate(26.764 11.306)" fill="#223342"/>
                <path id="Trazado_876465" data-name="Trazado 876465" d="M194.823,86.067a1.067,1.067,0,0,0-1.454.63.491.491,0,0,0-.234.372,4.53,4.53,0,0,0,.35,2.768,1.129,1.129,0,0,0,1.724.449c1.081-.846,1.094-3.748-.387-4.218" transform="translate(25.204 11.225)" fill="#223342"/>
                <path id="Trazado_876466" data-name="Trazado 876466" d="M201.854,99.285a2.89,2.89,0,0,1-4.735-.01c-.432-.583-1.365.055-.93.642a4.025,4.025,0,0,0,6.522.105c.444-.574-.412-1.315-.857-.737" transform="translate(25.596 12.929)" fill="#223342"/>
                <path id="Trazado_876467" data-name="Trazado 876467" d="M131.364,110.273c-1.337.457-2.442.514-2.631-1.126-.078-.69-.1-1.392-.147-2.084l-.346-4.859a.566.566,0,0,0-1.127.085q.173,2.43.345,4.86a9.586,9.586,0,0,0,.44,3.4c.745,1.54,2.508,1.244,3.848.786a.566.566,0,0,0-.382-1.065" transform="translate(16.593 13.276)" fill="#e2762d"/>
                <path id="Trazado_876468" data-name="Trazado 876468" d="M135.5,111.827a.519.519,0,0,0-.581-.492l-7.113.657a.514.514,0,0,0-.43.289.485.485,0,0,0-.149.435,4.207,4.207,0,1,0,8.392-.6.51.51,0,0,0-.119-.287" transform="translate(16.608 14.534)" fill="#fff"/>
                <path id="Trazado_876469" data-name="Trazado 876469" d="M137.289,105a2.86,2.86,0,0,0-1.4,3.276,2.616,2.616,0,0,0,1.279,2.08,3.018,3.018,0,0,0,4.541-2.468,3.066,3.066,0,0,0-4.42-2.889" transform="translate(17.727 13.662)" fill="#e2762d"/>
                <path id="Trazado_876470" data-name="Trazado 876470" d="M137.033,97.941a4.7,4.7,0,0,0-6.254-.087c-.549.467.087,1.4.642.93a3.582,3.582,0,0,1,4.875.014c.546.483,1.283-.375.737-.857" transform="translate(17.045 12.624)" fill="#223342"/>
                <path id="Trazado_876471" data-name="Trazado 876471" d="M134.164,99.071a1.091,1.091,0,0,0-1.64.142,1.921,1.921,0,0,0-.28,1.118,2.724,2.724,0,0,0,.179,1.456,1.443,1.443,0,0,0,1.673.979c1.44-.46.938-2.933.069-3.7" transform="translate(17.26 12.893)" fill="#223342"/>
                <path id="Trazado_876472" data-name="Trazado 876472" d="M125.254,100.138a1.4,1.4,0,0,0-1.536-.438.532.532,0,0,0-.8.371c-.185,1.15-.188,4.154,1.671,3.92,1.724-.216,1.487-2.857.667-3.853" transform="translate(16.035 13.005)" fill="#223342"/>
                <path id="Trazado_876473" data-name="Trazado 876473" d="M82.03,99.9a2.885,2.885,0,0,1-4.732.935c-.532-.5-1.268.362-.737.857a4.019,4.019,0,0,0,6.486-1.3c.3-.664-.718-1.16-1.016-.5" transform="translate(9.97 13)" fill="#223342"/>
                <path id="Trazado_876474" data-name="Trazado 876474" d="M182.187,41.957a.519.519,0,0,0-.581-.492l-7.113.657a.514.514,0,0,0-.43.289.485.485,0,0,0-.149.435,4.207,4.207,0,1,0,8.392-.6.51.51,0,0,0-.119-.287" transform="translate(22.702 5.413)" fill="#fff"/>
                <path id="Trazado_876475" data-name="Trazado 876475" d="M205.541,5.48,200.97,2.886c-.635-.36-1.126.659-.5,1.016L205.046,6.5c.634.361,1.125-.659.5-1.016" transform="translate(26.132 0.367)" fill="#f9a138"/>
                <path id="Trazado_876476" data-name="Trazado 876476" d="M205.432,9.142l-9.582,1.5c-.715.112-.635,1.24.085,1.127l9.582-1.5c.715-.112.635-1.24-.085-1.127" transform="translate(25.502 1.192)" fill="#f9a138"/>
                <path id="Trazado_876477" data-name="Trazado 876477" d="M204.613,12.522l-3.494,2c-.631.362.014,1.291.642.93l3.495-2c.631-.362-.014-1.291-.642-.93" transform="translate(26.221 1.624)" fill="#f9a138"/>
                <path id="Trazado_876478" data-name="Trazado 876478" d="M204.946,17.266q-.989,1.07-1.976,2.139c-.5.535.363,1.271.857.737L205.8,18c.5-.536-.363-1.271-.857-.737" transform="translate(26.477 2.23)" fill="#f9a138"/>
                <path id="Trazado_876479" data-name="Trazado 876479" d="M207.609,3.4,206.389.353c-.269-.673-1.335-.3-1.064.382l1.219,3.049c.27.673,1.336.3,1.065-.382" transform="translate(26.798 0)" fill="#f9a138"/>
                <path id="Trazado_876480" data-name="Trazado 876480" d="M109.667,133.767l-11.589.308c-.728.019-.641,1.148.086,1.127l11.588-.307c.728-.019.641-1.146-.085-1.127" transform="translate(12.737 17.462)" fill="#ea7b0c"/>
                <path id="Trazado_876481" data-name="Trazado 876481" d="M107.285,145.215l-9.275-2.233c-.709-.17-.924.941-.217,1.11l9.274,2.233c.71.171.924-.941.218-1.11" transform="translate(12.709 18.663)" fill="#ea7b0c"/>
                <path id="Trazado_876482" data-name="Trazado 876482" d="M155.21,68.993c-.09-.719-1.219-.639-1.127.085l.424,3.358c.092.719,1.219.639,1.127-.085l-.424-3.358" transform="translate(20.114 8.941)" fill="#ea7b0c"/>
                <path id="Trazado_876483" data-name="Trazado 876483" d="M166.289,69.795c-.145-.7-1.274-.626-1.127.085l.566,2.753c.144.7,1.273.627,1.127-.085l-.566-2.753" transform="translate(21.559 9.047)" fill="#ea7b0c"/>
                <path id="Trazado_876484" data-name="Trazado 876484" d="M176.758,67.378c-.1-.716-1.232-.636-1.127.085q.276,1.909.554,3.819c.1.717,1.232.636,1.127-.085q-.276-1.909-.554-3.819" transform="translate(22.926 8.731)" fill="#ea7b0c"/>
                <path id="Trazado_876485" data-name="Trazado 876485" d="M186.569,64.8c-.088-.72-1.216-.639-1.127.085l.487,3.978c.088.72,1.215.639,1.127-.085q-.244-1.989-.487-3.978" transform="translate(24.207 8.394)" fill="#ea7b0c"/>
                <path id="Trazado_876486" data-name="Trazado 876486" d="M196.04,63.064a.566.566,0,0,0-1.127.085q.129,1.6.257,3.205a.566.566,0,0,0,1.128-.085Z" transform="translate(25.444 8.167)" fill="#ea7b0c"/>
                <path id="Trazado_876487" data-name="Trazado 876487" d="M172.033,80.947q-.488-2.22-.976-4.441c-.156-.708-1.219-.321-1.065.382q.488,2.22.976,4.441c.156.708,1.22.321,1.065-.382" transform="translate(22.189 9.938)" fill="#ea7b0c"/>
                <path id="Trazado_876488" data-name="Trazado 876488" d="M167.457,87.6c-.083-.721-1.21-.64-1.127.085q.209,1.831.418,3.663c.083.721,1.211.64,1.127-.085q-.209-1.831-.418-3.663" transform="translate(21.712 11.37)" fill="#ea7b0c"/>
                <path id="Trazado_876489" data-name="Trazado 876489" d="M175.8,83.83c-.093-.719-1.22-.639-1.127.085q.293,2.288.588,4.576c.092.719,1.22.638,1.127-.086q-.293-2.288-.588-4.575" transform="translate(22.801 10.878)" fill="#ea7b0c"/>
                <path id="Trazado_876490" data-name="Trazado 876490" d="M173.217,94.214c-.081-.721-1.21-.64-1.127.085q.249,2.208.5,4.416c.081.721,1.209.64,1.127-.085q-.251-2.208-.5-4.416" transform="translate(22.464 12.233)" fill="#ea7b0c"/>
                <path id="Trazado_876491" data-name="Trazado 876491" d="M178.782,101.356a.566.566,0,0,0-1.127.085q.075,1.6.151,3.2a.566.566,0,0,0,1.127-.085Z" transform="translate(23.191 13.165)" fill="#ea7b0c"/>
                <path id="Trazado_876492" data-name="Trazado 876492" d="M166.644,106.345a.566.566,0,0,0-1.127.085q.153,1.753.3,3.506a.566.566,0,0,0,1.128-.085l-.305-3.506" transform="translate(21.607 13.817)" fill="#ea7b0c"/>
                <path id="Trazado_876493" data-name="Trazado 876493" d="M173.98,113.21q-.382-1.753-.762-3.506c-.154-.708-1.218-.321-1.065.382q.382,1.752.762,3.506c.155.708,1.218.321,1.065-.382" transform="translate(22.471 14.272)" fill="#ea7b0c"/>
                <path id="Trazado_876494" data-name="Trazado 876494" d="M156.993,114.564a.566.566,0,0,0-1.127.085q.146,1.525.294,3.05a.565.565,0,0,0,1.127-.085q-.147-1.526-.294-3.05" transform="translate(20.347 14.89)" fill="#ea7b0c"/>
                <path id="Trazado_876495" data-name="Trazado 876495" d="M191.922,58.47c-.105-.716-1.233-.636-1.127.085q.2,1.375.406,2.752c.105.716,1.233.636,1.127-.085Z" transform="translate(24.906 7.568)" fill="#ea7b0c"/>
                <path id="Trazado_876496" data-name="Trazado 876496" d="M206.376,59.1q-.448-1.6-.9-3.206c-.2-.7-1.259-.318-1.064.382l.9,3.206c.2.7,1.261.317,1.065-.382" transform="translate(26.682 7.248)" fill="#ea7b0c"/>
                <path id="Trazado_876497" data-name="Trazado 876497" d="M215.1,58q-.592-1.608-1.185-3.214a.566.566,0,0,0-1.064.382l1.184,3.214A.566.566,0,0,0,215.1,58" transform="translate(27.782 7.105)" fill="#ea7b0c"/>
                <path id="Trazado_876498" data-name="Trazado 876498" d="M212.889,44.188c-.077-.722-1.205-.64-1.127.085q.187,1.759.375,3.515c.077.722,1.2.64,1.127-.085q-.188-1.757-.375-3.515" transform="translate(27.643 5.703)" fill="#ea7b0c"/>
                <path id="Trazado_876499" data-name="Trazado 876499" d="M219.383,39.736a.566.566,0,0,0-1.127.085l.265,3.509a.565.565,0,0,0,1.127-.085Z" transform="translate(28.491 5.121)" fill="#ea7b0c"/>
                <path id="Trazado_876500" data-name="Trazado 876500" d="M215.712,33.217q-.124,2.208-.246,4.415c-.041.725,1.086.633,1.127-.085l.246-4.415c.041-.725-1.088-.632-1.127.085" transform="translate(28.127 4.26)" fill="#ea7b0c"/>
                <path id="Trazado_876501" data-name="Trazado 876501" d="M120.04,58.038c-4.658,5.471-9.148,11.161-14.009,16.451-2.07,2.253-4.22.773-6.057-.921q-1.7-1.57-3.332-3.213a110.94,110.94,0,0,1-7.766-8.721c-.453-.564-1.387.073-.93.642a113.248,113.248,0,0,0,8.322,9.3c1.777,1.773,4.919,6.094,7.865,5.593a5.082,5.082,0,0,0,2.755-1.943c1.579-1.721,3.039-3.568,4.553-5.346l9.456-11.1a.565.565,0,0,0-.857-.737" transform="translate(11.465 7.551)" fill="#c2efe8"/>
                <path id="Trazado_876502" data-name="Trazado 876502" d="M165.619,169.43a107.1,107.1,0,0,0-11.747-9.94c-.584-.427-1.325.427-.737.857a107.1,107.1,0,0,1,11.747,9.94c.521.51,1.256-.35.737-.857" transform="translate(19.962 20.805)" fill="#8bccbf"/>
                <path id="Trazado_876503" data-name="Trazado 876503" d="M120.844,161.488l-6.533,9.161c-.419.589.434,1.331.857.737q3.268-4.58,6.533-9.161c.421-.589-.434-1.331-.857-.737" transform="translate(14.908 21.053)" fill="#8bccbf"/>
                <path id="Trazado_876504" data-name="Trazado 876504" d="M178.811,162.512a35.814,35.814,0,0,0-14.652-8.9.514.514,0,0,0,.568-.579q-.724-6.551-1.449-13.1c-.08-.721-1.207-.64-1.127.085q.724,6.551,1.449,13.1a.54.54,0,0,0,.219.391A36.161,36.161,0,0,0,157,152.136c-.719-.073-.942,1.036-.218,1.109a34.857,34.857,0,0,1,21.29,10.124c.516.516,1.249-.345.737-.857" transform="translate(20.409 18.202)" fill="#8bccbf"/>
                <path id="Trazado_876505" data-name="Trazado 876505" d="M116.477,153.494l-9.019,8.049c-.536.478.1,1.415.642.93l9.019-8.049c.536-.478-.1-1.415-.642-.93" transform="translate(14.001 20.02)" fill="#8bccbf"/>
                <path id="Trazado_876506" data-name="Trazado 876506" d="M201.781,148.047l-21.042,1.6a.566.566,0,0,0,.086,1.127l21.041-1.6a.565.565,0,0,0-.085-1.127" transform="translate(23.528 19.326)" fill="#0a8979"/>
                <path id="Trazado_876507" data-name="Trazado 876507" d="M202.252,156.974,182.8,163.248c-.693.224-.312,1.289.381,1.065l19.45-6.275c.692-.224.311-1.289-.382-1.065" transform="translate(23.816 20.488)" fill="#0a8979"/>
                <path id="Trazado_876508" data-name="Trazado 876508" d="M215.265,127.334c-.2-.7-1.268-.315-1.065.382q9.12,31.223,15.168,63.219c.133.707,1.262.63,1.127-.085q-6.064-32.112-15.231-63.516" transform="translate(27.959 16.574)" fill="#0a8979"/>
                <path id="Trazado_876509" data-name="Trazado 876509" d="M231.735,124.4c-4.775,6.295-13.4-.958-19.593.522-2.994.716-5.246,2.959-8.075,4.033-3.582,1.358-6.593-.538-9.82-1.855a10.851,10.851,0,0,0-6.416-.819,47.843,47.843,0,0,1-5.072,1.21c-2.319.189-4.514-.613-6.674-1.327-4.212-1.394-9.7-2.553-12.258,2.162-.348.641.67,1.133,1.016.5,3.688-6.781,13.373.649,19.033-.355,1.709-.3,3.329-1.056,5.064-1.233a10.5,10.5,0,0,1,5.185,1.039c2.264.936,4.46,2.237,6.971,2.341a11.074,11.074,0,0,0,6.026-1.966c3.722-2.19,6.662-3.352,11.033-2.281,4.8,1.175,10.793,3.576,14.438-1.228.439-.578-.416-1.318-.857-.737" transform="translate(21.377 16.212)" fill="#0a8979"/>
                <path id="Trazado_876510" data-name="Trazado 876510" d="M201.132,138.829c-6.355,6-17.488-5.021-22.841,3.6-.384.618.635,1.108,1.016.5,3.231-5.2,9.926-1.881,14.5-1.236,3.012.425,5.907.025,8.177-2.118.53-.5-.332-1.232-.857-.737" transform="translate(23.263 18.102)" fill="#0a8979"/>
                <path id="Trazado_876511" data-name="Trazado 876511" d="M230.974,137.282c-4.121-3.232-8.1.934-12.092,2.058-5.62,1.585-10.885-3.933-16.405-.731-.629.365.016,1.294.643.93,4.636-2.69,9.321,1.449,14.093,1.219,4.228-.2,8.97-5.8,13.024-2.618.572.449,1.311-.407.737-.857" transform="translate(26.398 17.764)" fill="#0a8979"/>
                <path id="Trazado_876512" data-name="Trazado 876512" d="M230.559,149.737c-4.457,3.449-8.557,1.68-13.577,1.272a7.917,7.917,0,0,0-6.722,2.2c-.5.527.356,1.262.858.737,3.326-3.48,8.175-1.023,12.2-.78a11.424,11.424,0,0,0,7.886-2.5c.573-.443-.064-1.377-.642-.93" transform="translate(27.428 19.532)" fill="#0a8979"/>
                <path id="Trazado_876513" data-name="Trazado 876513" d="M236.368,163.649c-5.535,2.484-10.941-1-16.488-1.513-4.208-.391-7.542,1.523-10.983,3.67a19.276,19.276,0,0,1-6.613,3.051c-3.048.548-5.965-.52-8.939-1.023-3.337-.564-6.972-.255-9.187,2.579-.448.572.408,1.311.857.737,3.61-4.619,9.849-1.359,14.52-1.021,3.781.275,6.9-1.457,10-3.393a25.46,25.46,0,0,1,5.892-3.068c2.908-.886,5.838-.288,8.7.478,4.207,1.127,8.432,2.448,12.622.568.658-.3.284-1.363-.382-1.065" transform="translate(24.024 21.159)" fill="#0a8979"/>
                <path id="Trazado_876514" data-name="Trazado 876514" d="M242.15,176.272c-5.891-3.353-12.289-3.06-18.244-.079-4.266,2.136-7.64,3.376-12.42,2.13-3.311-.864-6.589-2.269-10.077-2.046-3.167.2-5.9,1.827-8.728,3.1-4.22,1.9-8.127,1.748-12.561.674-5.77-1.4-12.587-3.233-17.142,1.834-.487.542.371,1.279.858.737,5.533-6.157,14.217-1.155,20.918-.579a16.239,16.239,0,0,0,8.309-1.6c3.167-1.426,6.121-3.206,9.722-3.021,6.25.321,11.5,4.246,17.8,1.654,3.312-1.363,6.209-3.438,9.827-3.993a17.287,17.287,0,0,1,11.242,2.207c.634.361,1.125-.658.5-1.016" transform="translate(21.257 22.696)" fill="#0a8979"/>
                <path id="Trazado_876515" data-name="Trazado 876515" d="M65.583,123.795c-2.183,0-1.917,3.381.256,3.381s1.917-3.381-.256-3.381" transform="translate(8.364 16.16)" fill="#ffd15f"/>
                <path id="Trazado_876516" data-name="Trazado 876516" d="M74.033,123.255c-2.183,0-1.917,3.383.256,3.383s1.917-3.383-.256-3.383" transform="translate(9.467 16.09)" fill="#ffd15f"/>
                <path id="Trazado_876517" data-name="Trazado 876517" d="M85.179,124.154c-2.183,0-1.917,3.381.256,3.381s1.917-3.381-.256-3.381" transform="translate(10.922 16.207)" fill="#ffd15f"/>
                <path id="Trazado_876518" data-name="Trazado 876518" d="M98.3,123.615c-2.183,0-1.917,3.383.256,3.383s1.917-3.383-.256-3.383" transform="translate(12.635 16.137)" fill="#ffd15f"/>
                <path id="Trazado_876519" data-name="Trazado 876519" d="M106.752,123.705c-2.183,0-1.917,3.383.256,3.383s1.917-3.383-.256-3.383" transform="translate(13.738 16.149)" fill="#ffd15f"/>
                <path id="Trazado_876520" data-name="Trazado 876520" d="M119.965,123.255c-2.183,0-1.917,3.383.256,3.383s1.917-3.383-.256-3.383" transform="translate(15.463 16.09)" fill="#ffd15f"/>
                <path id="Trazado_876521" data-name="Trazado 876521" d="M102.617,118.312c-2.183,0-1.917,3.381.255,3.381s1.917-3.381-.255-3.381" transform="translate(13.198 15.445)" fill="#ffd15f"/>
                <path id="Trazado_876522" data-name="Trazado 876522" d="M114.572,119.031c-2.183,0-1.917,3.381.256,3.381s1.917-3.381-.256-3.381" transform="translate(14.759 15.539)" fill="#ffd15f"/>
                <path id="Trazado_876523" data-name="Trazado 876523" d="M111.875,129.008c-2.183,0-1.917,3.383.256,3.383s1.917-3.383-.256-3.383" transform="translate(14.407 16.841)" fill="#ffd15f"/>
                <path id="Trazado_876524" data-name="Trazado 876524" d="M100.819,129.458c-2.183,0-1.917,3.383.256,3.383s1.917-3.383-.256-3.383" transform="translate(12.964 16.9)" fill="#ffd15f"/>
                <path id="Trazado_876525" data-name="Trazado 876525" d="M90.482,128.829c-2.183,0-1.917,3.383.256,3.383s1.917-3.383-.256-3.383" transform="translate(11.614 16.818)" fill="#ffd15f"/>
                <path id="Trazado_876526" data-name="Trazado 876526" d="M80.055,129.817c-2.183,0-1.917,3.381.256,3.381s1.917-3.381-.256-3.381" transform="translate(10.253 16.947)" fill="#ffd15f"/>
                <path id="Trazado_876527" data-name="Trazado 876527" d="M72.5,132.963c-2.183,0-1.917,3.383.256,3.383s1.917-3.383-.256-3.383" transform="translate(9.268 17.357)" fill="#ffd15f"/>
                <path id="Trazado_876528" data-name="Trazado 876528" d="M77.269,141.5c-2.183,0-1.917,3.383.256,3.383s1.917-3.383-.256-3.383" transform="translate(9.889 18.472)" fill="#ffd15f"/>
                <path id="Trazado_876529" data-name="Trazado 876529" d="M80.235,135.93c-2.183,0-1.917,3.381.256,3.381s1.917-3.381-.256-3.381" transform="translate(10.277 17.745)" fill="#ffd15f"/>
                <path id="Trazado_876530" data-name="Trazado 876530" d="M80.684,148.424c-2.183,0-1.917,3.381.255,3.381s1.917-3.381-.255-3.381" transform="translate(10.335 19.376)" fill="#ffd15f"/>
                <path id="Trazado_876531" data-name="Trazado 876531" d="M87.426,143.93c-2.183,0-1.917,3.381.256,3.381s1.917-3.381-.256-3.381" transform="translate(11.215 18.789)" fill="#ffd15f"/>
                <path id="Trazado_876532" data-name="Trazado 876532" d="M84.639,153.368c-2.183,0-1.917,3.383.256,3.383s1.917-3.383-.256-3.383" transform="translate(10.852 20.021)" fill="#ffd15f"/>
                <path id="Trazado_876533" data-name="Trazado 876533" d="M92.909,147.615c-2.183,0-1.917,3.383.256,3.383s1.917-3.383-.256-3.383" transform="translate(11.931 19.27)" fill="#ffd15f"/>
                <path id="Trazado_876534" data-name="Trazado 876534" d="M100.37,146.447c-2.183,0-1.917,3.381.256,3.381s1.917-3.381-.256-3.381" transform="translate(12.905 19.118)" fill="#ffd15f"/>
                <path id="Trazado_876535" data-name="Trazado 876535" d="M96.325,153.278c-2.183,0-1.917,3.381.256,3.381s1.917-3.381-.256-3.381" transform="translate(12.377 20.009)" fill="#ffd15f"/>
                <path id="Trazado_876536" data-name="Trazado 876536" d="M56.055,177.637c-2.183,0-1.917,3.383.256,3.383s1.917-3.383-.256-3.383" transform="translate(7.12 23.189)" fill="#ffd15f"/>
                <path id="Trazado_876537" data-name="Trazado 876537" d="M60.639,169.278c-2.183,0-1.917,3.381.256,3.381s1.917-3.381-.256-3.381" transform="translate(7.719 22.098)" fill="#ffd15f"/>
                <path id="Trazado_876538" data-name="Trazado 876538" d="M69.673,164.963c-2.183,0-1.917,3.383.256,3.383s1.917-3.383-.256-3.383" transform="translate(8.898 21.535)" fill="#ffd15f"/>
                <path id="Trazado_876539" data-name="Trazado 876539" d="M69.673,173.053c-2.183,0-1.917,3.381.256,3.381s1.917-3.381-.256-3.381" transform="translate(8.898 22.591)" fill="#ffd15f"/>
                <path id="Trazado_876540" data-name="Trazado 876540" d="M64.549,179.39c-2.183,0-1.917,3.383.256,3.383s1.917-3.383-.256-3.383" transform="translate(8.229 23.418)" fill="#ffd15f"/>
                <path id="Trazado_876541" data-name="Trazado 876541" d="M79.246,178.447c-2.183,0-1.917,3.381.256,3.381s1.917-3.381-.256-3.381" transform="translate(10.148 23.295)" fill="#ffd15f"/>
                <path id="Trazado_876542" data-name="Trazado 876542" d="M79.381,167.93c-2.183,0-1.917,3.381.255,3.381s1.917-3.381-.255-3.381" transform="translate(10.165 21.922)" fill="#ffd15f"/>
                <path id="Trazado_876543" data-name="Trazado 876543" d="M91.381,165.233c-2.183,0-1.917,3.383.256,3.383s1.917-3.383-.256-3.383" transform="translate(11.732 21.57)" fill="#ffd15f"/>
                <path id="Trazado_876544" data-name="Trazado 876544" d="M86.257,173.323c-2.183,0-1.917,3.381.255,3.381s1.917-3.381-.255-3.381" transform="translate(11.063 22.626)" fill="#ffd15f"/>
                <path id="Trazado_876545" data-name="Trazado 876545" d="M94.752,178.447c-2.183,0-1.917,3.381.256,3.381s1.917-3.381-.256-3.381" transform="translate(12.172 23.295)" fill="#ffd15f"/>
                <path id="Trazado_876546" data-name="Trazado 876546" d="M97.988,169.952c-2.183,0-1.917,3.383.256,3.383s1.917-3.383-.256-3.383" transform="translate(12.594 22.186)" fill="#ffd15f"/>
                <path id="Trazado_876547" data-name="Trazado 876547" d="M101.224,179.525c-2.183,0-1.917,3.383.256,3.383s1.917-3.383-.256-3.383" transform="translate(13.017 23.436)" fill="#ffd15f"/>
                <path id="Trazado_876548" data-name="Trazado 876548" d="M111.741,177.637c-2.183,0-1.917,3.383.256,3.383s1.917-3.383-.256-3.383" transform="translate(14.39 23.189)" fill="#ffd15f"/>
              </g>
            </g>
            <g id="Grupo_1102348" data-name="Grupo 1102348" transform="translate(262.904 73.73)">
              <rect id="Rectángulo_401758" data-name="Rectángulo 401758" width="65.205" height="96.12" rx="10" transform="translate(0)" fill="#6cc6b7"/>
              <g id="Grupo_1102347" data-name="Grupo 1102347" transform="translate(12.013 9.646)">
                <ellipse id="Elipse_11634" data-name="Elipse 11634" cx="15.844" cy="15.189" rx="15.844" ry="15.189" transform="translate(4.786)" fill="#fff"/>
                <rect id="Rectángulo_401759" data-name="Rectángulo 401759" width="16.212" height="2.95" transform="translate(9.095 35.624)" fill="#f5a2aa"/>
                <rect id="Rectángulo_401760" data-name="Rectángulo 401760" width="39.541" height="2.95" rx="1.475" transform="translate(0 43.49)" fill="#c6e7ea"/>
                <rect id="Rectángulo_401761" data-name="Rectángulo 401761" width="39.738" height="3.736" rx="1.868" transform="translate(0.001 49.39)" fill="#c6e7ea"/>
                <rect id="Rectángulo_401762" data-name="Rectángulo 401762" width="29.655" height="2.95" rx="1.475" transform="translate(10.479 56.272)" fill="#c6e7ea"/>
                <rect id="Rectángulo_401763" data-name="Rectángulo 401763" width="39.738" height="3.146" rx="1.573" transform="translate(0.198 61.975)" fill="#c6e7ea"/>
                <path id="Trazado_876549" data-name="Trazado 876549" d="M2665.621,534.387s.419,2.609,5.927,3.392l.052,1.409s-1.1,5.061-2.938,5.74c0,0-.263,8.036,3.988,7.409,0,0,3.672-.887,5.455-2.765s1.416-3.5.787-3.861-4.2-4.122-4.617-6.261-1-7.618-6.61-6.731l-.472.052a3.635,3.635,0,0,0-3.672.47c-2.15,1.357-2.833,5.636-2.833,5.844a7.809,7.809,0,0,1-1.625,3.34c-.944.835-3.358,3.392-3.568,4.435s1.05,3.444,2.99,3.913,7.24.157,7.5-1.826-2.938-8.088-2.938-8.088l-.052-2.139s2.675-2.817,2.623-4.331Z" transform="translate(-2646.204 -528.275)" fill="#6cc6b7"/>
              </g>
            </g>
          </g>
        </g>
      </g>
    </g>
  </g>
</svg>
