<svg xmlns="http://www.w3.org/2000/svg" width="90" height="83" viewBox="0 0 90 83">
  <g id="_21" data-name="21" transform="translate(-334.621 -1399.423)">
    <g id="Rectángulo_401341" data-name="Rectángulo 401341" transform="translate(334.621 1399.423)" fill="#f4eefe" stroke="#fff" stroke-width="3">
      <rect width="90" height="83" rx="12" stroke="none"/>
      <rect x="1.5" y="1.5" width="87" height="80" rx="10.5" fill="none"/>
    </g>
    <g id="job-description_3896637" transform="translate(350.04 1411.419)">
      <g id="Grupo_1101758" data-name="Grupo 1101758" transform="translate(0.954 0.954)">
        <g id="Grupo_1101734" data-name="Grupo 1101734" transform="translate(15.268 1.908)">
          <path id="Trazado_875847" data-name="Trazado 875847" d="M32.268,4.908V8.725H17V3.954A.957.957,0,0,1,17.954,3H31.313a.957.957,0,0,1,.954.954Z" transform="translate(-17 -3)" fill="#ffeaa7"/>
        </g>
        <g id="Grupo_1101735" data-name="Grupo 1101735" transform="translate(21.451 51.528)">
          <path id="Trazado_875848" data-name="Trazado 875848" d="M42.107,55v3.817H23.48A14.384,14.384,0,0,0,27.793,55Z" transform="translate(-23.48 -55)" fill="#aab2bd"/>
        </g>
        <g id="Grupo_1101736" data-name="Grupo 1101736" transform="translate(36.261 15.411)">
          <path id="Trazado_875849" data-name="Trazado 875849" d="M41.968,18.648a1.58,1.58,0,0,1,1.737-.315.033.033,0,0,1,.019.01,1.581,1.581,0,0,1,1,1.441v11.46a1.033,1.033,0,0,1-2.052.172L42.4,29.736A3.82,3.82,0,0,0,39,26.568V17.15l2.233,2.233Z" transform="translate(-39 -17.15)" fill="#b27946"/>
        </g>
        <g id="Grupo_1101737" data-name="Grupo 1101737" transform="translate(25.764 32.301)">
          <path id="Trazado_875850" data-name="Trazado 875850" d="M42.313,44.535v9.542H28a14.4,14.4,0,0,0,2.042-3.817H38.5V34.85c.191.811.344,1.632.468,2.462a13.355,13.355,0,0,0,2.548,6.155Z" transform="translate(-28 -34.85)" fill="#b27946"/>
        </g>
        <g id="Grupo_1101738" data-name="Grupo 1101738" transform="translate(30.535 3.817)">
          <path id="Trazado_875851" data-name="Trazado 875851" d="M38.993,6.059A1.58,1.58,0,0,1,39.307,7.8a.033.033,0,0,1-.01.019,1.581,1.581,0,0,1-1.441,1H33V5h5.582l-.324.324Z" transform="translate(-33 -5)" fill="#b27946"/>
        </g>
        <g id="Grupo_1101739" data-name="Grupo 1101739" transform="translate(3.817 3.817)">
          <path id="Trazado_875852" data-name="Trazado 875852" d="M5,34.39V5.954A.957.957,0,0,1,5.954,5h10.5V8.817H8.817V31.461A14.322,14.322,0,0,0,5.01,34.4Z" transform="translate(-5 -5)" fill="#b27946"/>
        </g>
        <g id="Grupo_1101740" data-name="Grupo 1101740" transform="translate(7.634 7.634)">
          <path id="Trazado_875853" data-name="Trazado 875853" d="M9,31.644V9H35.718v3.817h1.04a1.581,1.581,0,0,1,1.441,1,.033.033,0,0,1,.01.019,1.58,1.58,0,0,1-.315,1.737l-.735.735.468.468V26.2c-.115-.01-.239-.019-.363-.019a1.539,1.539,0,0,0-1.546,1.546v.057a1.591,1.591,0,0,0,.115.592l.563,1.412a27.414,27.414,0,0,1,1.231,3.884V49.078H29.172a14.16,14.16,0,0,0,.821-4.771A14.318,14.318,0,0,0,9,31.644Zm22.9.258V28.085H28.085V31.9Zm0-15.268V12.817H12.817v3.817H31.9Z" transform="translate(-9 -9)" fill="#e6e9ed"/>
        </g>
        <g id="Grupo_1101741" data-name="Grupo 1101741" transform="translate(26.718 26.718)">
          <path id="Trazado_875854" data-name="Trazado 875854" d="M29,29h3.817v3.817H29Z" transform="translate(-29 -29)" fill="#b4dd7f"/>
        </g>
        <g id="Grupo_1101742" data-name="Grupo 1101742" transform="translate(0 28.627)">
          <path id="Trazado_875855" data-name="Trazado 875855" d="M17.193,50.161a5.862,5.862,0,0,0-.926-.076,3.816,3.816,0,0,0,3.817-3.817h1.908A1.922,1.922,0,0,0,23.9,44.359a1.934,1.934,0,0,0-.763-1.527l.515-1.536a5.006,5.006,0,0,0,.248-1.555,4.924,4.924,0,0,0-4.924-4.924H11.649a4.919,4.919,0,0,0-4.924,4.924A5.006,5.006,0,0,0,6.973,41.3l.515,1.536a1.934,1.934,0,0,0-.763,1.527,1.922,1.922,0,0,0,1.908,1.908h1.908a3.816,3.816,0,0,0,3.817,3.817,5.862,5.862,0,0,0-.926.076,5.727,5.727,0,0,0-4.8,5.649v2.166A14.315,14.315,0,1,1,29.627,45.313a14.16,14.16,0,0,1-.821,4.771,14.284,14.284,0,0,1-6.355,7.634h-.458V55.81a5.727,5.727,0,0,0-4.8-5.649Z" transform="translate(-1 -31)" fill="#ffeaa7"/>
        </g>
        <g id="Grupo_1101743" data-name="Grupo 1101743" transform="translate(15.268 47.788)">
          <path id="Trazado_875856" data-name="Trazado 875856" d="M22.725,58.637V58.9a14.217,14.217,0,0,1-3.893,1.384L17,54.821l.926-3.741a5.727,5.727,0,0,1,4.8,5.649Z" transform="translate(-17 -51.08)" fill="#b4dd7f"/>
        </g>
        <g id="Grupo_1101744" data-name="Grupo 1101744" transform="translate(7.634 47.788)">
          <path id="Trazado_875857" data-name="Trazado 875857" d="M13.8,51.08l.926,3.741-1.832,5.458A14.217,14.217,0,0,1,9,58.9V56.729A5.727,5.727,0,0,1,13.8,51.08Z" transform="translate(-9 -51.08)" fill="#b4dd7f"/>
        </g>
        <g id="Grupo_1101745" data-name="Grupo 1101745" transform="translate(11.527 51.528)">
          <path id="Trazado_875858" data-name="Trazado 875858" d="M16.821,55l1.832,5.458a14.663,14.663,0,0,1-5.573,0L14.912,55Z" transform="translate(-13.08 -55)" fill="#ef7385"/>
        </g>
        <g id="Grupo_1101746" data-name="Grupo 1101746" transform="translate(12.434 47.711)">
          <path id="Trazado_875859" data-name="Trazado 875859" d="M16.864,51a5.861,5.861,0,0,1,.926.076l-.926,3.741H14.956l-.926-3.741A5.861,5.861,0,0,1,14.956,51Z" transform="translate(-14.03 -51)" fill="#ef7385"/>
        </g>
        <g id="Grupo_1101747" data-name="Grupo 1101747" transform="translate(19.085 40.078)">
          <path id="Trazado_875860" data-name="Trazado 875860" d="M24.054,43.382a1.934,1.934,0,0,1,.763,1.527,1.922,1.922,0,0,1-1.908,1.908H21V43h1.908A1.92,1.92,0,0,1,24.054,43.382Z" transform="translate(-21 -43)" fill="#f5e0cd"/>
        </g>
        <g id="Grupo_1101748" data-name="Grupo 1101748" transform="translate(5.725 40.078)">
          <path id="Trazado_875861" data-name="Trazado 875861" d="M10.817,43v3.817H8.908A1.922,1.922,0,0,1,7,44.908,1.908,1.908,0,0,1,8.908,43Z" transform="translate(-7 -43)" fill="#f5e0cd"/>
        </g>
        <g id="Grupo_1101749" data-name="Grupo 1101749" transform="translate(9.542 38.169)">
          <path id="Trazado_875862" data-name="Trazado 875862" d="M20.542,42.908v3.817a3.816,3.816,0,0,1-3.817,3.817H14.817A3.816,3.816,0,0,1,11,46.725V42.908A1.914,1.914,0,0,1,12.908,41h5.725A1.914,1.914,0,0,1,20.542,42.908Z" transform="translate(-11 -41)" fill="#f5e0cd"/>
        </g>
        <g id="Grupo_1101750" data-name="Grupo 1101750" transform="translate(5.725 32.444)">
          <path id="Trazado_875863" data-name="Trazado 875863" d="M11.924,35h7.328a4.924,4.924,0,0,1,4.924,4.924,5.006,5.006,0,0,1-.248,1.555l-.515,1.536a1.92,1.92,0,0,0-1.145-.382H20.359a1.914,1.914,0,0,0-1.908-1.908H12.725a1.914,1.914,0,0,0-1.908,1.908H8.908a1.92,1.92,0,0,0-1.145.382l-.515-1.536A5.006,5.006,0,0,1,7,39.924,4.919,4.919,0,0,1,11.924,35Z" transform="translate(-7 -35)" fill="#b27946"/>
        </g>
        <g id="Grupo_1101751" data-name="Grupo 1101751" transform="translate(19.085 11.451)">
          <path id="Trazado_875864" data-name="Trazado 875864" d="M21,13h3.817v3.817H21Z" transform="translate(-21 -13)" fill="#ef7385"/>
        </g>
        <g id="Grupo_1101752" data-name="Grupo 1101752" transform="translate(26.718 11.451)">
          <path id="Trazado_875865" data-name="Trazado 875865" d="M29,13h3.817v3.817H29Z" transform="translate(-29 -13)" fill="#ef7385"/>
        </g>
        <g id="Grupo_1101753" data-name="Grupo 1101753" transform="translate(15.268 11.451)">
          <path id="Trazado_875866" data-name="Trazado 875866" d="M17,13h3.817v3.817H17Z" transform="translate(-17 -13)" fill="#ef7385"/>
        </g>
        <g id="Grupo_1101754" data-name="Grupo 1101754" transform="translate(22.901 11.451)">
          <path id="Trazado_875867" data-name="Trazado 875867" d="M25,13h3.817v3.817H25Z" transform="translate(-25 -13)" fill="#ef7385"/>
        </g>
        <g id="Grupo_1101755" data-name="Grupo 1101755" transform="translate(11.451 11.451)">
          <path id="Trazado_875868" data-name="Trazado 875868" d="M13,13h3.817v3.817H13Z" transform="translate(-13 -13)" fill="#ef7385"/>
        </g>
        <g id="Grupo_1101756" data-name="Grupo 1101756" transform="translate(34.352)">
          <path id="Trazado_875869" data-name="Trazado 875869" d="M43.613,17.594a1.58,1.58,0,0,0-1.737.315l-.735.735-2.233-2.233-.468-.468.735-.735a1.58,1.58,0,0,0,.315-1.737.033.033,0,0,0-.01-.019,1.581,1.581,0,0,0-1.441-1H37V8.634h1.04a1.581,1.581,0,0,0,1.441-1,.033.033,0,0,0,.01-.019,1.58,1.58,0,0,0-.315-1.737l-.735-.735.324-.324,2.376-2.376.735.735a1.58,1.58,0,0,0,1.737.315.033.033,0,0,0,.019-.01,1.581,1.581,0,0,0,1-1.441V1h3.817V2.04a1.581,1.581,0,0,0,1,1.441.033.033,0,0,0,.019.01,1.58,1.58,0,0,0,1.737-.315l.735-.735,2.7,2.7-.735.735a1.58,1.58,0,0,0-.315,1.737.033.033,0,0,0,.01.019,1.581,1.581,0,0,0,1.441,1h1.04v3.817h-1.04a1.581,1.581,0,0,0-1.441,1,.033.033,0,0,0-.01.019,1.58,1.58,0,0,0,.315,1.737l.735.735-2.7,2.7-.735-.735a1.58,1.58,0,0,0-1.737-.315.033.033,0,0,0-.019.01,1.581,1.581,0,0,0-1,1.441V16.268a1.922,1.922,0,0,0-1.908-1.908,3.817,3.817,0,1,0-3.817-3.817,3.816,3.816,0,0,0,3.817,3.817,1.914,1.914,0,0,0-1.908,1.908v2.777a1.581,1.581,0,0,0-1-1.441.033.033,0,0,0-.019-.01Z" transform="translate(-37 -1)" fill="#fcd770"/>
        </g>
        <g id="Grupo_1101757" data-name="Grupo 1101757" transform="translate(34.352 13.359)">
          <path id="Trazado_875870" data-name="Trazado 875870" d="M56.085,28.359a1.914,1.914,0,0,1,1.908-1.908A1.922,1.922,0,0,1,59.9,28.359v8.96a11.4,11.4,0,0,1-1.908,6.307H42.725l-.8-1.069A13.355,13.355,0,0,1,39.376,36.4c-.124-.83-.277-1.651-.468-2.462a27.413,27.413,0,0,0-1.231-3.884l-.563-1.412A1.591,1.591,0,0,1,37,28.054V28a1.539,1.539,0,0,1,1.546-1.546c.124,0,.248.01.363.019a3.82,3.82,0,0,1,3.4,3.168l.277,1.679a1.033,1.033,0,0,0,2.052-.172V16.908A1.914,1.914,0,0,1,46.542,15a1.922,1.922,0,0,1,1.908,1.908v7.634a1.914,1.914,0,0,1,1.908-1.908,1.922,1.922,0,0,1,1.908,1.908v1.908a1.914,1.914,0,0,1,1.908-1.908,1.922,1.922,0,0,1,1.908,1.908Z" transform="translate(-37 -15)" fill="#f5e0cd"/>
        </g>
      </g>
      <g id="Grupo_1101759" data-name="Grupo 1101759" transform="translate(0 0)">
        <path id="Trazado_875871" data-name="Trazado 875871" d="M59.162,27.673a2.853,2.853,0,0,0-3.928-2.653,2.838,2.838,0,0,0-3.817-1.908,2.815,2.815,0,0,0-3.706-1.943V19a.63.63,0,0,1,.432-.571.621.621,0,0,1,.694.1l1.412,1.412L54.3,15.9l-1.413-1.412a.637.637,0,0,1-.1-.716.626.626,0,0,1,.561-.41h1.993V7.634H53.352a.638.638,0,0,1-.571-.432.624.624,0,0,1,.1-.693L54.3,5.1,50.25,1.045,48.837,2.458a.635.635,0,0,1-.716.1.62.62,0,0,1-.41-.562V0H41.986V1.992a.63.63,0,0,1-.432.571.626.626,0,0,1-.694-.1L39.448,1.046,36.676,3.817H32.444a1.91,1.91,0,0,0-1.908-1.908H17.176a1.91,1.91,0,0,0-1.908,1.908H5.725A1.91,1.91,0,0,0,3.817,5.725v28.1a15.249,15.249,0,1,0,23.35,19.607H40.078v1.908H30.535v1.908h9.542v1.908H57.254V43.208a12.272,12.272,0,0,0,1.908-6.572Zm-24.628.64.566,1.415a26.532,26.532,0,0,1,1.16,3.687v14.3H30.032a15.239,15.239,0,0,0-20.49-17.96V9.542h24.81v3.817h1.993a.638.638,0,0,1,.571.432.626.626,0,0,1-.1.693L35.4,15.9l.862.863v8.128a2.522,2.522,0,0,0-1.908,2.476,2.552,2.552,0,0,0,.182.949Zm3.635-9.644,1.279,1.279,1.412-1.412a.637.637,0,0,1,.716-.1.618.618,0,0,1,.41.561V30.456c0,.08-.142.1-.156.012l-.281-1.678a4.732,4.732,0,0,0-3.38-3.779ZM41.986,10.5a2.863,2.863,0,1,1,2.863,2.863A2.866,2.866,0,0,1,41.986,10.5ZM38.161,5.159,38.1,5.1l1.351-1.351.063.064a2.536,2.536,0,0,0,2.794.509,2.524,2.524,0,0,0,1.59-2.324V1.908H45.8v.084A2.532,2.532,0,0,0,47.41,4.325a2.533,2.533,0,0,0,2.777-.517l.063-.063L51.6,5.1l-.064.064a2.535,2.535,0,0,0-.509,2.793,2.524,2.524,0,0,0,2.324,1.59h.085v1.908h-.085a2.6,2.6,0,0,0-1.815,4.384l.064.063L50.25,17.249l-.063-.064a2.512,2.512,0,0,0-2.475-.616v-.346a2.844,2.844,0,0,0-.5-1.608,4.771,4.771,0,1,0-4.733,0,2.844,2.844,0,0,0-.5,1.608v.345a2.511,2.511,0,0,0-2.475.618l-.063.063L38.1,15.9l.064-.064a2.6,2.6,0,0,0-1.815-4.383h-.085V9.542h.085a2.53,2.53,0,0,0,2.331-1.608,2.53,2.53,0,0,0-.516-2.776Zm-2.133.567.783.782a.637.637,0,0,1,.1.716.626.626,0,0,1-.561.41h-3.9V5.725ZM30.535,3.817V7.634H17.176V3.817ZM15.268,5.725V7.634H7.634V30.693A15.367,15.367,0,0,0,5.725,32V5.725ZM11.451,44.849V41.032a.955.955,0,0,1,.954-.954H18.13a.955.955,0,0,1,.954.954v3.817a2.866,2.866,0,0,1-2.863,2.863H14.313A2.866,2.866,0,0,1,11.451,44.849Zm-1.908-.954H8.588a.954.954,0,0,1,0-1.908h.954Zm.176-3.817H8.588a2.838,2.838,0,0,0-.566.057l-.184-.553a3.972,3.972,0,0,1,3.767-5.229H18.93A3.973,3.973,0,0,1,22.7,39.579l-.185.554a2.911,2.911,0,0,0-.566-.056h-1.13a2.859,2.859,0,0,0-2.687-1.908H15.268a1.91,1.91,0,0,1-1.908-1.908H11.451A3.78,3.78,0,0,0,12,38.209,2.856,2.856,0,0,0,9.718,40.078Zm11.275,1.908h.954a.954.954,0,0,1,0,1.908h-.954Zm0,13.96a13.3,13.3,0,0,1-2.316.85l-1.462-4.354.626-2.52a4.763,4.763,0,0,1,3.152,4.469ZM15.06,51.528l-.474-1.908h1.364l-.474,1.908Zm-1.74.914L11.858,56.8a13.22,13.22,0,0,1-2.316-.85V54.391a4.763,4.763,0,0,1,3.152-4.469Zm.429,4.719L15,53.437h.535l1.25,3.724a12.49,12.49,0,0,1-3.035,0ZM22.9,54.842v-.451A6.682,6.682,0,0,0,19.3,48.467,4.758,4.758,0,0,0,20.9,45.8h1.051A2.866,2.866,0,0,0,24.81,42.94a2.834,2.834,0,0,0-.631-1.77l.329-.988a5.88,5.88,0,0,0-5.578-7.739H11.605a5.881,5.881,0,0,0-5.578,7.74l.329.986A2.847,2.847,0,0,0,8.588,45.8H9.639a4.751,4.751,0,0,0,1.6,2.664,6.682,6.682,0,0,0-3.606,5.924v.451a13.359,13.359,0,1,1,15.268,0Zm5.568-3.314a15.273,15.273,0,0,0,.942-1.908h8.758V40.35a14.464,14.464,0,0,0,1.3,2.1l.608.81v8.27Zm26.876,5.725H41.986V43.894H55.345Zm1.908-20.616a10.368,10.368,0,0,1-1.487,5.348H41.509L41,41.3a12.49,12.49,0,0,1-2.368-5.721,28.622,28.622,0,0,0-1.755-6.563L36.307,27.6a.752.752,0,0,1-.047-.3.59.59,0,0,1,.59-.59A2.845,2.845,0,0,1,39.666,29.1l.281,1.678a1.987,1.987,0,0,0,3.948-.326V16.222a.954.954,0,1,1,1.908,0V30.535h1.908v-6.68a.954.954,0,1,1,1.908,0v6.68h1.908V25.764a.954.954,0,0,1,1.908,0v4.771h1.908V27.673a.954.954,0,1,1,1.908,0Z" transform="translate(0 0)"/>
        <path id="Trazado_875872" data-name="Trazado 875872" d="M12,17.725H32.993V12H12Zm11.451-1.908H21.542V13.908h1.908Zm1.908-1.908h1.908v1.908H25.359Zm-5.725,1.908H17.725V13.908h1.908Zm11.451,0H29.176V13.908h1.908ZM13.908,13.908h1.908v1.908H13.908Z" transform="translate(-0.549 -0.549)"/>
        <path id="Trazado_875873" data-name="Trazado 875873" d="M12,20h3.817v1.908H12Z" transform="translate(-0.549 -0.915)"/>
        <path id="Trazado_875874" data-name="Trazado 875874" d="M18,20H33.268v1.908H18Z" transform="translate(-0.824 -0.915)"/>
        <path id="Trazado_875875" data-name="Trazado 875875" d="M12,24H27.268v1.908H12Z" transform="translate(-0.549 -1.099)"/>
        <path id="Trazado_875876" data-name="Trazado 875876" d="M28,33.725h5.725V28H28Zm1.908-3.817h1.908v1.908H29.908Z" transform="translate(-1.282 -1.282)"/>
      </g>
    </g>
  </g>
</svg>
