<svg xmlns="http://www.w3.org/2000/svg" width="90" height="83" viewBox="0 0 90 83">
  <g id="_22" data-name="22" transform="translate(-334.621 -1399.423)">
    <g id="Rectángulo_401341" data-name="Rectángulo 401341" transform="translate(334.621 1399.423)" fill="#f4eefe" stroke="#fff" stroke-width="3">
      <rect width="90" height="83" rx="12" stroke="none"/>
      <rect x="1.5" y="1.5" width="87" height="80" rx="10.5" fill="none"/>
    </g>
    <g id="Filled_outline" data-name="Filled outline" transform="translate(333.062 1394.363)">
      <path id="Trazado_875877" data-name="Trazado 875877" d="M176,112v23.429h10.186v-4.075h3.056A3.056,3.056,0,0,0,192.3,128.3v-6.112h4.075L192.3,112Z" transform="translate(-139.627 -83.776)" fill="#fec9a3"/>
      <path id="Trazado_875878" data-name="Trazado 875878" d="M195.354,74.037a3.056,3.056,0,0,1-3.056,3.056h-8.149l-2.037,3.056h-.984a2.653,2.653,0,0,0-1.186,5.026l.133.067L176,88.3V77.093A5.093,5.093,0,0,1,181.093,72h14.261Z" transform="translate(-139.627 -48.869)" fill="#78462f"/>
      <path id="Trazado_875879" data-name="Trazado 875879" d="M138.634,313.317v7.13h-8.149a4.075,4.075,0,0,1-4.075-4.075v5.093H104V302.112A6.112,6.112,0,0,1,110.112,296h16.3a6.1,6.1,0,0,1,6.112,6.112v11.205Z" transform="translate(-76.795 -244.347)" fill="#4d5e78"/>
      <path id="Trazado_875880" data-name="Trazado 875880" d="M138.634,341.181v7.131h-8.149a4.075,4.075,0,0,1-4.075-4.075v5.093H104V345.2a62.393,62.393,0,0,0,28.172-17.27,6.112,6.112,0,0,1,.35,2.046v11.205Z" transform="translate(-76.795 -272.211)" fill="#485870"/>
      <path id="Trazado_875881" data-name="Trazado 875881" d="M386.186,411.205H376v-7.131L379.056,400h3.056l-1.019,4.075h5.093a1.019,1.019,0,0,1,1.019,1.019v5.093A1.019,1.019,0,0,1,386.186,411.205Z" transform="translate(-314.161 -335.105)" fill="#fec9a3"/>
      <path id="Trazado_875882" data-name="Trazado 875882" d="M180.224,296l-6.112,15.28L168,296Z" transform="translate(-132.646 -244.347)" fill="#e0e0de"/>
      <path id="Trazado_875883" data-name="Trazado 875883" d="M204.075,296v10.186l-2.037,5.093L200,306.186V296Z" transform="translate(-160.571 -244.347)" fill="#374357"/>
      <path id="Trazado_875884" data-name="Trazado 875884" d="M50.485,36.221a4.347,4.347,0,0,0-2.914-4.171A4.543,4.543,0,0,0,48,30.109a4.257,4.257,0,0,0-4.138-4.366,3.954,3.954,0,0,0-2.07.586,5.607,5.607,0,0,0-9.1,0,3.954,3.954,0,0,0-2.07-.586,4.257,4.257,0,0,0-4.138,4.366,4.543,4.543,0,0,0,.431,1.941,4.443,4.443,0,0,0,0,8.343,4.543,4.543,0,0,0-.431,1.941A4.257,4.257,0,0,0,30.621,46.7a3.954,3.954,0,0,0,2.07-.586,5.607,5.607,0,0,0,9.1,0,3.954,3.954,0,0,0,2.07.586A4.257,4.257,0,0,0,48,42.333a4.543,4.543,0,0,0-.431-1.941A4.346,4.346,0,0,0,50.485,36.221Z" transform="translate(-6.981 -6.978)" fill="#ffb531"/>
      <path id="Trazado_875885" data-name="Trazado 875885" d="M104.149,68.064A4.075,4.075,0,1,0,97.1,70.848a3.365,3.365,0,0,1,.936,2.3v.012h4.075v-.013a3.325,3.325,0,0,1,.924-2.283A4.058,4.058,0,0,0,104.149,68.064Z" transform="translate(-69.813 -41.877)" fill="#fee97e"/>
      <path id="Trazado_875886" data-name="Trazado 875886" d="M112,136h4.075v4.075H112Z" transform="translate(-83.776 -104.72)" fill="#92563a"/>
      <path id="Trazado_875887" data-name="Trazado 875887" d="M362.336,227.205v-4.075H360a7.089,7.089,0,0,0-.56-1.355l1.65-1.65-2.881-2.881-1.65,1.65a7.091,7.091,0,0,0-1.355-.56V216h-4.075v2.334a7.09,7.09,0,0,0-1.355.56l-1.65-1.65-2.881,2.881,1.65,1.65a7.086,7.086,0,0,0-.56,1.355H344V227.2h2.334a7.088,7.088,0,0,0,.56,1.355l-1.65,1.65,2.881,2.881,1.65-1.65a7.088,7.088,0,0,0,1.355.56v2.334H355.2V232a7.089,7.089,0,0,0,1.355-.56l1.65,1.65,2.881-2.881-1.65-1.65a7.09,7.09,0,0,0,.56-1.355Zm-9.168,1.019a3.056,3.056,0,1,1,3.056-3.056A3.056,3.056,0,0,1,353.168,228.224Z" transform="translate(-286.236 -174.534)" fill="#f35244"/>
      <path id="Trazado_875888" data-name="Trazado 875888" d="M141.839,109.839h-3.789l.7-2.809a1.019,1.019,0,0,0-.988-1.266h-3.056a1.019,1.019,0,0,0-.815.407l-2.75,3.667h-4.584V99.653a7.139,7.139,0,0,0-7.131-7.131h-2.037V90.485h2.037A4.079,4.079,0,0,0,123.5,86.41V81.317h3.056a1.019,1.019,0,0,0,.946-1.4l-3.616-9.039a4.081,4.081,0,0,0,2.67-3.825V65.019A1.019,1.019,0,0,0,125.541,64H114.336v2.037h10.186v1.019a2.04,2.04,0,0,1-2.037,2.037h-6.112v2.037H121.8l3.26,8.149h-2.57a1.019,1.019,0,0,0-1.019,1.019V86.41a2.04,2.04,0,0,1-2.037,2.037h-3.056a1.019,1.019,0,0,0-1.019,1.019v3.056h-8.149V84.373h-2.037v8.149h-2.037A7.139,7.139,0,0,0,96,99.653v19.354h2.037V99.653a5.1,5.1,0,0,1,5.093-5.093h1.348l3.818,9.546,2.037,5.093a1.019,1.019,0,0,0,1.892,0l2.037-5.093,3.818-9.546h1.348a5.1,5.1,0,0,1,5.093,5.093v11.205a1.019,1.019,0,0,0,1.019,1.019h5.093v5.093H123.5a3.059,3.059,0,0,1-3.056-3.056V103.727H118.41v2.037h-3.056V107.8h3.056v11.205h2.037v-1.021a5.068,5.068,0,0,0,3.056,1.021h18.336a2.04,2.04,0,0,0,2.037-2.037v-5.093a2.04,2.04,0,0,0-2.037-2.037Zm-33.615-15.28v3.878l-1.551-3.878Zm2.037,8.972V94.559H112.3v8.972l-1.019,2.547Zm4.075-5.093V94.559h1.551Zm27.5,18.532h-9.168V111.2l2.547-3.4h1.242l-.7,2.809a1.019,1.019,0,0,0,.988,1.266h5.093v5.093Z" transform="translate(-69.814 -41.888)"/>
      <path id="Trazado_875889" data-name="Trazado 875889" d="M144,376h2.037v15.28H144Z" transform="translate(-111.702 -314.161)"/>
      <path id="Trazado_875890" data-name="Trazado 875890" d="M208,440h2.037v2.037H208Z" transform="translate(-167.553 -370.011)"/>
      <path id="Trazado_875891" data-name="Trazado 875891" d="M35.076,40.4a4.965,4.965,0,0,0,1.806.341,5.28,5.28,0,0,0,5.157-5.384,5.584,5.584,0,0,0-.175-1.4,5.508,5.508,0,0,0,0-9.428,5.584,5.584,0,0,0,.175-1.4,5.28,5.28,0,0,0-5.157-5.384,4.964,4.964,0,0,0-1.806.341,6.6,6.6,0,0,0-9.631,0,4.964,4.964,0,0,0-1.806-.341,5.28,5.28,0,0,0-5.157,5.384,5.585,5.585,0,0,0,.175,1.4,5.508,5.508,0,0,0,0,9.428,5.584,5.584,0,0,0-.175,1.4,5.28,5.28,0,0,0,5.157,5.384,4.965,4.965,0,0,0,1.806-.341,6.6,6.6,0,0,0,9.63,0Zm-8.55-1.873a1.019,1.019,0,0,0-1.347-.26,2.954,2.954,0,0,1-1.539.436,3.243,3.243,0,0,1-3.12-3.347,3.5,3.5,0,0,1,.334-1.506,1.019,1.019,0,0,0-.606-1.4,3.425,3.425,0,0,1,0-6.406,1.019,1.019,0,0,0,.606-1.4,3.5,3.5,0,0,1-.334-1.506,3.243,3.243,0,0,1,3.12-3.347,2.952,2.952,0,0,1,1.539.437,1.019,1.019,0,0,0,1.347-.26,4.589,4.589,0,0,1,7.471,0,1.019,1.019,0,0,0,1.347.26,2.952,2.952,0,0,1,1.539-.437A3.243,3.243,0,0,1,40,23.131a3.5,3.5,0,0,1-.334,1.506,1.019,1.019,0,0,0,.606,1.4,3.425,3.425,0,0,1,0,6.406,1.019,1.019,0,0,0-.606,1.4A3.5,3.5,0,0,1,40,35.355a3.243,3.243,0,0,1-3.12,3.347,2.954,2.954,0,0,1-1.539-.437,1.019,1.019,0,0,0-1.347.26,4.588,4.588,0,0,1-7.47,0Z"/>
      <path id="Trazado_875892" data-name="Trazado 875892" d="M96.149,70.252V66.165a2.3,2.3,0,0,1,.645-1.583,5.093,5.093,0,1,0-7.417-.017,2.355,2.355,0,0,1,.661,1.612v4.075a1.019,1.019,0,0,0,1.019,1.019h4.075A1.019,1.019,0,0,0,96.149,70.252Zm-6.1-9.383a3.056,3.056,0,1,1,5.269,2.313,4.373,4.373,0,0,0-1.081,1.977H91.952a4.467,4.467,0,0,0-1.089-1.986A3.031,3.031,0,0,1,90.045,60.868Zm4.067,8.365H92.075V67.2h2.037Z" transform="translate(-62.832 -34.897)"/>
      <path id="Trazado_875893" data-name="Trazado 875893" d="M48,112h3.056v2.037H48Z" transform="translate(-27.926 -83.776)"/>
      <path id="Trazado_875894" data-name="Trazado 875894" d="M176,112h3.056v2.037H176Z" transform="translate(-139.627 -83.776)"/>
      <path id="Trazado_875895" data-name="Trazado 875895" d="M0,0H2.037V2.881H0Z" transform="translate(21.39 22.832) rotate(-45)"/>
      <path id="Trazado_875896" data-name="Trazado 875896" d="M0,0H2.881V2.037H0Z" transform="translate(35.65 23.432) rotate(-45)"/>
      <path id="Trazado_875897" data-name="Trazado 875897" d="M0,0H2.881V2.037H0Z" transform="translate(22.407 35.653) rotate(-45)"/>
      <path id="Trazado_875898" data-name="Trazado 875898" d="M0,0H2.037V2.881H0Z" transform="translate(35.648 35.056) rotate(-45)"/>
      <path id="Trazado_875899" data-name="Trazado 875899" d="M388.075,256a4.075,4.075,0,1,0,4.075,4.075A4.075,4.075,0,0,0,388.075,256Zm0,6.112a2.037,2.037,0,1,1,2.037-2.037A2.037,2.037,0,0,1,388.075,262.112Z" transform="translate(-321.142 -209.44)"/>
      <path id="Trazado_875900" data-name="Trazado 875900" d="M355.354,215.131h-1.612q-.025-.064-.052-.126l1.14-1.14a1.019,1.019,0,0,0,0-1.441l-2.881-2.881a1.019,1.019,0,0,0-1.441,0l-1.14,1.14-.126-.052v-1.613A1.019,1.019,0,0,0,348.224,208h-4.075a1.019,1.019,0,0,0-1.019,1.019v1.613l-.126.052-1.14-1.14a1.019,1.019,0,0,0-1.441,0l-2.881,2.881a1.019,1.019,0,0,0,0,1.441l1.14,1.14q-.026.062-.052.126h-1.613A1.019,1.019,0,0,0,336,216.149v4.075a1.019,1.019,0,0,0,1.019,1.019h1.613q.025.064.052.126l-1.14,1.14a1.019,1.019,0,0,0,0,1.441l2.881,2.881a1.019,1.019,0,0,0,1.441,0l1.14-1.14.126.052v1.613a1.019,1.019,0,0,0,1.019,1.019h4.075a1.019,1.019,0,0,0,1.019-1.019v-1.613l.126-.052,1.14,1.14a1.019,1.019,0,0,0,1.441,0l2.881-2.881a1.019,1.019,0,0,0,0-1.441l-1.14-1.14q.026-.062.052-.126h1.612a1.019,1.019,0,0,0,1.019-1.019v-4.075A1.019,1.019,0,0,0,355.354,215.131Zm-1.019,4.075H353.02a1.019,1.019,0,0,0-.976.728,6.087,6.087,0,0,1-.48,1.16,1.019,1.019,0,0,0,.175,1.205l.93.93-1.44,1.441-.93-.93a1.019,1.019,0,0,0-1.206-.175,6.079,6.079,0,0,1-1.161.479,1.019,1.019,0,0,0-.728.976v1.316h-2.037V225.02a1.019,1.019,0,0,0-.728-.976,6.08,6.08,0,0,1-1.16-.48,1.019,1.019,0,0,0-1.206.175l-.929.93-1.441-1.44.93-.93a1.019,1.019,0,0,0,.175-1.205,6.085,6.085,0,0,1-.48-1.161,1.019,1.019,0,0,0-.976-.728h-1.316v-2.037h1.316a1.019,1.019,0,0,0,.976-.728,6.085,6.085,0,0,1,.48-1.16,1.019,1.019,0,0,0-.175-1.206l-.93-.93,1.44-1.441.93.93a1.019,1.019,0,0,0,1.206.175,6.081,6.081,0,0,1,1.161-.479,1.019,1.019,0,0,0,.728-.976v-1.316h2.037v1.316a1.019,1.019,0,0,0,.728.976,6.08,6.08,0,0,1,1.16.48,1.019,1.019,0,0,0,1.206-.175l.93-.93,1.441,1.44-.93.93a1.019,1.019,0,0,0-.175,1.206,6.087,6.087,0,0,1,.479,1.161,1.019,1.019,0,0,0,.976.728h1.316Z" transform="translate(-279.254 -167.552)"/>
    </g>
  </g>
</svg>
