<svg xmlns="http://www.w3.org/2000/svg" width="90" height="83" viewBox="0 0 90 83">
  <g id="_23" data-name="23" transform="translate(-334.621 -1399.423)">
    <g id="Rectángulo_401341" data-name="Rectángulo 401341" transform="translate(334.621 1399.423)" fill="#f4eefe" stroke="#fff" stroke-width="3">
      <rect width="90" height="83" rx="12" stroke="none"/>
      <rect x="1.5" y="1.5" width="87" height="80" rx="10.5" fill="none"/>
    </g>
    <g id="delegate_5863047" transform="translate(350.07 1411.372)">
      <g id="Grupo_1101779" data-name="Grupo 1101779" transform="translate(0.802 0.953)">
        <g id="Grupo_1101760" data-name="Grupo 1101760" transform="translate(45.908 51.476)">
          <path id="Trazado_875901" data-name="Trazado 875901" d="M397.72,440a5.72,5.72,0,0,1,5.72,5.72H392a5.72,5.72,0,0,1,5.72-5.72Z" transform="translate(-392 -440)" fill="#ff826e"/>
        </g>
        <g id="Grupo_1101761" data-name="Grupo 1101761" transform="translate(34.469 51.476)">
          <path id="Trazado_875902" data-name="Trazado 875902" d="M305.764,441.675a5.7,5.7,0,0,1,1.675,4.044H296a5.719,5.719,0,0,1,9.764-4.044Z" transform="translate(-296 -440)" fill="#75b1f2"/>
        </g>
        <g id="Grupo_1101762" data-name="Grupo 1101762" transform="translate(23.029 51.476)">
          <path id="Trazado_875903" data-name="Trazado 875903" d="M201.675,441.675a5.72,5.72,0,0,1,9.764,4.044H200A5.7,5.7,0,0,1,201.675,441.675Z" transform="translate(-200 -440)" fill="#fcd770"/>
        </g>
        <g id="Grupo_1101763" data-name="Grupo 1101763" transform="translate(11.59 51.476)">
          <path id="Trazado_875904" data-name="Trazado 875904" d="M113.764,441.675a5.7,5.7,0,0,1,1.675,4.044H104a5.719,5.719,0,0,1,9.764-4.044Z" transform="translate(-104 -440)" fill="#e6e9ed"/>
        </g>
        <g id="Grupo_1101764" data-name="Grupo 1101764" transform="translate(0.151 51.476)">
          <path id="Trazado_875905" data-name="Trazado 875905" d="M13.72,440a5.72,5.72,0,0,1,5.72,5.72H8A5.72,5.72,0,0,1,13.72,440Z" transform="translate(-8 -440)" fill="#b4dd7f"/>
        </g>
        <g id="Grupo_1101765" data-name="Grupo 1101765" transform="translate(34.14 40.277)">
          <ellipse id="Elipse_11545" data-name="Elipse 11545" cx="5.84" cy="5.39" rx="5.84" ry="5.39" transform="translate(0 0)" fill="#b27946"/>
        </g>
        <g id="Grupo_1101766" data-name="Grupo 1101766" transform="translate(11.679 40.277)">
          <ellipse id="Elipse_11546" data-name="Elipse 11546" cx="5.84" cy="5.39" rx="5.84" ry="5.39" transform="translate(0 0)" fill="#b27946"/>
        </g>
        <g id="Grupo_1101767" data-name="Grupo 1101767" transform="translate(45.819 40.277)">
          <ellipse id="Elipse_11547" data-name="Elipse 11547" cx="5.84" cy="5.39" rx="5.84" ry="5.39" transform="translate(0 0)" fill="#656d78"/>
        </g>
        <g id="Grupo_1101768" data-name="Grupo 1101768" transform="translate(23.359 40.277)">
          <circle id="Elipse_11548" data-name="Elipse 11548" cx="5.39" cy="5.39" r="5.39" transform="translate(0 0)" fill="#656d78"/>
        </g>
        <g id="Grupo_1101769" data-name="Grupo 1101769" transform="translate(0 40.277)">
          <ellipse id="Elipse_11549" data-name="Elipse 11549" cx="5.84" cy="5.39" rx="5.84" ry="5.39" transform="translate(0 0)" fill="#656d78"/>
        </g>
        <g id="Grupo_1101770" data-name="Grupo 1101770" transform="translate(7.777 22.878)">
          <path id="Trazado_875906" data-name="Trazado 875906" d="M87.252,222.878V209.533L84.1,212.052a5.9,5.9,0,0,1-8.968-1.97L72,203.813v-.953L74.86,200l5.72,7.626,3.136-2.509a8.584,8.584,0,0,1,3.677-1.714l2.719-.543,2.86,2.86,2.86-2.86,2.719.543a8.584,8.584,0,0,1,3.677,1.714l3.136,2.509,5.72-7.626,2.86,2.86v.953l-3.135,6.269a5.9,5.9,0,0,1-8.968,1.97l-3.149-2.519v13.346a5.72,5.72,0,0,0-11.439,0Z" transform="translate(-72 -200)" fill="#b4dd7f"/>
        </g>
        <g id="Grupo_1101771" data-name="Grupo 1101771" transform="translate(18.263)">
          <path id="Trazado_875907" data-name="Trazado 875907" d="M168.085,16.311l-1.506.431a3.807,3.807,0,0,0-2.639,2.7h-1.08a2.855,2.855,0,0,0-2.022.838l-.006.006A6.674,6.674,0,0,1,160,17.056V14.673a3.814,3.814,0,0,1,3.813-3.813l.245-.245a8.926,8.926,0,0,1,11.668-.829l2.576,1.933a6.677,6.677,0,0,1,1.837,8.565,2.853,2.853,0,0,0-2.028-.844h-.953V17.533a1.906,1.906,0,0,1-1.907,1.907h-.643a8.36,8.36,0,0,1-6.523-3.128Z" transform="translate(-160 -8)" fill="#b27946"/>
        </g>
        <g id="Grupo_1101772" data-name="Grupo 1101772" transform="translate(49.721 12.392)">
          <path id="Trazado_875908" data-name="Trazado 875908" d="M431.626,112v14.3H424v-5.72l.2-.1a3.089,3.089,0,0,0,1.705-2.76.953.953,0,0,0-.953-.953H424V112Z" transform="translate(-424 -112)" fill="#e6e9ed"/>
        </g>
        <g id="Grupo_1101773" data-name="Grupo 1101773" transform="translate(0.151 12.392)">
          <path id="Trazado_875909" data-name="Trazado 875909" d="M15.626,125.346v.953H8V112h7.626v4.766h-.953a.953.953,0,0,0-.953.953,3.089,3.089,0,0,0,1.705,2.76l.2.1Z" transform="translate(-8 -112)" fill="#e6e9ed"/>
        </g>
        <g id="Grupo_1101774" data-name="Grupo 1101774" transform="translate(45.908 17.159)">
          <path id="Trazado_875910" data-name="Trazado 875910" d="M396.766,152a.953.953,0,0,1,.953.953,3.089,3.089,0,0,1-1.705,2.76l-.2.1v4.766l-2.86-2.86-.752-1.5a1.907,1.907,0,0,1-.2-.853v-1.456A1.906,1.906,0,0,1,393.906,152h2.86Z" transform="translate(-392 -152)" fill="#f0d0b4"/>
        </g>
        <g id="Grupo_1101775" data-name="Grupo 1101775" transform="translate(35.422 11.439)">
          <path id="Trazado_875911" data-name="Trazado 875911" d="M306.981,104.844a2.86,2.86,0,0,1-2.028,4.876H304V104h.953A2.853,2.853,0,0,1,306.981,104.844Z" transform="translate(-304 -104)" fill="#f0d0b4"/>
        </g>
        <g id="Grupo_1101776" data-name="Grupo 1101776" transform="translate(18.263 11.439)">
          <path id="Trazado_875912" data-name="Trazado 875912" d="M163.938,104h0a3.74,3.74,0,0,0-.126.97v4.75h-.953a2.86,2.86,0,0,1-2.028-4.876l.006-.006A2.855,2.855,0,0,1,162.86,104Z" transform="translate(-160 -104)" fill="#f0d0b4"/>
        </g>
        <g id="Grupo_1101777" data-name="Grupo 1101777" transform="translate(22.076 8.311)">
          <path id="Trazado_875913" data-name="Trazado 875913" d="M205.346,86.6v.867a4.768,4.768,0,0,1-2.635,4.263l-.652.325a.951.951,0,0,0-.527.852v2.271l-2.86,2.86-2.86-2.86V92.906a.951.951,0,0,0-.527-.852l-.652-.325A4.768,4.768,0,0,1,192,87.465V81.848a3.74,3.74,0,0,1,.126-.97,3.807,3.807,0,0,1,2.639-2.7l1.506-.431h0a8.36,8.36,0,0,0,6.523,3.128h.643a1.906,1.906,0,0,0,1.907-1.907V86.6Z" transform="translate(-192 -77.75)" fill="#f0d0b4"/>
        </g>
        <g id="Grupo_1101778" data-name="Grupo 1101778" transform="translate(5.871 17.159)">
          <path id="Trazado_875914" data-name="Trazado 875914" d="M61.72,153.907v1.456a1.907,1.907,0,0,1-.2.853l-.752,1.5-2.86,2.86v-4.766l-.2-.1A3.089,3.089,0,0,1,56,152.953a.953.953,0,0,1,.953-.953h2.86A1.906,1.906,0,0,1,61.72,153.907Z" transform="translate(-56 -152)" fill="#f0d0b4"/>
        </g>
      </g>
      <g id="Grupo_1101780" data-name="Grupo 1101780" transform="translate(0 0)">
        <path id="Trazado_875915" data-name="Trazado 875915" d="M37.825,36.628A6.857,6.857,0,0,0,48.241,34.34L51.112,28.6H59.1V12.392H49.57v4.766h-.953a2.863,2.863,0,0,0-2.86,2.86v1.456a2.873,2.873,0,0,0,.3,1.279l.489.977L41.771,30.1,39.4,28.2a9.575,9.575,0,0,0-4.085-1.9l-1.953-.391V24.421l.651-.326a5.687,5.687,0,0,0,3.16-5.03h0a3.811,3.811,0,0,0,3.153-5.955,7.623,7.623,0,0,0-2.39-9.2L35.363,1.976A9.941,9.941,0,0,0,29.436,0a9.815,9.815,0,0,0-6.97,2.877,4.773,4.773,0,0,0-4.354,4.749v2.383a7.646,7.646,0,0,0,.66,3.1,3.811,3.811,0,0,0,3.153,5.955h0a5.687,5.687,0,0,0,3.16,5.03l.651.326V25.91l-1.953.391A9.574,9.574,0,0,0,19.7,28.2L17.331,30.1l-4.776-6.368.489-.977a2.874,2.874,0,0,0,.3-1.279V20.019a2.863,2.863,0,0,0-2.86-2.86H9.533V12.392H0V28.6H7.99l2.871,5.742a6.857,6.857,0,0,0,10.417,2.288l1.6-1.28v6.7a6.664,6.664,0,0,0-10.486,1.231A6.671,6.671,0,1,0,3.24,52.43,6.675,6.675,0,0,0,0,58.149V59.1H59.1v-.953a6.675,6.675,0,0,0-3.24-5.72,6.671,6.671,0,1,0-9.153-9.153,6.664,6.664,0,0,0-10.486-1.231v-6.7ZM51.476,14.3H57.2V26.691h-5.72V22.5a4.013,4.013,0,0,0,1.907-3.43,1.909,1.909,0,0,0-1.907-1.907Zm-3.813,5.72a.954.954,0,0,1,.953-.953h2.86A2.12,2.12,0,0,1,50.3,20.972l-.728.364V24.39l-1.123-1.123L47.764,21.9a.956.956,0,0,1-.1-.426Zm-10.486-2.86V13.346a1.907,1.907,0,1,1,0,3.813ZM20.019,15.252a1.909,1.909,0,0,1,1.907-1.907h0c0,.005,0,.011,0,.016v3.8A1.909,1.909,0,0,1,20.019,15.252Zm2.316-3.813h-.41a3.79,3.79,0,0,0-1.618.361,5.73,5.73,0,0,1-.289-1.791V7.626a2.863,2.863,0,0,1,2.86-2.86h.395l.524-.525a7.921,7.921,0,0,1,5.638-2.335A8.023,8.023,0,0,1,34.219,3.5L36.8,5.434a5.715,5.715,0,0,1,2,6.367,3.79,3.79,0,0,0-1.618-.361v-.953a2.863,2.863,0,0,0-2.86-2.86h-.953V9.533h.953a.953.953,0,0,1,0,1.907h-.644a7.4,7.4,0,0,1-7.031-5.068l-1.809.6a9.358,9.358,0,0,0,.784,1.737l-.236.067a4.784,4.784,0,0,0-3.047,2.66Zm1.5,7.54V13.362a2.872,2.872,0,0,1,2.074-2.75l.92-.263a9.3,9.3,0,0,0,6.848,3h.644a2.846,2.846,0,0,0,.953-.164v5.8a3.792,3.792,0,0,1-2.108,3.411l-.651.326a1.9,1.9,0,0,0-1.054,1.705V26.3L29.551,28.2,27.645,26.3V24.421a1.9,1.9,0,0,0-1.054-1.705l-.651-.326a3.792,3.792,0,0,1-2.108-3.411ZM7.626,26.691H1.907V14.3h5.72v2.86A1.909,1.909,0,0,0,5.72,19.065,4.013,4.013,0,0,0,7.626,22.5Zm2.86-7.626a.954.954,0,0,1,.953.953v1.456a.958.958,0,0,1-.1.426l-.683,1.365L9.533,24.39V21.336L8.8,20.972a2.12,2.12,0,0,1-1.178-1.907Zm9.6,16.074a4.951,4.951,0,0,1-7.52-1.652L9.533,27.42v-.333l1.8-1.8,4.707,6.276-.69,1.38,1.705.853.86-1.719,2.973-2.378a7.658,7.658,0,0,1,3.268-1.523l2.219-.444L29.551,30.9l3.173-3.173,2.219.444a7.657,7.657,0,0,1,3.268,1.523l2.973,2.378.86,1.719,1.705-.853-.69-1.38,4.707-6.276,1.8,1.8v.333l-3.034,6.068a4.95,4.95,0,0,1-7.52,1.652l-2.792-2.233V31.458H34.318V42.046a6.658,6.658,0,0,0-9.533,0V31.458H22.878v1.448Zm9.464,16.337a4.766,4.766,0,1,1,4.766-4.766A4.772,4.772,0,0,1,29.551,51.476ZM18.112,41.944a4.766,4.766,0,1,1-4.766,4.766A4.772,4.772,0,0,1,18.112,41.944ZM1.907,46.71a4.766,4.766,0,1,1,4.766,4.766A4.772,4.772,0,0,1,1.907,46.71ZM2,57.2a4.767,4.767,0,0,1,9.341,0Zm10.39-2.48a6.722,6.722,0,0,0-2.287-2.287,6.722,6.722,0,0,0,2.287-2.287,6.722,6.722,0,0,0,2.287,2.287A6.722,6.722,0,0,0,12.392,54.716Zm1.049,2.48a4.767,4.767,0,0,1,9.341,0Zm10.39-2.48a6.722,6.722,0,0,0-2.287-2.287,6.722,6.722,0,0,0,2.287-2.287,6.722,6.722,0,0,0,2.287,2.287A6.722,6.722,0,0,0,23.832,54.716Zm1.049,2.48a4.767,4.767,0,0,1,9.341,0Zm10.39-2.48a6.722,6.722,0,0,0-2.287-2.287,6.722,6.722,0,0,0,2.287-2.287,6.722,6.722,0,0,0,2.287,2.287A6.722,6.722,0,0,0,35.271,54.716ZM36.32,57.2a4.767,4.767,0,0,1,9.341,0Zm10.39-2.48a6.722,6.722,0,0,0-2.287-2.287,6.722,6.722,0,0,0,2.287-2.287A6.722,6.722,0,0,0,49,52.43,6.722,6.722,0,0,0,46.71,54.716ZM57.1,57.2H47.759a4.767,4.767,0,0,1,9.341,0ZM52.43,41.944a4.766,4.766,0,1,1-4.766,4.766A4.772,4.772,0,0,1,52.43,41.944Zm-11.439,0a4.766,4.766,0,1,1-4.766,4.766A4.772,4.772,0,0,1,40.99,41.944Z" transform="translate(0 0)"/>
      </g>
    </g>
  </g>
</svg>
