<svg xmlns="http://www.w3.org/2000/svg" width="90" height="83" viewBox="0 0 90 83">
  <g id="_24" data-name="24" transform="translate(-334.621 -1399.423)">
    <g id="Rectángulo_401341" data-name="Rectángulo 401341" transform="translate(334.621 1399.423)" fill="#f4eefe" stroke="#fff" stroke-width="3">
      <rect width="90" height="83" rx="12" stroke="none"/>
      <rect x="1.5" y="1.5" width="87" height="80" rx="10.5" fill="none"/>
    </g>
    <g id="motivated_12056021" transform="translate(349.726 1410.9)">
      <g id="Grupo_1101790" data-name="Grupo 1101790" transform="translate(0.876 12.417)">
        <g id="Grupo_1101789" data-name="Grupo 1101789">
          <path id="Trazado_875917" data-name="Trazado 875917" d="M206.932,339.062l.023-15.994,11.406.036.023,15.958Z" transform="translate(-183.642 -297.63)" fill="#f0d0b4"/>
          <g id="Grupo_1101786" data-name="Grupo 1101786">
            <g id="Grupo_1101782" data-name="Grupo 1101782" transform="translate(43.617)">
              <g id="Grupo_1101781" data-name="Grupo 1101781">
                <path id="Trazado_875918" data-name="Trazado 875918" d="M385.374,138.945l-1.128-.956a1.921,1.921,0,1,0-2.648,2.783l3.294,2.977a3.2,3.2,0,0,1,1.054,2.373h7.8a10.011,10.011,0,0,0,1.467-5.534v-2.314l-7.107-.813Z" transform="translate(-381 -133.696)" fill="#f0d0b4"/>
                <path id="Trazado_875919" data-name="Trazado 875919" d="M418.449,106.879a1.639,1.639,0,0,1,1.64-1.64c.041,0,.082,0,.122,0,.689,0,1.231.746,1.231,1.611l-.026,2.726c0,.906-.337,1.38-1.243,1.38a1.132,1.132,0,0,1-.676-.03c-.427-.246-.958-.372-1.031-.88a1.649,1.649,0,0,1-.017-.235v-2.935" transform="translate(-414.076 -105.239)" fill="#f0d0b4"/>
                <path id="Trazado_875920" data-name="Trazado 875920" d="M443.891,106.879a1.639,1.639,0,0,1,1.64-1.64c.041,0,.082,0,.122,0,.689,0,1.231.746,1.231,1.611l-.026,2.726c0,.906-.337,1.38-1.243,1.38a1.132,1.132,0,0,1-.676-.03c-.427-.246-.958-.372-1.031-.88a1.649,1.649,0,0,1-.017-.235l-.35-1.348Z" transform="translate(-436.238 -105.239)" fill="#f0d0b4"/>
                <path id="Trazado_875921" data-name="Trazado 875921" d="M471.1,106.879a1.639,1.639,0,0,1,1.64-1.64c.041,0,.082,0,.122,0,.689,0,1.231.746,1.231,1.611l-.026,2.726c0,.906-.338,1.38-1.243,1.38a1.132,1.132,0,0,1-.676-.03c-.427-.246-.958-.372-1.031-.88a1.653,1.653,0,0,1-.017-.235l-.467-1.468Z" transform="translate(-460.165 -105.239)" fill="#f0d0b4"/>
              </g>
              <path id="Trazado_875922" data-name="Trazado 875922" d="M476.519,105.292v3.168a1.64,1.64,0,0,1-1.64,1.64c-.035,0-.07,0-.105,0a1.64,1.64,0,0,0,3.264-.235v-2.935A1.639,1.639,0,0,0,476.519,105.292Z" transform="translate(-463.823 -105.286)" fill="#f0d0b4"/>
              <path id="Trazado_875923" data-name="Trazado 875923" d="M448.429,105.292v3.168a1.64,1.64,0,0,1-1.64,1.64c-.035,0-.071,0-.105,0a1.64,1.64,0,0,0,3.264-.235v-2.935A1.639,1.639,0,0,0,448.429,105.292Z" transform="translate(-439.014 -105.286)" fill="#f0d0b4"/>
              <path id="Trazado_875924" data-name="Trazado 875924" d="M420.266,105.292v3.168a1.64,1.64,0,0,1-1.64,1.64c-.035,0-.071,0-.105,0a1.64,1.64,0,0,0,3.264-.235v-2.935A1.639,1.639,0,0,0,420.266,105.292Z" transform="translate(-414.139 -105.286)" fill="#f0d0b4"/>
            </g>
            <path id="Trazado_875925" data-name="Trazado 875925" d="M72.475,228.377v15.066a3.5,3.5,0,0,1-.628,2l-9.8,14.188a.47.47,0,0,1-.384.2l-2.219.234H28.211a.466.466,0,0,1-.383-.2L17.8,245.443a3.5,3.5,0,0,1-.627-2V227.764l9.137.408v11.416a.23.23,0,0,0,.044.137l6.127,8.475a2.8,2.8,0,0,0,2.131.968l4.729.093-.594.741,6.316,3.717,5.846-3.358-.133-1.1,4.729-.093a2.34,2.34,0,0,0,1.9-.968l5.953-8.2a1.168,1.168,0,0,0,.223-.686l0-10.933h8.9Z" transform="translate(-16.041 -213.456)" fill="#7bacdf"/>
            <g id="Grupo_1101783" data-name="Grupo 1101783" transform="translate(43.173 14.921)">
              <path id="Trazado_875926" data-name="Trazado 875926" d="M388.241,233.014V248.08a3.5,3.5,0,0,1-.628,2L377.582,264.5a.47.47,0,0,1-.384.2h2.686a.47.47,0,0,0,.384-.2L390.3,250.08a3.5,3.5,0,0,0,.628-2V233.014Z" transform="translate(-377.198 -233.014)" fill="#5f99d7"/>
            </g>
            <path id="Trazado_875927" data-name="Trazado 875927" d="M74.408,231.254V241.92a2.335,2.335,0,0,0,.437,1.361l5.735,8a2.341,2.341,0,0,0,1.9.968h2.686a2.341,2.341,0,0,1-1.9-.968l-5.953-8.306a1.168,1.168,0,0,1-.219-.68V231.254Z" transform="translate(-66.595 -216.538)" fill="#5f99d7"/>
            <g id="Grupo_1101785" data-name="Grupo 1101785" transform="translate(0.208)">
              <g id="Grupo_1101784" data-name="Grupo 1101784">
                <path id="Trazado_875928" data-name="Trazado 875928" d="M19.119,138.945l1.128-.956a1.921,1.921,0,1,1,2.648,2.783L19.6,143.748a3.2,3.2,0,0,0-1.054,2.373h-7.8a10.011,10.011,0,0,1-1.467-5.534v-2.314l7.107-.813Z" transform="translate(-9.278 -133.696)" fill="#f0d0b4"/>
                <path id="Trazado_875929" data-name="Trazado 875929" d="M62.811,106.879a1.639,1.639,0,0,1,1.64-1.64c.041,0,.082,0,.122,0,.689,0,1.231.746,1.231,1.611l-.026,2.726c0,.906-.337,1.38-1.243,1.38a1.132,1.132,0,0,1-.676-.03c-.427-.246-.958-.372-1.031-.88a1.646,1.646,0,0,1-.017-.235l-.35-1.465Z" transform="translate(-56.25 -105.239)" fill="#f0d0b4"/>
                <path id="Trazado_875930" data-name="Trazado 875930" d="M34.72,106.879a1.639,1.639,0,0,1,1.64-1.64c.041,0,.082,0,.122,0,.689,0,1.231.746,1.231,1.611l-.026,2.726c0,.906-.337,1.38-1.243,1.38a1.132,1.132,0,0,1-.676-.03c-.427-.246-.958-.372-1.031-.88a1.646,1.646,0,0,1-.017-.235l-.35-1.465Z" transform="translate(-31.44 -105.239)" fill="#f0d0b4"/>
              </g>
              <path id="Trazado_875931" data-name="Trazado 875931" d="M39.258,105.292v3.168a1.64,1.64,0,0,1-1.64,1.64c-.035,0-.071,0-.105,0a1.64,1.64,0,0,0,3.264-.235v-2.935A1.639,1.639,0,0,0,39.258,105.292Z" transform="translate(-34.216 -105.286)" fill="#f0d0b4"/>
              <path id="Trazado_875932" data-name="Trazado 875932" d="M67.277,105.292v3.168a1.64,1.64,0,0,1-1.64,1.64c-.035,0-.071,0-.105,0a1.64,1.64,0,0,0,3.264-.235v-2.935A1.639,1.639,0,0,0,67.277,105.292Z" transform="translate(-58.963 -105.286)" fill="#f0d0b4"/>
              <path id="Trazado_875933" data-name="Trazado 875933" d="M9.278,106.879a1.639,1.639,0,0,1,1.64-1.64c.041,0,.082,0,.122,0,.689,0,1.231.746,1.231,1.611l-.026,2.726c0,.906-.337,1.38-1.243,1.38a1.132,1.132,0,0,1-.676-.03c-.427-.246-.958-.372-1.031-.88a1.647,1.647,0,0,1-.017-.235v-2.935" transform="translate(-9.278 -105.239)" fill="#f0d0b4"/>
              <path id="Trazado_875934" data-name="Trazado 875934" d="M11.167,105.292v3.168a1.64,1.64,0,0,1-1.64,1.64c-.035,0-.071,0-.105,0a1.64,1.64,0,0,0,3.264-.235v-2.935A1.639,1.639,0,0,0,11.167,105.292Z" transform="translate(-9.405 -105.286)" fill="#f0d0b4"/>
            </g>
            <path id="Trazado_875935" data-name="Trazado 875935" d="M8.069,209.153h8.055l2.219.234a.569.569,0,0,1,.569.569V212.7a.569.569,0,0,1-.569.569l-2.219.234H8.069a.569.569,0,0,1-.569-.569v-3.208A.569.569,0,0,1,8.069,209.153Z" transform="translate(-7.5 -197.018)" fill="#eaf6ff"/>
            <path id="Trazado_875936" data-name="Trazado 875936" d="M82.037,209.153H79.351a.569.569,0,0,1,.569.569v3.208a.569.569,0,0,1-.569.569h2.686a.569.569,0,0,0,.569-.569v-3.208A.569.569,0,0,0,82.037,209.153Z" transform="translate(-70.96 -197.018)" fill="#d8ecfe"/>
            <path id="Trazado_875937" data-name="Trazado 875937" d="M415.617,209.387l-2.219-.234h-8.055a.569.569,0,0,0-.569.569v3.208a.569.569,0,0,0,.569.569H413.4l2.219-.234a.569.569,0,0,0,.569-.569v-2.741a.569.569,0,0,0-.569-.569Z" transform="translate(-358.381 -197.018)" fill="#eaf6ff"/>
            <path id="Trazado_875938" data-name="Trazado 875938" d="M479.312,209.153h-2.686a.569.569,0,0,1,.569.569v3.208a.569.569,0,0,1-.569.569h2.686a.569.569,0,0,0,.569-.569v-3.208A.569.569,0,0,0,479.312,209.153Z" transform="translate(-421.842 -197.018)" fill="#d8ecfe"/>
          </g>
          <g id="Grupo_1101787" data-name="Grupo 1101787" transform="translate(14.418 17.808)">
            <path id="Trazado_875939" data-name="Trazado 875939" d="M134.707,264.749a4,4,0,0,1-3.745-4.213V260.4a1.667,1.667,0,0,1,1.561-1.755h1.189l1.12-.913h21.425l1.149.913h1.19a1.667,1.667,0,0,1,1.561,1.755v.137a4,4,0,0,1-3.745,4.213Z" transform="translate(-130.962 -257.731)" fill="#f0d0b4"/>
          </g>
          <path id="Trazado_875940" data-name="Trazado 875940" d="M188.716,189.86v14.2a7.106,7.106,0,0,1-2.83,5.676l-3.914,2.948a6,6,0,0,1-7.048,0l-3.914-2.948a7.106,7.106,0,0,1-2.83-5.676v-14.2Z" transform="translate(-149.416 -179.978)" fill="#f0d0b4"/>
          <g id="Grupo_1101788" data-name="Grupo 1101788" transform="translate(21.113 35.805)">
            <path id="Trazado_875941" data-name="Trazado 875941" d="M196.014,414.689l-2.863,3.73a.35.35,0,0,1-.5.058l-3.815-3.112a1.465,1.465,0,0,1,.064-2.32l1.581-1.2a8.412,8.412,0,0,0,11.435,0l1.581,1.2a1.465,1.465,0,0,1,.064,2.32l-3.815,3.112a.35.35,0,0,1-.5-.058l-2.863-3.73A.234.234,0,0,0,196.014,414.689Z" transform="translate(-188.297 -411.842)" fill="#eaf6ff"/>
          </g>
          <path id="Trazado_875942" data-name="Trazado 875942" d="M177.891,140.149l.026,5.175-1.307.482a2.912,2.912,0,0,1-2.768-2.259,15.418,15.418,0,0,0-.664-2.114c-.114-.29.11-.7-.029-.994-.124-.26-.607-.405-.752-.667l-1.06.753a8.592,8.592,0,0,1-9.955,0l-1.06-.753c-.131.237-.6.357-.716.593-.145.3.075.717-.043,1.012a15.413,15.413,0,0,0-.687,2.169,2.912,2.912,0,0,1-2.768,2.259h-1.6v-5.657a10.175,10.175,0,0,1,10.175-10.175h3.345a10.142,10.142,0,0,1,2.125.223A10.558,10.558,0,0,1,177.891,140.149Z" transform="translate(-137.342 -127.085)" fill="#ffe177"/>
          <path id="Trazado_875943" data-name="Trazado 875943" d="M296.53,141.836v5.657h-1.6l.033-6.3c0-4.927-6.388-9.245-6.487-9.312A10.177,10.177,0,0,1,296.53,141.836Z" transform="translate(-255.667 -128.772)" fill="#ffd15b"/>
        </g>
      </g>
      <g id="Grupo_1101791" data-name="Grupo 1101791" transform="translate(0 0.144)">
        <path id="Trazado_875944" data-name="Trazado 875944" d="M313.512,9.065h1.366v5.222a.876.876,0,0,0,1.752,0v-6.1a.876.876,0,0,0-.876-.876h-.528l3.469-4.8,3.469,4.8h-.528a.876.876,0,0,0-.876.876v2.9a.876.876,0,0,0,1.752,0V9.065h1.366a.876.876,0,0,0,.71-1.389L319.4.507a.876.876,0,0,0-1.42,0L312.8,7.676a.876.876,0,0,0,.71,1.389Z" transform="translate(-276.127 -0.144)"/>
        <path id="Trazado_875945" data-name="Trazado 875945" d="M96.484,9.065H97.85v2.021a.876.876,0,1,0,1.752,0v-2.9a.876.876,0,0,0-.876-.876H98.2l3.469-4.8,3.469,4.8h-.528a.876.876,0,0,0-.876.876v6.1a.876.876,0,1,0,1.752,0V9.065h1.366a.876.876,0,0,0,.71-1.389L102.376.507a.876.876,0,0,0-1.42,0L95.774,7.676a.876.876,0,0,0,.71,1.389Z" transform="translate(-84.443 -0.144)"/>
        <path id="Trazado_875946" data-name="Trazado 875946" d="M388.659,109.939a12.494,12.494,0,0,0,.809-4.434v-5.249a5.532,5.532,0,0,0-7.437-1.9,2.513,2.513,0,0,0-4.156,1.9v1.737a2.795,2.795,0,0,0-3.488,4.348l3.294,2.977a2.322,2.322,0,0,1,.449.558h-.408a1.446,1.446,0,0,0-1.445,1.445v3.208a1.447,1.447,0,0,0,1.138,1.411v8.694l-2.237,3.093a.876.876,0,1,0,1.419,1.027l2.4-3.322a.876.876,0,0,0,.166-.513v-8.944h7.619v3.815a.876.876,0,1,0,1.752,0v-3.849a1.447,1.447,0,0,0,1.137-1.411v-3.208a1.448,1.448,0,0,0-1.017-1.38Zm-2.472-9.684a.764.764,0,1,1,1.529,0v2.935a.764.764,0,1,1-1.529,0Zm-3.28,0a.764.764,0,1,1,1.529,0v2.935a.764.764,0,1,1-1.529,0Zm-3.28,0a.764.764,0,1,1,1.529,0v2.935a.762.762,0,0,1-.269.58,4.2,4.2,0,0,0-1.228-.285,2.3,2.3,0,0,0-.033-.295Zm-4.056,4.794a1.045,1.045,0,0,1,1.448-1.507c.032.033,1.7,1.442,1.737,1.475a.876.876,0,0,0,.566.208,2.432,2.432,0,0,1,2.415,2.066l.039.252a.876.876,0,0,0,1.731-.271l-.039-.252a4.225,4.225,0,0,0-.486-1.41,3.655,3.655,0,0,1,3.97.1,2.5,2.5,0,0,0,.762-.119,10.246,10.246,0,0,1-.933,4.286h-6.753a4.094,4.094,0,0,0-1.171-1.857Zm12.353,9.171h-9.894v-2.594h9.894Z" transform="translate(-329.884 -86.342)"/>
        <path id="Trazado_875951" data-name="Trazado 875951" d="M406.464,314.034a.876.876,0,0,0-.876.876v4.728a2.615,2.615,0,0,1-.471,1.5l-10.17,14.621a.876.876,0,1,0,1.438,1l10.17-14.621a4.359,4.359,0,0,0,.785-2.5V314.91A.876.876,0,0,0,406.464,314.034Z" transform="translate(-348.686 -277.378)"/>
        <path id="Trazado_875952" data-name="Trazado 875952" d="M44.121,130.84a.876.876,0,0,0-1.223.2l-1.373,1.9a1.469,1.469,0,0,1-1.187.607H36.489l-.006-1.325-.01-2.1,1.4-1.055a8.027,8.027,0,0,0,3.011-4.755,4.894,4.894,0,0,0,4.481-5.085v-.137a2.542,2.542,0,0,0-2.436-2.631h-.314v-4.781a11.063,11.063,0,0,0-11.051-11.051H28.219a10.962,10.962,0,0,0-4.476.945.876.876,0,1,0,.711,1.6,9.223,9.223,0,0,1,3.766-.795h3.345a9.31,9.31,0,0,1,9.3,9.3v4.781h-.719a2.026,2.026,0,0,1-1.916-1.585,16.015,16.015,0,0,0-1.163-3.28l.555-.394a.876.876,0,1,0-1.015-1.428c-.588.429-1.654,1.139-2.242,1.57a7.723,7.723,0,0,1-8.941,0l-1.06-.753,0,0-1.146-.814A.876.876,0,1,0,22.2,111.2l.531.377a16.015,16.015,0,0,0-1.172,3.3,2.026,2.026,0,0,1-1.916,1.585H18.92v-4.781a9.263,9.263,0,0,1,2.484-6.325.876.876,0,1,0-1.283-1.192,11.009,11.009,0,0,0-2.953,7.518v4.781h-.313a2.542,2.542,0,0,0-2.436,2.631v.137a4.89,4.89,0,0,0,4.515,5.086,8.027,8.027,0,0,0,3.011,4.754l1.367,1.03-.017,3.446H19.445a1.468,1.468,0,0,1-1.187-.606l-6.007-8.305v-8.692a1.447,1.447,0,0,0,1.147-1.413v-3.208a1.446,1.446,0,0,0-1.445-1.445h-.408a2.321,2.321,0,0,1,.449-.558l3.294-2.977.017-.015a2.795,2.795,0,0,0-3.5-4.332v-1.737a2.513,2.513,0,0,0-4.156-1.9,2.5,2.5,0,0,0-3.28,0,2.51,2.51,0,0,0-4.152,1.814c-.013,1.342,0,4.016,0,5.346a12.475,12.475,0,0,0,.809,4.428A1.448,1.448,0,0,0,0,111.318v3.208a1.446,1.446,0,0,0,1.129,1.409v4.345a.876.876,0,1,0,1.752,0v-4.309H10.5v8.944a.876.876,0,0,0,.166.513l6.173,8.535a3.225,3.225,0,0,0,2.606,1.332h2.222a2.342,2.342,0,0,0,.308,3.326l4.095,3.34a.876.876,0,0,0,1.248-.145l1.7-2.217v5.624a.876.876,0,1,0,1.752,0V139.61l1.693,2.206a.876.876,0,0,0,.593.337.867.867,0,0,0,.1.006.876.876,0,0,0,.554-.2l4.095-3.34a2.342,2.342,0,0,0,.308-3.326h2.222a3.226,3.226,0,0,0,2.606-1.332l1.373-1.9a.876.876,0,0,0-.2-1.223Zm-3.069-12.63h1.876a.812.812,0,0,1,.685.88v.137a3.2,3.2,0,0,1-2.561,3.318Zm-22.288,4.338a3.191,3.191,0,0,1-2.594-3.322v-.137a.812.812,0,0,1,.685-.88h1.91ZM8.52,100.254a.764.764,0,1,1,1.529,0v2.935a.76.76,0,0,1-.06.3h0a4.2,4.2,0,0,0-1.2.283.768.768,0,0,1-.268-.58Zm-3.28,0a.764.764,0,1,1,1.529,0v2.935a.764.764,0,1,1-1.529,0ZM6,105.706a2.505,2.505,0,0,0,.69-.1,4.226,4.226,0,0,0-.486,1.41l-.039.252a.876.876,0,0,0,1.731.271l.039-.252a2.432,2.432,0,0,1,2.415-2.066.876.876,0,0,0,.566-.208c.037-.033,1.705-1.442,1.737-1.475a1.045,1.045,0,0,1,1.448,1.507l-3.285,2.968a4.094,4.094,0,0,0-1.171,1.857H2.895a10.234,10.234,0,0,1-.933-4.286,2.5,2.5,0,0,0,2.4-.494,2.5,2.5,0,0,0,1.64.612Zm-4.045-5.451a.764.764,0,1,1,1.529,0v2.935a.764.764,0,1,1-1.529,0Zm9.686,13.964H1.752v-2.594h9.894ZM23,127.668a6.262,6.262,0,0,1-2.482-4.976V118.1a3.838,3.838,0,0,0,2.744-2.82,14.357,14.357,0,0,1,.916-2.673,9.5,9.5,0,0,0,11.431,0,14.341,14.341,0,0,1,.916,2.674,3.836,3.836,0,0,0,2.777,2.828v4.585a6.262,6.262,0,0,1-2.482,4.976L32.9,130.616a4.817,4.817,0,0,1-2.981.967h-.032a4.832,4.832,0,0,1-2.981-.967Zm3.48,12.366-3.4-2.77a.589.589,0,0,1,.026-.933l1.09-.793a9.06,9.06,0,0,0,4.282,1.887Zm-1.434-6.075.012-2.546.8.6a6.572,6.572,0,0,0,4.051,1.32h.1a6.591,6.591,0,0,0,3.949-1.321l.768-.578,0,.831.008,1.691a7.358,7.358,0,0,1-9.7,0ZM36.7,137.264l-3.4,2.77-2-2.609a9.06,9.06,0,0,0,4.282-1.887l1.09.793a.589.589,0,0,1,.026.933Z" transform="translate(0 -86.341)"/>
        <path id="Trazado_875953" data-name="Trazado 875953" d="M11.892,324.874a2.614,2.614,0,0,1-.47-1.5V319.14a.876.876,0,0,0-1.752,0v4.234a4.358,4.358,0,0,0,.784,2.5L20.624,340.5a.876.876,0,0,0,1.438-1Z" transform="translate(-8.541 -281.114)"/>
      </g>
    </g>
  </g>
</svg>
