<svg xmlns="http://www.w3.org/2000/svg" width="61.554" height="56.767" viewBox="0 0 61.554 56.767">
  <g id="_26" data-name="26" transform="translate(-334.621 -1399.423)">
    <g id="Rectángulo_401341" data-name="Rectángulo 401341" transform="translate(334.621 1399.423)" fill="#fece2f" stroke="#faedc1" stroke-width="3">
      <rect width="61.554" height="56.767" rx="12" stroke="none"/>
      <rect x="1.5" y="1.5" width="58.554" height="53.767" rx="10.5" fill="none"/>
    </g>
    <g id="pencil_15130015" transform="translate(349.274 1409.682)">
      <rect id="Rectángulo_401643" data-name="Rectángulo 401643" width="26.782" height="33.247" rx="3" transform="translate(0.577 2.424)" fill="#9b692d"/>
      <rect id="Rectángulo_401644" data-name="Rectángulo 401644" width="21.241" height="27.706" rx="1" transform="translate(3.348 5.195)" fill="#fff"/>
      <path id="Trazado_875371" data-name="Trazado 875371" d="M22.041,3h1.812a.6.6,0,0,1,.6.6V6.021a.6.6,0,0,1-.6.6H16.6a.6.6,0,0,1-.6-.6V3.6a.6.6,0,0,1,.6-.6Z" transform="translate(-6.334 -1.188)" fill="#d7dce3"/>
      <ellipse id="Elipse_11526" data-name="Elipse 11526" cx="1.847" cy="1.385" rx="1.847" ry="1.385" transform="translate(5.195 26.436)" fill="#52d4ad"/>
      <path id="Trazado_875372" data-name="Trazado 875372" d="M39.774,34.477,35.66,37.359a.414.414,0,0,1-.652-.393l.6-4.96L38.022,32Z" transform="translate(-13.857 -12.668)" fill="#b28a62"/>
      <path id="Trazado_875373" data-name="Trazado 875373" d="M47.325,14.8,40.172,26.69,36.01,24.219,43.163,12.33l2.507.4Z" transform="translate(-14.255 -4.881)" fill="#fcd066"/>
      <path id="Trazado_875374" data-name="Trazado 875374" d="M53.257,11.381l-1.245,2.066L47.85,10.976,49.095,8.91l2.471.659Z" transform="translate(-18.942 -3.527)" fill="#eaeaea"/>
      <rect id="Rectángulo_401645" data-name="Rectángulo 401645" width="3.694" height="2.771" rx="1" transform="translate(11.66 0.577)" fill="#bbc0cc"/>
      <path id="Trazado_875375" data-name="Trazado 875375" d="M55.317,7.767,54.072,9.833,49.91,7.362,51.155,5.3a.6.6,0,0,1,.828-.211l3.123,1.855A.6.6,0,0,1,55.317,7.767Z" transform="translate(-19.758 -1.979)" fill="#ed8787"/>
      <g id="Grupo_1101647" data-name="Grupo 1101647" transform="translate(0 0)">
        <path id="Trazado_875376" data-name="Trazado 875376" d="M2.417,36.248H25.374a2.417,2.417,0,0,0,2.417-2.417V19.871L36.076,6.1a1.2,1.2,0,0,0-.423-1.655L32.534,2.586A1.219,1.219,0,0,0,30.878,3L27.79,8.136V4.229a2.417,2.417,0,0,0-2.417-2.417H18.56a1.2,1.2,0,0,0-1.04-.6H16.312A1.208,1.208,0,0,0,15.1,0H12.687a1.208,1.208,0,0,0-1.208,1.208H10.27A1.208,1.208,0,0,0,9.062,2.417V4.229H3.625A1.208,1.208,0,0,0,2.417,5.437V32.623a1.208,1.208,0,0,0,1.208,1.208H24.165a1.208,1.208,0,0,0,1.208-1.208V22.93l.89-.623a.591.591,0,0,0,.171-.181l.147-.242V33.832a1.208,1.208,0,0,1-1.208,1.208H2.417a1.208,1.208,0,0,1-1.208-1.208V4.229A1.208,1.208,0,0,1,2.417,3.021H7.25a.6.6,0,1,0,0-1.208H2.417A2.417,2.417,0,0,0,0,4.229v29.6a2.417,2.417,0,0,0,2.417,2.417ZM30.362,6.209l3.122,1.855L32.865,9.1,29.743,7.241Zm1.556-2.584L35.04,5.478l-.933,1.551L30.985,5.174Zm-5.336.6v5.914l-1.208,2.008V5.437a1.208,1.208,0,0,0-1.208-1.208H18.728V3.021h6.645A1.208,1.208,0,0,1,26.582,4.229Zm-13.9-3.021H15.1V2.417H12.687ZM10.27,2.417h1.208a1.208,1.208,0,0,0,1.208,1.208H15.1a1.208,1.208,0,0,0,1.208-1.208H17.52V4.833H10.27Zm13.9,30.207H3.625V5.437H9.23a1.2,1.2,0,0,0,1.04.6h7.25a1.2,1.2,0,0,0,1.04-.6h5.605v8.722l-2.928,4.866a.588.588,0,0,0-.082.239l-.6,4.954a1.019,1.019,0,0,0,1.6.967l2.015-1.409ZM21.8,23.956l.442-3.625,2.563,1.523Zm3.911-2.971-3.125-1.857L29.119,8.277l3.122,1.856Z" transform="translate(0 0)" fill="#373737"/>
        <path id="Trazado_875377" data-name="Trazado 875377" d="M23.707,16.047l.8.8a.6.6,0,1,0,.854-.854l-1.812-1.812a.6.6,0,0,0-.854,0l-1.812,1.812a.6.6,0,1,0,.854.854l.767-.767c-.146,4.5-1.554,13.264-9.95,16.116a2.4,2.4,0,1,0,.294,1.18C16.38,32.178,23.4,28.258,23.707,16.047ZM10.432,34.541a1.208,1.208,0,1,1,1.208-1.208A1.208,1.208,0,0,1,10.432,34.541Z" transform="translate(-3.182 -5.542)" fill="#373737"/>
        <path id="Trazado_875378" data-name="Trazado 875378" d="M28.656,44.177a.6.6,0,0,0-.854,0l-1.385,1.385-1.385-1.385a.6.6,0,1,0-.854.854l1.385,1.385L24.177,47.8a.6.6,0,1,0,.854.854l1.385-1.385L27.8,48.656a.6.6,0,1,0,.854-.854l-1.385-1.385,1.385-1.385A.6.6,0,0,0,28.656,44.177Z" transform="translate(-9.501 -17.418)" fill="#373737"/>
        <path id="Trazado_875379" data-name="Trazado 875379" d="M9.177,33.656a.6.6,0,0,0,.854,0l1.385-1.385L12.8,33.656a.6.6,0,1,0,.854-.854l-1.385-1.385,1.385-1.385a.6.6,0,1,0-.854-.854l-1.385,1.385-1.385-1.385a.6.6,0,1,0-.854.854l1.385,1.385L9.177,32.8A.6.6,0,0,0,9.177,33.656Z" transform="translate(-3.563 -11.48)" fill="#373737"/>
        <path id="Trazado_875380" data-name="Trazado 875380" d="M17.177,21.656a.6.6,0,0,0,.854,0l1.385-1.385L20.8,21.656a.6.6,0,1,0,.854-.854l-1.385-1.385,1.385-1.385a.6.6,0,1,0-.854-.854l-1.385,1.385-1.385-1.385a.6.6,0,1,0-.854.854l1.385,1.385L17.177,20.8a.6.6,0,0,0,0,.854Z" transform="translate(-6.73 -6.73)" fill="#373737"/>
      </g>
    </g>
  </g>
</svg>
