<svg xmlns="http://www.w3.org/2000/svg" width="61.554" height="56.767" viewBox="0 0 61.554 56.767">
  <g id="_27" data-name="27" transform="translate(-334.621 -1399.423)">
    <g id="Rectángulo_401341" data-name="Rectángulo 401341" transform="translate(334.621 1399.423)" fill="#fece2f" stroke="#faedc1" stroke-width="3">
      <rect width="61.554" height="56.767" rx="12" stroke="none"/>
      <rect x="1.5" y="1.5" width="58.554" height="53.767" rx="10.5" fill="none"/>
    </g>
    <g id="teamwork_2942950" transform="translate(347.264 1409.654)">
      <g id="Grupo_1101144" data-name="Grupo 1101144" transform="translate(1.553 9.301)">
        <path id="Trazado_874691" data-name="Trazado 874691" d="M21.211,16H20.105a1.105,1.105,0,1,0,0,2.211h1.136" transform="translate(-9.604 -16)" fill="#efbe9a"/>
        <path id="Trazado_874692" data-name="Trazado 874692" d="M40.975,16h1.105a1.105,1.105,0,0,1,0,2.211H40.945" transform="translate(-19.42 -16)" fill="#efbe9a"/>
        <path id="Trazado_874693" data-name="Trazado 874693" d="M57.975,38h1.105a1.105,1.105,0,0,1,0,2.211H57.945" transform="translate(-27.023 -25.84)" fill="#efbe9a"/>
        <path id="Trazado_874694" data-name="Trazado 874694" d="M38.211,38H37.105a1.105,1.105,0,0,0,0,2.211h1.136" transform="translate(-17.208 -25.84)" fill="#efbe9a"/>
        <path id="Trazado_874695" data-name="Trazado 874695" d="M23.976,38h1.105a1.105,1.105,0,0,1,0,2.211l-1.135,0" transform="translate(-11.816 -25.84)" fill="#efbe9a"/>
        <path id="Trazado_874696" data-name="Trazado 874696" d="M4.211,38H3.105a1.105,1.105,0,1,0,0,2.211H4.241" transform="translate(-2 -25.84)" fill="#efbe9a"/>
      </g>
      <path id="Trazado_874697" data-name="Trazado 874697" d="M11.843,53l5.366.826A3.317,3.317,0,0,1,19.754,55.8l.933,2.177H3V53.68L7.422,53" transform="translate(-0.895 -23.248)" fill="#78b75b"/>
      <path id="Trazado_874698" data-name="Trazado 874698" d="M12.553,55,12,56.658l1.105,2.211h1.105l1.105-2.211L14.764,55" transform="translate(-4.92 -24.143)" fill="#d5cec2"/>
      <path id="Trazado_874699" data-name="Trazado 874699" d="M37.843,53l-5.366.826A3.317,3.317,0,0,0,29.933,55.8L29,57.974H46.687V53.68L42.265,53" transform="translate(-12.524 -23.248)" fill="#e47c6e"/>
      <path id="Trazado_874700" data-name="Trazado 874700" d="M48.764,55l.553,1.658-1.105,2.211H47.105L46,56.658,46.553,55" transform="translate(-20.128 -24.143)" fill="#d5cec2"/>
      <path id="Trazado_874701" data-name="Trazado 874701" d="M45,49v2.211l2.211,2.211,2.211-2.211V49" transform="translate(-19.681 -21.459)" fill="#fadfb2"/>
      <path id="Trazado_874702" data-name="Trazado 874702" d="M29.137,27v2.211l.964.482a2.885,2.885,0,0,0,.3,1.49l.948,1.9H30.243a1.105,1.105,0,1,0,0,2.211h1.136l0-.044a4.967,4.967,0,0,0,1.822,3.36H20.657a4.968,4.968,0,0,0,1.818-3.32l.03,0H23.61a1.105,1.105,0,0,0,0-2.211H22.5l.636-1.474a3.909,3.909,0,0,0,.314-1.767h.006l1.255-.627V27Z" transform="translate(-8.792 -11.619)" fill="#758190"/>
      <path id="Trazado_874703" data-name="Trazado 874703" d="M31.658,43.974l.553-3.316L31.658,39H30.553L30,40.658l.553,3.316Z" transform="translate(-12.971 -16.986)" fill="#e7e4dd"/>
      <path id="Trazado_874704" data-name="Trazado 874704" d="M29.553,33,29,34.658l1.105,1.658h1.105l1.105-1.658L31.764,33" transform="translate(-12.524 -14.302)" fill="#d5cec2"/>
      <path id="Trazado_874705" data-name="Trazado 874705" d="M31.843,11l-.884.663a4.974,4.974,0,0,1-5.969,0L24.105,11,23,13.211v2.211a4.969,4.969,0,0,0,2.764,4.451v2.182l2.211,2.211,2.211-2.211V19.873a4.97,4.97,0,0,0,2.764-4.451V13.211Z" transform="translate(-9.84 -4.462)" fill="#fadfb2"/>
      <path id="Trazado_874706" data-name="Trazado 874706" d="M11,49v2.211l2.211,2.211,2.211-2.211V49" transform="translate(-4.473 -21.459)" fill="#fadfb2"/>
      <path id="Trazado_874707" data-name="Trazado 874707" d="M40,35.211v2.211a4.974,4.974,0,1,0,9.949,0V35.211L48.843,33l-.884.663a4.974,4.974,0,0,1-5.969,0L41.105,33Z" transform="translate(-17.444 -14.302)" fill="#fadfb2"/>
      <path id="Trazado_874708" data-name="Trazado 874708" d="M48.934,31.738l.636-1.474a3.912,3.912,0,0,0-1.971-5.11l-1.542-.7A5.023,5.023,0,0,0,40.962,25l-.957.72a2.891,2.891,0,0,0-1.969,4.117l.948,1.9v-.553l1.105-2.211.884.663a4.974,4.974,0,0,0,5.969,0l.884-.663,1.105,2.211Z" transform="translate(-16.43 -10.277)" fill="#c18e59"/>
      <path id="Trazado_874709" data-name="Trazado 874709" d="M6,35.211v2.211a4.974,4.974,0,1,0,9.949,0V35.211L14.843,33l-.884.663a4.974,4.974,0,0,1-5.969,0L7.105,33Z" transform="translate(-2.236 -14.302)" fill="#fadfb2"/>
      <path id="Trazado_874710" data-name="Trazado 874710" d="M14.934,31.738l.636-1.474a3.912,3.912,0,0,0-1.971-5.11l-1.542-.7A5.022,5.022,0,0,0,6.962,25l-.957.72a2.891,2.891,0,0,0-1.969,4.117l.948,1.9v-.553l1.105-2.211.884.663a4.974,4.974,0,0,0,5.969,0l.884-.663,1.105,2.211Z" transform="translate(-1.222 -10.277)" fill="#c18e59"/>
      <path id="Trazado_874711" data-name="Trazado 874711" d="M31.934,9.738l.636-1.474A3.912,3.912,0,0,0,30.6,3.154l-1.542-.7A5.023,5.023,0,0,0,23.962,3l-.957.72a2.891,2.891,0,0,0-1.969,4.117l.948,1.9V9.185l1.105-2.211.884.663a4.974,4.974,0,0,0,5.969,0l.884-.663,1.105,2.211Z" transform="translate(-8.826 -0.437)" fill="#c18e59"/>
      <path id="Trazado_874712" data-name="Trazado 874712" d="M32.946,24.225h.664a1.658,1.658,0,1,0,0-3.316h-.265l.3-.7a4.465,4.465,0,0,0-2.25-5.832l-1.543-.7a5.665,5.665,0,0,0-5.655.614l-.872.654v0A3.427,3.427,0,0,0,20.9,17.254l-.007,0V15.739a5.541,5.541,0,0,0,2.652-3.674h.664a1.658,1.658,0,0,0,0-3.316h-.265l.3-.7A4.465,4.465,0,0,0,22,2.215l-1.543-.7a5.665,5.665,0,0,0-5.655.614l-.872.653v0a3.439,3.439,0,0,0-2.219,4.871l.549,1.1h-.211a1.658,1.658,0,1,0,0,3.316h.664a5.54,5.54,0,0,0,2.652,3.674v1.512l-.282.141a4.4,4.4,0,0,0-2.482-3.018l-1.543-.7a5.665,5.665,0,0,0-5.655.614l-.872.653v0A3.439,3.439,0,0,0,2.32,19.811l.549,1.1H2.658a1.658,1.658,0,0,0,0,3.316h.664A5.539,5.539,0,0,0,5.974,27.9v1.379l-3.953.608a.553.553,0,0,0-.469.546v4.294a.552.552,0,0,0,.553.553H34.163a.552.552,0,0,0,.553-.553V30.432a.553.553,0,0,0-.469-.546l-3.953-.608V27.9a5.541,5.541,0,0,0,2.652-3.674ZM27.53,27.541a4.427,4.427,0,0,1-4.422-4.422V21.038l.751-1.5.355.266a5.527,5.527,0,0,0,6.633,0l.354-.266.751,1.5v2.081A4.427,4.427,0,0,1,27.53,27.541Zm-2.764,1.736-4.9.754a3.863,3.863,0,0,0-1.739.733,3.839,3.839,0,0,0-1.73-.733l-4.9-.753V27.9a5.548,5.548,0,0,0,.553-.368v.01h12.16V27.53a5.612,5.612,0,0,0,.553.368Zm-7.024-9.083a.553.553,0,0,0,.782,0L19,19.721l.185.553-.791,1.187h-.513l-.791-1.187.185-.553Zm2.711-1.93.3.151a3.438,3.438,0,0,0,.357,1.4l.549,1.1H21.45a1.658,1.658,0,1,0,0,3.316h.664a5.5,5.5,0,0,0,1,2.211h-3.78l.445-2.673a.547.547,0,0,0-.021-.265L19.3,22.1l.956-1.433a.552.552,0,0,0,.064-.481l-.444-1.334ZM22,23.119H21.45a.553.553,0,1,1,0-1.105H22Zm-4.407.6.384-1.15h.309l.384,1.15-.454,2.719H18.05Zm16.566-1.15a.552.552,0,0,1-.552.553h-.553V22.014h.553A.553.553,0,0,1,34.162,22.567Zm-11.975-5.5a2.348,2.348,0,0,1,2-1.135,2.582,2.582,0,0,1,2.152,1.152l.174.26.92-.614-.173-.26a3.682,3.682,0,0,0-2.085-1.506,4.545,4.545,0,0,1,4.219-.289l1.543.7a3.36,3.36,0,0,1,1.692,4.388l-.038.087-.7-1.4a.55.55,0,0,0-.368-.291.561.561,0,0,0-.459.1l-.884.663a4.423,4.423,0,0,1-5.307,0l-.884-.663a.561.561,0,0,0-.459-.1.553.553,0,0,0-.368.291l-.749,1.5-.316-.632a2.326,2.326,0,0,1,.087-2.248Zm2.579-6.662a.554.554,0,0,1-.553.553h-.553V9.854h.553A.553.553,0,0,1,24.767,10.407Zm-11.975-5.5a2.348,2.348,0,0,1,2-1.135,2.582,2.582,0,0,1,2.152,1.152l.174.26.919-.614-.173-.26a3.682,3.682,0,0,0-2.085-1.506A4.547,4.547,0,0,1,20,2.517l1.543.7a3.36,3.36,0,0,1,1.692,4.388l-.038.087-.7-1.4A.55.55,0,0,0,22.13,6a.562.562,0,0,0-.459.1l-.884.663a4.421,4.421,0,0,1-5.306,0L14.6,6.1a.553.553,0,0,0-.826.2l-.749,1.5L12.7,7.157a2.327,2.327,0,0,1,.087-2.248Zm-.737,6.051a.553.553,0,1,1,0-1.105h.553V10.96Zm1.658,0V8.879l.751-1.5.354.266a5.527,5.527,0,0,0,6.633,0l.355-.266.751,1.5V10.96a4.422,4.422,0,0,1-8.843,0Zm4.422,5.527a5.5,5.5,0,0,0,1.658-.255v1.131l-1.658,1.658-1.658-1.658V16.232A5.5,5.5,0,0,0,18.134,16.487Zm-2.321,1.778.583.583-.444,1.334a.552.552,0,0,0,.064.481l.956,1.433L16.5,23.5a.548.548,0,0,0-.021.265l.445,2.674H13.149a5.492,5.492,0,0,0,1-2.211h.664a1.658,1.658,0,1,0,0-3.316h-.265l.3-.7a4.458,4.458,0,0,0,.358-1.641Zm-1.548,3.75h.553a.553.553,0,1,1,0,1.105h-.553ZM3.4,17.069a2.348,2.348,0,0,1,2-1.135,2.582,2.582,0,0,1,2.152,1.152l.174.26.919-.614-.173-.26a3.682,3.682,0,0,0-2.085-1.506,4.545,4.545,0,0,1,4.219-.289l1.543.7a3.36,3.36,0,0,1,1.692,4.388l-.038.087-.7-1.4a.55.55,0,0,0-.368-.291.561.561,0,0,0-.459.1l-.884.663a4.421,4.421,0,0,1-5.306,0L5.2,18.255a.553.553,0,0,0-.826.2l-.749,1.5-.317-.632A2.326,2.326,0,0,1,3.4,17.069Zm-1.29,5.5a.551.551,0,0,1,.553-.552h.553v1.105H2.658A.553.553,0,0,1,2.105,22.566Zm2.211.553V21.038l.751-1.5.354.266a5.527,5.527,0,0,0,6.633,0l.355-.266.751,1.5v2.081a4.422,4.422,0,1,1-8.843,0Zm4.422,5.527a5.5,5.5,0,0,0,1.658-.255v1.131L8.738,31.181,7.08,29.523V28.392A5.5,5.5,0,0,0,8.738,28.646Zm-6.08,2.259,3.676-.565L7,31.006,6.556,32.34a.553.553,0,0,0,.03.422l.705,1.411H2.658Zm5.869,3.267-.85-1.7.2-.593.473.473a.552.552,0,0,0,.782,0L9.6,31.88l.2.593-.85,1.7H8.527Zm7.585,0H10.185l.705-1.411a.551.551,0,0,0,.03-.422l-.444-1.334.666-.666,5.089.783a2.74,2.74,0,0,1,1.114.438,3.912,3.912,0,0,0-.444.769Zm1.805-1.407a2.747,2.747,0,0,1,2.12-1.643l5.089-.783.667.666-.444,1.334a.553.553,0,0,0,.03.422l.705,1.412H17.314Zm9.4,1.407-.85-1.7.2-.593.473.473a.552.552,0,0,0,.782,0l.473-.473.2.593-.85,1.7Zm6.291,0H28.977l.706-1.411a.551.551,0,0,0,.03-.422l-.445-1.334.666-.665,3.676.565Zm-4.422-4.651L27.53,31.181l-1.658-1.658V28.391a5.517,5.517,0,0,0,3.316,0Z" transform="translate(0 0)"/>
    </g>
  </g>
</svg>
