<svg xmlns="http://www.w3.org/2000/svg" width="61.554" height="56.767" viewBox="0 0 61.554 56.767">
  <g id="_28" data-name="28" transform="translate(-334.621 -1399.423)">
    <g id="Rectángulo_401341" data-name="Rectángulo 401341" transform="translate(334.621 1399.423)" fill="#fece2f" stroke="#faedc1" stroke-width="3">
      <rect width="61.554" height="56.767" rx="12" stroke="none"/>
      <rect x="1.5" y="1.5" width="58.554" height="53.767" rx="10.5" fill="none"/>
    </g>
    <g id="empleado" transform="translate(344.672 1408.463)">
      <g id="Grupo_1101646" data-name="Grupo 1101646" transform="translate(1.592 1.592)">
        <g id="Grupo_1101630" data-name="Grupo 1101630" transform="translate(7.101 27.219)">
          <path id="Trazado_875354" data-name="Trazado 875354" d="M17.55,48a1.187,1.187,0,0,1,1.183,1.183v4.734a2.367,2.367,0,1,1-4.734,0V49.183A1.187,1.187,0,0,1,15.183,48H17.55Z" transform="translate(-14 -48)" fill="#969faa"/>
        </g>
        <g id="Grupo_1101631" data-name="Grupo 1101631" transform="translate(7.692 24.686)">
          <path id="Trazado_875355" data-name="Trazado 875355" d="M18.55,43.72v1.349a1.187,1.187,0,0,1-1.183,1.183H16.183A1.187,1.187,0,0,1,15,45.069V43.72a9.592,9.592,0,0,0,3.55,0Z" transform="translate(-15 -43.72)" fill="#ccd1d9"/>
        </g>
        <g id="Grupo_1101632" data-name="Grupo 1101632" transform="translate(0 5.917)">
          <path id="Trazado_875356" data-name="Trazado 875356" d="M13.242,30.769a9.593,9.593,0,0,1-3.55,0,9.469,9.469,0,1,1,4.734-18.3v2.538a7.1,7.1,0,1,0,3.74,8.822h2.473A9.49,9.49,0,0,1,13.242,30.769Z" transform="translate(-2 -12)" fill="#fcd770"/>
        </g>
        <g id="Grupo_1101633" data-name="Grupo 1101633" transform="translate(2.367 8.284)">
          <path id="Trazado_875357" data-name="Trazado 875357" d="M14.284,25.467H19.8a7.1,7.1,0,1,1-3.74-8.822v.538a4.127,4.127,0,0,0,.538,2.047,5.68,5.68,0,0,0-1,.882A5.265,5.265,0,0,0,14.284,23.6Z" transform="translate(-6 -16)" fill="#69d6f4"/>
        </g>
        <g id="Grupo_1101634" data-name="Grupo 1101634" transform="translate(23.668 0)">
          <path id="Trazado_875358" data-name="Trazado 875358" d="M44.959,6.142a1.187,1.187,0,0,0-1.183,1.183h-.592a1.163,1.163,0,0,0-.775.29A3.882,3.882,0,0,1,45.882,2H46.4a3.882,3.882,0,0,1,3.473,5.615,1.163,1.163,0,0,0-.775-.29h-.592a1.187,1.187,0,0,0-1.183-1.183Z" transform="translate(-42 -2)" fill="#656d78"/>
        </g>
        <g id="Grupo_1101635" data-name="Grupo 1101635" transform="translate(22.485 10.651)">
          <path id="Trazado_875359" data-name="Trazado 875359" d="M50.651,24.775V27.1H45.917V25.917a1.192,1.192,0,0,0-1.183-1.183,1.187,1.187,0,0,0-1.183,1.183V27.1H40V24.775A4.82,4.82,0,0,1,44.142,20v.592a1.187,1.187,0,0,0,1.183,1.183,1.192,1.192,0,0,0,1.183-1.183V20a4.82,4.82,0,0,1,4.142,4.775Z" transform="translate(-40 -20)" fill="#fcd770"/>
        </g>
        <g id="Grupo_1101636" data-name="Grupo 1101636" transform="translate(10.651 10.858)">
          <path id="Trazado_875360" data-name="Trazado 875360" d="M29.515,21.007a5.274,5.274,0,0,1,2.319,4.367v1.87H20v-1.87a5.265,5.265,0,0,1,1.314-3.485,5.68,5.68,0,0,1,1-.882l1.349-.657.124.858a6.959,6.959,0,0,0,.314,1.3,6.687,6.687,0,0,0,.408,1,7.357,7.357,0,0,0,1.408,1.959,7.422,7.422,0,0,0,1.817-2.959,6.959,6.959,0,0,0,.314-1.3l.124-.858a5.244,5.244,0,0,1,1.343.657Z" transform="translate(-20 -20.35)" fill="#ef7385"/>
        </g>
        <g id="Grupo_1101637" data-name="Grupo 1101637" transform="translate(14.751 13.018)">
          <path id="Trazado_875361" data-name="Trazado 875361" d="M26.93,24h3.633a7.422,7.422,0,0,1-1.817,2.959A7.357,7.357,0,0,1,27.338,25a6.687,6.687,0,0,1-.408-1Z" transform="translate(-26.93 -24)" fill="#e6e9ed"/>
        </g>
        <g id="Grupo_1101638" data-name="Grupo 1101638" transform="translate(12.426 0)">
          <path id="Trazado_875362" data-name="Trazado 875362" d="M31.284,6.142v5.325a4.087,4.087,0,0,1-.544,2.047,5.244,5.244,0,0,0-1.343-.657,5.428,5.428,0,0,0-.941-.207l-.337-1.207-.006-.018a1.771,1.771,0,0,0,1.4-1.734V7.325h-.592A1.652,1.652,0,0,1,27.379,6.3a1.336,1.336,0,0,0-1.225-.746,1.376,1.376,0,0,0-1.379,1.379V9.692a1.771,1.771,0,0,0,1.4,1.734l-.006.018-.337,1.207a5.428,5.428,0,0,0-.941.207l-1.349.657A4.127,4.127,0,0,1,23,11.467V6.142a4.142,4.142,0,0,1,8.284,0Z" transform="translate(-23 -2)" fill="#b27946"/>
        </g>
        <g id="Grupo_1101639" data-name="Grupo 1101639" transform="translate(30.177 5.325)">
          <path id="Trazado_875363" data-name="Trazado 875363" d="M54.426,11.349a1.157,1.157,0,0,1,.349.834,1.187,1.187,0,0,1-1.183,1.183H53V11h.592a1.163,1.163,0,0,1,.775.29A.558.558,0,0,0,54.426,11.349Z" transform="translate(-53 -11)" fill="#f0d0b4"/>
        </g>
        <g id="Grupo_1101640" data-name="Grupo 1101640" transform="translate(23.668 5.325)">
          <path id="Trazado_875364" data-name="Trazado 875364" d="M43.775,11v2.367h-.592A1.192,1.192,0,0,1,42,12.183a1.191,1.191,0,0,1,.408-.893,1.163,1.163,0,0,1,.775-.29Z" transform="translate(-42 -11)" fill="#f0d0b4"/>
        </g>
        <g id="Grupo_1101641" data-name="Grupo 1101641" transform="translate(26.627 9.444)">
          <path id="Trazado_875365" data-name="Trazado 875365" d="M47.3,17.96a1.555,1.555,0,0,0,.29.024h1.183a1.555,1.555,0,0,0,.29-.024l.3,1.207v.592a1.192,1.192,0,0,1-1.183,1.183A1.187,1.187,0,0,1,47,19.759v-.592Z" transform="translate(-47 -17.96)" fill="#f0d0b4"/>
        </g>
        <g id="Grupo_1101642" data-name="Grupo 1101642" transform="translate(25.444 4.142)">
          <path id="Trazado_875366" data-name="Trazado 875366" d="M46.775,14.325a1.555,1.555,0,0,1-.29-.024A1.776,1.776,0,0,1,45,12.55V10.183A1.187,1.187,0,0,1,46.183,9H48.55a1.187,1.187,0,0,1,1.183,1.183V12.55A1.776,1.776,0,0,1,48.248,14.3a1.555,1.555,0,0,1-.29.024Z" transform="translate(-45 -9)" fill="#f0d0b4"/>
        </g>
        <g id="Grupo_1101643" data-name="Grupo 1101643" transform="translate(14.313 9.426)">
          <path id="Trazado_875367" data-name="Trazado 875367" d="M29.758,19.155a5.428,5.428,0,0,1,.941.207l-.124.858a6.959,6.959,0,0,1-.314,1.3H26.628a6.959,6.959,0,0,1-.314-1.3l-.124-.858a5.428,5.428,0,0,1,.941-.207l.337-1.207.006-.018a1.615,1.615,0,0,0,.379.041h1.183a1.615,1.615,0,0,0,.379-.041l.006.018Z" transform="translate(-26.19 -17.93)" fill="#f0d0b4"/>
        </g>
        <g id="Grupo_1101644" data-name="Grupo 1101644" transform="translate(14.201 3.55)">
          <path id="Trazado_875368" data-name="Trazado 875368" d="M29.337,13.876a1.615,1.615,0,0,1-.379.041H27.775a1.615,1.615,0,0,1-.379-.041A1.771,1.771,0,0,1,26,12.142V9.379A1.376,1.376,0,0,1,27.379,8a1.336,1.336,0,0,1,1.225.746,1.652,1.652,0,0,0,1.538,1.03h.592v2.367A1.771,1.771,0,0,1,29.337,13.876Z" transform="translate(-26 -8)" fill="#f0d0b4"/>
        </g>
        <g id="Grupo_1101645" data-name="Grupo 1101645" transform="translate(22.485 15.384)">
          <path id="Trazado_875369" data-name="Trazado 875369" d="M43.55,39.467V29.183A1.187,1.187,0,0,1,44.734,28a1.192,1.192,0,0,1,1.183,1.183V35.1l2.367.592,2.367.592,1.473.367a1.178,1.178,0,0,1,.893,1.148v6.118a3.536,3.536,0,0,1-.775,2.213l-1.592,1.988h-7.1L41.959,46.13a3.536,3.536,0,0,1-.775-2.213V41.266a3.614,3.614,0,0,0-.373-1.592L40.1,38.26a.957.957,0,0,1,.858-1.385,2.586,2.586,0,0,1,2.592,2.592Z" transform="translate(-40 -28)" fill="#f0d0b4"/>
        </g>
      </g>
      <path id="Trazado_875370" data-name="Trazado 875370" d="M36.342,25.054,35.319,24.8h0l-2.367-.592-1.183-.3-1.183-.3v-3.68h4.734V17.018a5.446,5.446,0,0,0-4.253-5.289l-.076-.305a2.367,2.367,0,0,0,1.286-1.547h.084A1.773,1.773,0,0,0,33.824,7.1,4.461,4.461,0,0,0,29.662,1h-.521A4.461,4.461,0,0,0,24.98,7.1a1.758,1.758,0,0,0-.312,1,1.777,1.777,0,0,0,1.775,1.775h.084a2.364,2.364,0,0,0,1.286,1.547l-.076.305a5.451,5.451,0,0,0-3.748,3.023A5.912,5.912,0,0,0,22.5,12.932a4.746,4.746,0,0,0,.391-1.873V5.734a4.734,4.734,0,1,0-9.467,0V7.2A10.055,10.055,0,1,0,8.692,26.742v.885a1.756,1.756,0,0,0,.237.87,1.771,1.771,0,0,0-.829,1.5v4.734a2.959,2.959,0,1,0,5.917,0V29.994a1.771,1.771,0,0,0-.829-1.5,1.756,1.756,0,0,0,.237-.87v-.878a10.043,10.043,0,0,0,7.241-6.815h6.369v6.053a3.152,3.152,0,0,0-2-.728A1.55,1.55,0,0,0,23.648,27.5l.707,1.415a2.965,2.965,0,0,1,.313,1.322v2.65a4.161,4.161,0,0,0,.907,2.588l1.767,2.208h7.669l1.767-2.208a4.159,4.159,0,0,0,.908-2.588V26.776a1.773,1.773,0,0,0-1.344-1.722ZM28.81,12.314l.166-.663h.851l.166.663v.52a.592.592,0,1,1-1.183,0Zm3.55-3.622V7.509a.592.592,0,0,1,0,1.183ZM25.852,8.1a.592.592,0,0,1,.592-.592V8.692A.592.592,0,0,1,25.852,8.1Zm.7-1.775h-.109a1.754,1.754,0,0,0-.455.066,3.272,3.272,0,0,1,3.153-4.208h.521a3.273,3.273,0,0,1,3.153,4.209,1.73,1.73,0,0,0-.455-.067h-.109a1.773,1.773,0,0,0-1.666-1.183H28.219a1.773,1.773,0,0,0-1.666,1.183Zm1.075.592a.592.592,0,0,1,.592-.592h2.367a.592.592,0,0,1,.592.592V9.284a1.185,1.185,0,0,1-1.183,1.183H28.81a1.185,1.185,0,0,1-1.183-1.183ZM23.485,17.474v1.277H12.834V17.474a4.692,4.692,0,0,1,2.595-4.186l.015.1a8.175,8.175,0,0,0,2.3,4.6l.418.418.418-.418a8.175,8.175,0,0,0,2.3-4.6l.015-.1A4.693,4.693,0,0,1,23.485,17.474Zm-9.668-4.542a5.868,5.868,0,0,0-2.166,4.542v2.46h5.2a6.508,6.508,0,1,1-5.8-9.467,6.448,6.448,0,0,1,2.367.454v.138a4.736,4.736,0,0,0,.391,1.873Zm5.886.291a6.852,6.852,0,0,1-.165.794H16.781a6.8,6.8,0,0,1-.165-.794l-.047-.332c.116-.024.233-.047.352-.062l.389-.05.313-1.128H18.7l.314,1.128.389.05c.12.015.236.038.352.062Zm-.6,1.977a6.994,6.994,0,0,1-.946,1.491,6.965,6.965,0,0,1-.946-1.491Zm-.354-4.734H17.568a1.185,1.185,0,0,1-1.183-1.183V6.523a.792.792,0,0,1,.789-.79.759.759,0,0,1,.691.411,2.229,2.229,0,0,0,2.07,1.364V9.284a1.185,1.185,0,0,1-1.183,1.183ZM14.609,5.734a3.55,3.55,0,1,1,7.1,0v5.325a3.548,3.548,0,0,1-.218,1.208,5.819,5.819,0,0,0-1.549-.547l-.1-.35a2.359,2.359,0,0,0,1.272-2.086V6.325H19.935a1.04,1.04,0,0,1-1-.694A1.95,1.95,0,0,0,17.173,4.55,1.976,1.976,0,0,0,15.2,6.523V9.284a2.359,2.359,0,0,0,1.272,2.086l-.1.35a5.829,5.829,0,0,0-1.549.547,3.561,3.561,0,0,1-.217-1.208ZM12.834,34.727a1.775,1.775,0,1,1-3.55,0V29.994a.592.592,0,0,1,.592-.592h2.367a.592.592,0,0,1,.592.592Zm-.592-7.1a.592.592,0,0,1-.592.592H10.467a.592.592,0,0,1-.592-.592V26.96a10.141,10.141,0,0,0,1.183.076,10.173,10.173,0,0,0,1.183-.078Zm-1.183-1.775A8.876,8.876,0,1,1,13.426,8.427V9.658a7.692,7.692,0,1,0,4.73,10.276h1.273a8.871,8.871,0,0,1-8.37,5.917Zm13.609-7.1V17.018a4.256,4.256,0,0,1,2.973-4.037,1.766,1.766,0,0,0,3.521,0,4.256,4.256,0,0,1,2.973,4.037v1.733h-3.55V18.16a1.775,1.775,0,1,0-3.55,0v.592ZM36.5,32.891a2.967,2.967,0,0,1-.649,1.848L34.443,36.5H27.911L26.5,34.739a2.971,2.971,0,0,1-.648-1.848v-2.65a4.164,4.164,0,0,0-.437-1.852l-.707-1.415a.358.358,0,0,1-.039-.164.366.366,0,0,1,.366-.366,2,2,0,0,1,2,2v2.733h1.183V18.16a.592.592,0,0,1,1.183,0V31.177h1.183V24.835l1.183.3v6.047h1.183V25.426l1.183.3v5.455h1.183v-5.16l.735.184a.592.592,0,0,1,.449.575Z" transform="translate(0)"/>
    </g>
  </g>
</svg>
