<svg xmlns="http://www.w3.org/2000/svg" width="61.554" height="56.767" viewBox="0 0 61.554 56.767">
  <g id="_33" data-name="33" transform="translate(-334.621 -1399.423)">
    <g id="Trazado_874776" data-name="Trazado 874776" transform="translate(334.621 1399.423)" fill="#fece2f">
      <path d="M 49.55414199829102 55.2666015625 L 12.00000286102295 55.2666015625 C 6.210282802581787 55.2666015625 1.500002861022949 50.55632019042969 1.500002861022949 44.7666015625 L 1.500002861022949 12.00000095367432 C 1.500002861022949 6.210280895233154 6.210282802581787 1.500000834465027 12.00000286102295 1.500000834465027 L 49.55414199829102 1.500000834465027 C 55.34386444091797 1.500000834465027 60.05414199829102 6.210280895233154 60.05414199829102 12.00000095367432 L 60.05414199829102 44.7666015625 C 60.05414199829102 50.55632019042969 55.34386444091797 55.2666015625 49.55414199829102 55.2666015625 Z" stroke="none"/>
      <path d="M 11.99999618530273 3 C 7.037372589111328 3 2.999996185302734 7.037380218505859 2.999996185302734 12 L 2.999996185302734 44.7666015625 C 2.999996185302734 49.72922134399414 7.037372589111328 53.7666015625 11.99999618530273 53.7666015625 L 49.55413818359375 53.7666015625 C 54.51676177978516 53.7666015625 58.55413818359375 49.72922134399414 58.55413818359375 44.7666015625 L 58.55413818359375 12 C 58.55413818359375 7.037380218505859 54.51676177978516 3 49.55413818359375 3 L 11.99999618530273 3 M 11.99999618530273 0 L 49.55413818359375 0 C 56.18156051635742 0 61.55413818359375 5.372577667236328 61.55413818359375 12 L 61.55413818359375 44.7666015625 C 61.55413818359375 51.39402389526367 56.18156051635742 56.7666015625 49.55413818359375 56.7666015625 L 11.99999618530273 56.7666015625 C 5.372585296630859 56.7666015625 -3.814697265625e-06 51.39402389526367 -3.814697265625e-06 44.7666015625 L -3.814697265625e-06 12 C -3.814697265625e-06 5.372577667236328 5.372585296630859 0 11.99999618530273 0 Z" stroke="none" fill="#faedc1"/>
    </g>
    <g id="Layer_11" data-name="Layer 11" transform="translate(344.207 1406.614)">
      <path id="Trazado_875456" data-name="Trazado 875456" d="M40,47.491v-4.56a3.337,3.337,0,0,1,2.528-3.237l2.683-.671V37.2h3.908v1.824l2.683.671a3.337,3.337,0,0,1,2.528,3.237v4.56Z" transform="translate(-13.598 -12.621)" fill="#d08d78"/>
      <path id="Trazado_875457" data-name="Trazado 875457" d="M52.151,40.04l-2.683-.671V38.191a3.871,3.871,0,0,1-3.257.3v.879l-2.683.671A3.337,3.337,0,0,0,41,43.277v4.559H54.678V43.277a3.337,3.337,0,0,0-2.528-3.237Z" transform="translate(-13.946 -12.966)" fill="#f2b9a1"/>
      <path id="Trazado_875458" data-name="Trazado 875458" d="M43,49h1.3v2.605H43Z" transform="translate(-14.644 -16.735)" fill="#e73844"/>
      <path id="Trazado_875459" data-name="Trazado 875459" d="M57,49h1.3v2.605H57Z" transform="translate(-19.525 -16.735)" fill="#e73844"/>
      <path id="Trazado_875460" data-name="Trazado 875460" d="M42,24.491V21.559A4.56,4.56,0,0,1,46.56,17h2.5a2.858,2.858,0,0,1,2.711,1.954,2.858,2.858,0,0,1,1.954,2.711v2.826" transform="translate(-14.295 -5.578)" fill="#383838"/>
      <path id="Trazado_875461" data-name="Trazado 875461" d="M44,21.559v2.931H54.422V21.665a2.858,2.858,0,0,0-1.954-2.711A2.858,2.858,0,0,0,49.757,17h-1.2A4.559,4.559,0,0,0,44,21.559Z" transform="translate(-14.992 -5.578)" fill="#4c4c4c"/>
      <path id="Trazado_875462" data-name="Trazado 875462" d="M48.908,33.119a3.908,3.908,0,0,0,3.908-3.908V25.3a1.3,1.3,0,0,0-1.3-1.3A6.671,6.671,0,0,1,46.8,25.954H45v3.257A3.908,3.908,0,0,0,48.908,33.119Z" transform="translate(-15.341 -8.019)" fill="#d08d78"/>
      <path id="Trazado_875463" data-name="Trazado 875463" d="M44.257,28H42.628a1.628,1.628,0,1,0,0,3.257h1.628" transform="translate(-13.946 -9.413)" fill="#d08d78"/>
      <path id="Trazado_875464" data-name="Trazado 875464" d="M56,28h1.628a1.628,1.628,0,1,1,0,3.257H56" transform="translate(-19.176 -9.413)" fill="#d08d78"/>
      <path id="Trazado_875465" data-name="Trazado 875465" d="M50.257,33.06a3.908,3.908,0,0,0,3.257-3.85V25.3a1.3,1.3,0,0,0-1.3-1.3,6.671,6.671,0,0,1-4.718,1.954H47v3.257a3.908,3.908,0,0,0,3.257,3.85Z" transform="translate(-16.038 -8.019)" fill="#f2b9a1"/>
      <path id="Trazado_875466" data-name="Trazado 875466" d="M47.165,41.3,49.119,40l2.683.671a3.337,3.337,0,0,1,2.528,3.237v4.559H40V43.908a3.337,3.337,0,0,1,2.528-3.237L45.211,40Z" transform="translate(-13.598 -13.597)" fill="#0059be"/>
      <path id="Trazado_875467" data-name="Trazado 875467" d="M52.151,40.671,49.468,40l-1.954,1.3-1.776-1.184-2.209.552A3.337,3.337,0,0,0,41,43.908v4.559H54.678V43.908a3.337,3.337,0,0,0-2.528-3.237Z" transform="translate(-13.946 -13.597)" fill="#006bdb"/>
      <g id="Grupo_1101669" data-name="Grupo 1101669" transform="translate(28.356 26.403)">
        <path id="Trazado_875468" data-name="Trazado 875468" d="M43,49h1.3v2.605H43Z" transform="translate(-43 -43.138)" fill="#004c9d"/>
        <path id="Trazado_875469" data-name="Trazado 875469" d="M57,49h1.3v2.605H57Z" transform="translate(-47.881 -43.138)" fill="#004c9d"/>
        <path id="Trazado_875470" data-name="Trazado 875470" d="M44.667,40.543l2.171,2.714L48.792,41.3,46.838,40Z" transform="translate(-43.581 -40)" fill="#004c9d"/>
        <path id="Trazado_875471" data-name="Trazado 875471" d="M55.125,40.543l-2.171,2.714L51,41.3,52.954,40Z" transform="translate(-45.789 -40)" fill="#004c9d"/>
      </g>
      <path id="Trazado_875472" data-name="Trazado 875472" d="M49.477,44.6l-.977-.976L50.128,42l1.628,1.628-.977.977Z" transform="translate(-16.561 -14.294)" fill="#ffd98c"/>
      <path id="Trazado_875473" data-name="Trazado 875473" d="M28,2V5.908h3.367a13.712,13.712,0,0,1,7.055,1.954l-1.3,1.3h4.559l-.651-4.559-1.3,1.3A13.342,13.342,0,0,0,30.29,2Z" transform="translate(-9.414 -0.349)" fill="#ff4d55"/>
      <path id="Trazado_875474" data-name="Trazado 875474" d="M11.77,32.745v2.12l-5.722,2.2a5.339,5.339,0,0,0-3.417,4.692L2,51.8H26.752l-.631-10.043A5.339,5.339,0,0,0,22.7,37.066l-5.723-2.2v-2.12Z" transform="translate(-0.349 -11.068)" fill="#c1cfe8"/>
      <path id="Trazado_875475" data-name="Trazado 875475" d="M27.051,41.006a5.346,5.346,0,0,0-3.322-3.94l-5.723-2.2v-2.12H14.1v2.12l-5.722,2.2a5.341,5.341,0,0,0-3.418,4.69A9.451,9.451,0,0,0,14.39,51.8H27.776l-.631-10.043a5.317,5.317,0,0,0-.1-.752Z" transform="translate(-1.374 -11.068)" fill="#d7e0ef"/>
      <path id="Trazado_875476" data-name="Trazado 875476" d="M22.211,34.865v-2.12H17v2.12l2.605,3.257Z" transform="translate(-5.579 -11.068)" fill="#d08d78"/>
      <path id="Trazado_875477" data-name="Trazado 875477" d="M11,18.966V15.211A5.211,5.211,0,0,1,16.211,10h3.151a2.858,2.858,0,0,1,2.711,1.954,2.858,2.858,0,0,1,1.954,2.711v4.3" transform="translate(-3.487 -3.138)" fill="#383838"/>
      <path id="Trazado_875478" data-name="Trazado 875478" d="M13,15.211v3.755H24.724v-4.3a2.858,2.858,0,0,0-1.954-2.713A2.858,2.858,0,0,0,20.059,10H18.211A5.211,5.211,0,0,0,13,15.211Z" transform="translate(-4.184 -3.138)" fill="#4c4c4c"/>
      <path id="Trazado_875479" data-name="Trazado 875479" d="M12.605,23h-.651a1.954,1.954,0,0,0,0,3.908h.84" transform="translate(-3.138 -7.67)" fill="#d08d78"/>
      <path id="Trazado_875480" data-name="Trazado 875480" d="M27.9,23h.651a1.954,1.954,0,1,1,0,3.908h-.84" transform="translate(-9.313 -7.67)" fill="#d08d78"/>
      <path id="Trazado_875481" data-name="Trazado 875481" d="M14,20.605v3.257a4.559,4.559,0,0,0,9.119,0V19.3a1.3,1.3,0,0,0-1.3-1.3,8.9,8.9,0,0,1-6.29,2.605Z" transform="translate(-4.533 -5.927)" fill="#d08d78"/>
      <path id="Trazado_875482" data-name="Trazado 875482" d="M13.013,37l1.946,4.864,3.257-2.605L15.61,36" transform="translate(-4.189 -12.203)" fill="#a5badb"/>
      <path id="Trazado_875483" data-name="Trazado 875483" d="M26.2,37l-1.946,4.864L21,39.257,23.605,36" transform="translate(-6.974 -12.203)" fill="#a5badb"/>
      <path id="Trazado_875484" data-name="Trazado 875484" d="M17.429,42.861,19.1,44.908h1.3l1.675-2.047L19.755,41Z" transform="translate(-5.729 -13.946)" fill="#ff4d55"/>
      <path id="Trazado_875485" data-name="Trazado 875485" d="M20.605,47H19.3L18,54.816l1.954,1.954,1.954-1.954Z" transform="translate(-5.928 -16.038)" fill="#e73844"/>
      <path id="Trazado_875486" data-name="Trazado 875486" d="M8,50H9.3v7.816H8Z" transform="translate(-2.441 -17.084)" fill="#a5badb"/>
      <path id="Trazado_875487" data-name="Trazado 875487" d="M32,50h1.3v7.816H32Z" transform="translate(-10.809 -17.084)" fill="#a5badb"/>
      <path id="Trazado_875488" data-name="Trazado 875488" d="M19.908,28.37a4.556,4.556,0,0,0,3.908-4.507V19.3a1.3,1.3,0,0,0-1.3-1.3,8.9,8.9,0,0,1-6.29,2.605H16v3.257a4.556,4.556,0,0,0,3.908,4.507Z" transform="translate(-5.23 -5.927)" fill="#f2b9a1"/>
      <path id="Trazado_875489" data-name="Trazado 875489" d="M22.908,33.74A4.54,4.54,0,0,1,19,34.369v.843l1.954,2.443,1.954-2.443Z" transform="translate(-6.276 -11.415)" fill="#f2b9a1"/>
      <path id="Trazado_875490" data-name="Trazado 875490" d="M51.605,50.559,50.954,46h-1.3L49,50.559Z" transform="translate(-16.736 -15.689)" fill="#f9cb5d"/>
      <path id="Trazado_875491" data-name="Trazado 875491" d="M41.678,10.211A13.027,13.027,0,0,0,31.257,5H28V6.954h3.367a13.713,13.713,0,0,1,7.055,1.954l-1.3,1.3Z" transform="translate(-9.414 -1.395)" fill="#e73844"/>
      <path id="Trazado_875492" data-name="Trazado 875492" d="M38.362,29.231l-2.19-.548v-.966a4.57,4.57,0,0,0,1.762-2.433h.521a2.276,2.276,0,0,0,1.625-3.87v-2.54a3.5,3.5,0,0,0-2.1-3.214,3.5,3.5,0,0,0-3.214-2.1h-2.5a5.217,5.217,0,0,0-5.211,5.211v2.643a2.276,2.276,0,0,0,1.628,3.87H29.2a4.57,4.57,0,0,0,1.759,2.433v.966l-2.19.548a3.973,3.973,0,0,0-2.736,2.418,5.955,5.955,0,0,0-3.445-3.47l-5.308-2.041V24.786a5.23,5.23,0,0,0,1.57-2.107h.384a2.592,2.592,0,0,0,1.954-4.311V14.316a3.5,3.5,0,0,0-2.1-3.214A3.5,3.5,0,0,0,15.875,9H12.724a5.869,5.869,0,0,0-5.862,5.862v3.506a2.592,2.592,0,0,0,1.954,4.311H9.2a5.23,5.23,0,0,0,1.57,2.107v1.354l-5.3,2.04a5.992,5.992,0,0,0-3.834,5.26L1,43.482a.651.651,0,0,0,.651.692H26.4a.651.651,0,0,0,.651-.692l-.326-5.17h14a.651.651,0,0,0,.651-.651V33.1a3.983,3.983,0,0,0-3.021-3.869ZM18.379,27.954,17,31.39l-2.062-1.65,1.9-2.372ZM14.026,42.6,12.77,41.344,13.927,34.4h.2l1.157,6.942Zm.343-9.5h-.685l-1.062-1.3,1.4-1.124,1.4,1.124Zm4.868-11.724h-.045a5.242,5.242,0,0,0,.045-.651V18.77a1.3,1.3,0,1,1,0,2.605ZM12.724,10.3h3.151a2.2,2.2,0,0,1,2.093,1.509.651.651,0,0,0,.412.412,2.2,2.2,0,0,1,1.509,2.093V17.56a2.566,2.566,0,0,0-.651-.092v-1.3a1.954,1.954,0,0,0-1.954-1.954.651.651,0,0,0-.46.191,8.19,8.19,0,0,1-5.83,2.415H9.467a.651.651,0,0,0-.651.651,2.566,2.566,0,0,0-.651.092v-2.7A4.565,4.565,0,0,1,12.724,10.3ZM8.816,21.376a1.3,1.3,0,1,1,0-2.605v1.954a5.242,5.242,0,0,0,.045.651Zm1.3-.651V18.119h.875a9.479,9.479,0,0,0,6.514-2.566.651.651,0,0,1,.428.612v4.559a3.908,3.908,0,1,1-7.816,0Zm3.908,5.211a5.175,5.175,0,0,0,1.954-.384v.807L14.026,28.8l-1.954-2.443v-.807a5.175,5.175,0,0,0,1.954.384ZM11.21,27.368l1.9,2.376-2.062,1.65-1.374-3.44ZM2.931,33.515a4.7,4.7,0,0,1,3-4.12l2.525-.971,1.707,4.267a.651.651,0,0,0,1.012.266l.427-.342,1.08,1.32L11.43,41.46a.651.651,0,0,0,.182.568l.842.842H6.862V35.706h-1.3v7.165H2.344Zm19.563,9.355V35.706h-1.3v7.165H15.6l.842-.842a.651.651,0,0,0,.182-.568l-1.254-7.524,1.08-1.32.427.342a.651.651,0,0,0,1.012-.266l1.707-4.267,2.525.971a4.69,4.69,0,0,1,3,4.125l.587,9.35ZM36.55,30.121l-1.083,1.351L34.59,30.6l1.053-.7Zm-3.069,3.631h.173l.465,3.257h-1.1Zm.468-1.3h-.763l-.326-.326.707-.707.707.707Zm4.5-8.468h-.326V22.027h.326a.977.977,0,1,1,0,1.954Zm-6.188-9.119h2.5a2.2,2.2,0,0,1,2.093,1.509.651.651,0,0,0,.412.412,2.2,2.2,0,0,1,1.509,2.093v1.882a2.243,2.243,0,0,0-.326-.033h-.326v-.651a1.954,1.954,0,0,0-1.954-1.954.651.651,0,0,0-.46.191,5.981,5.981,0,0,1-4.257,1.763h-1.8a.651.651,0,0,0-.651.651h-.326a2.243,2.243,0,0,0-.326.033V18.77A3.912,3.912,0,0,1,32.264,14.862Zm-3.582,9.119a.977.977,0,0,1,0-1.954h.326v1.954Zm1.628,0V21.376h1.144a7.271,7.271,0,0,0,4.939-1.916.651.651,0,0,1,.431.613v3.908a3.257,3.257,0,1,1-6.514,0Zm3.257,4.559a4.531,4.531,0,0,0,1.3-.2v.5l-1.3.873-1.3-.868v-.5a4.531,4.531,0,0,0,1.3.191Zm-2.076,1.354,1.053.7-.877.876-1.083-1.353ZM27.054,33.1a2.682,2.682,0,0,1,2.034-2.605l.107-.027,1.91,2.388a.651.651,0,0,0,.473.244h.036a.64.64,0,0,0,.3-.083l.313.313L31.7,37.008H29.659V35.054h-1.3v1.954h-1.3Zm13.027,3.908h-1.3V35.054h-1.3v1.954H35.435l-.525-3.678.313-.313a.642.642,0,0,0,.3.083h.036a.651.651,0,0,0,.473-.244l1.91-2.388.107.027a2.682,2.682,0,0,1,2.034,2.6Z" transform="translate(0 -2.789)"/>
      <path id="Trazado_875493" data-name="Trazado 875493" d="M36.168,9.066a.651.651,0,0,0,.6.4H41.33a.651.651,0,0,0,.645-.744l-.651-4.559A.651.651,0,0,0,40.216,3.8l-.851.851A13.893,13.893,0,0,0,29.941,1h-2.29A.651.651,0,0,0,27,1.651V5.559a.651.651,0,0,0,.651.651h3.367A13.068,13.068,0,0,1,37,7.662l-.691.694A.651.651,0,0,0,36.168,9.066Zm-5.15-4.158H28.3V2.3h1.638A12.61,12.61,0,0,1,38.915,6.02a.651.651,0,0,0,.921,0l.382-.382.361,2.527H38.343l.191-.191a.651.651,0,0,0-.125-1.019,14.363,14.363,0,0,0-7.39-2.047Z" transform="translate(-9.065 0)"/>
    </g>
  </g>
</svg>
