<svg xmlns="http://www.w3.org/2000/svg" width="61.554" height="56.767" viewBox="0 0 61.554 56.767">
  <g id="_34" data-name="34" transform="translate(-334.621 -1399.423)">
    <g id="Rectángulo_401341" data-name="Rectángulo 401341" transform="translate(334.621 1399.423)" fill="#fece2f" stroke="#faedc1" stroke-width="3">
      <rect width="61.554" height="56.767" rx="12" stroke="none"/>
      <rect x="1.5" y="1.5" width="58.554" height="53.767" rx="10.5" fill="none"/>
    </g>
    <g id="team-building_5863199" transform="translate(347.526 1408.702)">
      <g id="Grupo_1101181" data-name="Grupo 1101181" transform="translate(0.616 0.616)">
        <g id="Grupo_1101163" data-name="Grupo 1101163" transform="translate(0.616 5.546)">
          <path id="Trazado_874777" data-name="Trazado 874777" d="M27.093,83.7a3.7,3.7,0,0,1-.6,2.022,1.228,1.228,0,0,0-.631-.173H24.084a1.115,1.115,0,0,1-1-.616,1.113,1.113,0,0,0-1-.616h-.082a1.114,1.114,0,0,0-.788.327,3.094,3.094,0,0,1-2.187.906h-1.8a1.229,1.229,0,0,0-.631.173A3.7,3.7,0,0,1,16,83.7a1.849,1.849,0,0,1,1.849-1.849l.195-.585A1.849,1.849,0,0,1,19.8,80h3.6a3.7,3.7,0,0,1,3.7,3.7Z" transform="translate(-16 -80)" fill="#656d78"/>
        </g>
        <g id="Grupo_1101164" data-name="Grupo 1101164" transform="translate(22.802 5.546)">
          <path id="Trazado_874778" data-name="Trazado 874778" d="M315.093,83.7a3.7,3.7,0,0,1-.6,2.022,1.228,1.228,0,0,0-.631-.173h-1.338a4.209,4.209,0,0,1-2.976-1.233,4.209,4.209,0,0,1-2.976,1.233h-1.338a1.228,1.228,0,0,0-.631.173A3.7,3.7,0,0,1,307.7,80h3.7a3.7,3.7,0,0,1,3.7,3.7Z" transform="translate(-304 -80)" fill="#b27946"/>
        </g>
        <g id="Grupo_1101165" data-name="Grupo 1101165" transform="translate(20.953 26.5)">
          <path id="Trazado_874779" data-name="Trazado 874779" d="M287.4,362.477h-4.93v-3.7h-.616a1.849,1.849,0,0,1,0-3.7h.616V352a1.232,1.232,0,0,0,1.233,1.233h7.4v9.244Z" transform="translate(-280 -352)" fill="#969faa"/>
        </g>
        <g id="Grupo_1101166" data-name="Grupo 1101166" transform="translate(22.186 18.792)">
          <path id="Trazado_874780" data-name="Trazado 874780" d="M300.314,258.415l-.255-.255a1.233,1.233,0,0,0-.872-.361h-.722a1.233,1.233,0,0,1-2.465,0v-2.043a3.7,3.7,0,0,1,2.8-3.587l.915-.229v0a2.465,2.465,0,0,0,4.892,0v0l.915.229a3.7,3.7,0,0,1,2.8,3.587v2.659a2.465,2.465,0,0,1-2.465,2.465h-5.546Z" transform="translate(-296 -251.94)" fill="#e6e9ed"/>
        </g>
        <g id="Grupo_1101167" data-name="Grupo 1101167" transform="translate(11.093 13.327)">
          <path id="Trazado_874781" data-name="Trazado 874781" d="M164.325,184.735v2.79a3.694,3.694,0,0,0-1.233,2.756v2.043h-2.465a2.465,2.465,0,1,0-4.93,0h-2.465v-2.043A3.694,3.694,0,0,0,152,187.525v-2.79a3.7,3.7,0,0,1,2.8-3.587l.59-.147a5.412,5.412,0,0,0,2.772,3.312A5.415,5.415,0,0,0,160.934,181l.59.147a3.7,3.7,0,0,1,2.8,3.587Z" transform="translate(-152 -181)" fill="#fcd770"/>
        </g>
        <g id="Grupo_1101168" data-name="Grupo 1101168" transform="translate(11.709)">
          <path id="Trazado_874782" data-name="Trazado 874782" d="M168.318,21.327l-1.539-.385v-.9a.616.616,0,0,1,.274-.512l.2-.136a3.079,3.079,0,0,0,1.372-2.564V13.546h-.106a4.209,4.209,0,0,1-2.976-1.233,4.209,4.209,0,0,1-2.976,1.233h-.106v3.281a3.079,3.079,0,0,0,1.372,2.564l.2.136a.616.616,0,0,1,.274.512v.9l-1.539.385-.59.147a3.684,3.684,0,0,0-1.55.815,5.508,5.508,0,0,1-.613-2.092q-.022-.242-.022-.488V13.546a5.546,5.546,0,1,1,11.093,0v6.163q0,.246-.022.488a5.508,5.508,0,0,1-.613,2.092,3.684,3.684,0,0,0-1.55-.815Z" transform="translate(-160 -8)" fill="#b27946"/>
        </g>
        <g id="Grupo_1101169" data-name="Grupo 1101169" transform="translate(2.465 26.5)">
          <path id="Trazado_874783" data-name="Trazado 874783" d="M43.7,362.477H40v-9.244h7.4A1.232,1.232,0,0,0,48.628,352v3.081h.616a1.849,1.849,0,0,1,0,3.7h-.616v3.7Z" transform="translate(-40 -352)" fill="#969faa"/>
        </g>
        <g id="Grupo_1101170" data-name="Grupo 1101170" transform="translate(0 18.488)">
          <path id="Trazado_874784" data-name="Trazado 874784" d="M16.012,254.779v2.465H10.465A2.465,2.465,0,0,1,8,254.779V252.12a3.7,3.7,0,0,1,2.8-3.587L12.93,248l1.233,1.849L15.4,248l2.129.532a3.7,3.7,0,0,1,2.8,3.587v2.043a1.232,1.232,0,0,0-1.233,1.233,1.232,1.232,0,0,0-1.233-1.233h-.722a1.233,1.233,0,0,0-.872.361Z" transform="translate(-8 -248)" fill="#75b1f2"/>
        </g>
        <g id="Grupo_1101171" data-name="Grupo 1101171" transform="translate(11.093 22.186)">
          <path id="Trazado_874785" data-name="Trazado 874785" d="M164.325,307.093v3.7H152v-3.7h.616a1.849,1.849,0,1,0,0-3.7H152v-3.7a1.232,1.232,0,0,1,1.233-1.233H155.7a2.465,2.465,0,1,1,4.93,0h2.465a1.232,1.232,0,0,1,1.233,1.233v3.7h-.616a1.849,1.849,0,0,0,0,3.7Z" transform="translate(-152 -296)" fill="#ff4d55"/>
        </g>
        <g id="Grupo_1101172" data-name="Grupo 1101172" transform="translate(8.012 24.651)">
          <path id="Trazado_874786" data-name="Trazado 874786" d="M115.081,329.233v.616a1.232,1.232,0,0,1-1.233,1.233H112v-2.465l.255-.255a1.233,1.233,0,0,1,.872-.361h.722A1.232,1.232,0,0,1,115.081,329.233Z" transform="translate(-112 -328)" fill="#f0d0b4"/>
        </g>
        <g id="Grupo_1101173" data-name="Grupo 1101173" transform="translate(23.418 24.651)">
          <path id="Trazado_874787" data-name="Trazado 874787" d="M315.081,328.616v2.465h-1.849A1.232,1.232,0,0,1,312,329.849v-.616A1.232,1.232,0,0,1,313.233,328h.722a1.233,1.233,0,0,1,.872.361Z" transform="translate(-312 -328)" fill="#f0d0b4"/>
        </g>
        <g id="Grupo_1101174" data-name="Grupo 1101174" transform="translate(31.43 11.093)">
          <path id="Trazado_874788" data-name="Trazado 874788" d="M418.1,152.361a1.233,1.233,0,0,1-.872,2.1H416V152h1.233a1.228,1.228,0,0,1,.631.173A1.264,1.264,0,0,1,418.1,152.361Z" transform="translate(-416 -152)" fill="#f0d0b4"/>
        </g>
        <g id="Grupo_1101175" data-name="Grupo 1101175" transform="translate(25.267 9.86)">
          <path id="Trazado_874789" data-name="Trazado 874789" d="M342.163,137.233v3.281a3.079,3.079,0,0,1-1.372,2.564l-.2.136a.616.616,0,0,0-.274.512v.9l1.214.3v0a2.465,2.465,0,0,1-4.892,0v0l1.214-.3v-.9a.616.616,0,0,0-.274-.512l-.2-.136A3.079,3.079,0,0,1,336,140.513v-3.281h.106A4.209,4.209,0,0,0,339.081,136a4.209,4.209,0,0,0,2.976,1.233Z" transform="translate(-336 -136)" fill="#f0d0b4"/>
        </g>
        <g id="Grupo_1101176" data-name="Grupo 1101176" transform="translate(22.802 11.093)">
          <path id="Trazado_874790" data-name="Trazado 874790" d="M306.465,152v2.465h-1.233A1.231,1.231,0,0,1,304,153.233c0-.042,0-.085.006-.126A1.232,1.232,0,0,1,305.233,152Z" transform="translate(-304 -152)" fill="#f0d0b4"/>
        </g>
        <g id="Grupo_1101177" data-name="Grupo 1101177" transform="translate(14.174 4.314)">
          <path id="Trazado_874791" data-name="Trazado 874791" d="M198.163,65.233v3.281a3.079,3.079,0,0,1-1.372,2.564l-.2.136a.616.616,0,0,0-.274.512v.9l1.539.385a5.415,5.415,0,0,1-2.772,3.312,5.412,5.412,0,0,1-2.772-3.312l1.539-.385v-.9a.616.616,0,0,0-.274-.512l-.2-.136A3.079,3.079,0,0,1,192,68.513V65.233h.106A4.209,4.209,0,0,0,195.081,64a4.209,4.209,0,0,0,2.976,1.233Z" transform="translate(-192 -64)" fill="#f0d0b4"/>
        </g>
        <g id="Grupo_1101178" data-name="Grupo 1101178" transform="translate(9.244 11.093)">
          <path id="Trazado_874792" data-name="Trazado 874792" d="M130.459,153.106c0,.042.006.084.006.126a1.231,1.231,0,0,1-1.233,1.233H128V152h1.233a1.232,1.232,0,0,1,1.226,1.106Z" transform="translate(-128 -152)" fill="#f0d0b4"/>
        </g>
        <g id="Grupo_1101179" data-name="Grupo 1101179" transform="translate(3.081 9.86)">
          <path id="Trazado_874793" data-name="Trazado 874793" d="M54.163,139.7v.816a3.079,3.079,0,0,1-1.372,2.564l-.2.136a.616.616,0,0,0-.274.512v.9l-1.233,1.849-1.233-1.849v-.9a.616.616,0,0,0-.274-.512l-.2-.136A3.079,3.079,0,0,1,48,140.513v-3.281h.568a3.094,3.094,0,0,0,2.187-.906,1.114,1.114,0,0,1,.788-.327h.082a1.113,1.113,0,0,1,1,.616,1.115,1.115,0,0,0,1,.616h.544Z" transform="translate(-48 -136)" fill="#f0d0b4"/>
        </g>
        <g id="Grupo_1101180" data-name="Grupo 1101180" transform="translate(0.616 11.093)">
          <path id="Trazado_874794" data-name="Trazado 874794" d="M18.465,152v2.465H17.233a1.233,1.233,0,0,1-.872-2.1,1.264,1.264,0,0,1,.241-.187,1.228,1.228,0,0,1,.631-.173Z" transform="translate(-16 -152)" fill="#f0d0b4"/>
        </g>
      </g>
      <path id="Trazado_874795" data-name="Trazado 874795" d="M32.476,19.039l-1.663-.416V18.2l.2-.135a3.69,3.69,0,0,0,1.647-3.077v-.2h.616a1.847,1.847,0,0,0,1.412-3.04,4.313,4.313,0,0,0-3.877-6.2h-3.7a4.3,4.3,0,0,0-3.081,1.3V6.163a6.163,6.163,0,1,0-12.325,0v.683a4.3,4.3,0,0,0-3.081-1.3H5.03A2.462,2.462,0,0,0,2.692,7.232l-.069.206A2.469,2.469,0,0,0,.616,9.86a4.3,4.3,0,0,0,.437,1.89,1.847,1.847,0,0,0,1.412,3.04h.616v.2a3.69,3.69,0,0,0,1.647,3.077l.2.135v.422l-1.663.416A4.308,4.308,0,0,0,0,23.224v2.659A3.087,3.087,0,0,0,2.465,28.9v9.306H33.279V28.9a3.087,3.087,0,0,0,2.465-3.019V23.224A4.308,4.308,0,0,0,32.476,19.039ZM31.43,14.99a2.46,2.46,0,0,1-1.1,2.051l-.2.135a1.23,1.23,0,0,0-.549,1.026v1.384l1.073.268a1.848,1.848,0,0,1-3.379,0l1.073-.268V18.2a1.23,1.23,0,0,0-.549-1.026l-.2-.135a2.46,2.46,0,0,1-1.1-2.051V12.3a4.777,4.777,0,0,0,2.465-1,4.776,4.776,0,0,0,2.465,1V14.99ZM26.5,27.732H25.267a.617.617,0,0,1-.616-.616V26.5a.617.617,0,0,1,.616-.616h.722a.612.612,0,0,1,.436.181l.075.075Zm-3.081-.616v2.465a2.465,2.465,0,1,0,0,4.93v2.465H12.325V34.511a2.465,2.465,0,1,0,0-4.93V26.5a.617.617,0,0,1,.616-.616h3.081v-.616a1.849,1.849,0,0,1,3.7,0v.616H22.8a.617.617,0,0,1,.616.616ZM9.244,26.139l.075-.075a.612.612,0,0,1,.436-.181h.722a.617.617,0,0,1,.616.616v.616a.617.617,0,0,1-.616.616H9.244Zm1.233-13.813h.616a.616.616,0,1,1,0,1.233h-.616Zm0,2.665v-.2h.616a1.837,1.837,0,0,0,1.008-.3q.053.143.114.283a4.306,4.306,0,0,0-1.123,2.9v1.649a4.333,4.333,0,0,0-.8-.287l-1.663-.416V18.2l.2-.135a3.69,3.69,0,0,0,1.647-3.077Zm11.709,8.234v1.427H20.891a3.082,3.082,0,0,0-6.039,0H13.558V23.224A4.306,4.306,0,0,0,12.325,20.2V17.678a3.077,3.077,0,0,1,2.334-2.989l.046-.011a6.051,6.051,0,0,0,2.891,3.13l.276.138.276-.138a6.05,6.05,0,0,0,2.891-3.13l.046.011a3.077,3.077,0,0,1,2.334,2.989V20.2a4.305,4.305,0,0,0-1.233,3.021ZM16.707,11.63l-.2-.135a2.46,2.46,0,0,1-1.1-2.051V6.752a4.777,4.777,0,0,0,2.465-1,4.776,4.776,0,0,0,2.465,1V9.444a2.46,2.46,0,0,1-1.1,2.051l-.2.135a1.23,1.23,0,0,0-.549,1.026v1.384l1.34.335a4.816,4.816,0,0,1-1.956,2.181,4.817,4.817,0,0,1-1.956-2.181l1.34-.335V12.655A1.23,1.23,0,0,0,16.707,11.63Zm8.56,1.928h-.616a.616.616,0,1,1,0-1.233h.616Zm-1.739,1.215q.061-.14.114-.283a1.838,1.838,0,0,0,1.008.3h.616v.2a3.69,3.69,0,0,0,1.647,3.077l.2.135v.422l-1.663.416a4.338,4.338,0,0,0-.8.287V17.678a4.306,4.306,0,0,0-1.123-2.9Zm9.751-1.215h-.616V12.325h.616a.616.616,0,0,1,0,1.233ZM27.116,6.779h3.7a3.08,3.08,0,0,1,2.809,4.346,1.852,1.852,0,0,0-.344-.033H31.94a3.568,3.568,0,0,1-2.54-1.052l-.436-.436-.436.436a3.568,3.568,0,0,1-2.54,1.052H24.651a1.852,1.852,0,0,0-.344.033,3.08,3.08,0,0,1,2.809-4.346ZM12.942,6.163a4.93,4.93,0,1,1,9.86,0v6.163a4.957,4.957,0,0,1-.278,1.633,4.323,4.323,0,0,0-1.141-.466l-1.663-.416v-.422l.2-.135A3.69,3.69,0,0,0,21.57,9.444v-3.9h-.722a3.568,3.568,0,0,1-2.54-1.052l-.436-.436-.436.436A3.568,3.568,0,0,1,14.9,5.546h-.722v3.9a3.69,3.69,0,0,0,1.647,3.077l.2.135v.422l-1.663.416a4.325,4.325,0,0,0-1.141.466,4.959,4.959,0,0,1-.278-1.633Zm-10.477,7.4a.616.616,0,0,1,0-1.233h.616v1.233ZM3.7,11.093H2.465a1.852,1.852,0,0,0-.344.033A3.072,3.072,0,0,1,1.849,9.86,1.234,1.234,0,0,1,3.081,8.628h.444l.335-1.006A1.231,1.231,0,0,1,5.03,6.779h3.6a3.08,3.08,0,0,1,2.809,4.346,1.852,1.852,0,0,0-.344-.033H9.317a.5.5,0,0,1-.446-.276A1.722,1.722,0,0,0,7.323,9.86H7.241a1.72,1.72,0,0,0-1.224.507,2.461,2.461,0,0,1-1.752.726Zm.616,3.9V12.325a3.684,3.684,0,0,0,2.574-1.086.5.5,0,0,1,.353-.146h.082a.5.5,0,0,1,.446.276,1.721,1.721,0,0,0,1.476.955V14.99a2.46,2.46,0,0,1-1.1,2.051l-.2.135A1.231,1.231,0,0,0,7.4,18.2v.716l-.616.924-.616-.924V18.2a1.23,1.23,0,0,0-.549-1.026l-.2-.135A2.46,2.46,0,0,1,4.314,14.99ZM1.233,25.883V23.224a3.077,3.077,0,0,1,2.334-2.989l1.708-.427,1.5,2.257,1.5-2.257,1.708.427a3.077,3.077,0,0,1,2.334,2.989v1.533a1.85,1.85,0,0,0-.616.366,1.841,1.841,0,0,0-1.233-.472H9.755a1.836,1.836,0,0,0-.97.274,1.225,1.225,0,0,0-.774-.274h-3.7V22.186H3.081v2.7l-.892.446.551,1.1,1.1-.551H8.012v1.849H3.081a1.851,1.851,0,0,1-1.849-1.849ZM3.7,28.965h6.779a1.84,1.84,0,0,0,.616-.106v1.955h1.233a1.233,1.233,0,1,1,0,2.465H11.093v3.7H7.4V30.2H6.163v6.779H3.7Zm25.883,8.012V30.2H28.349v6.779h-3.7v-3.7H23.418a1.233,1.233,0,1,1,0-2.465h1.233V28.859a1.84,1.84,0,0,0,.616.106h6.779v8.012Zm4.93-11.093a1.851,1.851,0,0,1-1.849,1.849h-4.93V25.883H31.9l1.1.551.551-1.1-.892-.446v-2.7H31.43v2.465h-3.7a1.226,1.226,0,0,0-.774.274,1.837,1.837,0,0,0-.97-.274h-.722a1.841,1.841,0,0,0-1.233.472,1.85,1.85,0,0,0-.616-.366V23.224a3.077,3.077,0,0,1,2.334-2.989l.316-.079a3.082,3.082,0,0,0,5.794,0l.316.079a3.077,3.077,0,0,1,2.334,2.989Z"/>
    </g>
  </g>
</svg>
