<svg xmlns="http://www.w3.org/2000/svg" width="85" height="85" viewBox="0 0 85 85">
  <g id="_40" data-name="40" transform="translate(-704.73 -2846)">
    <path id="Trazado_874547" data-name="Trazado 874547" d="M42.5,0A42.5,42.5,0,1,1,0,42.5,42.5,42.5,0,0,1,42.5,0Z" transform="translate(704.73 2846)" fill="#8746f8"/>
    <g id="profesor_10_" data-name="profesor (10)" transform="translate(717.47 2856.68)">
      <path id="Trazado_875698" data-name="Trazado 875698" d="M44.431,11.215v4.43a2.754,2.754,0,0,0-1.857-.715C30.5,14.93,30.5,10.287,30.5,10.287c0,4.643-4.643,4.643-4.643,4.643A2.754,2.754,0,0,0,24,15.645v-4.43a10.215,10.215,0,0,1,20.431,0Z" transform="translate(-1.498 -0.071)" fill="#555a66"/>
      <path id="Trazado_875699" data-name="Trazado 875699" d="M34.215,1A10.21,10.21,0,0,0,24,11.215V14.93a10.215,10.215,0,0,1,20.431,0V11.215A10.21,10.21,0,0,0,34.215,1Z" transform="translate(-1.498 -0.071)" fill="#414952"/>
      <path id="Trazado_875700" data-name="Trazado 875700" d="M36.786,58.786h.929V62.5H35.857A1.863,1.863,0,0,1,34,60.643V56a2.786,2.786,0,0,0,2.786,2.786Z" transform="translate(-2.211 -3.994)" fill="#cfa388"/>
      <path id="Trazado_875701" data-name="Trazado 875701" d="M36.786,58.786A2.786,2.786,0,0,1,34,56v1.857a2.786,2.786,0,0,0,2.786,2.786h.929V58.786Z" transform="translate(-2.211 -3.994)" fill="#b2876d"/>
      <path id="Trazado_875702" data-name="Trazado 875702" d="M37.715,47v5.572h-.929A2.786,2.786,0,0,0,34,55.358v-6.5A1.863,1.863,0,0,1,35.857,47Z" transform="translate(-2.211 -3.352)" fill="#cfa388"/>
      <path id="Trazado_875703" data-name="Trazado 875703" d="M47.287,59v3.715H38V59h9.287Z" transform="translate(-2.496 -4.208)" fill="#966857"/>
      <path id="Trazado_875704" data-name="Trazado 875704" d="M47.287,59v1.857H38V59h9.287Z" transform="translate(-2.496 -4.208)" fill="#8d5c4d"/>
      <path id="Trazado_875705" data-name="Trazado 875705" d="M47.287,47v5.572H38V47Z" transform="translate(-2.496 -3.352)" fill="#966857"/>
      <path id="Trazado_875706" data-name="Trazado 875706" d="M34.5,35.786l-2.786,2.786L28,34.857v-.929L31.715,33Z" transform="translate(-1.783 -2.354)" fill="#bec3d2"/>
      <path id="Trazado_875707" data-name="Trazado 875707" d="M41.5,33.994v.864l-3.715,3.715L35,35.786,37.786,33Z" transform="translate(-2.282 -2.354)" fill="#bec3d2"/>
      <path id="Trazado_875708" data-name="Trazado 875708" d="M37.572,38.786l-1.857,1.857H33.857L32,38.786,34.786,36Z" transform="translate(-2.068 -2.568)" fill="#4ab8f7"/>
      <path id="Trazado_875709" data-name="Trazado 875709" d="M35.643,41l1.282,5.572H35.643a1.863,1.863,0,0,0-1.857,1.857v6.5L31,53.073,33.786,41Z" transform="translate(-1.997 -2.924)" fill="#19cffc"/>
      <path id="Trazado_875710" data-name="Trazado 875710" d="M11.429,51a34.791,34.791,0,0,1-.929,7.429S4,58.429,4,51a3.715,3.715,0,0,0,7.429,0Z" transform="translate(-0.071 -3.637)" fill="#bec3d2"/>
      <path id="Trazado_875711" data-name="Trazado 875711" d="M53,51h5.953c.056.362.111.734.158,1.114a5.538,5.538,0,0,1-1.523,4.606C57.1,52.857,53,52.857,53,52.857Z" transform="translate(-3.566 -3.637)" fill="#bec3d2"/>
      <path id="Trazado_875712" data-name="Trazado 875712" d="M48,59h4.643v3.715H48Z" transform="translate(-3.209 -4.208)" fill="#f2f6fc"/>
      <path id="Trazado_875713" data-name="Trazado 875713" d="M34.217,60.932H19.358V47L11,57.217a34.791,34.791,0,0,0,.929-7.429l1.857-11.144,1.857-1.857L26.788,34v.929L30.5,38.643,32.36,40.5,29.574,52.574l2.786,1.857v4.643A1.863,1.863,0,0,0,34.217,60.932Z" transform="translate(-0.571 -2.425)" fill="#dce1eb"/>
      <path id="Trazado_875714" data-name="Trazado 875714" d="M51.788,49.793V51.65H47.144V46.078H37.282L36,40.506l1.857-1.857,3.715-3.715V34.07l10.215,2.721s4.393,3.139,5.953,13Z" transform="translate(-2.354 -2.43)" fill="#dce1eb"/>
      <path id="Trazado_875715" data-name="Trazado 875715" d="M14.786,26v6.5H12V26Z" transform="translate(-0.642 -1.854)" fill="#faa68e"/>
      <path id="Trazado_875716" data-name="Trazado 875716" d="M6,30h5.572v2.786H6Z" transform="translate(-0.214 -2.14)" fill="#ffcdbe"/>
      <path id="Trazado_875717" data-name="Trazado 875717" d="M13.429,35.786a2.728,2.728,0,0,0-2.786,2.786H7.857L6,36.715V33h4.643a2.728,2.728,0,0,0,2.786,2.786Z" transform="translate(-0.214 -2.354)" fill="#faa68e"/>
      <path id="Trazado_875718" data-name="Trazado 875718" d="M15.643,33v3.715l-1.857,1.857H11a2.728,2.728,0,0,1,2.786-2.786A2.728,2.728,0,0,1,11,33Z" transform="translate(-0.571 -2.354)" fill="#ffbeaa"/>
      <path id="Trazado_875719" data-name="Trazado 875719" d="M13.287,39,11.429,50.144a3.715,3.715,0,0,1-7.429,0L7.715,39Z" transform="translate(-0.071 -2.781)" fill="#ffcdbe"/>
      <path id="Trazado_875720" data-name="Trazado 875720" d="M9.572,52.93a3.715,3.715,0,0,1-3.715-3.715L9.263,39H7.715L4,50.144a3.7,3.7,0,0,0,6.23,2.72,3.748,3.748,0,0,1-.658.066Z" transform="translate(-0.071 -2.781)" fill="#ffbeaa"/>
      <path id="Trazado_875721" data-name="Trazado 875721" d="M51.645,53s4.1,0,4.588,3.863a5.506,5.506,0,0,1-4,1.709H36.786a2.786,2.786,0,1,1,0-5.572Z" transform="translate(-2.211 -3.78)" fill="#ffcdbe"/>
      <path id="Trazado_875722" data-name="Trazado 875722" d="M52.231,56.857H36.787A2.752,2.752,0,0,1,34.171,55a2.778,2.778,0,0,0,2.615,3.715H52.231a5.506,5.506,0,0,0,4-1.709A4.536,4.536,0,0,0,55.8,55.55a5.5,5.5,0,0,1-3.574,1.308Z" transform="translate(-2.212 -3.923)" fill="#ffbeaa"/>
      <g id="Grupo_1101704" data-name="Grupo 1101704" transform="translate(21.574 14.859)">
        <path id="Trazado_875723" data-name="Trazado 875723" d="M37.572,30.48v2.34l-2.786,2.786L32,32.82V30.48a8.278,8.278,0,0,0,5.572,0Z" transform="translate(-23.642 -17.033)" fill="#faa68e"/>
        <path id="Trazado_875724" data-name="Trazado 875724" d="M23.929,16.715A2.754,2.754,0,0,1,25.786,16v5.572A2.786,2.786,0,0,1,23,18.786,2.73,2.73,0,0,1,23.929,16.715Z" transform="translate(-23 -16)" fill="#faa68e"/>
        <path id="Trazado_875725" data-name="Trazado 875725" d="M44,16a2.786,2.786,0,0,1,0,5.572Z" transform="translate(-24.498 -16)" fill="#faa68e"/>
      </g>
      <path id="Trazado_875726" data-name="Trazado 875726" d="M42.716,15.643v5.572a8.358,8.358,0,0,1-16.716,0V15.643s4.643,0,4.643-4.643C30.643,11,30.643,15.643,42.716,15.643Z" transform="translate(-1.64 -0.785)" fill="#ffcdbe"/>
      <path id="Trazado_875727" data-name="Trazado 875727" d="M30.643,11c0,4.643-4.643,4.643-4.643,4.643V17.5s4.643,0,4.643-4.643c0,0,0,4.643,12.073,4.643V15.643C30.643,15.643,30.643,11,30.643,11Z" transform="translate(-1.64 -0.785)" fill="#ffbeaa"/>
      <path id="Trazado_875728" data-name="Trazado 875728" d="M34.287,30.431A9.3,9.3,0,0,1,25,21.144V15.572a.929.929,0,0,1,.929-.929,3.575,3.575,0,0,0,3.715-3.715.929.929,0,1,1,1.857,0c0,.007.382,3.715,11.144,3.715a.929.929,0,0,1,.929.929v5.572A9.3,9.3,0,0,1,34.287,30.431ZM26.857,16.422v4.722a7.429,7.429,0,0,0,14.859,0V16.491c-6.3-.128-9.315-1.564-10.757-2.951A5.406,5.406,0,0,1,26.857,16.422Z" transform="translate(-1.569 -0.713)"/>
      <path id="Trazado_875729" data-name="Trazado 875729" d="M44,22.429V20.572a1.857,1.857,0,0,0,0-3.715V15a3.715,3.715,0,0,1,0,7.429Z" transform="translate(-2.924 -1.07)"/>
      <path id="Trazado_875730" data-name="Trazado 875730" d="M25.715,22.429a3.715,3.715,0,0,1,0-7.429v1.857a1.857,1.857,0,0,0,0,3.715Z" transform="translate(-1.355 -1.07)"/>
      <path id="Trazado_875731" data-name="Trazado 875731" d="M45.288,15.788H43.431V11.144a9.287,9.287,0,0,0-18.574,0v4.643H23V11.144a11.144,11.144,0,1,1,22.288,0Z" transform="translate(-1.426)"/>
      <path id="Trazado_875735" data-name="Trazado 875735" d="M34.715,36.5a.929.929,0,0,1-.656-.272l-2.786-2.786A.929.929,0,0,1,31,32.786V30h1.857v2.4l1.857,1.857L36.572,32.4V30h1.857v2.786a.929.929,0,0,1-.272.656l-2.786,2.786A.929.929,0,0,1,34.715,36.5Z" transform="translate(-1.997 -2.14)"/>
      <path id="Trazado_875736" data-name="Trazado 875736" d="M52.161,58.005H36.715a3.715,3.715,0,0,1,0-7.429h13.93V45H52.5v6.5a.929.929,0,0,1-.929.929H36.715a1.857,1.857,0,0,0,0,3.715H52.161a4.631,4.631,0,0,0,3.482-1.579,4.679,4.679,0,0,0,1.123-3.691c-1.2-9.2-4.914-12.781-5.621-13.385L37.4,33.828l.479-1.794,13.93,3.715a.929.929,0,0,1,.3.141c.206.148,5.059,3.729,6.494,14.748a6.514,6.514,0,0,1-6.442,7.367Z" transform="translate(-2.14 -2.285)"/>
      <path id="Trazado_875737" data-name="Trazado 875737" d="M46.93,62.716H35.786A2.786,2.786,0,0,1,33,59.93V48.786A2.786,2.786,0,0,1,35.786,46H46.93a.929.929,0,0,1,.929.929V52.5H46V47.857H35.786a.929.929,0,0,0-.929.929V59.93a.929.929,0,0,0,.929.929H46V58.073h1.857v3.715A.929.929,0,0,1,46.93,62.716Z" transform="translate(-2.14 -3.281)"/>
      <path id="Trazado_875738" data-name="Trazado 875738" d="M37,47h1.857v5.572H37Z" transform="translate(-2.425 -3.352)"/>
      <path id="Trazado_875739" data-name="Trazado 875739" d="M37,59h1.857v3.715H37Z" transform="translate(-2.425 -4.208)"/>
      <path id="Trazado_875740" data-name="Trazado 875740" d="M52.643,63.643H48V61.786h3.715V59h1.857v3.715A.929.929,0,0,1,52.643,63.643Z" transform="translate(-3.209 -4.208)"/>
      <path id="Trazado_875741" data-name="Trazado 875741" d="M7.643,54.716A4.649,4.649,0,0,1,3,50.073a.929.929,0,0,1,.047-.293L6.762,38.635A.929.929,0,0,1,7.643,38h5.572a.929.929,0,0,1,.916,1.082L12.287,50.154a4.648,4.648,0,0,1-4.643,4.563Zm-2.786-4.5a2.787,2.787,0,1,0,5.572-.14.854.854,0,0,1,.013-.153l1.676-10.062H8.311Z" transform="translate(0 -2.71)"/>
      <path id="Trazado_875742" data-name="Trazado 875742" d="M14.371,39.157l-1.313-1.313,1.585-1.585v-.544a.929.929,0,0,1-.929.929A1.748,1.748,0,0,0,11.857,38.5H10a3.521,3.521,0,0,1,1.179-2.781A3.925,3.925,0,0,1,10,32.929.929.929,0,0,1,10.928,32h4.643a.929.929,0,0,1,.929.929v3.715a.929.929,0,0,1-.272.656Zm-2.306-5.3a1.66,1.66,0,0,0,1.649.929.929.929,0,0,1,.929.929V33.857Z" transform="translate(-0.499 -2.282)"/>
      <path id="Trazado_875743" data-name="Trazado 875743" d="M15.643,32.429H13.786V26.857h-.929v5.572H11v-6.5A.929.929,0,0,1,11.929,25h2.786a.929.929,0,0,1,.929.929Z" transform="translate(-0.571 -1.783)"/>
      <path id="Trazado_875744" data-name="Trazado 875744" d="M10.572,33.643H5.929A.929.929,0,0,1,5,32.715V29.929A.929.929,0,0,1,5.929,29H11.5v1.857H6.857v.929h3.715Z" transform="translate(-0.143 -2.068)"/>
      <path id="Trazado_875745" data-name="Trazado 875745" d="M7.129,39.229,5.272,37.371A.929.929,0,0,1,5,36.715V33H6.857v3.33l1.585,1.585Z" transform="translate(-0.143 -2.354)"/>
      <path id="Trazado_875746" data-name="Trazado 875746" d="M56.666,56.907c-.367-2.936-3.334-3.05-3.666-3.05V52a5.4,5.4,0,0,1,5.509,4.677Z" transform="translate(-3.566 -3.708)"/>
      <path id="Trazado_875747" data-name="Trazado 875747" d="M53,50h6.5v1.857H53Z" transform="translate(-3.566 -3.566)"/>
      <path id="Trazado_875748" data-name="Trazado 875748" d="M0,0H15.316V1.857H0Z" transform="translate(14.858 33.453) rotate(-14.064)"/>
      <path id="Trazado_875749" data-name="Trazado 875749" d="M33.646,62.788H18.788a.929.929,0,0,1-.929-.929V50.529l-6.711,8.2a.929.929,0,0,1-.719.342C10.355,59.073,3,58.98,3,50.715H4.857c0,5.415,3.851,6.32,5.157,6.471l8.054-9.844a.929.929,0,0,1,1.647.587v13h13.93Z" transform="translate(0 -3.352)"/>
      <path id="Trazado_875750" data-name="Trazado 875750" d="M11.832,58.655l-1.8-.451a34.162,34.162,0,0,0,.9-7.2h1.857a35.435,35.435,0,0,1-.957,7.655Z" transform="translate(-0.501 -3.637)"/>
      <path id="Trazado_875751" data-name="Trazado 875751" d="M37.215,39.572a.929.929,0,0,1-.656-.272l-2.13-2.13L32.3,39.3a.929.929,0,0,1-1.313,0l-3.715-3.715A.929.929,0,0,1,27,34.929V34h1.857v.544l2.786,2.786L33.773,35.2a.929.929,0,0,1,1.313,0l2.129,2.129L40,34.544V34h1.857v.929a.929.929,0,0,1-.272.656L37.872,39.3A.929.929,0,0,1,37.215,39.572Z" transform="translate(-1.712 -2.425)"/>
      <path id="Trazado_875752" data-name="Trazado 875752" d="M35.664,41.736H33.807a.929.929,0,0,1-.656-.272l-1.858-1.857,1.313-1.313,1.585,1.585H35.28l1.585-1.585,1.313,1.313-1.857,1.857a.929.929,0,0,1-.657.272Z" transform="translate(-2.018 -2.731)"/>
      <path id="Trazado_875753" data-name="Trazado 875753" d="M33.2,55.687l-2.786-1.857a.929.929,0,0,1-.39-.982l2.786-12.073,1.811.418L31.978,52.64l2.252,1.5Z" transform="translate(-1.926 -2.908)"/>
      <path id="Trazado_875754" data-name="Trazado 875754" d="M0,0H1.857V5.718H0Z" transform="translate(32.751 38.306) rotate(-12.939)"/>
      <path id="Trazado_875755" data-name="Trazado 875755" d="M13,17h1.857v5.572H13Z" transform="translate(-0.713 -1.212)"/>
      <path id="Trazado_875756" data-name="Trazado 875756" d="M0,0H5.254V1.857H0Z" transform="translate(14.413 20.703) rotate(-45)"/>
      <path id="Trazado_875757" data-name="Trazado 875757" d="M0,0H1.857V5.254H0Z" transform="translate(6.985 18.301) rotate(-45)"/>
    </g>
  </g>
</svg>
