<svg xmlns="http://www.w3.org/2000/svg" width="90" height="83" viewBox="0 0 90 83">
  <g id="_6" data-name="6" transform="translate(-334.621 -1399.423)">
    <g id="Rectángulo_401341" data-name="Rectángulo 401341" transform="translate(334.621 1399.423)" fill="#f4eefe" stroke="#fff" stroke-width="3">
      <rect width="90" height="83" rx="12" stroke="none"/>
      <rect x="1.5" y="1.5" width="87" height="80" rx="10.5" fill="none"/>
    </g>
    <g id="Layer_x0020_1" transform="translate(357.85 1411.651)">
      <path id="Trazado_874548" data-name="Trazado 874548" d="M12.811,24.932H10.849a9.08,9.08,0,0,0,8.395,8.312V31.276a.686.686,0,1,1,1.372,0v1.961a9.079,9.079,0,0,0,8.311-8.395H26.959a.686.686,0,1,1,0-1.372H28.92A9.027,9.027,0,0,0,26.759,18.3l-2.837,2.837a5.076,5.076,0,1,1-.97-.97l2.837-2.837a9.025,9.025,0,0,0-5.262-2.169v1.969a.686.686,0,0,1-1.372,0V15.165a9.08,9.08,0,0,0-8.312,8.395h1.969a.686.686,0,0,1,0,1.372ZM8.519,41.009V39.9A19.667,19.667,0,1,1,33.479,9.637l2.528-2.528-.426-2.941a.687.687,0,0,1,.193-.584L39.158.2a.686.686,0,0,1,1.158.353l.518,2.651,2.706.566a.686.686,0,0,1,.345,1.157L40.5,8.312a.688.688,0,0,1-.485.2A.655.655,0,0,1,39.9,8.5l-2.868-.482-2.6,2.6A19.656,19.656,0,0,1,31.251,39.9V41.01h.165a2.717,2.717,0,0,1,0,5.433H30.86A2.716,2.716,0,0,1,28.571,50.5a2.716,2.716,0,0,1-2.36,4.062H24.588v1.3a2.677,2.677,0,0,1-2.674,2.674H17.856a2.677,2.677,0,0,1-2.674-2.674v-1.3H13.558A2.716,2.716,0,0,1,11.2,50.5,2.716,2.716,0,0,1,8.91,46.443H8.354a2.717,2.717,0,0,1,0-5.434h.164Zm21.359,0V39.539a.685.685,0,0,1,.3-.566,18.285,18.285,0,0,0,3.288-27.381l-2.73,2.73a14.625,14.625,0,0,1,3.814,9.15h1.4a.686.686,0,1,1,0,1.372h-1.4A14.7,14.7,0,0,1,20.616,38.866v1.4a.686.686,0,0,1-1.372,0v-1.4A14.7,14.7,0,0,1,5.22,24.932h-1.4a.686.686,0,1,1,0-1.372h1.4A14.7,14.7,0,0,1,19.154,9.536v-1.4a.686.686,0,1,1,1.372,0v1.4a14.628,14.628,0,0,1,9.24,3.817l2.743-2.743A18.3,18.3,0,1,0,9.591,38.972a.685.685,0,0,1,.3.566v1.471H29.878Zm-1.366,5.433H11.27a1.345,1.345,0,0,0,0,2.689H28.5a1.344,1.344,0,0,0,.011-2.689ZM8.354,42.382a1.344,1.344,0,1,0,0,2.689H31.416a1.344,1.344,0,0,0,0-2.689H8.354Zm17.868,8.123H13.558a1.344,1.344,0,1,0,0,2.689H26.211a1.344,1.344,0,0,0,.012-2.688Zm-9.669,4.061v1.3a1.3,1.3,0,0,0,1.3,1.3h4.057a1.3,1.3,0,0,0,1.3-1.3v-1.3H16.554Zm3.331-29.678a.686.686,0,0,1-.485-1.171l2.569-2.569a3.7,3.7,0,1,0,.97.97L20.37,24.686a.686.686,0,0,1-.485.2Zm6.875-8.532L28.8,14.321a13.257,13.257,0,0,0-8.269-3.416v2.878a10.393,10.393,0,0,1,6.234,2.572ZM37.218,5.9l2.3-2.3-.3-1.519-2.23,2.23Zm3.3-1.358L38.226,6.83l1.555.261,2.236-2.237ZM29.765,15.292l-2.034,2.034A10.4,10.4,0,0,1,30.3,23.471h2.879a13.259,13.259,0,0,0-3.411-8.179ZM19.154,10.91A13.33,13.33,0,0,0,6.59,23.56H9.468a10.453,10.453,0,0,1,9.687-9.77V10.91ZM6.594,24.932A13.329,13.329,0,0,0,19.244,37.5V34.618a10.453,10.453,0,0,1-9.77-9.686H6.594Zm14.021,12.56A13.329,13.329,0,0,0,33.18,24.843H30.3a10.452,10.452,0,0,1-9.687,9.77v2.879Z" transform="translate(0 0)" fill="#000002" fill-rule="evenodd"/>
      <path id="Trazado_874549" data-name="Trazado 874549" d="M.679,4.3A3.7,3.7,0,1,0,7.432,2.213L4.864,4.782a.686.686,0,0,1-.97-.97L6.463,1.242A3.7,3.7,0,0,0,.679,4.3Z" transform="translate(15.507 19.905)" fill="#d94d5e" fill-rule="evenodd"/>
      <path id="Trazado_874550" data-name="Trazado 874550" d="M4.5,9.485a5.068,5.068,0,0,1,8.137-4.036L15.47,2.611A9.025,9.025,0,0,0,10.208.442V2.41a.686.686,0,1,1-1.372,0V.449A9.08,9.08,0,0,0,.524,8.843H2.492a.686.686,0,0,1,0,1.372H.53a9.08,9.08,0,0,0,8.395,8.312V16.559a.686.686,0,0,1,1.372,0v1.961a9.079,9.079,0,0,0,8.311-8.395H16.641a.686.686,0,1,1,0-1.372H18.6A9.027,9.027,0,0,0,16.44,3.582L13.6,6.419A5.07,5.07,0,1,1,4.5,9.485Z" transform="translate(10.319 14.717)" fill="#fff0e6" fill-rule="evenodd"/>
      <g id="Grupo_1101082" data-name="Grupo 1101082" transform="translate(6.59 10.905)">
        <path id="Trazado_874551" data-name="Trazado 874551" d="M3.278,12.968A10.453,10.453,0,0,1,12.964,3.2V.318A13.33,13.33,0,0,0,.4,12.968H3.278Z" transform="translate(-0.4 -0.313)" fill="#d94d5e" fill-rule="evenodd"/>
        <path id="Trazado_874552" data-name="Trazado 874552" d="M.806,3.2A10.393,10.393,0,0,1,7.04,5.768L9.075,3.734A13.257,13.257,0,0,0,.806.318Z" transform="translate(13.131 -0.318)" fill="#d94d5e" fill-rule="evenodd"/>
        <path id="Trazado_874553" data-name="Trazado 874553" d="M1.016,2.48A10.4,10.4,0,0,1,3.582,8.625H6.461A13.259,13.259,0,0,0,3.05.446L1.016,2.48Z" transform="translate(20.125 3.94)" fill="#d94d5e" fill-rule="evenodd"/>
        <path id="Trazado_874554" data-name="Trazado 874554" d="M10.5.724a10.452,10.452,0,0,1-9.687,9.77v2.879A13.329,13.329,0,0,0,13.373.724H10.5Z" transform="translate(13.217 13.213)" fill="#d94d5e" fill-rule="evenodd"/>
        <path id="Trazado_874555" data-name="Trazado 874555" d="M13.049,10.413A10.453,10.453,0,0,1,3.279.727H.4A13.329,13.329,0,0,0,13.049,13.291V10.413Z" transform="translate(-0.395 13.3)" fill="#d94d5e" fill-rule="evenodd"/>
      </g>
      <path id="Trazado_874556" data-name="Trazado 874556" d="M3.885,18.178A14.7,14.7,0,0,1,17.822,4.154v-1.4a.686.686,0,1,1,1.372,0v1.4a14.628,14.628,0,0,1,9.24,3.817l2.743-2.743A18.3,18.3,0,1,0,8.259,33.59a.685.685,0,0,1,.3.566v1.471H28.546V34.157a.685.685,0,0,1,.3-.566A18.285,18.285,0,0,0,32.133,6.209L29.4,8.939a14.625,14.625,0,0,1,3.814,9.15h1.4a.686.686,0,1,1,0,1.372h-1.4A14.7,14.7,0,0,1,19.284,33.485v1.4a.686.686,0,1,1-1.372,0v-1.4A14.7,14.7,0,0,1,3.888,19.55h-1.4a.686.686,0,0,1,0-1.372h1.4Z" transform="translate(1.332 5.382)" fill="#ffd064" fill-rule="evenodd"/>
      <path id="Trazado_874557" data-name="Trazado 874557" d="M23.967,1.236H1.756a1.344,1.344,0,1,0,0,2.689H24.818a1.344,1.344,0,0,0,0-2.689h-.851Z" transform="translate(6.598 41.147)" fill="#445ea0" fill-rule="evenodd"/>
      <path id="Trazado_874558" data-name="Trazado 874558" d="M19.084,1.354H1.841a1.345,1.345,0,0,0,0,2.689H19.072a1.344,1.344,0,0,0,.011-2.689Z" transform="translate(9.428 45.089)" fill="#293d7c" fill-rule="evenodd"/>
      <path id="Trazado_874559" data-name="Trazado 874559" d="M14.573,1.472H1.908a1.344,1.344,0,1,0,0,2.689H14.561a1.344,1.344,0,0,0,.012-2.688Z" transform="translate(11.65 49.033)" fill="#445ea0" fill-rule="evenodd"/>
      <path id="Trazado_874560" data-name="Trazado 874560" d="M7.351,1.591H.69v1.3a1.3,1.3,0,0,0,1.3,1.3H6.049a1.3,1.3,0,0,0,1.3-1.3v-1.3Z" transform="translate(15.864 52.975)" fill="#293d7c" fill-rule="evenodd"/>
      <path id="Trazado_874561" data-name="Trazado 874561" d="M2.877,2.683,5.114.446,3.611.132,1.322,2.422Z" transform="translate(36.904 4.408)" fill="#d94d5e" fill-rule="evenodd"/>
      <path id="Trazado_874562" data-name="Trazado 874562" d="M1.516,3.877l2.3-2.3L3.516.061,1.286,2.29Z" transform="translate(35.702 2.022)" fill="#d94d5e" fill-rule="evenodd"/>
    </g>
  </g>
</svg>
