<svg xmlns="http://www.w3.org/2000/svg" width="90" height="83" viewBox="0 0 90 83">
  <g id="_7" data-name="7" transform="translate(-754.621 -1399.423)">
    <g id="Rectángulo_401341" data-name="Rectángulo 401341" transform="translate(754.621 1399.423)" fill="#f4eefe" stroke="#fff" stroke-width="3">
      <rect width="90" height="83" rx="12" stroke="none"/>
      <rect x="1.5" y="1.5" width="87" height="80" rx="10.5" fill="none"/>
    </g>
    <g id="job_8443975" transform="translate(760.801 1379.229)">
      <g id="Grupo_1101086" data-name="Grupo 1101086" transform="translate(9.002 34.734)">
        <g id="Grupo_1101084" data-name="Grupo 1101084" transform="translate(0 0)">
          <path id="Trazado_874578" data-name="Trazado 874578" d="M159.289,50.813h3.621v-5a4.1,4.1,0,0,0-4.09-4.09H146.608a4.1,4.1,0,0,0-4.09,4.09v5h3.621v-5a.48.48,0,0,1,.469-.469h12.211a.48.48,0,0,1,.469.469Z" transform="translate(-126.6 -41.727)" fill="#837683" fill-rule="evenodd"/>
          <path id="Trazado_874579" data-name="Trazado 874579" d="M159.289,50.813h1.258v-5a.48.48,0,0,0-.469-.469h-1.258a.48.48,0,0,1,.469.469Zm-11.422-9.086h-1.258a4.1,4.1,0,0,0-4.09,4.09v5h1.258v-5A4.1,4.1,0,0,1,147.867,41.727Z" transform="translate(-126.6 -41.727)" fill="#685e68" fill-rule="evenodd"/>
          <path id="Trazado_874580" data-name="Trazado 874580" d="M34.5,202.565v20.789a3.834,3.834,0,0,0,3.822,3.822H78.251a3.833,3.833,0,0,0,3.822-3.822V202.566Z" transform="translate(-32.173 -182.328)" fill="#ecba78" fill-rule="evenodd"/>
          <path id="Trazado_874581" data-name="Trazado 874581" d="M34.5,202.565v20.789a3.834,3.834,0,0,0,3.822,3.822H40.84a3.834,3.834,0,0,1-3.822-3.822V202.565Z" transform="translate(-32.173 -182.328)" fill="#e3a76f" fill-rule="evenodd"/>
          <path id="Trazado_874582" data-name="Trazado 874582" d="M64.711,123.263c1.9-1.2,3.518-2.832,3.518-5.241V108.7a1.962,1.962,0,0,0-1.958-1.958H17.959A1.962,1.962,0,0,0,16,108.7v9.318c0,2.408,1.619,4.039,3.518,5.241C27.47,128.294,56.817,128.257,64.711,123.263Z" transform="translate(-16.001 -98.565)" fill="#e3a76f" fill-rule="evenodd"/>
          <path id="Trazado_874583" data-name="Trazado 874583" d="M20.845,106.746H17.959A1.962,1.962,0,0,0,16,108.7v9.318c0,2.408,1.619,4.039,3.518,5.241a11.063,11.063,0,0,0,1.326.706Z" transform="translate(-16.001 -98.565)" fill="#c48958" fill-rule="evenodd"/>
          <path id="Trazado_874584" data-name="Trazado 874584" d="M115.169,106.746h27.273v6.368a2.463,2.463,0,0,1-2.455,2.455H117.624a2.463,2.463,0,0,1-2.455-2.455Z" transform="translate(-102.692 -98.565)" fill="#c48958" fill-rule="evenodd"/>
          <path id="Trazado_874585" data-name="Trazado 874585" d="M185.3,239.368a4.813,4.813,0,1,0,4.813-4.813A4.813,4.813,0,0,0,185.3,239.368Z" transform="translate(-163.995 -210.294)" fill="#837683" fill-rule="evenodd"/>
          <path id="Trazado_874586" data-name="Trazado 874586" d="M185.3,239.368a4.814,4.814,0,0,0,5.34,4.784,4.813,4.813,0,0,1,0-9.569,4.88,4.88,0,0,0-.527-.029A4.813,4.813,0,0,0,185.3,239.368Z" transform="translate(-163.995 -210.294)" fill="#685e68" fill-rule="evenodd"/>
        </g>
        <g id="Grupo_1101085" data-name="Grupo 1101085" transform="translate(34.093 22.582)">
          <path id="Trazado_874587" data-name="Trazado 874587" d="M300.484,221.284l12.223,5.238a.91.91,0,0,1,.562.852V237.4c0,7.8-5.588,13.829-13.15,15.147-7.562-1.318-13.15-7.343-13.15-15.147V227.375a.91.91,0,0,1,.562-.852l12.223-5.238A.9.9,0,0,1,300.484,221.284Z" transform="translate(-286.969 -221.207)" fill="#8ac9fe" fill-rule="evenodd"/>
          <path id="Trazado_874588" data-name="Trazado 874588" d="M387.823,221.284l12.223,5.238a.91.91,0,0,1,.562.852V237.4c0,7.8-5.588,13.829-13.15,15.147-.195-.034-.387-.072-.579-.112,7.266-1.518,12.571-7.432,12.571-15.036V227.375a.91.91,0,0,0-.562-.852l-12.009-5.147.214-.092A.9.9,0,0,1,387.823,221.284Z" transform="translate(-374.309 -221.207)" fill="#60b7ff" fill-rule="evenodd"/>
          <circle id="Elipse_11516" data-name="Elipse 11516" cx="9.266" cy="9.266" r="9.266" transform="translate(1.06 10.606) rotate(-22.514)" fill="#eceff1"/>
          <path id="Trazado_874589" data-name="Trazado 874589" d="M327.108,271.784c.194,0,.387.007.579.018a9.265,9.265,0,0,0,0,18.494c-.192.012-.385.018-.579.018a9.266,9.266,0,1,1,0-18.531Z" transform="translate(-313.958 -265.42)" fill="#d1d1d6" fill-rule="evenodd"/>
          <path id="Trazado_874590" data-name="Trazado 874590" d="M347.932,317.679a1.28,1.28,0,0,1,1.81-1.81l1.958,1.958,4.73-4.774a1.276,1.276,0,0,1,1.81,1.8c-2.443,2.468-3.178,3.236-5.633,5.691a1.279,1.279,0,0,1-1.81,0Z" transform="translate(-339.935 -301.169)" fill="#8ac9fe" fill-rule="evenodd"/>
        </g>
      </g>
      <path id="Trazado_874591" data-name="Trazado 874591" d="M54.863,74.981a1.008,1.008,0,0,0,.717-.3l4.726-4.773a.269.269,0,0,1,.189-.079H60.5a.272.272,0,0,1,.189.078.281.281,0,0,1,0,.383c-.906.914-4.086,4.143-5.632,5.687a.272.272,0,0,1-.385,0l-2.866-2.865a.273.273,0,0,1,.385-.387l1.96,1.959A1,1,0,0,0,54.863,74.981ZM53.613,71.3a2.284,2.284,0,1,0-3.228,3.233l2.86,2.865a2.289,2.289,0,0,0,3.234,0c1.552-1.549,4.738-4.782,5.638-5.693a2.283,2.283,0,0,0-.012-3.228,2.256,2.256,0,0,0-1.6-.664h-.012a2.263,2.263,0,0,0-1.611.675l-4.021,4.056ZM64.5,72.945A8.258,8.258,0,1,0,56.249,81.2,8.265,8.265,0,0,0,64.5,72.945Zm-18.53,0A10.272,10.272,0,1,0,56.249,62.672,10.284,10.284,0,0,0,45.974,72.945Zm22.415.561v-9.97l-12.14-5.2L44.1,63.536v9.97A14.264,14.264,0,0,0,55.941,87.578l.308.053.3-.053A14.259,14.259,0,0,0,68.389,73.506ZM15.155,78.574a2.822,2.822,0,0,1-2.819-2.815V60.466a22.679,22.679,0,0,0,5.407,2.024A62.31,62.31,0,0,0,29.3,64.037a5.82,5.82,0,0,0,11.631-.007c.385-.023.776-.047,1.155-.074v9.549a16.3,16.3,0,0,0,.817,5.069H15.155ZM35.118,60a3.806,3.806,0,1,0,3.808,3.806A3.813,3.813,0,0,0,35.118,60ZM10.008,44.873a.953.953,0,0,1,.953-.952h9.511v5.362a3.47,3.47,0,0,0,3.464,3.462H46.3a3.464,3.464,0,0,0,3.459-3.462V43.921h9.517a.952.952,0,0,1,.948.952v9.318a4.262,4.262,0,0,1-1.362,3.07l-2.215-.949a1.009,1.009,0,0,0-.794,0L42.859,61.88c-.722.058-1.457.108-2.2.15a5.821,5.821,0,0,0-11.086.005,60.953,60.953,0,0,1-11.341-1.5c-5.454-1.383-8.226-3.52-8.226-6.349V44.873Zm15.919-6.049a3.089,3.089,0,0,1,3.085-3.084H41.224a3.089,3.089,0,0,1,3.085,3.084v3.084H42.7V38.824a1.5,1.5,0,0,0-1.475-1.476H29.013a1.5,1.5,0,0,0-1.475,1.476v3.084H25.927Zm14.758,3.084V39.361H29.552v2.547Zm-18.2,2.013v5.362a1.452,1.452,0,0,0,1.451,1.449H46.3a1.452,1.452,0,0,0,1.451-1.449V43.921ZM69.793,61.947,60.809,58.1a6.081,6.081,0,0,0,1.427-3.906V44.873a2.965,2.965,0,0,0-2.961-2.965H46.323V38.824a5.1,5.1,0,0,0-5.1-5.1H29.013a5.1,5.1,0,0,0-5.1,5.1v3.084H10.962a2.97,2.97,0,0,0-2.967,2.965v9.318a6.305,6.305,0,0,0,2.333,4.88V75.759a4.831,4.831,0,0,0,4.827,4.829H43.729A16.362,16.362,0,0,0,55.6,89.561a2.208,2.208,0,0,0,1.3,0A16.352,16.352,0,0,0,70.4,73.506V62.872A1,1,0,0,0,69.793,61.947Z" transform="translate(0 0)" fill-rule="evenodd"/>
    </g>
  </g>
</svg>
