<svg xmlns="http://www.w3.org/2000/svg" width="61.554" height="56.767" viewBox="0 0 61.554 56.767">
  <g id="_9" data-name="9" transform="translate(-334.621 -1399.423)">
    <g id="Rectángulo_401341" data-name="Rectángulo 401341" transform="translate(334.621 1399.423)" fill="#fece2f" stroke="#faedc1" stroke-width="3">
      <rect width="61.554" height="56.767" rx="12" stroke="none"/>
      <rect x="1.5" y="1.5" width="58.554" height="53.767" rx="10.5" fill="none"/>
    </g>
    <g id="group_8859790" transform="translate(347.301 1409.709)">
      <path id="Trazado_874658" data-name="Trazado 874658" d="M46.815,89.4h11.58v12.018H46.815Z" transform="translate(-43.506 -83.084)" fill="#fe7701"/>
      <g id="Grupo_1101141" data-name="Grupo 1101141" transform="translate(18.525 0.53)">
        <path id="Trazado_874659" data-name="Trazado 874659" d="M262.061,240.611V252.18H279.2V240.611a2.856,2.856,0,0,0-2.856-2.856H264.917A2.856,2.856,0,0,0,262.061,240.611Z" transform="translate(-262.061 -221.478)" fill="#3c87d0"/>
        <path id="Trazado_874660" data-name="Trazado 874660" d="M272.488,245.039a5.147,5.147,0,0,0-5.141-5.141h-.539a6.559,6.559,0,0,0,1.093-2.142h-2.981a2.856,2.856,0,0,0-2.856,2.856V252.18h10.426v-7.142Z" transform="translate(-262.062 -221.478)" fill="#0078c8"/>
        <path id="Trazado_874661" data-name="Trazado 874661" d="M362.465,201.523l-1.714,1.714-1.714-1.714v-2.142h3.428Z" transform="translate(-352.182 -185.817)" fill="#f6a96c"/>
        <path id="Trazado_874662" data-name="Trazado 874662" d="M322.166,72.613V78a4.285,4.285,0,0,0,8.569,0V72.613Z" transform="translate(-317.917 -68.01)" fill="#fed2a4"/>
        <path id="Trazado_874663" data-name="Trazado 874663" d="M322.166,78a4.285,4.285,0,0,0,2.595,3.938,2.284,2.284,0,0,0,.8-1.738V77.161a6.591,6.591,0,0,0-1.829-4.548h-1.568Z" transform="translate(-317.917 -68.01)" fill="#ffbd86"/>
        <path id="Trazado_874664" data-name="Trazado 874664" d="M301.376,12.07v3.2l.827-.438h.714l.477-1.609a1.314,1.314,0,0,1,1.26-.941h5.025a1.314,1.314,0,0,1,1.26.941l.477,1.609h.714l.827.438v-3.2a4.57,4.57,0,0,0-4.57-4.57h-2.439A4.57,4.57,0,0,0,301.376,12.07Z" transform="translate(-298.597 -7.5)" fill="#d77f4a"/>
        <path id="Trazado_874665" data-name="Trazado 874665" d="M304.3,43.844a4.54,4.54,0,0,0-2.384-2.058,4.548,4.548,0,0,0-.535,2.146v3.2l.827-.438h.714l.477-1.609a1.313,1.313,0,0,1,1.185-.938C304.488,44.042,304.393,43.941,304.3,43.844Z" transform="translate(-298.597 -39.362)" fill="#c86d36"/>
        <path id="Trazado_874666" data-name="Trazado 874666" d="M444.1,108.466a1.42,1.42,0,0,0-.714.193v2.664h.714a1.428,1.428,0,0,0,0-2.856Z" transform="translate(-430.567 -101.329)" fill="#f6a96c"/>
        <g id="Grupo_1101140" data-name="Grupo 1101140" transform="translate(6.016 15.706)">
          <path id="Trazado_874667" data-name="Trazado 874667" d="M384.994,229.686,383.28,231.4l1.909,1.909.644-3.053Z" transform="translate(-380.727 -229.686)" fill="#7bacdf"/>
          <path id="Trazado_874668" data-name="Trazado 874668" d="M348.006,229.686l1.714,1.714-1.909,1.909-.644-3.053Z" transform="translate(-347.167 -229.686)" fill="#7bacdf"/>
        </g>
      </g>
      <g id="Grupo_1101142" data-name="Grupo 1101142" transform="translate(0.53 0.53)">
        <path id="Trazado_874669" data-name="Trazado 874669" d="M24.638,240.611V252.18H7.5V240.611a2.856,2.856,0,0,1,2.856-2.856H21.782A2.856,2.856,0,0,1,24.638,240.611Z" transform="translate(-7.5 -221.478)" fill="#80d261"/>
        <path id="Trazado_874670" data-name="Trazado 874670" d="M102.455,245.039A5.147,5.147,0,0,1,107.6,239.9h.539a6.559,6.559,0,0,1-1.093-2.142h2.981a2.856,2.856,0,0,1,2.856,2.856V252.18H102.455Z" transform="translate(-95.743 -221.478)" fill="#68ca44"/>
        <path id="Trazado_874671" data-name="Trazado 874671" d="M77.863,202.094v-2.713H74.435v2.713H72.15a2.285,2.285,0,0,0,.669,1.616l1.714,1.714a2.285,2.285,0,0,0,3.232,0l1.714-1.714a2.285,2.285,0,0,0,.669-1.616H77.863Z" transform="translate(-67.58 -185.817)" fill="#f6a96c"/>
        <path id="Trazado_874672" data-name="Trazado 874672" d="M77.183,72.613V78a4.285,4.285,0,0,1-8.569,0V72.613Z" transform="translate(-64.294 -68.01)" fill="#fed2a4"/>
        <path id="Trazado_874673" data-name="Trazado 874673" d="M145.168,78a4.285,4.285,0,0,1-2.595,3.938,2.284,2.284,0,0,1-.8-1.738V77.161a6.591,6.591,0,0,1,1.829-4.548h1.568Z" transform="translate(-132.278 -68.01)" fill="#ffbd86"/>
        <path id="Trazado_874674" data-name="Trazado 874674" d="M58.395,13.289v1.977l-.827-.438h-.714l-.477-1.609a1.314,1.314,0,0,0-2.2-.545l-.9.916a4.115,4.115,0,0,1-2.942,1.238h-2.7l-.827.438V13.289a5.79,5.79,0,1,1,11.58,0Z" transform="translate(-44.036 -7.499)" fill="#fe9738"/>
        <path id="Trazado_874675" data-name="Trazado 874675" d="M165.6,46.245q-.147.146-.283.3a1.313,1.313,0,0,1,1.185.938l.477,1.609h.714l.827.438V47.553a5.761,5.761,0,0,0-.954-3.184A4.533,4.533,0,0,0,165.6,46.245Z" transform="translate(-154.158 -41.763)" fill="#fe860a"/>
        <path id="Trazado_874676" data-name="Trazado 874676" d="M39.738,108.466a1.42,1.42,0,0,1,.714.193v2.664h-.714a1.428,1.428,0,0,1,0-2.856Z" transform="translate(-36.132 -101.329)" fill="#f6a96c"/>
      </g>
      <g id="Grupo_1101143" data-name="Grupo 1101143" transform="translate(9.528 4.954)">
        <path id="Trazado_874677" data-name="Trazado 874677" d="M134.78,303.242v11.573h17.138V303.242a2.856,2.856,0,0,0-2.856-2.856H137.636A2.856,2.856,0,0,0,134.78,303.242Z" transform="translate(-134.78 -284.106)" fill="#cbe5e8"/>
        <path id="Trazado_874678" data-name="Trazado 874678" d="M235.81,319.557h.572l.964-1.454-1.536-1.543-1.536,1.543.964,1.454Z" transform="translate(-227.241 -299.136)" fill="#fd4755"/>
        <path id="Trazado_874679" data-name="Trazado 874679" d="M306.773,300.385h-2.285a2.856,2.856,0,0,1,2.856,2.856v11.573h2.285V303.241A2.856,2.856,0,0,0,306.773,300.385Z" transform="translate(-292.491 -284.105)" fill="#a8d3d8"/>
        <path id="Trazado_874680" data-name="Trazado 874680" d="M235.184,264.153l-1.714,1.714-1.714-1.714v-2.142h3.428Z" transform="translate(-224.901 -248.443)" fill="#f6a96c"/>
        <path id="Trazado_874681" data-name="Trazado 874681" d="M194.885,135.243v5.391a4.285,4.285,0,0,0,8.569,0v-5.391Z" transform="translate(-190.636 -130.637)" fill="#fed2a4"/>
        <path id="Trazado_874682" data-name="Trazado 874682" d="M243.556,135.243v5.391a4.286,4.286,0,0,1-3.213,4.15,4.288,4.288,0,0,0,5.356-4.15v-5.391Z" transform="translate(-232.881 -130.637)" fill="#ffbd86"/>
        <path id="Trazado_874683" data-name="Trazado 874683" d="M184.134,71.508a2.215,2.215,0,0,0-2.071-1.428h-3.156a4.812,4.812,0,0,0-4.812,4.812V77.85l.756-.438h.714c4.279,0,5.546-1.83,5.546-1.83a1.424,1.424,0,0,1-.146.63.283.283,0,0,0,.29.4,4.723,4.723,0,0,0,2.124-.823l.755,1.62h.714l.827.438V74.807a4.285,4.285,0,0,0-1.372-3.143Z" transform="translate(-171.316 -70.08)" fill="#d77f4a"/>
        <path id="Trazado_874684" data-name="Trazado 874684" d="M290.249,71.711l-.169-.157a2.214,2.214,0,0,0-1.98-1.425,2.212,2.212,0,0,1,.438.711l.169.157a4.284,4.284,0,0,1,1.372,3.143v3.319h.714l.827.438V74.854A4.284,4.284,0,0,0,290.249,71.711Z" transform="translate(-277.263 -70.126)" fill="#c86d36"/>
        <path id="Trazado_874685" data-name="Trazado 874685" d="M166.722,171.289a1.428,1.428,0,1,0-.714,2.664h.714Z" transform="translate(-162.473 -163.955)" fill="#f6a96c"/>
        <path id="Trazado_874686" data-name="Trazado 874686" d="M316.818,171.1a1.42,1.42,0,0,0-.714.193v2.664h.714a1.428,1.428,0,0,0,0-2.856Z" transform="translate(-303.286 -163.955)" fill="#f6a96c"/>
        <path id="Trazado_874687" data-name="Trazado 874687" d="M257.714,292.316,256,294.03l1.909,1.909.644-3.053Z" transform="translate(-247.431 -276.606)" fill="#eef5f6"/>
        <path id="Trazado_874688" data-name="Trazado 874688" d="M220.725,292.316l1.714,1.714-1.909,1.909-.644-3.053Z" transform="translate(-213.87 -276.606)" fill="#eef5f6"/>
        <path id="Trazado_874689" data-name="Trazado 874689" d="M233.47,369.245l1.714-1.934-1.142-8.354H232.9l-1.142,8.354Z" transform="translate(-224.901 -338.536)" fill="#fe646f"/>
      </g>
      <path id="Trazado_874690" data-name="Trazado 874690" d="M35.663,23.169a.53.53,0,0,0,.53-.53V19.663a3.39,3.39,0,0,0-3.387-3.386h-3l-.473-.321V14.763a4.824,4.824,0,0,0,2.505-3.709h.214a1.957,1.957,0,0,0,1.357-3.368V5.1a5.106,5.106,0,0,0-5.1-5.1H25.874A5.107,5.107,0,0,0,20.813,4.48a2.706,2.706,0,0,0-.539-.056H17.118a5.313,5.313,0,0,0-1.892.347,6.357,6.357,0,0,0-1.658-2.92A6.32,6.32,0,0,0,2.779,6.32V7.686a1.954,1.954,0,0,0,0,2.82V12.3a.53.53,0,0,0,1.06,0V11.032a1.962,1.962,0,0,0,.3.022H4.35a4.824,4.824,0,0,0,2.505,3.709v1.513H3.839V14.771a.53.53,0,1,0-1.06,0v1.562A3.391,3.391,0,0,0,0,19.663V31.232a.53.53,0,0,0,.53.53H9v3.9a.53.53,0,0,0,.53.53H26.666a.53.53,0,0,0,.53-.53v-3.9h8.467a.53.53,0,0,0,.53-.53V25.113a.53.53,0,0,0-1.06,0V30.7h-1.8V22.734a.53.53,0,1,0-1.06,0V30.7H27.2V24.09A3.39,3.39,0,0,0,23.809,20.7h-3l-.473-.321V19.191a4.848,4.848,0,0,0,1.9-1.853h1.871l.555,2.632a.53.53,0,0,0,.894.266L27.094,18.7l1.534,1.534a.53.53,0,0,0,.894-.266l.555-2.631h2.73a2.329,2.329,0,0,1,2.326,2.326v2.976a.53.53,0,0,0,.53.53Zm-7.385-7.152L27.094,17.2,25.91,16.017V15.2a4.847,4.847,0,0,0,2.367-.02Zm-5.4-3.371a.885.885,0,0,1,.184-.021.9.9,0,0,1,0,1.8h-.184Zm4.183,1.632a3.714,3.714,0,0,1-2.047-.606c0-.049.006-.1.006-.149a1.952,1.952,0,0,0-.6-1.41V9.681a4.827,4.827,0,0,0-.781-2.625L23.83,6.4a.789.789,0,0,1,.752-.562h5.024a.789.789,0,0,1,.752.561l.454,1.535v2.588a3.759,3.759,0,0,1-3.754,3.754Zm5-4.285h-.184V8.219a.885.885,0,0,1,.184-.021.9.9,0,0,1,0,1.8ZM25.874,1.06h2.439a4.045,4.045,0,0,1,4.04,4.04V7.16a1.965,1.965,0,0,0-.3-.022,1.942,1.942,0,0,0-.364.035L31.375,6.1a1.856,1.856,0,0,0-1.769-1.321H24.582a1.856,1.856,0,0,0-1.767,1.316l-.023-.022a2.748,2.748,0,0,0-.953-1.154A4.045,4.045,0,0,1,25.874,1.06Zm-5.6,4.424A1.7,1.7,0,0,1,21.85,6.571a.53.53,0,0,0,.135.2l.169.157a3.765,3.765,0,0,1,1.2,2.754v1.906a1.965,1.965,0,0,0-.3-.022,1.943,1.943,0,0,0-.441.052l-.548-1.174a.53.53,0,0,0-.785-.21,4.167,4.167,0,0,1-1.481.66,1.958,1.958,0,0,0,.049-.436.535.535,0,0,0-.373-.517.518.518,0,0,0-.589.209,3.211,3.211,0,0,1-1.065.8,8.7,8.7,0,0,1-3.925.81,1.934,1.934,0,0,0-1.064-.177V9.765a4.286,4.286,0,0,1,4.281-4.281ZM13.1,16.277H11.343V14.8q.084-.043.166-.09a1.956,1.956,0,0,0,1.554.768h.214a4.78,4.78,0,0,0,.157.8H13.1Zm.148-1.856h-.184a.9.9,0,1,1,0-1.8.885.885,0,0,1,.184.021ZM3.84,6.32A5.26,5.26,0,0,1,14.251,5.262a5.38,5.38,0,0,0-.908.728,1.856,1.856,0,0,0-1.731-1.212,1.842,1.842,0,0,0-1.318.555l-.9.916A3.6,3.6,0,0,1,6.834,7.329H4.977A1.948,1.948,0,0,0,3.84,7.16V6.32ZM3.238,9.1a.9.9,0,0,1,.9-.9.885.885,0,0,1,.184.021V9.994H4.136A.9.9,0,0,1,3.238,9.1Zm2.142,1.428V8.389H6.834a4.671,4.671,0,0,0,3.321-1.4l.9-.916a.787.787,0,0,1,.257-.175.777.777,0,0,1,.3-.061.789.789,0,0,1,.752.562l.181.61a5.309,5.309,0,0,0-.767,2.755v2.282a1.954,1.954,0,0,0-.673,1.475c0,.065,0,.129.009.192a3.713,3.713,0,0,1-1.979.564,3.759,3.759,0,0,1-3.754-3.754Zm2,6.813a.53.53,0,0,0,.53-.53V15.182a4.846,4.846,0,0,0,2.367.02v1.606a.53.53,0,0,0,.53.53h1.674a1.746,1.746,0,0,1-.433.711L10.34,19.762a1.756,1.756,0,0,1-2.482,0L6.144,18.048a1.746,1.746,0,0,1-.38-.57q-.029-.07-.052-.141ZM9.528,29.3a.53.53,0,0,0-.53.53V30.7H3.917V22.734a.53.53,0,1,0-1.06,0V30.7H1.06V19.663a2.329,2.329,0,0,1,2.326-2.326H4.621A2.819,2.819,0,0,0,5.395,18.8l1.714,1.714a2.816,2.816,0,0,0,3.982,0L12.8,18.8a2.794,2.794,0,0,0,.774-1.461h.3a4.847,4.847,0,0,0,1.971,1.89v1.156l-.473.321h-3A3.39,3.39,0,0,0,9,24.09v3.266a.53.53,0,1,0,1.06,0V24.09a2.329,2.329,0,0,1,2.326-2.326h2.73l.555,2.631a.529.529,0,0,0,.8.341l.506.764-1.115,8.156a.53.53,0,0,0,.128.423l.932,1.053h-4V27.161a.53.53,0,1,0-1.06,0v7.972h-1.8v-5.3a.53.53,0,0,0-.53-.53ZM18.1,23.127l.857.857-.57.86h-.574l-.57-.86Zm0,11.736-1.156-1.3L17.987,25.9h.219l1.046,7.655Zm1.779-13.515.182.124-.368,1.747-.842-.842ZM16.5,23.22l-.368-1.747.182-.124,1.029,1.029Zm9.631.87V35.133h-1.8V27.161a.53.53,0,1,0-1.06,0v7.972h-4l.933-1.053a.53.53,0,0,0,.128-.423L19.221,25.5l.506-.764a.53.53,0,0,0,.8-.341l.555-2.631h2.73a2.329,2.329,0,0,1,2.326,2.326ZM19.28,20.444,18.1,21.628l-1.184-1.184v-.818a4.808,4.808,0,0,0,2.367-.017Zm-1.219-1.739a3.759,3.759,0,0,1-3.754-3.754V12.807a8.819,8.819,0,0,0,4.435-1.167l.028.041a.813.813,0,0,0,.764.335,5.278,5.278,0,0,0,1.827-.586l.454.974v2.547A3.759,3.759,0,0,1,18.061,18.706Zm6.317-2.429H22.689a4.78,4.78,0,0,0,.157-.8h.214a1.957,1.957,0,0,0,1.575-.8c.071.042.143.081.215.118v1.152ZM25.5,18.793l-.368-1.747.182-.124,1.029,1.029Zm3.185,0-.842-.842,1.029-1.029.182.124Z"/>
    </g>
  </g>
</svg>
