<svg xmlns="http://www.w3.org/2000/svg" width="90" height="83" viewBox="0 0 90 83">
  <g id="a1" transform="translate(-858.333 -163)">
    <g id="Grupo_1099432" data-name="Grupo 1099432" transform="translate(-221.448 -2073)">
      <g id="Rectángulo_401341" data-name="Rectángulo 401341" transform="translate(1079.781 2236)" fill="#d6c0fd" stroke="#fff" stroke-width="3">
        <rect width="90" height="83" rx="12" stroke="none"/>
        <rect x="1.5" y="1.5" width="87" height="80" rx="10.5" fill="none"/>
      </g>
    </g>
    <path id="apoyo-social" d="M84.5,98.9a2.449,2.449,0,1,1,2.454-2.448A2.449,2.449,0,0,1,84.5,98.9ZM100.381,51l-.157,1.921-.609-.066a3.6,3.6,0,0,0-3.2,5.839c0,.006.009.013.018.018l-.028.015a3.6,3.6,0,0,0-.554,5.066c.009,0,.009.012.018.018-.009.006-.018.01-.018.014a3.586,3.586,0,0,0-.544,5.086c-.009,0-.018.008-.018.013a3.553,3.553,0,0,0-1.328,2.417,3.454,3.454,0,0,0,.092,1.307l-.572,5.1-1.753,3.644a1.071,1.071,0,0,1-1.412.491c-.378-.186-.48-.369-.517-.489a2.688,2.688,0,0,1,.341-1.642l.969-1.947.055-.28.47-6.82a1.045,1.045,0,0,0-2.085-.143l-.452,6.63-.249.475c-.2.388-.424.807-.618,1.244L86.514,82.32a1.422,1.422,0,0,1-2.546-.023,2.6,2.6,0,0,1,.138-1.458l1.762-3.594.083-.253.221-6.332a1.043,1.043,0,0,0-2.085-.07l-.194,5.937c-.12.234-.258.5-.415.771a18.749,18.749,0,0,0-1.31,2.771l-1.19,2.443a1.406,1.406,0,0,1-2.334.292c1.141-1.821,1.617-4.238,2.27-6.276s1.209-13.116.95-17.427h3.875a3.7,3.7,0,0,0,3.7-3.694v-.279a3.7,3.7,0,0,0-3.7-3.7H79.429a4.765,4.765,0,0,0-2.961,1.226l1.541-3.86a6.316,6.316,0,0,1,2.482-3.066l2.749-1.83a8.433,8.433,0,0,0,2.786-3.021l2.15-3.87a29.4,29.4,0,0,1,14.558,8.732A8.4,8.4,0,0,0,100.381,51Zm2.565,4.768a1.513,1.513,0,0,0-1.024-.563l-2.528-.28a1.487,1.487,0,0,0-1.116.328,1.521,1.521,0,0,0,.775,2.7l2.537.279a1.52,1.52,0,0,0,1.679-1.348,1.485,1.485,0,0,0-.323-1.116ZM101.59,72.177a1.529,1.529,0,0,0-1.347-1.681l-2.537-.278a1.5,1.5,0,0,0-1.116.327,1.522,1.522,0,0,0,.784,2.7l2.537.279A1.525,1.525,0,0,0,101.59,72.177Zm-4.05,7.278a6.21,6.21,0,0,0,.637-2.326l.148-1.685a6.683,6.683,0,0,1-2.436-.506l-.36,3.209a4.348,4.348,0,0,1-.3.9c-.812,2.03-.72,2.485-.018,2.823a1.048,1.048,0,0,0,1.4-.491Zm4.613-12.378a1.526,1.526,0,0,0-1.347-1.679l-2.537-.28a1.523,1.523,0,0,0-.332,3.027l2.537.279a1.533,1.533,0,0,0,1.679-1.347Zm.563-5.1a1.537,1.537,0,0,0-1.347-1.68l-2.537-.279a1.523,1.523,0,0,0-.332,3.027l2.528.28a1.536,1.536,0,0,0,1.688-1.348Zm-27.5,21.006a4.016,4.016,0,0,0,1.624-1.22c1.016-1.586,1.469-3.963,2.085-5.874.655-2.012,1.227-15.2.766-17.642a1.051,1.051,0,0,1,1.024-1.233h5.028a1.611,1.611,0,0,0,1.615-1.61v-.279a1.613,1.613,0,0,0-1.615-1.612H79.429a1.516,1.516,0,0,0-.895.271l-7.39,4.927a6.374,6.374,0,0,0-2.731,3.813l-1.587,5.94a8.456,8.456,0,0,1-1.864,3.5L56.2,81.974a29.569,29.569,0,0,0,7.888,8.1,29.132,29.132,0,0,0,3.958,2.317l4.742-7.455A5.8,5.8,0,0,1,75.213,82.985ZM71.356,34.3A2.449,2.449,0,1,1,68.9,36.752,2.451,2.451,0,0,1,71.356,34.3Zm34.219,11.474a31.875,31.875,0,0,0-2.482-2.712l-.387-.374a31.843,31.843,0,0,0-11.781-7.045c-.009,0-.018-.006-.018-.009-1.045-.333-1.958-.6-3.035-.84a1.039,1.039,0,0,0-1.135.512L84.2,39.869a6.231,6.231,0,0,1-2.122,2.3L79.336,44a8.424,8.424,0,0,0-3.266,4.026L73.413,54.7l-3.432,2.283a8.494,8.494,0,0,0-3.589,5.011l-1.578,5.939a6.381,6.381,0,0,1-1.421,2.661L55.072,80.1A29.586,29.586,0,0,1,67.6,39.294a4.539,4.539,0,1,0-.738-1.959,31.7,31.7,0,0,0,1.144,57.333,1.036,1.036,0,0,0,1.3-.391l5.24-8.226c.5-.789,1.692-1.191,2.62-1.781a3.479,3.479,0,0,0,5.37-.329,3.524,3.524,0,0,0,5.84-.7l.083-.157a3.185,3.185,0,0,0,4.733-.166,3.186,3.186,0,0,0,5.3-.631l.932-1.93A11.864,11.864,0,0,0,100.4,75.6a3.607,3.607,0,0,0,2.472-5.865,3.607,3.607,0,0,0,.563-5.1s.009-.007.018-.012A3.6,3.6,0,0,0,104,59.541a3.611,3.611,0,0,0-1.707-6.394l.175-1.975a6.288,6.288,0,0,1,1.633-3.831A29.554,29.554,0,0,1,88.526,94.362a4.539,4.539,0,1,0,.507,2.019,31.7,31.7,0,0,0,16.542-50.6Z" transform="translate(822.082 137.782)" fill="#464bc7" fill-rule="evenodd"/>
  </g>
</svg>
