<svg xmlns="http://www.w3.org/2000/svg" xmlns:xlink="http://www.w3.org/1999/xlink" width="400" height="290.34" viewBox="0 0 400 290.34">
  <defs>
    <clipPath id="clip-path">
      <rect id="Rect치ngulo_45472" data-name="Rect치ngulo 45472" width="26.368" height="29.12" fill="#eadffe"/>
    </clipPath>
  </defs>
  <g id="card-start2" transform="translate(-179.051 -1360.83)">
    <g id="Rect치ngulo_401438" data-name="Rect치ngulo 401438" transform="translate(179.051 1360.83)" fill="#464bc7" stroke="#fff" stroke-width="5">
      <rect width="400" height="290.34" rx="14" stroke="none"/>
      <rect x="2.5" y="2.5" width="395" height="285.34" rx="11.5" fill="none"/>
    </g>
    <g id="Grupo_1101728" data-name="Grupo 1101728" transform="translate(0 -2158.001)">
      <path id="Trazado_184424" data-name="Trazado 184424" d="M29.045,58.09A29.045,29.045,0,1,0,0,29.045,29.045,29.045,0,0,0,29.045,58.09Z" transform="translate(499.333 3540.833)" fill="#733dde" style="mix-blend-mode: multiply;isolation: isolate"/>
      <g id="Grupo_175523" data-name="Grupo 175523" transform="translate(507.727 3559.668)" clip-path="url(#clip-path)">
        <path id="Trazado_184426" data-name="Trazado 184426" d="M.354,15c9.484,1.241,11.308,3.256,12.432,13.73a.4.4,0,0,0,.8,0C14.705,18.255,16.53,16.24,26.014,15a.45.45,0,0,0,0-.878C16.53,12.879,14.705,10.865,13.582.39a.4.4,0,0,0-.8,0C11.662,10.865,9.838,12.879.354,14.121a.45.45,0,0,0,0,.878" transform="translate(0.001 0)" fill="#eadffe"/>
      </g>
      <circle id="Elipse_11525" data-name="Elipse 11525" cx="6" cy="6" r="6" transform="translate(200.051 3564)" fill="#eadffe" opacity="0.84"/>
    </g>
  </g>
</svg>
