<svg xmlns="http://www.w3.org/2000/svg" xmlns:xlink="http://www.w3.org/1999/xlink" width="1333" height="620" viewBox="0 0 1333 620">
  <defs>
    <clipPath id="clip-path">
      <rect id="Rectángulo_401690" data-name="Rectángulo 401690" width="1333" height="620" fill="#fff" stroke="#707070" stroke-width="1" opacity="0.59"/>
    </clipPath>
    <clipPath id="clip-path-2">
      <path id="Rectangle_652" data-name="Rectangle 652" d="M21.594,0H1349.619c11.926,0,21.594,10.277,21.594,22.954V596.813c0,12.677-9.668,22.954-21.594,22.954H21.594C9.668,619.768,0,609.491,0,596.813V22.954C0,10.277,9.668,0,21.594,0Z" fill="#ecf6ff"/>
    </clipPath>
  </defs>
  <g id="fondio-slyder" clip-path="url(#clip-path)">
    <g id="Grupo_1101733" data-name="Grupo 1101733" transform="translate(-12.606 0.459)">
      <path id="Rectangle_652-2" data-name="Rectangle 652" d="M21.594,0H1349.619c11.926,0,21.594,10.277,21.594,22.954V596.813c0,12.677-9.668,22.954-21.594,22.954H21.594C9.668,619.768,0,609.491,0,596.813V22.954C0,10.277,9.668,0,21.594,0Z" fill="#edf6ff"/>
      <g id="Grupo_1071491" data-name="Grupo 1071491">
        <g id="Enmascarar_grupo_112" data-name="Enmascarar grupo 112" clip-path="url(#clip-path-2)">
          <g id="Grupo_1071455" data-name="Grupo 1071455" transform="translate(459.178 158.874) rotate(-30)" opacity="0.358">
            <g id="Trazado_875847" data-name="Trazado 875847" transform="translate(100.246 661.395)" fill="#f6aea8" opacity="0.758">
              <path d="M 281.6318664550781 710.8985595703125 C 281.6278076171875 710.8985595703125 281.6250610351562 710.8985595703125 281.6210021972656 710.8985595703125 C 261.9644775390625 710.8977661132812 242.5018310546875 708.9313354492188 223.7737426757812 705.0538330078125 C 205.4524688720703 701.2605590820312 187.5672760009766 695.584228515625 170.6150054931641 688.1824951171875 C 153.9246520996094 680.8952026367188 137.9190063476562 671.8403930664062 123.0425567626953 661.269775390625 C 108.2880096435547 650.78564453125 94.46455383300781 638.6832275390625 81.95610046386719 625.2986450195312 C 67.97309875488281 610.3362426757812 55.48337173461914 593.61767578125 44.83409881591797 575.6074829101562 C 34.08391571044922 557.4268798828125 25.12028121948242 537.7781372070312 18.19209861755371 517.2071533203125 C 11.13500785827637 496.2533874511719 6.121735572814941 474.1355895996094 3.291553735733032 451.4682312011719 C 0.3866446912288666 428.202392578125 -0.2514462172985077 404.0769348144531 1.394917368888855 379.7620239257812 C 3.023281097412109 355.7142333984375 6.883917331695557 331.5173034667969 12.869553565979 307.8434143066406 C 18.70328140258789 284.7703247070312 26.62455368041992 261.9144897460938 36.41328048706055 239.9106750488281 C 46.02455520629883 218.3058624267578 57.53210067749023 197.3034973144531 70.61627960205078 177.4872131347656 C 83.57609558105469 157.8592224121094 98.19500732421875 139.2233123779297 114.067008972168 122.0972213745117 C 129.9385528564453 104.9716720581055 147.1935577392578 89.21485900878906 165.3529205322266 75.26449584960938 C 183.6852874755859 61.18122100830078 203.100830078125 48.81576538085938 223.0602874755859 38.51158142089844 C 243.3870086669922 28.01785659790039 264.487548828125 19.55521965026855 285.7758178710938 13.35903739929199 C 296.596923828125 10.20931053161621 307.6306457519531 7.601310253143311 318.5704650878906 5.607401371002197 C 329.6704711914062 3.584219455718994 340.9474487304688 2.143492221832275 352.0882873535156 1.325128436088562 C 359.5420227050781 0.7776739597320557 367.0570068359375 0.5000375509262085 374.4243774414062 0.5000375509262085 C 394.0802917480469 0.5000375509262085 413.5422668457031 2.465764760971069 432.2698364257812 6.34249210357666 C 450.5905456542969 10.13512802124023 468.4751892089844 15.81076526641846 485.4270935058594 23.21176528930664 C 502.1170043945312 30.49849128723145 518.1222534179688 39.55258178710938 532.9984741210938 50.12267303466797 C 547.7527465820312 60.60612869262695 561.5759887695312 72.70794677734375 574.0843505859375 86.09194946289062 C 588.0681762695312 101.0545806884766 600.5585327148438 117.7735824584961 611.2085571289062 135.7843170166016 C 621.9593505859375 153.9654846191406 630.923583984375 173.6149444580078 637.8521728515625 194.186767578125 C 644.90966796875 215.1412200927734 649.9232788085938 237.2598571777344 652.753662109375 259.9280395507812 C 655.6588134765625 283.1946716308594 656.2969970703125 307.3209533691406 654.6505737304688 331.6365966796875 C 653.022216796875 355.6843872070312 649.1615600585938 379.8813171386719 643.1759033203125 403.5552062988281 C 637.3421630859375 426.6282958984375 629.4208984375 449.484130859375 619.6322021484375 471.4879455566406 C 610.0209350585938 493.0927734375 598.5133666992188 514.0951538085938 585.42919921875 533.911376953125 C 572.4693603515625 553.5394287109375 557.8504638671875 572.17529296875 541.9784545898438 589.3013916015625 C 526.10693359375 606.4269409179688 508.8519287109375 622.1837768554688 490.6925659179688 636.1341552734375 C 472.3601989746094 650.2174072265625 452.9445495605469 662.5828857421875 432.9851989746094 672.8870239257812 C 412.6583862304688 683.3807373046875 391.5578308105469 691.8433837890625 370.2696533203125 698.0396118164062 C 359.4484558105469 701.1893310546875 348.4147338867188 703.7973022460938 337.4749145507812 705.7911987304688 C 326.3749084472656 707.8143920898438 315.0979309082031 709.255126953125 303.9570922851562 710.073486328125 C 296.5033874511719 710.6210327148438 288.9913330078125 710.8985595703125 281.6318664550781 710.8985595703125 Z" stroke="none"/>
              <path d="M 281.6321105957031 710.3985595703125 C 288.979736328125 710.3985595703125 296.4786376953125 710.1213989257812 303.9204711914062 709.5748291015625 C 315.0435485839844 708.7577514648438 326.302734375 707.3193359375 337.3852844238281 705.29931640625 C 348.3082885742188 703.3084716796875 359.3251953125 700.7044067382812 370.1299133300781 697.5595703125 C 391.3871765136719 691.372314453125 412.4576416015625 682.9217529296875 432.7558288574219 672.4427490234375 C 452.6888122558594 662.1522216796875 472.0791015625 649.8028564453125 490.3879089355469 635.7376098632812 C 508.5250854492188 621.8043212890625 525.75927734375 606.0665893554688 541.6117553710938 588.9614868164062 C 557.4652099609375 571.8554077148438 572.0670776367188 553.2412109375 585.0119018554688 533.6359252929688 C 598.0809936523438 513.8424682617188 609.5751953125 492.864501953125 619.17529296875 471.2847595214844 C 628.9524536132812 449.3068542480469 636.8643798828125 426.4781188964844 642.691162109375 403.4326782226562 C 648.66943359375 379.7877502441406 652.525390625 355.6207580566406 654.1516723632812 331.6028442382812 C 655.7960205078125 307.3190307617188 655.1586303710938 283.2250366210938 652.257568359375 259.9900512695312 C 649.4312744140625 237.3549499511719 644.4251708984375 215.2692260742188 637.3783569335938 194.3464050292969 C 630.4608154296875 173.8075866699219 621.5112915039062 154.1900329589844 610.7781982421875 136.0388488769531 C 600.1466674804688 118.0593109130859 587.6781616210938 101.3695831298828 573.7191162109375 86.43340301513672 C 561.233642578125 73.0738525390625 547.4358520507812 60.99430847167969 532.7088012695312 50.53031158447266 C 517.8607177734375 39.98012924194336 501.8854675292969 30.94303703308105 485.2270202636719 23.6700382232666 C 468.3068237304688 16.28285598754883 450.4553833007812 10.61776447296143 432.16845703125 6.832128524780273 C 413.4741821289062 2.962219476699829 394.0462951660156 1.000037550926208 374.4243774414062 1.000037550926208 C 367.0693664550781 1.000037550926208 359.5667419433594 1.277219414710999 352.1249084472656 1.823764801025391 C 341.0018310546875 2.64085578918457 329.7426452636719 4.079310417175293 318.6600952148438 6.099310398101807 C 307.7370910644531 8.090128898620605 296.7202758789062 10.6942195892334 285.9155578613281 13.83903789520264 C 264.658203125 20.02630996704102 243.5878295898438 28.47685623168945 223.2896423339844 38.95585632324219 C 203.3565521240234 49.24640274047852 183.9663696289062 61.59576416015625 165.6574554443359 75.66104125976562 C 147.5203704833984 89.59430694580078 130.2861938476562 105.3320388793945 114.4337387084961 122.437126159668 C 98.58028411865234 139.543212890625 83.97837066650391 158.1573944091797 71.03355407714844 177.7626800537109 C 57.96446228027344 197.5561218261719 46.47019195556641 218.5341339111328 36.87018966674805 240.1138610839844 C 27.09291648864746 262.0917663574219 19.18109893798828 284.9205017089844 13.35428142547607 307.9659423828125 C 7.3760085105896 331.6108703613281 3.52009916305542 355.7778625488281 1.893826484680176 379.7957763671875 C 0.2495537847280502 404.078857421875 0.8867356181144714 428.172119140625 3.7877357006073 451.4062194824219 C 6.613735675811768 474.0404968261719 11.619553565979 496.1253967285156 18.66591835021973 517.0474853515625 C 25.5830078125 537.5855712890625 34.53200912475586 557.202392578125 45.26446151733398 575.35302734375 C 55.89528274536133 593.3319702148438 68.36309814453125 610.021240234375 82.32137298583984 624.9572143554688 C 94.80691528320312 638.3173217773438 108.6049194335938 650.3975219726562 123.3321914672852 660.8621215820312 C 138.1806488037109 671.4129638671875 154.1561889648438 680.45068359375 170.8150939941406 687.7243041992188 C 187.7356414794922 695.1121215820312 205.587646484375 700.7779541015625 223.8751068115234 704.564208984375 C 242.5699157714844 708.4348754882812 261.9984741210938 710.3977661132812 281.6210021972656 710.3985595703125 L 281.6321105957031 710.3985595703125 M 281.6210021972656 711.3986206054688 C 112.2679138183594 711.3917846679688 -11.82068824768066 567.536865234375 0.8960992097854614 379.7282104492188 C 14.16691780090332 183.7373962402344 171.3846435546875 14.09731006622314 352.0516357421875 0.8264921307563782 C 359.5941467285156 0.2724613845348358 367.0462036132812 2.301580207131337e-05 374.4243774414062 2.301580207131337e-05 C 543.777587890625 2.301580207131337e-05 667.8662719726562 143.8617248535156 655.1493530273438 331.67041015625 C 641.8785400390625 527.6611938476562 484.6608276367188 697.3013305664062 303.9937438964844 710.5721435546875 C 296.4512329101562 711.1261596679688 288.9992065429688 711.39892578125 281.6210021972656 711.3986206054688 Z" stroke="none" fill="#707070"/>
            </g>
            <g id="Trazado_875848" data-name="Trazado 875848" transform="translate(547.255 0)" fill="#df74f7" opacity="0.466">
              <path d="M 265.8081359863281 672.9288330078125 C 265.8043212890625 672.9288330078125 265.8010864257812 672.9288330078125 265.7973022460938 672.9288330078125 C 247.2810211181641 672.9280395507812 228.9464721679688 671.073486328125 211.3030242919922 667.416748046875 C 194.0423736572266 663.8392944335938 177.1908416748047 658.4859619140625 161.2163848876953 651.505126953125 C 145.4887390136719 644.6322021484375 130.4033813476562 636.0918579101562 116.3792877197266 626.1212768554688 C 102.4704742431641 616.232666015625 89.43528747558594 604.8167724609375 77.63565063476562 592.1905517578125 C 64.39492797851562 578.0222778320312 52.56756210327148 562.1843872070312 42.4822883605957 545.1167602539062 C 32.30183410644531 527.8881225585938 23.81301689147949 509.2638549804688 17.25183486938477 489.7613830566406 C 10.56847095489502 469.8959350585938 5.821016788482666 448.9244689941406 3.141471147537231 427.4294738769531 C 0.3910166621208191 405.3663024902344 -0.2118015140295029 382.4869384765625 1.349562168121338 359.4270324707031 C 2.890925645828247 336.6639404296875 6.539016723632812 313.7601013183594 12.19247150421143 291.3518371582031 C 17.70247077941895 269.5122985839844 25.18247032165527 247.8787536621094 34.42465209960938 227.0521087646484 C 43.49929046630859 206.6031188964844 54.36347198486328 186.7249298095703 66.71528625488281 167.9696655273438 C 78.94974517822266 149.3926544189453 92.74974060058594 131.7551116943359 107.7320175170898 115.5470199584961 C 122.7138366699219 99.3394775390625 139.0010223388672 84.42793273925781 156.1412048339844 71.22647857666016 C 173.4446563720703 57.89938735961914 191.77001953125 46.19847869873047 210.6082000732422 36.44902420043945 C 229.7929229736328 26.52011299133301 249.7074737548828 18.51411247253418 269.7986450195312 12.65338611602783 C 290.4118347167969 6.640295028686523 311.4674682617188 2.812567710876465 332.3805541992188 1.276386022567749 C 339.3939208984375 0.7612041831016541 346.4650268554688 0.5000223517417908 353.3972778320312 0.5000223517417908 C 371.912841796875 0.5000223517417908 390.2466430664062 2.353749513626099 407.8895568847656 6.009749412536621 C 425.1495666503906 9.586385726928711 442.0005493164062 14.93911361694336 457.9745483398438 21.91920471191406 C 473.7017517089844 28.79138565063477 488.7866516113281 37.33111190795898 502.8104858398438 47.30093002319336 C 516.7189331054688 57.18883895874023 529.75390625 68.60411071777344 541.553466796875 81.22966003417969 C 554.7950439453125 95.39811706542969 566.6231079101562 111.2364730834961 576.7091064453125 128.3047485351562 C 586.8903198242188 145.5340270996094 595.3795776367188 164.1590270996094 601.9412841796875 183.6622924804688 C 608.6251220703125 203.528564453125 613.3728637695312 224.5009307861328 616.0526733398438 245.9967498779297 C 618.8032836914062 268.0608520507812 619.4063110351562 290.9411010742188 617.8448486328125 314.0017395019531 C 616.303466796875 336.7648315429688 612.6554565429688 359.6686706542969 607.001953125 382.0769348144531 C 601.4920043945312 403.9164733886719 594.0120239257812 425.5500183105469 584.7697143554688 446.3766479492188 C 575.6951293945312 466.8256530761719 564.8309936523438 486.7038269042969 552.4791259765625 505.4591064453125 C 540.2447509765625 524.0361328125 526.4446411132812 541.673583984375 511.4623718261719 557.8817749023438 C 496.4806518554688 574.0892333984375 480.1934814453125 589.0008544921875 463.0532836914062 602.2022705078125 C 445.7498474121094 615.5293579101562 427.4244689941406 627.2302856445312 408.5863037109375 636.9798583984375 C 389.4015502929688 646.9086303710938 369.4870300292969 654.9147338867188 349.395751953125 660.7754516601562 C 328.7825622558594 666.7884521484375 307.7269287109375 670.6162719726562 286.8138427734375 672.1524658203125 C 279.8001403808594 672.6676635742188 272.7324829101562 672.9288330078125 265.8081359863281 672.9288330078125 Z" stroke="none"/>
              <path d="M 265.8083801269531 672.4288330078125 C 272.7208251953125 672.4288330078125 279.7757568359375 672.1680908203125 286.7771911621094 671.6538696289062 C 307.6553955078125 670.1201782226562 328.6762084960938 666.2986450195312 349.2557373046875 660.2954711914062 C 369.3160095214844 654.4437255859375 389.2003784179688 646.4498291015625 408.3564758300781 636.5357666015625 C 427.1683044433594 626.7999267578125 445.4682922363281 615.1151123046875 462.7481994628906 601.8060913085938 C 479.8662109375 588.6217651367188 496.1324768066406 573.7293090820312 511.0951843261719 557.5422973632812 C 526.0590209960938 541.3541870117188 539.8421020507812 523.7384033203125 552.0615844726562 505.1841125488281 C 564.3983764648438 486.45166015625 575.2492065429688 466.5977478027344 584.312744140625 446.173828125 C 593.54345703125 425.3731079101562 601.0140991210938 403.7666625976562 606.5172119140625 381.9546508789062 C 612.1632690429688 359.5752868652344 615.806640625 336.7012939453125 617.345947265625 313.968017578125 C 618.9052734375 290.9391174316406 618.30322265625 268.0911254882812 615.5564575195312 246.0585632324219 C 612.880859375 224.5959320068359 608.1405639648438 203.6563873291016 601.4674072265625 183.8217468261719 C 594.9168090820312 164.3514709472656 586.4420776367188 145.7583923339844 576.2786254882812 128.5591125488281 C 566.2111206054688 111.5221099853516 554.405029296875 95.71302032470703 541.1881713867188 81.57102203369141 C 529.4115600585938 68.96993255615234 516.4019165039062 57.57693099975586 502.5208435058594 47.70847702026367 C 488.5249328613281 37.75847625732422 473.4700927734375 29.23583984375 457.7743835449219 22.37738609313965 C 441.8321228027344 15.41111278533936 425.0142822265625 10.06893157958984 407.7881164550781 6.499295234680176 C 390.1785583496094 2.850295066833496 371.8788452148438 1.000022292137146 353.3972778320312 1.000022292137146 C 346.4773864746094 1.000022292137146 339.4186401367188 1.260749578475952 332.4172058105469 1.775022387504578 C 311.5390014648438 3.308658599853516 290.5181884765625 7.130113124847412 269.9386596679688 13.13338565826416 C 249.8784637451172 18.9851131439209 229.9941101074219 26.97902297973633 210.8380126953125 36.89302062988281 C 192.0261993408203 46.62893295288086 173.7261962890625 58.31365966796875 156.4462890625 71.62265777587891 C 139.3282928466797 84.80702209472656 123.0619277954102 99.69947814941406 108.0991973876953 115.886474609375 C 93.13546752929688 132.0745697021484 79.35237884521484 149.6903839111328 67.13292694091797 168.2446594238281 C 54.79610824584961 186.9770202636719 43.94519805908203 206.8309326171875 34.88165283203125 227.2549285888672 C 25.65092658996582 248.0556640625 18.18029022216797 269.662109375 12.67728900909424 291.47412109375 C 7.031107425689697 313.8534851074219 3.387743949890137 336.7274780273438 1.848471164703369 359.4607543945312 C 0.2891984879970551 382.4888305664062 0.8911985158920288 405.3360290527344 3.637653112411499 427.3676452636719 C 6.313016891479492 448.8294677734375 11.0529260635376 469.7681274414062 17.72565269470215 489.6019287109375 C 24.27583503723145 509.0713806152344 32.74992752075195 527.6637573242188 42.91274261474609 544.8623657226562 C 52.97956085205078 561.8988647460938 64.78492736816406 577.7074584960938 78.00092315673828 591.8491821289062 C 89.77765655517578 604.450927734375 102.787467956543 615.8445434570312 116.6690139770508 625.7137451171875 C 130.6651000976562 635.6644897460938 145.7203826904297 644.187744140625 161.4165649414062 651.0469360351562 C 177.359375 658.013916015625 194.1777496337891 663.3567504882812 211.4044647216797 666.9271240234375 C 229.0146484375 670.576904296875 247.3150177001953 672.4280395507812 265.7973022460938 672.4288330078125 L 265.8083801269531 672.4288330078125 M 265.7973022460938 673.4288330078125 C 105.9307403564453 673.421630859375 -11.18896007537842 537.2029418945312 0.8507439494132996 359.3932189941406 C 13.41347122192383 173.8604736328125 161.8280181884766 13.3029317855835 332.3439331054688 0.7777495980262756 C 339.4418334960938 0.2563766837120056 346.45361328125 2.980735007440671e-05 353.3972473144531 2.980735007440671e-05 C 513.2638549804688 2.980735007440671e-05 630.3833618164062 136.2258148193359 618.3436279296875 314.0355529785156 C 605.781005859375 499.5682067871094 457.3664855957031 660.1258544921875 286.8504638671875 672.651123046875 C 279.7525939941406 673.1724853515625 272.7409362792969 673.4291381835938 265.7973022460938 673.4288330078125 Z" stroke="none" fill="#707070"/>
            </g>
            <g id="Trazado_875849" data-name="Trazado 875849" transform="translate(0 528.482)" fill="#26c6da" opacity="0.518">
              <path d="M 85.87916564941406 217.2434844970703 C 85.87617492675781 217.2434844970703 85.87334442138672 217.2434844970703 85.87035369873047 217.2434844970703 C 74.01251983642578 217.2422027587891 62.69588088989258 214.9227600097656 52.23477172851562 210.3495330810547 C 47.1768798828125 208.138427734375 42.32529830932617 205.3908996582031 37.81471633911133 202.1832885742188 C 33.34093856811523 199.0018768310547 29.14765930175781 195.3289031982422 25.35140991210938 191.2664642333984 C 21.08677101135254 186.7028198242188 17.27715873718262 181.6006164550781 14.0284366607666 176.1015930175781 C 10.74843692779541 170.5496520996094 8.01335334777832 164.5473785400391 5.899186611175537 158.2614593505859 C 3.745186805725098 151.8571472167969 2.215103387832642 145.0957946777344 1.351464629173279 138.1651306152344 C 0.4647701680660248 131.0495147705078 0.2705479264259338 123.6702346801758 0.7741868495941162 116.232292175293 C 1.271186828613281 108.8922882080078 2.446964502334595 101.5068206787109 4.268881320953369 94.28103637695312 C 6.044686794281006 87.23820495605469 8.455297470092773 80.26170349121094 11.43377017974854 73.54537200927734 C 14.35835361480713 66.95053863525391 17.85957527160645 60.53981781005859 21.84018707275391 54.49123382568359 C 25.78293609619141 48.50020599365234 30.23010444641113 42.81226348876953 35.05815887451172 37.58539962768555 C 39.88571548461914 32.35909652709961 45.13368606567383 27.55087280273438 50.65632629394531 23.29426193237305 C 56.23079681396484 18.99770736694336 62.13415908813477 15.22565174102783 68.20240783691406 12.08290100097656 C 74.38113403320312 8.882928848266602 80.79454803466797 6.302873611450195 87.26446533203125 4.414401054382324 C 93.90118408203125 2.477234601974487 100.6800231933594 1.244234561920166 107.4126892089844 0.7497068643569946 C 109.6683807373047 0.5840123891830444 111.9425735473633 0.4999846220016479 114.1720733642578 0.4999846220016479 C 126.0286865234375 0.4999846220016479 137.3444061279297 2.818290233612061 147.8049163818359 7.390484809875488 C 152.8623809814453 9.601067543029785 157.7136840820312 12.34806823730469 162.2240447998047 15.55517864227295 C 166.6975708007812 18.7360954284668 170.8906860351562 22.40854072570801 174.6869049072266 26.47048377990723 C 178.9521636962891 31.03431701660156 182.7623596191406 36.13684463500977 186.0115966796875 41.63637161254883 C 189.2921295166016 47.18876266479492 192.0276641845703 53.19159698486328 194.1421813964844 59.4781494140625 C 196.2965545654297 65.88306427001953 197.826904296875 72.64509582519531 198.6907196044922 79.57643127441406 C 199.5776062011719 86.69270324707031 199.7718811035156 94.07262420654297 199.2682189941406 101.5111770629883 C 198.7712097167969 108.8511810302734 197.5954132080078 116.2366485595703 195.7734985351562 123.4624328613281 C 193.9977111816406 130.5052947998047 191.5870971679688 137.4817657470703 188.6086273193359 144.1981201171875 C 185.6840515136719 150.7929229736328 182.1828308105469 157.2036743164062 178.2021942138672 163.2522583007812 C 174.2594299316406 169.2432861328125 169.8122711181641 174.9312286376953 164.9842071533203 180.1580963134766 C 160.1566925048828 185.3843994140625 154.9087219238281 190.192626953125 149.3860473632812 194.4492340087891 C 143.8115997314453 198.7457885742188 137.9082489013672 202.517822265625 131.8399658203125 205.6605987548828 C 125.6612396240234 208.8605346679688 119.2478561401367 211.4405975341797 112.7779388427734 213.3290710449219 C 106.1411895751953 215.2662658691406 99.36235046386719 216.4992370605469 92.62968444824219 216.9937591552734 C 90.37380218505859 217.1594848632812 88.10255432128906 217.2434844970703 85.87916564941406 217.2434844970703 Z" stroke="none"/>
              <path d="M 85.87983703613281 216.7434997558594 C 88.09080505371094 216.7434997558594 90.34944915771484 216.6599426269531 92.59307098388672 216.4951171875 C 99.29074859619141 216.0031433105469 106.0347747802734 214.7764739990234 112.6378326416016 212.84912109375 C 119.0768051147461 210.9696807861328 125.4599533081055 208.4017028808594 131.6100463867188 205.2165832519531 C 137.6518859863281 202.0874938964844 143.5299224853516 198.3316192626953 149.0808410644531 194.0532073974609 C 154.581298828125 189.8136749267578 159.8083953857422 185.0245513916016 164.6169281005859 179.8188171386719 C 169.426513671875 174.6119384765625 173.8567504882812 168.9456787109375 177.7845458984375 162.9773864746094 C 181.7500915527344 156.9516754150391 185.2380676269531 150.5652008056641 188.1515350341797 143.9954071044922 C 191.1185455322266 137.3049774169922 193.5198059082031 130.3555603027344 195.2886505126953 123.3401794433594 C 197.1033020019531 116.1433258056641 198.2743682861328 108.7876205444336 198.7693634033203 101.4773788452148 C 199.2708587646484 94.07064819335938 199.0774841308594 86.72288513183594 198.1945648193359 79.63823699951172 C 197.3348693847656 72.74002838134766 195.81201171875 66.01082611083984 193.6682739257812 59.63752746582031 C 191.5648345947266 53.38396835327148 188.8439178466797 47.4130859375 185.5811309814453 41.89067459106445 C 182.3503265380859 36.42241287231445 178.5620727539062 31.34917640686035 174.3215942382812 26.81185150146484 C 170.5482482910156 22.77435302734375 166.3805389404297 19.1241455078125 161.9343109130859 15.962646484375 C 157.4518890380859 12.77541065216064 152.6306915283203 10.04544067382812 147.6046600341797 7.848617076873779 C 137.2076873779297 3.304175853729248 125.9593353271484 0.9999698996543884 114.1720657348633 0.9999698996543884 C 111.9547729492188 0.9999698996543884 109.6929244995117 1.083528757095337 107.4493026733398 1.248352289199829 C 100.7516250610352 1.740322828292847 94.00759887695312 2.966999292373657 87.404541015625 4.894352436065674 C 80.96559906005859 6.77379322052002 74.58242034912109 9.341764450073242 68.43236541748047 12.52688121795654 C 62.39048004150391 15.65596961975098 56.512451171875 19.4118824005127 50.96157073974609 23.69026374816895 C 45.46109771728516 27.92979431152344 40.23398208618164 32.71894073486328 35.42545318603516 37.92464828491211 C 30.61586380004883 43.13152694702148 26.18562889099121 48.79782104492188 22.25786399841309 54.76611709594727 C 18.29227447509766 60.79182434082031 14.8043041229248 67.17826080322266 11.89083385467529 73.74808502197266 C 8.923863410949707 80.43849945068359 6.522569179534912 87.387939453125 4.753716468811035 94.4033203125 C 2.939069271087646 101.6001434326172 1.768010377883911 108.9558486938477 1.27301037311554 116.2660903930664 C 0.7715397477149963 123.672233581543 0.9648633003234863 131.0193481445312 1.847598552703857 138.1033172607422 C 2.707128047943115 145.0008544921875 4.229716300964355 151.7294158935547 6.373098373413086 158.1020812988281 C 8.476157188415527 164.3549652099609 11.19662761688232 170.3253173828125 14.45892238616943 175.8472900390625 C 17.68918609619141 181.3150634765625 21.47686386108398 186.3879699707031 25.71671676635742 190.9250946044922 C 29.49012756347656 194.9630889892578 33.65798187255859 198.6138000488281 38.10451126098633 201.7758483886719 C 42.58712768554688 204.9635620117188 47.40859985351562 207.6940307617188 52.43503952026367 209.8914184570312 C 62.83262634277344 214.4368743896484 74.08192443847656 216.7422332763672 85.87042236328125 216.7434997558594 L 85.87983703613281 216.7434997558594 M 85.87031555175781 217.7434844970703 C 34.22286987304688 217.7380065917969 -3.617582559585571 173.6909637451172 0.2753044664859772 116.1985321044922 C 4.337304592132568 56.20899963378906 52.28792190551758 4.297499179840088 107.3760375976562 0.2510287463665009 C 109.6691360473633 0.08259044587612152 111.9288101196289 -1.825310209824238e-05 114.1720581054688 -1.825310209824238e-05 C 165.8195343017578 -1.825310209824238e-05 203.6599578857422 44.05250549316406 199.7670745849609 101.5449371337891 C 195.7050628662109 161.5345001220703 147.7544860839844 213.4459686279297 92.66633605957031 217.4924468994141 C 90.37323760986328 217.6608734130859 88.11357116699219 217.7437286376953 85.87031555175781 217.7434844970703 Z" stroke="none" fill="#707070"/>
            </g>
          </g>
          <g id="Grupo_1071456" data-name="Grupo 1071456" transform="translate(-279.437 -731.246)">
            <g id="Elipse_9650" data-name="Elipse 9650" transform="translate(408.14 732.469)" fill="#1588d1" stroke="#707070" stroke-width="1" opacity="0.239">
              <ellipse cx="243.186" cy="287.363" rx="243.186" ry="287.363" stroke="none"/>
              <ellipse cx="243.186" cy="287.363" rx="242.686" ry="286.863" fill="none"/>
            </g>
            <g id="Elipse_9648" data-name="Elipse 9648" transform="translate(85.057 0)" fill="#f1e4de" stroke="#707070" stroke-width="1" opacity="0.758">
              <ellipse cx="448.241" cy="527.647" rx="448.241" ry="527.647" stroke="none"/>
              <ellipse cx="448.241" cy="527.647" rx="447.741" ry="527.147" fill="none"/>
            </g>
            <g id="Trazado_873254" data-name="Trazado 873254" transform="translate(0 1019.831)" fill="#e884a5" opacity="0.466">
              <path d="M 325.6631164550781 767.4305419921875 C 314.5743103027344 767.4305419921875 303.3916015625 766.7647705078125 292.4254150390625 765.4517211914062 C 281.6180114746094 764.1576538085938 270.7582092285156 762.2035522460938 260.1479187011719 759.6436157226562 C 239.2751159667969 754.6078491210938 218.7435150146484 747.0934448242188 199.1235198974609 737.3091430664062 C 179.85791015625 727.7017211914062 161.2758178710938 715.8099365234375 143.893310546875 701.964111328125 C 126.67431640625 688.24853515625 110.4819183349609 672.4967651367188 95.76591491699219 655.146240234375 C 81.04871368408203 637.7942504882812 67.68701934814453 618.700439453125 56.05211639404297 598.395263671875 C 44.30471801757812 577.89404296875 34.21501541137695 555.9769287109375 26.06291580200195 533.2530517578125 C 17.75981712341309 510.1078491210938 11.38281631469727 485.8866271972656 7.109116554260254 461.2621459960938 C 2.723716497421265 435.99462890625 0.5001164674758911 409.9882507324219 0.5001164674758911 383.9652404785156 C 0.5001164674758911 357.9422302246094 2.723716497421265 331.9358520507812 7.109116554260254 306.6683349609375 C 11.38281631469727 282.0438537597656 17.75981712341309 257.8226318359375 26.06291580200195 234.6775360107422 C 34.21501541137695 211.9535369873047 44.30471801757812 190.0365447998047 56.05211639404297 169.5352478027344 C 67.68701934814453 149.2300415039062 81.04871368408203 130.1362457275391 95.76591491699219 112.7842407226562 C 110.4819183349609 95.43373870849609 126.67431640625 79.68193817138672 143.893310546875 65.96633911132812 C 161.2758178710938 52.12063980102539 179.85791015625 40.22883987426758 199.1235198974609 30.62133979797363 C 218.7435150146484 20.8371410369873 239.2751159667969 13.32274055480957 260.1479187011719 8.286940574645996 C 270.7582092285156 5.72704029083252 281.6180114746094 3.772940397262573 292.4254150390625 2.478840589523315 C 303.3916015625 1.16584050655365 314.5743103027344 0.5000404715538025 325.6631164550781 0.5000404715538025 C 336.7519226074219 0.5000404715538025 347.9346313476562 1.16584050655365 358.9008178710938 2.478840589523315 C 369.7082214355469 3.772940397262573 380.5680236816406 5.72704029083252 391.1783142089844 8.286940574645996 C 412.0511169433594 13.32274055480957 432.5827026367188 20.8371410369873 452.2027282714844 30.62133979797363 C 471.4683227539062 40.22883987426758 490.0504150390625 52.12063980102539 507.4329223632812 65.96633911132812 C 524.6520385742188 79.68193817138672 540.8444213867188 95.43373870849609 555.560302734375 112.7842407226562 C 570.277587890625 130.1362457275391 583.6392211914062 149.2300415039062 595.2742309570312 169.5352478027344 C 607.0215454101562 190.0365447998047 617.111328125 211.9535369873047 625.2633056640625 234.6775360107422 C 633.56640625 257.8226318359375 639.9435424804688 282.0438537597656 644.2172241210938 306.6683349609375 C 648.6026000976562 331.9358520507812 650.8262329101562 357.9422302246094 650.8262329101562 383.9652404785156 C 650.8262329101562 409.9882507324219 648.6026000976562 435.99462890625 644.2172241210938 461.2621459960938 C 639.9435424804688 485.8866271972656 633.56640625 510.1078491210938 625.2633056640625 533.2530517578125 C 617.111328125 555.9769287109375 607.0215454101562 577.89404296875 595.2742309570312 598.395263671875 C 583.6392211914062 618.700439453125 570.277587890625 637.7942504882812 555.560302734375 655.146240234375 C 540.8444213867188 672.4967651367188 524.6520385742188 688.24853515625 507.4329223632812 701.964111328125 C 490.0504150390625 715.8099365234375 471.4683227539062 727.7017211914062 452.2027282714844 737.3091430664062 C 432.5827026367188 747.0934448242188 412.0511169433594 754.6078491210938 391.1783142089844 759.6436157226562 C 380.5680236816406 762.2035522460938 369.7082214355469 764.1576538085938 358.9008178710938 765.4517211914062 C 347.9346313476562 766.7647705078125 336.7519226074219 767.4305419921875 325.6631164550781 767.4305419921875 Z" stroke="none"/>
              <path d="M 325.6631164550781 0.99993896484375 C 314.5941162109375 0.99993896484375 303.4313049316406 1.66455078125 292.4848022460938 2.9752197265625 C 281.6968078613281 4.2669677734375 270.8565063476562 6.217529296875 260.2652282714844 8.7728271484375 C 239.4289245605469 13.7999267578125 218.9329223632812 21.30133056640625 199.3466186523438 31.0687255859375 C 180.1123046875 40.66064453125 161.5600280761719 52.533447265625 144.2048034667969 66.357421875 C 127.0111083984375 80.0528564453125 110.8422241210938 95.7818603515625 96.147216796875 113.107666015625 C 81.44964599609375 130.4364624023438 68.1055908203125 149.5050659179688 56.48583984375 169.7838134765625 C 44.75299072265625 190.2596435546875 34.67559814453125 212.1498413085938 26.53350830078125 234.8463134765625 C 18.2401123046875 257.9644470214844 11.87054443359375 282.1576538085938 7.60162353515625 306.7538452148438 C 3.22113037109375 331.9932556152344 1 357.9708557128906 1 383.9652404785156 C 1 409.9596252441406 3.22113037109375 435.9372253417969 7.60162353515625 461.1766357421875 C 11.87054443359375 485.7728271484375 18.2401123046875 509.9660339355469 26.53350830078125 533.0841064453125 C 34.67559814453125 555.780517578125 44.75299072265625 577.6707763671875 56.48583984375 598.1466064453125 C 68.1055908203125 618.4254150390625 81.44964599609375 637.4940185546875 96.147216796875 654.8228149414062 C 110.8422241210938 672.1485595703125 127.0111083984375 687.8776245117188 144.2048034667969 701.5730590820312 C 161.5600280761719 715.39697265625 180.1123046875 727.2697143554688 199.3466186523438 736.8616333007812 C 218.9329223632812 746.6290283203125 239.4289245605469 754.1304321289062 260.2652282714844 759.1575317382812 C 270.8565063476562 761.7128295898438 281.6968078613281 763.6634521484375 292.4848022460938 764.9551391601562 C 303.4313049316406 766.265869140625 314.5941162109375 766.930419921875 325.6631164550781 766.930419921875 C 336.7321166992188 766.930419921875 347.8949279785156 766.265869140625 358.8414306640625 764.9551391601562 C 369.6294250488281 763.6634521484375 380.4697265625 761.7128295898438 391.0610046386719 759.1575317382812 C 411.8973388671875 754.1304321289062 432.3932189941406 746.6290283203125 451.9796142578125 736.8616333007812 C 471.2138061523438 727.2697143554688 489.7662353515625 715.39697265625 507.121337890625 701.5730590820312 C 524.3151245117188 687.8776245117188 540.4840087890625 672.1485595703125 555.1790161132812 654.8228149414062 C 569.8765258789062 637.4940185546875 583.2205200195312 618.4254150390625 594.84033203125 598.1466064453125 C 606.5731201171875 577.6707763671875 616.6505126953125 555.780517578125 624.7926025390625 533.0841064453125 C 633.0859985351562 509.9660339355469 639.4556274414062 485.7728271484375 643.7244873046875 461.1766357421875 C 648.1050415039062 435.9372253417969 650.3261108398438 409.9596252441406 650.3261108398438 383.9652404785156 C 650.3261108398438 357.9708557128906 648.1050415039062 331.9932556152344 643.7244873046875 306.7538452148438 C 639.4556274414062 282.1576538085938 633.0859985351562 257.9644470214844 624.7926025390625 234.8463134765625 C 616.6505126953125 212.1498413085938 606.5731201171875 190.2596435546875 594.84033203125 169.7838134765625 C 583.2205200195312 149.5050659179688 569.8765258789062 130.4364624023438 555.1790161132812 113.107666015625 C 540.4840087890625 95.7818603515625 524.3151245117188 80.0528564453125 507.121337890625 66.357421875 C 489.7662353515625 52.533447265625 471.2138061523438 40.66064453125 451.9796142578125 31.0687255859375 C 432.3932189941406 21.30133056640625 411.8973388671875 13.7999267578125 391.0610046386719 8.7728271484375 C 380.4697265625 6.217529296875 369.6294250488281 4.2669677734375 358.8414306640625 2.9752197265625 C 347.8949279785156 1.66455078125 336.7321166992188 0.99993896484375 325.6631164550781 0.99993896484375 M 325.6631164550781 -6.103515625e-05 C 505.5218200683594 -6.103515625e-05 651.3261108398438 171.9071655273438 651.3261108398438 383.9652404785156 C 651.3261108398438 596.0233154296875 505.5218200683594 767.930419921875 325.6631164550781 767.930419921875 C 145.8044128417969 767.930419921875 0 596.0233154296875 0 383.9652404785156 C 0 171.9071655273438 145.8044128417969 -6.103515625e-05 325.6631164550781 -6.103515625e-05 Z" stroke="none" fill="#707070"/>
            </g>
          </g>
          <path id="Trazado_873339" data-name="Trazado 873339" d="M1813.077,629.914c-184.7-369.994-692.194-846.82-1153.411-521.854-414.131,291.791-796.632,943.5-611.927,1313.5,102.906,206.139,274.064,221.509,453.9,28.818C644.578,1297.209,779.973,967,984.227,823.082c271.152-191.05,558.536,81.721,724.395,117.037C1824.879,964.875,1889.192,782.386,1813.077,629.914Z" transform="translate(-1081.964 -63.67) rotate(-25)" fill="#8746f8" opacity="0.13"/>
          <path id="Trazado_873341" data-name="Trazado 873341" d="M16.626,419.2c22.32-53.76,67-87.473,118.081-101.8,60.558-16.986,120.259-3,182.485,11.067,57.373,12.971,120.793,19.123,166.827-20.357,71.454-61.279,72.619-187.345,137.414-256.858A159.781,159.781,0,0,1,744.841.133C796.108,2.237,862.22,31.1,890.99,86.318c27.934,53.622,4.567,104.275,16.13,158.256,22.619,105.573,149.4,106.157,213.243,161.379,30.506,26.384,51.992,64.465,67.334,103.816,17.029,43.672,27.453,91.868,19.395,136-13.349,73.1-75.266,97.412-136.712,96.776-45.661-.473-91.776-16.3-134.768-39.23-38.021-20.283-74.106-46.156-112.86-64.078-95.707-44.264-185.81.861-264.257,50.363-100.7,63.545-204.934,124.425-330.344,93.994C132.32,760.34,30.625,688.634,6.548,572.156c-10.183-49.271-8.968-100.884,7.029-145.1Q15.025,423.058,16.626,419.2Z" transform="translate(-118.066 159.562) rotate(19)" fill="#8746f8" opacity="0.22"/>
          <path id="Trazado_873346" data-name="Trazado 873346" d="M16.626,419.2c22.32-53.76,67-87.473,118.081-101.8,60.558-16.986,120.259-3,182.485,11.067,57.373,12.971,120.793,19.123,166.827-20.357,71.454-61.279,72.619-187.345,137.414-256.858A159.781,159.781,0,0,1,744.841.133C796.108,2.237,862.22,31.1,890.99,86.318c27.934,53.622,4.567,104.275,16.13,158.256,22.619,105.573,149.4,106.157,213.243,161.379,30.506,26.384,51.992,64.465,67.334,103.816,17.029,43.672,27.453,91.868,19.395,136-13.349,73.1-75.266,97.412-136.712,96.776-45.661-.473-91.776-16.3-134.768-39.23-38.021-20.283-74.106-46.156-112.86-64.078-95.707-44.264-185.81.861-264.257,50.363-100.7,63.545-204.934,124.425-330.344,93.994C132.32,760.34,30.625,688.634,6.548,572.156c-10.183-49.271-8.968-100.884,7.029-145.1Q15.025,423.058,16.626,419.2Z" transform="translate(-97.29 152.225) rotate(19)" fill="none" stroke="#464bc7" stroke-width="1" opacity="0.355"/>
          <path id="Trazado_873343" data-name="Trazado 873343" d="M4.059,81.434a36.728,36.728,0,0,1,20.8-18.9c10.21-3.762,19.878-2.3,29.961-.853,9.3,1.33,19.68,1.422,27.784-5.911,12.58-11.382,14.4-32.627,25.99-45.3C114.324,4.206,121.985.4,129.61.029c8.43-.409,18.963,3.467,23,12.337,3.915,8.613-.6,17.49.615,26.408,2.366,17.44,23.273,15.651,33.091,24,4.691,3.989,7.743,10.081,9.765,16.479,2.245,7.1,3.341,15.06,1.441,22.611-3.147,12.508-13.676,17.523-23.8,18.331-7.527.6-14.929-1.378-21.725-4.6-6.01-2.849-11.628-6.669-17.79-9.11-15.216-6.029-30.664,2.911-44.245,12.414-17.435,12.2-35.417,24-55.712,20.745-15.508-2.489-31.357-13.049-33.823-32.3A48.434,48.434,0,0,1,3.454,82.8Q3.745,82.107,4.059,81.434Z" transform="matrix(0.978, -0.208, 0.208, 0.978, 1214.564, 552.205)" fill="#8746f8" opacity="0.22"/>
          <path id="Trazado_873345" data-name="Trazado 873345" d="M32.828,721.695C70.746,635.718,140.8,578.952,218.971,551.847c92.676-32.132,181.607-15.849,274.338.333,85.5,14.919,180.66,18.632,253.213-47.259C859.136,402.647,870.875,205.783,974.1,91.275c51.07-56.648,120.377-89.9,190.166-91.235,77.151-1.474,174.573,37.433,213.591,120.945,37.884,81.1-1.368,162.321,11.8,245.5,25.754,162.672,216.913,151.815,308.826,232.075,43.919,38.347,73.307,95.787,93.331,155.779,22.225,66.58,34.13,140.833,18.484,210.456-25.92,115.329-121.224,159.022-213.845,163.734-68.827,3.5-137.121-16.915-200.144-48.717-55.735-28.127-108.109-65.158-165.137-89.532-140.837-60.2-280.3,18.592-402.527,103.135-156.908,108.526-318.922,213.219-505.651,177.366C180.3,1243.385,32.61,1140.912,5.519,961.355-5.938,885.4-.018,804.734,27.608,734.236Q30.107,727.866,32.828,721.695Z" transform="matrix(0.999, -0.035, 0.035, 0.999, 127.673, -405.426)" fill="none" stroke="#464bc7" stroke-width="2" opacity="0.22"/>
          <path id="Trazado_873344" data-name="Trazado 873344" d="M4.059,81.434a36.728,36.728,0,0,1,20.8-18.9c10.21-3.762,19.878-2.3,29.961-.853,9.3,1.33,19.68,1.422,27.784-5.911,12.58-11.382,14.4-32.627,25.99-45.3C114.324,4.206,121.985.4,129.61.029c8.43-.409,18.963,3.467,23,12.337,3.915,8.613-.6,17.49.615,26.408,2.366,17.44,23.273,15.651,33.091,24,4.691,3.989,7.743,10.081,9.765,16.479,2.245,7.1,3.341,15.06,1.441,22.611-3.147,12.508-13.676,17.523-23.8,18.331-7.527.6-14.929-1.378-21.725-4.6-6.01-2.849-11.628-6.669-17.79-9.11-15.216-6.029-30.664,2.911-44.245,12.414-17.435,12.2-35.417,24-55.712,20.745-15.508-2.489-31.357-13.049-33.823-32.3A48.434,48.434,0,0,1,3.454,82.8Q3.745,82.107,4.059,81.434Z" transform="matrix(0.978, -0.208, 0.208, 0.978, 1312.211, 460.564)" fill="#8746f8" opacity="0.22"/>
          <path id="Trazado_873342" data-name="Trazado 873342" d="M17.188,273.415C36.48,316.246,71.595,344.8,110.59,358.7c46.232,16.484,90.353,8.956,136.363,1.5,42.422-6.872,89.7-8.134,126.108,24.955,56.5,51.36,63.354,148.975,115.253,206.34,25.677,28.379,60.3,45.276,95,46.361,38.357,1.2,86.582-17.487,105.546-58.629,18.413-39.953-1.517-80.437,4.6-121.57,11.963-80.446,107.038-73.9,152.311-113.114,21.633-18.734,35.945-47.016,45.589-76.62,10.7-32.854,16.239-69.574,8.1-104.166-13.478-57.3-61.077-79.53-107.139-82.428-34.23-2.153-68.072,7.548-99.234,22.923-27.559,13.6-53.4,31.628-81.623,43.359-69.7,28.973-139.423-10.915-200.615-53.548C332.292,39.341,251.22-13.518,158.589,3.112,87.8,15.818,14.919,65.7,2.379,154.5c-5.3,37.565-1.945,77.571,12.151,112.67Q15.8,270.34,17.188,273.415Z" transform="matrix(0.995, 0.105, -0.105, 0.995, -401.552, -125.036)" fill="#8746f8" opacity="0.22"/>
        </g>
      </g>
    </g>
  </g>
</svg>
