<svg xmlns="http://www.w3.org/2000/svg" xmlns:xlink="http://www.w3.org/1999/xlink" width="310" height="233.067" viewBox="0 0 310 233.067">
  <defs>
    <clipPath id="clip-path">
      <rect id="Rectángulo_401731" data-name="Rectángulo 401731" width="310" height="233.067" transform="translate(-1.967 0)" fill="#d6c0fd"/>
    </clipPath>
    <clipPath id="clip-path-2">
      <rect id="Rectángulo_401724" data-name="Rectángulo 401724" width="255.723" height="200.9" fill="none"/>
    </clipPath>
  </defs>
  <g id="t2" transform="translate(1.967)" clip-path="url(#clip-path)">
    <g id="Grupo_1102323" data-name="Grupo 1102323" transform="translate(-1.496 24.401)">
      <g id="Grupo_1102317" data-name="Grupo 1102317" transform="translate(0)">
        <rect id="Rectángulo_401719" data-name="Rectángulo 401719" width="63.909" height="94.209" rx="8" transform="translate(0)" fill="#00a1bd"/>
        <rect id="Rectángulo_401720" data-name="Rectángulo 401720" width="15.889" height="2.891" transform="translate(22.418 45.562)" fill="#ec4e50"/>
        <rect id="Rectángulo_401721" data-name="Rectángulo 401721" width="38.754" height="2.891" rx="1.446" transform="translate(8.467 53.272)" fill="#c6e7ea"/>
        <path id="Trazado_876140" data-name="Trazado 876140" d="M1328.221,1205.35h35.766a1.591,1.591,0,0,1,1.591,1.59v.48a1.591,1.591,0,0,1-1.591,1.59h-35.766a1.591,1.591,0,0,1-1.59-1.59v-.48A1.591,1.591,0,0,1,1328.221,1205.35Z" transform="translate(-1318.357 -1146.295)" fill="#c6e7ea"/>
        <rect id="Rectángulo_401722" data-name="Rectángulo 401722" width="29.065" height="2.891" rx="1.446" transform="translate(7.885 65.8)" fill="#c6e7ea"/>
        <rect id="Rectángulo_401723" data-name="Rectángulo 401723" width="38.948" height="3.083" rx="1.542" transform="translate(8.079 71.388)" fill="#c6e7ea"/>
        <ellipse id="Elipse_11618" data-name="Elipse 11618" cx="15.529" cy="14.887" rx="15.529" ry="14.887" transform="translate(15.732 8.477)" fill="#fff"/>
        <path id="Trazado_876141" data-name="Trazado 876141" d="M1473.653,624.675l-.05,2.751s-2.42,2.6-4.693,1.72-2.914-1.72-2.816-4.569c0,0,.248-.295-.395-.836s-3.161-1.425-2.569-3.979,3.8-4.127,3.8-4.127.741-4.471,1.63-5.749l.889-1.277s4.4-4.275,8.645-.688c0,0,4.693-.884,5.582,3.439,0,0,.247,1.867.346,3.636s-.148,1.18.4,1.965,3.409,3.1,3.112,4.913-2.766,2.505-2.766,3.145-1.136,4.078-4,3.685-2.766-1.228-2.766-1.228l-.1-2.505s3.556-1.572,3.606-3.39a3.013,3.013,0,0,1-1.037-2.948,15.129,15.129,0,0,0-.148-4.127s-2.173-2.8-2.964-3.046c0,0-3.112.246-3.655,1.327s-.741,4.275-1.828,5.65a7.044,7.044,0,0,1-1.927,1.818s.839,3.832,3.7,4.422Z" transform="translate(-1444.027 -594.586)" fill="#00a1bd"/>
      </g>
      <g id="Grupo_1102322" data-name="Grupo 1102322" transform="translate(9.437 7.767)">
        <g id="Grupo_1102319" data-name="Grupo 1102319" transform="translate(0 0)">
          <g id="Grupo_1102318" data-name="Grupo 1102318" clip-path="url(#clip-path-2)">
            <path id="Trazado_876142" data-name="Trazado 876142" d="M185.926,90.729a9.476,9.476,0,0,0,.666,3.6,58.007,58.007,0,0,0,3.724-14l.251.033q10.728-.131,21.468-.273c.557-.011,1.1-.011,1.66-.022h.011a137.778,137.778,0,0,1-1.037,18.749,12.239,12.239,0,0,1-2.02,5.842,9,9,0,0,1-4.182,2.828,25.188,25.188,0,0,1-4.51,1l.066.4q1.343,4.848,2.664,9.707c.055.207.12.415.175.622l-.393.109a66,66,0,0,1-11.378,10.122l-.131.164q-6.224-5.176-12.819-9.893l-.033-.1c.022-.164.044-.317.066-.48q1.474-10.008,2.075-20.1l-.164-.011a7.719,7.719,0,0,1-3.232-3.3,5.616,5.616,0,0,1-.207-4.553,4.564,4.564,0,0,1,2.151-2.3,3.9,3.9,0,0,1,1.387-.4,3.677,3.677,0,0,1,3.745,2.249" transform="translate(16.39 7.362)" fill="#ffbc8f"/>
            <path id="Trazado_876143" data-name="Trazado 876143" d="M186.387,95.764a9.477,9.477,0,0,1-.666-3.6,3.677,3.677,0,0,0-3.745-2.249,3.9,3.9,0,0,0-1.387.4l-.109-.251c.109-4.138.229-8.277.339-12.415a5.707,5.707,0,0,1,1.037-3.778,4.115,4.115,0,0,1,2.817-1.114c1.037-.055,2.075.109,3.112.12,4.117.044,7.928-2.271,10.832-5.176a15.285,15.285,0,0,1,2.85-2.533,3.748,3.748,0,0,1,3.636-.317c1.234.655,1.856,2.206,3.167,2.675s2.719-.328,3.942-1.016a7.986,7.986,0,0,1,1.114-.524,2.934,2.934,0,0,1,2.839.087,2.7,2.7,0,0,1,.863,2.555,7.866,7.866,0,0,1-1.081,2.6,1.963,1.963,0,0,1,2.446,1.4,4.4,4.4,0,0,1-.524,3.079,12.128,12.128,0,0,1-6.038,5.7v.12q-10.728.131-21.468.273l-.251-.033a58.008,58.008,0,0,1-3.724,14" transform="translate(16.595 5.931)" fill="#223342"/>
            <path id="Trazado_876144" data-name="Trazado 876144" d="M187.309,152.278c.852,4.084,1.561,8.2,2.173,12.328.459,3.057.863,6.115,1.234,9.172.207,1.736.349,3.691-.775,5.023a4.306,4.306,0,0,1-3.516,1.354,11.439,11.439,0,0,1-3.756-1.016,76.467,76.467,0,0,1-24.58-16.084,5.545,5.545,0,0,0,1.387-3.276,43.015,43.015,0,0,0,.753-11.88,3.757,3.757,0,0,0-.448-1.649,1.442,1.442,0,0,0-1.463-.71,1.911,1.911,0,0,0-1.07.961,7.768,7.768,0,0,0-.994,2.588L157,137.908l-35.15,1.889V150.17h-.011a7.564,7.564,0,0,0-.917-2.238,1.9,1.9,0,0,0-1.059-.961,1.451,1.451,0,0,0-1.463.71,3.757,3.757,0,0,0-.448,1.649,43.017,43.017,0,0,0,.753,11.88,5.212,5.212,0,0,0,1.561,3.44,3.324,3.324,0,0,0,1.944.622c-.011.339-.011.688-.022,1.037q-2.932,3.849-6.006,7.633c-1.976,2.468-4.007,4.914-6.06,7.327-1.212,1.43-2.806,2.981-4.641,2.653a3.694,3.694,0,0,1-2.643-2.6,10.608,10.608,0,0,1-.251-3.855,186.19,186.19,0,0,1,4.346-30.171q1.327-5.847,3.036-11.607c.175-.59.349-1.168.535-1.747l.12.033q9.647-3.505,19.273-7.021,3.98-1.441,7.949-2.894c0,.044-.011.1-.011.142l-.12.415c1.485,1.714,2.675,3.68,4.313,5.252s3.866,2.763,6.093,2.38a6.72,6.72,0,0,0,3.942-2.479,19.906,19.906,0,0,0,2.413-4.084h.066c0-.47,0-.95-.011-1.42H155c1.234.207,2.959.633,4.957,1.168,8.321,2.271,21.195,6.672,21.195,6.672a34.256,34.256,0,0,1,1.976,4.16,148.021,148.021,0,0,1,4.182,16.008" transform="translate(9.427 11.407)" fill="#c2efe8"/>
            <path id="Trazado_876145" data-name="Trazado 876145" d="M154.394,118.1c.109-.229.207-.47.295-.71l.644.218a11.1,11.1,0,0,0,2.435,1.845,3.747,3.747,0,0,0,2.959.295c1.867-.7,2.391-3.014,3.451-4.706,1.387-2.206,3.876-3.494,5.427-5.591a8.344,8.344,0,0,0,.491-8.932c-1.179-2.02-3.254-3.593-3.745-5.886-.47-2.238.71-4.488.83-6.77a7.847,7.847,0,0,0-3.429-6.715,8.756,8.756,0,0,0-7.556-.994,9.99,9.99,0,0,0-5.744,5.088l-.055.295c-2.468-.4-4.968,1.081-7.5,1.572a16.484,16.484,0,0,1-7.2-.6,37.188,37.188,0,0,0,1.736-6.279c.087-.513.153-1.026.207-1.551q13.48-7.485,27.615-13.715c.066-.022.12-.055.186-.076l.218.153a21.015,21.015,0,0,0,3.363,3.025,6.385,6.385,0,0,0,8.965-1.136,20.993,20.993,0,0,0,2.948-4.553l.295-.12c-.033-.218-.065-.437-.109-.655l.349-.055q16.412-2.85,32.627-6.781c3.56-10.5,6.6-21.195,9.107-31.994l1.824.076v-.939a44.936,44.936,0,0,1,5.809.448v.033q-1.9,19.459-3.8,38.9c-3.09,3.047-6.432,5.689-9.6,8.615a7.984,7.984,0,0,0-1.114.524c-1.223.688-2.621,1.5-3.942,1.016s-1.933-2.02-3.167-2.675a3.748,3.748,0,0,0-3.636.317,15.286,15.286,0,0,0-2.85,2.533c-2.9,2.9-6.716,5.22-10.832,5.176-1.037-.011-2.075-.175-3.112-.12a4.115,4.115,0,0,0-2.817,1.114,5.707,5.707,0,0,0-1.037,3.778c-.109,4.138-.229,8.277-.339,12.415l.109.251a4.563,4.563,0,0,0-2.151,2.3,5.616,5.616,0,0,0,.207,4.553,7.719,7.719,0,0,0,3.232,3.3l.164.011q-.606,10.106-2.075,20.1h-.033l-17.7,3.472a18.611,18.611,0,0,0-6.126,1.944,6.475,6.475,0,0,0-3.32,4.914c-2-.535-3.724-.961-4.957-1.168h-.47q-.016-6.732-.044-13.453a3.612,3.612,0,0,0,2.959-2.107" transform="translate(12.477 2.015)" fill="#f9a138"/>
            <path id="Trazado_876146" data-name="Trazado 876146" d="M182.3,115.908c-.022.164-.044.317-.065.48l.033.1q6.584,4.717,12.82,9.893l.131-.164a66,66,0,0,0,11.378-10.122l.393-.109c-.055-.207-.12-.415-.175-.622a119.105,119.105,0,0,1,23.324,6.868l.775-.109q4.717,34.085,10.548,68.017H163.037v-.491q.9-7.96,1.824-15.921l.262-.4a75.1,75.1,0,0,0,12.71,6.617,11.439,11.439,0,0,0,3.756,1.016A4.306,4.306,0,0,0,185.1,179.6c1.125-1.332.983-3.287.775-5.023-.371-3.057-.775-6.115-1.234-9.172l.95-.131q9.156-2.572,18.334-5.143l.251.83a26.518,26.518,0,0,0,7.764,1.5,2.491,2.491,0,0,0,1.9-.48,2.594,2.594,0,0,0,.524-1.834q.115-4.357.229-8.736a4.179,4.179,0,0,0-.48-2.533c-.721-1.037-2.217-1.179-3.462-.972a10.829,10.829,0,0,1-3.767.371h-.1a90.531,90.531,0,0,0-.819-10.024,2.91,2.91,0,0,0-.382-1.256.989.989,0,0,0-1.147-.437c-.48.2-.6.808-.655,1.332a82.261,82.261,0,0,0-.153,14.392q-10.581.393-21.162.8a148.01,148.01,0,0,0-4.182-16.008,34.253,34.253,0,0,0-1.976-4.16s-12.874-4.4-21.195-6.672a6.475,6.475,0,0,1,3.32-4.914,18.61,18.61,0,0,1,6.126-1.944l17.7-3.472Z" transform="translate(14.263 10.607)" fill="#00aca1"/>
            <path id="Trazado_876147" data-name="Trazado 876147" d="M218.058,19.861c-.011-.044-.011-.087-.022-.131v.142a14.693,14.693,0,0,1-1.551.022,7.678,7.678,0,0,1-1.31-.164,4.278,4.278,0,0,1-3.014-2.14,6.126,6.126,0,0,1-.229-3.527,4.137,4.137,0,0,1,.808-2.3,3.984,3.984,0,0,1,2.337-1.026c.917-.175,1.845-.317,2.784-.4.579-.066,1.168-.109,1.747-.142.743-.044,1.474-.055,2.206-.044a3.337,3.337,0,0,1,2.73.961,3.466,3.466,0,0,1,.36,2.359q-.442,5-.884,10c-.055-.011-.12-.011-.175-.022a44.936,44.936,0,0,0-5.809-.448V19.872a.038.038,0,0,0,.022-.011" transform="translate(19.473 0.932)" fill="#f2b481"/>
            <path id="Trazado_876148" data-name="Trazado 876148" d="M184.912,19.949c-4.149,7.371-11.76,12.241-19.7,15.145l-.022-.044a4.336,4.336,0,0,0-4.75,2,4.969,4.969,0,0,0,.317,5.241,5.751,5.751,0,0,0,4.411,2.337q.311,10.794.633,21.6-14.119,6.24-27.615,13.715c-.055.524-.12,1.037-.207,1.551-1.911.393-4.433-1.463-4.772-3.385s.393-3.855,1.179-5.645a13.537,13.537,0,0,0,1.638-5.58,6.407,6.407,0,0,0-.1-1.026c-.753-4.4-5.667-7.633-6.115-12.219-.393-4.084,2.948-7.578,6.443-9.718s7.534-3.669,10.177-6.814c2.763-3.287,3.527-7.753,4.815-11.859a29.614,29.614,0,0,1,5.569-10.526A18.365,18.365,0,0,1,166.83,8.527c7.272-1.485,14.949,2.752,18.814,9.085s3.953,14.916,2.37,22.167a113.726,113.726,0,0,0-3.1-19.83" transform="translate(11.933 0.757)" fill="#223342"/>
            <path id="Trazado_876149" data-name="Trazado 876149" d="M9.547,61.693c.218.12.437.24.644.371C8.084,66.138,5.2,71.718,3.039,75.889c-.142-.076-.284-.164-.415-.251C2.111,75.332,1.6,75,1.107,74.666A3.507,3.507,0,0,1,.342,72.82a7.459,7.459,0,0,1,.906-3.9A61.506,61.506,0,0,1,4.939,62.36a3.444,3.444,0,0,1,1.4-1.474,2.325,2.325,0,0,1,1.714.011,6.286,6.286,0,0,1,1.463.841Z" transform="translate(0.029 5.584)" fill="#ed9756"/>
            <path id="Trazado_876150" data-name="Trazado 876150" d="M120.417,150.5a6.334,6.334,0,0,0-.207-1.5h.011V138.631l35.15-1.889-.743,11.182a7.863,7.863,0,0,0-.131,1.136,16.3,16.3,0,0,0-4.881.513,8.467,8.467,0,0,0-4.575,3.014,5.647,5.647,0,0,0-.808,5.3,6.35,6.35,0,0,0,3.254,3.21,18.524,18.524,0,0,0,4.477,1.31,9.452,9.452,0,0,0,2.348.273s-.087,13.769.568,17.624H121.116s-.644-8.375-.557-15.156c.273-.349.546-.7.808-1.048a15.172,15.172,0,0,0,1.594-.262,18.524,18.524,0,0,0,4.477-1.31,6.35,6.35,0,0,0,3.254-3.21,5.622,5.622,0,0,0-.808-5.285A8.425,8.425,0,0,0,125.309,151a15.682,15.682,0,0,0-4.892-.5" transform="translate(11.053 12.573)" fill="#fff"/>
            <path id="Trazado_876151" data-name="Trazado 876151" d="M119.633,146.005a7.564,7.564,0,0,1,.917,2.239,6.335,6.335,0,0,1,.207,1.5,15.683,15.683,0,0,1,4.892.5,8.426,8.426,0,0,1,4.575,3.025,5.622,5.622,0,0,1,.808,5.285,6.35,6.35,0,0,1-3.254,3.21,18.526,18.526,0,0,1-4.477,1.31,15.171,15.171,0,0,1-1.594.262c-.262.011-.524.022-.786.011a3.324,3.324,0,0,1-1.944-.622,5.212,5.212,0,0,1-1.561-3.44,43.016,43.016,0,0,1-.753-11.88,3.757,3.757,0,0,1,.448-1.649,1.451,1.451,0,0,1,1.463-.71,1.9,1.9,0,0,1,1.059.961" transform="translate(10.712 13.334)" fill="#ed9756"/>
            <path id="Trazado_876152" data-name="Trazado 876152" d="M69.945,75.844A2.621,2.621,0,0,0,67.4,76.6l-1.081-.721Q69.2,71.586,72.1,67.283a130.534,130.534,0,0,1,21.4-6.541c.087.109.186.207.273.306A64.647,64.647,0,0,0,105.8,71.509c3.44-4.892,7.261-9.129,10.7-14.01-.011-.066-.022-.142-.033-.207,7.447,1.3,17.832,3.3,25.289,4.051a6.405,6.405,0,0,1,.1,1.026,13.538,13.538,0,0,1-1.638,5.58c-.786,1.791-1.518,3.724-1.179,5.645s2.861,3.778,4.772,3.385a37.188,37.188,0,0,1-1.736,6.279c-.273-.066-.557-.142-.83-.218-2.621-.71-5.274-1.518-7.982-1.387s-5.558,1.43-6.715,3.887c-1.288,2.741-.218,6.2-1.649,8.888-.983,1.824-2.992,3.014-3.68,4.968a4.646,4.646,0,0,0,1.223,4.717,5.472,5.472,0,0,0,3.789,1.474c.852,2.948.961,6.071,1.649,9.074.721,3.178,2.326,6.442,5.263,7.862,2.7,1.31,5.864.786,8.8.2-.262,2.5-.513,4.99-.775,7.48q-3.964,1.458-7.949,2.894l-.524-1.441c-.622-1.66-1.245-3.309-1.867-4.968l-.622-.71Q117.4,123.044,104.6,120.1l-.087-.251c0-.055-.011-.12-.011-.175q-.786-9.189-1.54-18.367l-.087-.2a8.06,8.06,0,0,0,2.643-5.525,3.9,3.9,0,0,0-1.168-3.341l.033-.044c-.415-3.724-.819-7.458-1.234-11.192a5.569,5.569,0,0,0-1.157-3.4c-1.136-1.179-3-1.136-4.63-1L82.273,77.788c-3.188.251-6.541.48-9.478-.786a14.192,14.192,0,0,0-2.85-1.157" transform="translate(6.098 5.268)" fill="#ec4e50"/>
            <path id="Trazado_876153" data-name="Trazado 876153" d="M216.554,24.5l-8.473-.382,1.561-20.976q5.291.016,10.581.055l.24.022c-.186,2.446-.36,4.881-.535,7.327l.022.284c-.579.033-1.168.076-1.747.142l-.022-.186V5.544l-6.9-.415-1.223,16.652,6.77.579V20.537a14.693,14.693,0,0,0,1.551-.022v4.062Z" transform="translate(19.132 0.289)" fill="#ddd"/>
            <path id="Trazado_876154" data-name="Trazado 876154" d="M218.014,10.618l.022.186c-.939.087-1.867.229-2.784.4a3.984,3.984,0,0,0-2.337,1.026,4.137,4.137,0,0,0-.808,2.3,6.127,6.127,0,0,0,.229,3.527,4.278,4.278,0,0,0,3.014,2.14,7.678,7.678,0,0,0,1.31.164v1.824l-6.77-.579,1.223-16.652,6.9.415Z" transform="translate(19.299 0.456)" fill="#fff"/>
            <path id="Trazado_876155" data-name="Trazado 876155" d="M202.726,146.494h.1a10.829,10.829,0,0,0,3.767-.371c1.245-.208,2.741-.065,3.461.972a4.179,4.179,0,0,1,.48,2.533q-.115,4.373-.229,8.736a2.593,2.593,0,0,1-.524,1.834,2.491,2.491,0,0,1-1.9.48,26.518,26.518,0,0,1-7.764-1.5l-.251-.83.262-.262c-.153-2.3-.295-4.6-.448-6.912h-.055c-.022-.229-.033-.448-.055-.677a82.265,82.265,0,0,1,.153-14.392c.055-.524.175-1.136.655-1.332a.989.989,0,0,1,1.147.437,2.911,2.911,0,0,1,.382,1.256,90.539,90.539,0,0,1,.819,10.024" transform="translate(18.328 12.387)" fill="#ffbc8f"/>
            <path id="Trazado_876156" data-name="Trazado 876156" d="M201.441,149.849c.153,2.315.295,4.608.448,6.912l-.262.262q-9.172,2.572-18.334,5.143l-.95.131c-.611-4.128-1.321-8.244-2.173-12.328q10.581-.41,21.162-.8c.022.229.033.448.055.677Z" transform="translate(16.566 13.716)" fill="#00aca1"/>
            <path id="Trazado_876157" data-name="Trazado 876157" d="M176.714,51.458a85.251,85.251,0,0,1,2.424,10.417c.044.218.076.437.109.655l-.295.12A20.994,20.994,0,0,1,176,67.2a6.385,6.385,0,0,1-8.965,1.136,21.015,21.015,0,0,1-3.363-3.025l-.218-.153c-.066.022-.12.055-.186.076q-.311-10.794-.633-21.6a5.751,5.751,0,0,1-4.411-2.337,4.969,4.969,0,0,1-.317-5.241,4.336,4.336,0,0,1,4.75-2l.022.044c7.938-2.9,15.549-7.775,19.7-15.145a113.727,113.727,0,0,1,3.1,19.83c.131,1.966.207,3.931.24,5.9.022,1.758-.044,3.669-1.114,5.067a5.512,5.512,0,0,1-3.789,1.933,15.275,15.275,0,0,1-4.106-.229" transform="translate(14.464 1.744)" fill="#f2b481"/>
            <path id="Trazado_876158" data-name="Trazado 876158" d="M168.859,95.654a8.344,8.344,0,0,1-.491,8.932c-1.551,2.1-4.04,3.385-5.427,5.591-1.059,1.693-1.583,4.007-3.451,4.706a3.747,3.747,0,0,1-2.959-.295,11.1,11.1,0,0,1-2.435-1.845l-.644-.218a12.568,12.568,0,0,0,.48-3.276,188.7,188.7,0,0,0,.459-19.4,16.255,16.255,0,0,0-.906-5.329,6.129,6.129,0,0,0-3.713-3.713,4.078,4.078,0,0,0-.612-.131l.055-.295a9.99,9.99,0,0,1,5.744-5.088,8.756,8.756,0,0,1,7.556.994A7.847,7.847,0,0,1,165.943,83c-.12,2.282-1.3,4.532-.83,6.77.491,2.293,2.566,3.865,3.745,5.886" transform="translate(13.715 6.882)" fill="#223342"/>
            <path id="Trazado_876159" data-name="Trazado 876159" d="M168.808,169.239l-.262.4q-.917,7.96-1.824,15.921v.491H117.814v-.011q-1.392-7.7-2.784-15.386,3.079-3.784,6.006-7.633c-.087,6.781.557,15.156.557,15.156h33.763c-.655-3.855-.568-17.624-.568-17.624a3.273,3.273,0,0,0,1.976-.622.82.82,0,0,0,.175-.164,75.664,75.664,0,0,0,11.869,9.467" transform="translate(10.577 14.691)" fill="#c2efe8"/>
            <path id="Trazado_876160" data-name="Trazado 876160" d="M154.469,161.249a.819.819,0,0,1-.175.164,3.273,3.273,0,0,1-1.976.622,9.455,9.455,0,0,1-2.348-.273,18.525,18.525,0,0,1-4.477-1.31,6.35,6.35,0,0,1-3.254-3.21,5.648,5.648,0,0,1,.808-5.3,8.467,8.467,0,0,1,4.575-3.014,16.3,16.3,0,0,1,4.881-.513,7.861,7.861,0,0,1,.131-1.136,7.768,7.768,0,0,1,.994-2.588,1.911,1.911,0,0,1,1.07-.961,1.442,1.442,0,0,1,1.463.71,3.757,3.757,0,0,1,.448,1.649,43.017,43.017,0,0,1-.753,11.88,5.545,5.545,0,0,1-1.387,3.276" transform="translate(13.047 13.213)" fill="#ed9756"/>
            <path id="Trazado_876161" data-name="Trazado 876161" d="M142.039,92.412a5.386,5.386,0,0,0-5.5-1.147,10.846,10.846,0,0,0-4.914,3.844c-1.3,1.66-2.38,3.483-3.778,5.067a9.185,9.185,0,0,1-5.252,3.287,5.614,5.614,0,0,1-.961.076,5.472,5.472,0,0,1-3.789-1.474,4.646,4.646,0,0,1-1.223-4.717c.688-1.955,2.7-3.145,3.68-4.968,1.43-2.686.36-6.148,1.649-8.888,1.157-2.457,4-3.756,6.715-3.887s5.361.677,7.982,1.387c.273.076.557.153.83.218a16.484,16.484,0,0,0,7.2.6c2.533-.491,5.034-1.976,7.5-1.572a4.075,4.075,0,0,1,.612.131A6.128,6.128,0,0,1,156.5,84.08a16.255,16.255,0,0,1,.906,5.329,188.692,188.692,0,0,1-.459,19.4,12.567,12.567,0,0,1-.48,3.276c-.087.24-.186.48-.295.71a3.612,3.612,0,0,1-2.959,2.107c-.011-2.7-.011-5.383-.022-8.08a8.13,8.13,0,0,0-.328-2.774,2.789,2.789,0,0,0-1.922-1.878,2.663,2.663,0,0,0-2.413.906,5.764,5.764,0,0,0-1.179,2.4l-.066.033a13.454,13.454,0,0,1-5.241-13.1" transform="translate(10.703 7.318)" fill="#223342"/>
            <path id="Trazado_876162" data-name="Trazado 876162" d="M136.128,127.193c.262-2.49.513-4.979.775-7.48-2.937.59-6.1,1.114-8.8-.2-2.937-1.42-4.542-4.684-5.263-7.862-.688-3-.8-6.126-1.649-9.074a5.613,5.613,0,0,0,.961-.076,9.184,9.184,0,0,0,5.252-3.287c1.4-1.583,2.479-3.407,3.778-5.067a10.846,10.846,0,0,1,4.914-3.844,5.386,5.386,0,0,1,5.5,1.147,13.454,13.454,0,0,0,5.241,13.1l.066-.033a5.764,5.764,0,0,1,1.179-2.4,2.663,2.663,0,0,1,2.413-.906,2.789,2.789,0,0,1,1.922,1.878,8.13,8.13,0,0,1,.328,2.774c.011,2.7.011,5.383.022,8.08q.016,6.732.044,13.453c.011.47.011.95.011,1.42h-.066a19.9,19.9,0,0,1-2.413,4.084,6.72,6.72,0,0,1-3.942,2.479c-2.228.382-4.466-.808-6.093-2.38s-2.828-3.538-4.313-5.252l.12-.415c0-.044.011-.1.011-.142" transform="translate(11.143 8.276)" fill="#ed9756"/>
            <path id="Trazado_876163" data-name="Trazado 876163" d="M115.187,134.831c-.186.579-.36,1.157-.535,1.747H102.04V136.4a19.4,19.4,0,0,0-13.617,3.505,8.5,8.5,0,0,0-3.516,4.521c-.186.764-.022,1.824.753,1.955a1.642,1.642,0,0,0,1.168-.415c1.594-1.081,3.2-2.162,4.783-3.254l.066.1a5.643,5.643,0,0,0,10.33,2.872l.066-.229c3.178.906,6.366,1.813,9.544,2.73a186.188,186.188,0,0,0-4.346,30.171,10.608,10.608,0,0,0,.251,3.855,3.694,3.694,0,0,0,2.643,2.6c1.834.328,3.429-1.223,4.641-2.653,2.053-2.413,4.084-4.859,6.06-7.327q1.392,7.682,2.784,15.386v.011H51.57V173.212a11.944,11.944,0,0,0,9.642-6.017h43.11v-3.549H80.714L69.391,131.14H57.215a73.59,73.59,0,0,0,3.592-7.764c3.822-1.147,7.709-2.348,11.553-3.658,3.582-1.2,7.141-2.49,10.592-3.887-.022.109-.055.207-.076.317l.109.033a105.922,105.922,0,0,0,12.1,8.648l.022.033A80.838,80.838,0,0,0,105.6,114.444l.262-.022c0,.055.011.12.011.175l.087.251q12.809,2.932,25.606,5.875l.622.71c.622,1.66,1.245,3.309,1.867,4.968l.524,1.441q-9.631,3.522-19.273,7.021Z" transform="translate(4.742 10.521)" fill="#f9a138"/>
            <path id="Trazado_876164" data-name="Trazado 876164" d="M112.2,41.054l.011.022q1.179,9.68,2.97,19.251c.011.066.022.142.033.207-3.44,4.881-7.261,9.118-10.7,14.01A64.646,64.646,0,0,1,92.484,64.083c.033-.131.055-.251.087-.382A106.818,106.818,0,0,0,94.3,52.083v-.066a26.726,26.726,0,0,1-5.831-.459,9.32,9.32,0,0,1-5.209-2.981A12.243,12.243,0,0,1,81.062,42.6c-.917-5.907-.775-11.913-.633-17.9.044.055.1.1.142.153l.131.033c7.764-.5,15.571-.688,23.357-.579v.109a59.157,59.157,0,0,0,2.151,10.592,3.065,3.065,0,0,0,.557,1.19,1.11,1.11,0,0,0,1.179.393,1.6,1.6,0,0,0,.775-.961,12.4,12.4,0,0,0,.884-3.756,2.44,2.44,0,0,1,2.413-1.409,2.879,2.879,0,0,1,1.463.535,3.807,3.807,0,0,1,1.136,1.223,6.218,6.218,0,0,1,.721,3.134,7.58,7.58,0,0,1-.819,3.494,4.9,4.9,0,0,1-2.315,2.195" transform="translate(7.386 2.233)" fill="#ed9756"/>
            <path id="Trazado_876165" data-name="Trazado 876165" d="M109.79,32.79a12.4,12.4,0,0,1-.884,3.756,1.6,1.6,0,0,1-.775.961,1.11,1.11,0,0,1-1.179-.393,3.065,3.065,0,0,1-.557-1.19,59.156,59.156,0,0,1-2.151-10.592v-.109c-7.786-.109-15.593.076-23.357.579l-.131-.033c-.044-.055-.1-.1-.142-.153a7.962,7.962,0,0,1-2.195-6.552c.437-2.413,2.664-4.542,5.11-4.379,2.249.153,4.149,2.042,6.4,2.009,2.544-.033,4.652-2.5,7.185-2.271,1.878.175,3.363,1.8,5.241,2.009s3.658-1.059,5.536-.884,3.341,1.758,4.2,3.44c2.009,3.876,1.845,8.463,1.638,12.819l-.066.109a2.879,2.879,0,0,0-1.463-.535,2.44,2.44,0,0,0-2.413,1.409" transform="translate(7.202 1.325)" fill="#223342"/>
            <path id="Trazado_876166" data-name="Trazado 876166" d="M97.951,134.712h12.481q-1.7,5.749-3.036,11.607c-3.178-.917-6.366-1.824-9.544-2.73-.12-.044-.251-.076-.371-.109H97.46c.164-2.915.328-5.853.491-8.768" transform="translate(8.961 12.386)" fill="#f9a138"/>
            <path id="Trazado_876167" data-name="Trazado 876167" d="M97.855,94.056A7.941,7.941,0,0,1,99.8,90.562a3.353,3.353,0,0,1,4.029-.568.692.692,0,0,1,.142.12,3.9,3.9,0,0,1,1.168,3.341,8.06,8.06,0,0,1-2.643,5.525l.087.2q.77,9.189,1.54,18.367l-.262.022a80.842,80.842,0,0,1-10.494,10.417l-.022-.033a105.923,105.923,0,0,1-12.1-8.648l-.109-.033c.022-.109.055-.207.076-.317a82.384,82.384,0,0,0,1.922-10.024c-1.955-.218-3.964-.153-5.9-.513a7.459,7.459,0,0,1-5.11-3.025,10.21,10.21,0,0,1-1.07-5.121c-.2-6.508-.393-13.038-.579-19.546,8.168-.317,16.357-.339,24.514-.044v.109q.409,6.421.961,12.83c.044.5.186,1.136.688,1.256a.847.847,0,0,0,.852-.415,1.712,1.712,0,0,0,.2-.459Z" transform="translate(6.48 7.399)" fill="#f2b481"/>
            <path id="Trazado_876168" data-name="Trazado 876168" d="M98.015,94.575a1.711,1.711,0,0,1-.2.459.847.847,0,0,1-.852.415c-.5-.12-.644-.753-.688-1.256q-.557-6.4-.961-12.83v-.109c-8.157-.295-16.346-.273-24.514.044a.531.531,0,0,1-.011-.131h-.12a6.171,6.171,0,0,1-3.516-3.811,2.7,2.7,0,0,1,.022-2.064,1.24,1.24,0,0,1,.164-.251,2.621,2.621,0,0,1,2.544-.753,14.193,14.193,0,0,1,2.85,1.157c2.937,1.267,6.29,1.037,9.478.786l15.091-1.179c1.627-.131,3.494-.175,4.63,1a5.569,5.569,0,0,1,1.157,3.4c.415,3.734.819,7.469,1.234,11.192l-.033.044a.692.692,0,0,0-.142-.12,3.353,3.353,0,0,0-4.029.568,7.941,7.941,0,0,0-1.944,3.494Z" transform="translate(6.157 6.825)" fill="#223342"/>
            <path id="Trazado_876169" data-name="Trazado 876169" d="M107.159,162.239v3.549H31.706l-11-36.056H72.228l11.323,32.507Z" transform="translate(1.904 11.928)" fill="#ddd"/>
            <path id="Trazado_876170" data-name="Trazado 876170" d="M98.878,143.507H98.9c.12.033.251.065.371.109l-.066.229a5.643,5.643,0,0,1-10.33-2.872l-.066-.1c-1.583,1.092-3.188,2.173-4.783,3.254a1.642,1.642,0,0,1-1.168.415c-.775-.131-.939-1.19-.753-1.955a8.5,8.5,0,0,1,3.516-4.521,19.4,19.4,0,0,1,13.617-3.505v.175h.131c-.164,2.915-.328,5.853-.491,8.768" transform="translate(7.543 12.36)" fill="#f2b481"/>
            <path id="Trazado_876171" data-name="Trazado 876171" d="M56.4,96.825q7.4-11.007,14.8-22.014l1.081.721a1.24,1.24,0,0,0-.164.251,2.7,2.7,0,0,0-.022,2.064,6.171,6.171,0,0,0,3.516,3.811h.12a.532.532,0,0,0,.011.131c.186,6.508.382,13.038.579,19.546a10.21,10.21,0,0,0,1.07,5.121,7.459,7.459,0,0,0,5.11,3.025c1.933.36,3.942.295,5.9.513a82.386,82.386,0,0,1-1.922,10.024c-3.451,1.4-7.01,2.686-10.592,3.887l-.011-.044a75.786,75.786,0,0,0,1.78-11.738h-.022a255.028,255.028,0,0,1-24.045,10.657l-.033.033A424.285,424.285,0,0,1,13.28,77.246c1.234-2.468,2.479-4.925,3.734-7.392a4.654,4.654,0,0,0,.4-.808c.011-.022.022-.055.033-.076a.257.257,0,0,0,.022-.087A422,422,0,0,0,56.4,96.825" transform="translate(1.221 6.334)" fill="#ec4e50"/>
            <path id="Trazado_876172" data-name="Trazado 876172" d="M42.23,162.752H62.071a11.7,11.7,0,0,1-19.841,1.016Z" transform="translate(3.883 14.965)" fill="#f2b481"/>
            <path id="Trazado_876173" data-name="Trazado 876173" d="M18.681,59.789A8.7,8.7,0,0,1,12.02,57.2c1.769-.83,3.527-1.66,5.3-2.479l.044.1c.5,1.649.994,3.309,1.485,4.957a.826.826,0,0,1-.164.011" transform="translate(1.105 5.032)" fill="#f2b481"/>
            <path id="Trazado_876174" data-name="Trazado 876174" d="M12.265,56.992a8.7,8.7,0,0,0,6.661,2.588c-.382.852-1.693,3.505-3.341,6.836A70.178,70.178,0,0,0,9.36,62.408c1.42-2.741,2.5-4.8,2.774-5.307l-.011-.033a.9.9,0,0,0,.142-.076" transform="translate(0.861 5.24)" fill="#f9a138"/>
            <path id="Trazado_876175" data-name="Trazado 876175" d="M17.857,69.182a.257.257,0,0,1-.022.087c-.011.022-.022.055-.033.076-.142.273-.273.535-.4.808-1.256,2.468-2.5,4.925-3.734,7.392-.142.284-.284.557-.426.841-.273.677-1.256.7-1.987.743a5.4,5.4,0,0,1-2.14-.437L9.1,78.682c1.966-3.964,4.488-9.009,6.508-13.06.371.262.732.524,1.092.8a3.3,3.3,0,0,1,1.157,1.267,2.2,2.2,0,0,1,0,1.5" transform="translate(0.837 6.034)" fill="#ed9756"/>
            <path id="Trazado_876176" data-name="Trazado 876176" d="M16.186,65.959c-2.02,4.051-4.543,9.1-6.508,13.06A39.482,39.482,0,0,1,2.81,75.776C4.972,71.6,7.855,66.025,9.962,61.952a70.181,70.181,0,0,1,6.224,4.007" transform="translate(0.258 5.696)" fill="#ed9756"/>
            <path id="Trazado_876177" data-name="Trazado 876177" d="M9.742,77.855,8.726,79.886l-.033-.022C6.5,78.609,4.315,77.353,2.12,76.086l.753-1.474a39.481,39.481,0,0,0,6.868,3.243" transform="translate(0.195 6.86)" fill="#f9a138"/>
            <path id="Trazado_876178" data-name="Trazado 876178" d="M8.778,79.74l.033.022c-.339.677-.644,1.3-.917,1.856H7.883A44.405,44.405,0,0,1,1.2,77.895c.295-.568.633-1.223,1-1.933C4.4,77.229,6.583,78.484,8.778,79.74" transform="translate(0.11 6.985)" fill="#ddd"/>
            <path id="Trazado_876179" data-name="Trazado 876179" d="M7.993,81.456H8C7.491,82.5,7.1,83.312,6.879,83.77A7.721,7.721,0,0,1,0,80.069L.109,80c.164-.295.59-1.1,1.2-2.271a44.4,44.4,0,0,0,6.683,3.724" transform="translate(0 7.147)" fill="#e08b4b"/>
            <path id="Trazado_876180" data-name="Trazado 876180" d="M167.849,36.54a3.722,3.722,0,0,0-.9.551.533.533,0,0,0-.282.147A3.647,3.647,0,0,0,171,43.045c3.682-2.255.875-8.175-3.155-6.506" transform="translate(15.221 3.333)" fill="#e08b4b"/>
            <path id="Trazado_876181" data-name="Trazado 876181" d="M179.2,35.943q-.336-2.357-.67-4.715c-.1-.692-1.188-.615-1.089.082l.622,4.379c.231,1.629,1.13,4.445-1.916,4.055-.694-.088-.909.983-.211,1.072,1.456.186,3.259.083,3.592-1.687a10.353,10.353,0,0,0-.329-3.186" transform="translate(16.137 2.827)" fill="#e08b4b"/>
            <path id="Trazado_876182" data-name="Trazado 876182" d="M201.8,92.913q-.093-2.495-.188-4.989c-.027-.7-1.116-.62-1.09.082q.087,2.3.175,4.606c.058,1.543.66,5.349-2.319,4.367-.666-.219-.869.855-.21,1.072,1.568.516,3.262.519,3.678-1.387a15.741,15.741,0,0,0-.046-3.751" transform="translate(18.184 8.04)" fill="#e08b4b"/>
            <path id="Trazado_876183" data-name="Trazado 876183" d="M189.806,94.186a3.37,3.37,0,0,0-.492,5.453,3.315,3.315,0,0,0,.747.855c2.392,1.867,5.3-.518,5.133-3.2a3.688,3.688,0,0,0-5.388-3.107" transform="translate(17.299 8.62)" fill="#e08b4b"/>
            <path id="Trazado_876184" data-name="Trazado 876184" d="M80.225,97.957c-1.523.306-3.151.781-3.515-2.178a12.829,12.829,0,0,1,.245-2.367q.246-2.368.489-4.736c.072-.694-1-.908-1.071-.21l-.53,5.13a11.6,11.6,0,0,0-.2,3.635c.511,2.213,2.877,2.173,4.66,1.815.68-.136.606-1.227-.082-1.089" transform="translate(6.946 8.095)" fill="#e08b4b"/>
            <path id="Trazado_876185" data-name="Trazado 876185" d="M90.049,94.682a3.8,3.8,0,0,0-2.043-.005.494.494,0,0,0-.452.071c-.085.058-.161.128-.24.193a2.806,2.806,0,0,0-1.172,1.116,2.4,2.4,0,0,0-.136,2.019,3.114,3.114,0,0,0,.161.666,3.3,3.3,0,0,0,3.378,2.119,3.165,3.165,0,0,0,.5-6.179" transform="translate(7.893 8.693)" fill="#e08b4b"/>
            <path id="Trazado_876186" data-name="Trazado 876186" d="M75.3,86.561a4.305,4.305,0,0,0-5.007.387c-.537.446.078,1.349.62.9a3.257,3.257,0,0,1,3.908-.3c.606.358,1.08-.627.478-.982" transform="translate(6.444 7.902)" fill="#223342"/>
            <path id="Trazado_876187" data-name="Trazado 876187" d="M86.213,86.1a4.928,4.928,0,0,0-5.665.453c-.541.441.074,1.345.62.9a3.87,3.87,0,0,1,4.567-.37c.61.351,1.085-.633.478-.982" transform="translate(7.387 7.854)" fill="#223342"/>
            <path id="Trazado_876188" data-name="Trazado 876188" d="M84.635,89.336a1.587,1.587,0,0,0-1.3-1.554c-1.715-.168-1.883,2.517-1.233,3.55a1.1,1.1,0,0,0,1.7.316c.022-.019.029-.047.049-.067a1,1,0,0,0,.126-.074,2.6,2.6,0,0,0,.664-2.171" transform="translate(7.517 8.071)" fill="#223342"/>
            <path id="Trazado_876189" data-name="Trazado 876189" d="M73.985,89.056a1.143,1.143,0,0,0-1.914-.443c-.019.021-.032.048-.049.07a.532.532,0,0,0-.084.118,3.971,3.971,0,0,0,.037,3.047,1.128,1.128,0,0,0,1.948-.021,3.288,3.288,0,0,0,.062-2.77" transform="translate(6.586 8.114)" fill="#223342"/>
            <path id="Trazado_876190" data-name="Trazado 876190" d="M104.929,88.077c-4.646.509-9.284,1.121-13.923,1.687a7.076,7.076,0,0,0-2.094-5.905,5.028,5.028,0,0,0-7.777.892,8.443,8.443,0,0,0-1.67,4.038.282.282,0,0,0-.044,0l-1.307.142a7.545,7.545,0,0,0-3.631-5.592,4.939,4.939,0,0,0-6.844,1.813.557.557,0,0,0-.128.226c-.009.029-.015.061-.024.092a4.781,4.781,0,0,0-.314,1.264.576.576,0,0,0,.015.17c-.423,2.928.294,6.117,3.037,7.717a5.182,5.182,0,0,0,7.61-2.751,6.123,6.123,0,0,0,.334-1.849l1.254-.135a6.233,6.233,0,0,0,1.71,4.1,5.554,5.554,0,0,0,8.422-.3,7.284,7.284,0,0,0,1.262-2.788l8.306-1.008c2.186-.265,8.7-2.107,8.84,1.534.027.7,1.116.62,1.09-.082-.108-2.83-1.441-3.549-4.124-3.255M76.322,92.45c-1.744,2.716-5.44,2.169-7.134-.3a7.462,7.462,0,0,1-.675-6.293c1.131-2.925,5.251-2.49,7.124-.1a5.939,5.939,0,0,1,.685,6.695m11.8,1.151a4.531,4.531,0,0,1-6.863-1.254,5.8,5.8,0,0,1,.163-6.047.455.455,0,0,0,.308-.294,4.693,4.693,0,0,1,.288-.6c.157-.206.314-.414.49-.606a.554.554,0,0,0,.121-.207c1.98-2.038,5.572-.951,6.813,1.817a6.556,6.556,0,0,1-1.32,7.19" transform="translate(6.167 7.579)" fill="#223342"/>
            <path id="Trazado_876191" data-name="Trazado 876191" d="M87.532,29.441a4.663,4.663,0,0,0-6.058.6c-.5.5.334,1.207.829.712a3.53,3.53,0,0,1,4.517-.482c.58.382,1.3-.441.712-.828" transform="translate(7.477 2.629)" fill="#223342"/>
            <path id="Trazado_876192" data-name="Trazado 876192" d="M100.564,29.262a6.813,6.813,0,0,0-7.141.566c-.568.412.05,1.313.621.9a5.706,5.706,0,0,1,6.042-.483.546.546,0,0,0,.478-.982" transform="translate(8.569 2.621)" fill="#223342"/>
            <path id="Trazado_876193" data-name="Trazado 876193" d="M84.625,31.275a1.194,1.194,0,0,0-1.724.259,3.508,3.508,0,0,0-.354,2.493,2.08,2.08,0,0,0,.276.693,1.239,1.239,0,0,0,1.836.774c1.575-.667,1.111-3.354-.034-4.219" transform="translate(7.583 2.852)" fill="#223342"/>
            <path id="Trazado_876194" data-name="Trazado 876194" d="M99.3,33.93a4.343,4.343,0,0,0-.949-2.8,1.385,1.385,0,0,0-2.045.3,2.1,2.1,0,0,0-.1.2.526.526,0,0,0-.145.249c0,.013-.007.031-.01.044a3.066,3.066,0,0,0-.015,2.247l.017.038c.227,1.2.836,2.269,2.094,1.905A1.958,1.958,0,0,0,99.3,33.93" transform="translate(8.811 2.832)" fill="#223342"/>
            <path id="Trazado_876195" data-name="Trazado 876195" d="M93.508,42.009l-7.068.272a.5.5,0,0,0-.265.088.582.582,0,0,0-.42.7c.562,2.305,2.172,4.4,4.787,4.1a3.947,3.947,0,0,0,3.411-4.243.564.564,0,0,0-.444-.921" transform="translate(7.883 3.863)" fill="#fff"/>
            <path id="Trazado_876196" data-name="Trazado 876196" d="M90.971,39.8c-1.307.444-2.361.566-2.885-.941a9.514,9.514,0,0,1,.167-2.668Q88.4,34.1,88.537,32c.047-.693-1.024-.911-1.071-.211q-.154,2.257-.306,4.514a10.48,10.48,0,0,0-.082,3.328c.586,1.974,2.693,1.73,4.262,1.2a.547.547,0,0,0-.369-1.029" transform="translate(7.995 2.884)" fill="#e2762d"/>
            <path id="Trazado_876197" data-name="Trazado 876197" d="M102.105,39.135a3.2,3.2,0,0,0-4.041-1.256,3.251,3.251,0,0,0-.827,4.885,3.123,3.123,0,0,0,4.09.333,3.164,3.164,0,0,0,.777-3.963" transform="translate(8.865 3.457)" fill="#e2762d"/>
            <path id="Trazado_876198" data-name="Trazado 876198" d="M182.671,28.006a3.246,3.246,0,0,0-3.911.584c-.495.5.335,1.209.829.712a2.139,2.139,0,0,1,2.6-.314c.613.348,1.087-.637.478-.982" transform="translate(16.423 2.537)" fill="#223342"/>
            <path id="Trazado_876199" data-name="Trazado 876199" d="M173.786,29.21a5.219,5.219,0,0,0-5.424.379.546.546,0,0,0,.62.9,4.11,4.11,0,0,1,4.325-.295c.627.321,1.1-.661.478-.983" transform="translate(15.459 2.632)" fill="#223342"/>
            <path id="Trazado_876200" data-name="Trazado 876200" d="M171.88,31.319a1.2,1.2,0,0,0-1.392-.393.455.455,0,0,0-.47.3c-.016.038-.029.093-.045.135a1.686,1.686,0,0,0-.234,1.064c-.121,1.082.073,2.326,1.235,2.33,1.612.007,1.631-2.5.905-3.439" transform="translate(15.604 2.836)" fill="#223342"/>
            <path id="Trazado_876201" data-name="Trazado 876201" d="M182.1,30.954a1.185,1.185,0,0,0-1.243-.516.528.528,0,0,0-.741.375c-.2.984-.585,3.435,1.06,3.4,1.532-.031,1.567-2.311.924-3.259" transform="translate(16.544 2.795)" fill="#223342"/>
            <path id="Trazado_876202" data-name="Trazado 876202" d="M197.732,85.03a4.976,4.976,0,0,0-6.6.033c-.521.459.093,1.363.621.9a3.9,3.9,0,0,1,5.27-.1c.539.452,1.251-.376.712-.828" transform="translate(17.556 7.705)" fill="#223342"/>
            <path id="Trazado_876203" data-name="Trazado 876203" d="M209.569,85.388a5.323,5.323,0,0,0-6.52.219c-.539.442.075,1.345.621.9a4.224,4.224,0,0,1,5.187-.29c.577.39,1.294-.435.712-.828" transform="translate(18.651 7.759)" fill="#223342"/>
            <path id="Trazado_876204" data-name="Trazado 876204" d="M206.515,86.682c-1.129-.394-1.521.84-1.492,1.94v.016c0,.017,0,.034,0,.051a3.287,3.287,0,0,0,.162,1.148,1.078,1.078,0,0,0,1.486.753c.724-.364.795-1.367.765-2.081-.028-.677-.192-1.572-.924-1.828" transform="translate(18.851 7.963)" fill="#223342"/>
            <path id="Trazado_876205" data-name="Trazado 876205" d="M194.763,86.065a1.031,1.031,0,0,0-1.4.608.474.474,0,0,0-.226.359,4.376,4.376,0,0,0,.339,2.673,1.09,1.09,0,0,0,1.665.434c1.044-.817,1.057-3.62-.373-4.074" transform="translate(17.752 7.906)" fill="#223342"/>
            <path id="Trazado_876206" data-name="Trazado 876206" d="M201.657,99.277a2.792,2.792,0,0,1-4.573-.01c-.417-.563-1.318.054-.9.62a3.888,3.888,0,0,0,6.3.1c.429-.555-.4-1.27-.828-.712" transform="translate(18.029 9.107)" fill="#223342"/>
            <path id="Trazado_876207" data-name="Trazado 876207" d="M131.219,109.98c-1.292.441-2.359.5-2.541-1.088-.075-.666-.1-1.344-.142-2.012l-.334-4.693a.546.546,0,0,0-1.089.082q.167,2.347.333,4.694a9.258,9.258,0,0,0,.425,3.287c.72,1.487,2.422,1.2,3.717.759a.547.547,0,0,0-.369-1.029" transform="translate(11.688 9.351)" fill="#e2762d"/>
            <path id="Trazado_876208" data-name="Trazado 876208" d="M135.216,111.81a.5.5,0,0,0-.561-.475l-6.871.634a.5.5,0,0,0-.415.28.469.469,0,0,0-.144.42,4.063,4.063,0,1,0,8.105-.582.493.493,0,0,0-.115-.277" transform="translate(11.698 10.237)" fill="#fff"/>
            <path id="Trazado_876209" data-name="Trazado 876209" d="M137.238,104.987a2.762,2.762,0,0,0-1.352,3.164,2.527,2.527,0,0,0,1.235,2.009,2.915,2.915,0,0,0,4.386-2.384,2.961,2.961,0,0,0-4.27-2.79" transform="translate(12.486 9.623)" fill="#e2762d"/>
            <path id="Trazado_876210" data-name="Trazado 876210" d="M136.813,97.9a4.536,4.536,0,0,0-6.041-.084c-.531.451.084,1.355.62.9a3.46,3.46,0,0,1,4.708.013c.527.466,1.239-.363.712-.828" transform="translate(12.005 8.892)" fill="#223342"/>
            <path id="Trazado_876211" data-name="Trazado 876211" d="M134.1,99.061a1.054,1.054,0,0,0-1.584.138,1.856,1.856,0,0,0-.271,1.08,2.631,2.631,0,0,0,.173,1.406,1.394,1.394,0,0,0,1.616.946c1.391-.444.906-2.833.067-3.57" transform="translate(12.157 9.081)" fill="#223342"/>
            <path id="Trazado_876212" data-name="Trazado 876212" d="M125.172,100.12a1.352,1.352,0,0,0-1.484-.423.513.513,0,0,0-.774.358c-.179,1.111-.181,4.012,1.614,3.786,1.665-.209,1.436-2.759.644-3.721" transform="translate(11.295 9.16)" fill="#223342"/>
            <path id="Trazado_876213" data-name="Trazado 876213" d="M81.837,99.888a2.786,2.786,0,0,1-4.571.9c-.514-.48-1.225.349-.712.828a3.882,3.882,0,0,0,6.264-1.252c.288-.641-.693-1.12-.982-.478" transform="translate(7.023 9.156)" fill="#223342"/>
            <path id="Trazado_876214" data-name="Trazado 876214" d="M181.9,41.94a.5.5,0,0,0-.561-.475l-6.871.634a.5.5,0,0,0-.415.28.469.469,0,0,0-.144.42,4.063,4.063,0,1,0,8.106-.582.493.493,0,0,0-.115-.277" transform="translate(15.99 3.812)" fill="#fff"/>
            <path id="Trazado_876215" data-name="Trazado 876215" d="M205.358,5.389l-4.415-2.506c-.614-.347-1.088.637-.479.982l4.416,2.506c.613.348,1.087-.637.478-.982" transform="translate(18.406 0.258)" fill="#f9a138"/>
            <path id="Trazado_876216" data-name="Trazado 876216" d="M205.088,9.142l-9.255,1.451c-.69.108-.614,1.2.082,1.089l9.255-1.451c.69-.108.614-1.2-.082-1.089" transform="translate(17.962 0.84)" fill="#f9a138"/>
            <path id="Trazado_876217" data-name="Trazado 876217" d="M204.485,12.52l-3.375,1.933c-.609.349.013,1.247.62.9l3.375-1.933c.609-.349-.013-1.247-.62-.9" transform="translate(18.469 1.144)" fill="#f9a138"/>
            <path id="Trazado_876218" data-name="Trazado 876218" d="M204.874,17.26q-.955,1.034-1.909,2.066c-.478.516.351,1.227.828.712l1.909-2.066c.478-.518-.351-1.227-.828-.712" transform="translate(18.649 1.571)" fill="#f9a138"/>
            <path id="Trazado_876219" data-name="Trazado 876219" d="M207.529,3.286,206.351.341c-.26-.65-1.29-.286-1.028.369L206.5,3.655c.261.65,1.291.286,1.029-.369" transform="translate(18.875 0)" fill="#f9a138"/>
            <path id="Trazado_876220" data-name="Trazado 876220" d="M109.255,133.767l-11.194.3c-.7.019-.619,1.108.083,1.089l11.192-.3c.7-.019.619-1.107-.082-1.089" transform="translate(8.972 12.3)" fill="#ea7b0c"/>
            <path id="Trazado_876221" data-name="Trazado 876221" d="M106.946,145.138l-8.958-2.157c-.685-.164-.892.909-.21,1.072l8.957,2.157c.686.165.892-.908.211-1.072" transform="translate(8.952 13.145)" fill="#ea7b0c"/>
            <path id="Trazado_876222" data-name="Trazado 876222" d="M155.171,68.976c-.087-.694-1.177-.617-1.089.082l.409,3.243c.088.694,1.177.617,1.089-.082l-.409-3.243" transform="translate(14.167 6.298)" fill="#ea7b0c"/>
            <path id="Trazado_876223" data-name="Trazado 876223" d="M166.25,69.778c-.14-.679-1.231-.6-1.089.082l.547,2.659c.139.679,1.23.606,1.089-.082l-.547-2.659" transform="translate(15.185 6.372)" fill="#ea7b0c"/>
            <path id="Trazado_876224" data-name="Trazado 876224" d="M176.719,67.361c-.1-.691-1.19-.615-1.089.082q.267,1.844.535,3.689c.1.692,1.19.615,1.089-.082q-.267-1.844-.535-3.689" transform="translate(16.148 6.149)" fill="#ea7b0c"/>
            <path id="Trazado_876225" data-name="Trazado 876225" d="M186.53,64.787c-.085-.7-1.175-.617-1.089.082l.471,3.843c.085.7,1.174.617,1.089-.082q-.236-1.921-.471-3.843" transform="translate(17.05 5.912)" fill="#ea7b0c"/>
            <path id="Trazado_876226" data-name="Trazado 876226" d="M196,63.047a.546.546,0,0,0-1.089.082q.124,1.548.248,3.1a.547.547,0,0,0,1.09-.082Z" transform="translate(17.922 5.752)" fill="#ea7b0c"/>
            <path id="Trazado_876227" data-name="Trazado 876227" d="M171.963,80.783q-.472-2.144-.942-4.289c-.151-.684-1.177-.31-1.029.369q.472,2.144.942,4.289c.151.684,1.178.31,1.029-.369" transform="translate(15.629 7)" fill="#ea7b0c"/>
            <path id="Trazado_876228" data-name="Trazado 876228" d="M167.418,87.586c-.08-.7-1.168-.618-1.089.082q.2,1.769.4,3.538c.08.7,1.169.618,1.089-.082q-.2-1.769-.4-3.538" transform="translate(15.293 8.009)" fill="#ea7b0c"/>
            <path id="Trazado_876229" data-name="Trazado 876229" d="M175.76,83.813c-.09-.694-1.178-.617-1.089.082q.283,2.21.568,4.42c.088.694,1.178.616,1.089-.083q-.283-2.21-.568-4.419" transform="translate(16.06 7.662)" fill="#ea7b0c"/>
            <path id="Trazado_876230" data-name="Trazado 876230" d="M173.178,94.2c-.079-.7-1.168-.618-1.089.082q.241,2.133.483,4.265c.079.7,1.167.618,1.089-.082q-.242-2.133-.483-4.265" transform="translate(15.823 8.617)" fill="#ea7b0c"/>
            <path id="Trazado_876231" data-name="Trazado 876231" d="M178.744,101.339a.546.546,0,0,0-1.089.082q.072,1.546.146,3.092a.546.546,0,0,0,1.089-.082Z" transform="translate(16.335 9.273)" fill="#ea7b0c"/>
            <path id="Trazado_876232" data-name="Trazado 876232" d="M166.606,106.328a.546.546,0,0,0-1.089.082q.147,1.694.294,3.386a.547.547,0,0,0,1.09-.082l-.295-3.386" transform="translate(15.219 9.732)" fill="#ea7b0c"/>
            <path id="Trazado_876233" data-name="Trazado 876233" d="M173.917,113.078q-.368-1.694-.736-3.386c-.149-.684-1.176-.31-1.029.369q.368,1.692.736,3.386c.15.684,1.176.31,1.029-.369" transform="translate(15.828 10.052)" fill="#ea7b0c"/>
            <path id="Trazado_876234" data-name="Trazado 876234" d="M156.954,114.547a.546.546,0,0,0-1.089.082q.141,1.472.284,2.946a.546.546,0,0,0,1.089-.082q-.142-1.474-.284-2.946" transform="translate(14.331 10.488)" fill="#ea7b0c"/>
            <path id="Trazado_876235" data-name="Trazado 876235" d="M191.883,58.453c-.1-.691-1.191-.615-1.089.082q.195,1.328.392,2.658c.1.691,1.191.615,1.089-.082Z" transform="translate(17.542 5.33)" fill="#ea7b0c"/>
            <path id="Trazado_876236" data-name="Trazado 876236" d="M206.308,58.98q-.432-1.548-.866-3.1c-.189-.676-1.216-.307-1.028.369l.865,3.1c.19.676,1.218.306,1.029-.369" transform="translate(18.793 5.105)" fill="#ea7b0c"/>
            <path id="Trazado_876237" data-name="Trazado 876237" d="M215.026,57.876q-.572-1.553-1.144-3.1a.546.546,0,0,0-1.028.369l1.143,3.1a.547.547,0,0,0,1.029-.369" transform="translate(19.568 5.004)" fill="#ea7b0c"/>
            <path id="Trazado_876238" data-name="Trazado 876238" d="M212.85,44.171c-.074-.7-1.164-.618-1.089.082q.18,1.7.363,3.395c.074.7,1.163.618,1.089-.082q-.182-1.7-.363-3.395" transform="translate(19.471 4.017)" fill="#ea7b0c"/>
            <path id="Trazado_876239" data-name="Trazado 876239" d="M219.345,39.719a.546.546,0,0,0-1.089.082l.255,3.389a.546.546,0,0,0,1.089-.082Z" transform="translate(20.068 3.607)" fill="#ea7b0c"/>
            <path id="Trazado_876240" data-name="Trazado 876240" d="M215.7,33.2q-.12,2.133-.238,4.264c-.039.7,1.049.611,1.089-.082l.238-4.264c.039-.7-1.05-.61-1.089.082" transform="translate(19.811 3)" fill="#ea7b0c"/>
            <path id="Trazado_876241" data-name="Trazado 876241" d="M118.94,58.031c-4.5,5.284-8.836,10.78-13.53,15.889-2,2.176-4.076.747-5.851-.89q-1.643-1.517-3.218-3.1a107.154,107.154,0,0,1-7.5-8.423c-.438-.545-1.34.071-.9.62a109.387,109.387,0,0,0,8.038,8.983c1.717,1.712,4.751,5.886,7.6,5.4a4.909,4.909,0,0,0,2.661-1.877c1.525-1.662,2.935-3.446,4.4-5.164l9.133-10.725a.546.546,0,0,0-.828-.712" transform="translate(8.075 5.318)" fill="#c2efe8"/>
            <path id="Trazado_876242" data-name="Trazado 876242" d="M165.186,169.087a103.442,103.442,0,0,0-11.346-9.6c-.565-.413-1.28.413-.712.828a103.445,103.445,0,0,1,11.346,9.6c.5.492,1.213-.339.712-.828" transform="translate(14.061 14.654)" fill="#8bccbf"/>
            <path id="Trazado_876243" data-name="Trazado 876243" d="M120.618,161.481l-6.31,8.848c-.405.569.419,1.285.828.712q3.156-4.424,6.31-8.848c.406-.569-.419-1.285-.828-.712" transform="translate(10.5 14.828)" fill="#8bccbf"/>
            <path id="Trazado_876244" data-name="Trazado 876244" d="M178.044,161.724a34.592,34.592,0,0,0-14.152-8.6.5.5,0,0,0,.548-.559q-.7-6.327-1.4-12.654c-.077-.7-1.166-.618-1.089.082q.7,6.327,1.4,12.654a.522.522,0,0,0,.212.378,34.927,34.927,0,0,0-6.584-1.326c-.694-.071-.91,1-.211,1.071a33.667,33.667,0,0,1,20.564,9.778c.5.5,1.207-.333.712-.828" transform="translate(14.375 12.82)" fill="#8bccbf"/>
            <path id="Trazado_876245" data-name="Trazado 876245" d="M116.162,153.489l-8.712,7.775c-.518.462.1,1.367.62.9l8.712-7.775c.518-.462-.1-1.367-.62-.9" transform="translate(9.862 14.101)" fill="#8bccbf"/>
            <path id="Trazado_876246" data-name="Trazado 876246" d="M201.045,148.047l-20.323,1.547a.546.546,0,0,0,.083,1.089l20.322-1.547a.546.546,0,0,0-.082-1.089" transform="translate(16.572 13.612)" fill="#0a8979"/>
            <path id="Trazado_876247" data-name="Trazado 876247" d="M201.576,156.973l-18.785,6.06c-.669.216-.3,1.245.368,1.029L201.945,158c.668-.216.3-1.245-.369-1.029" transform="translate(16.775 14.43)" fill="#0a8979"/>
            <path id="Trazado_876248" data-name="Trazado 876248" d="M215.228,127.321c-.2-.674-1.225-.3-1.029.369q8.809,30.157,14.651,61.061c.129.682,1.219.608,1.089-.082q-5.857-31.016-14.711-61.348" transform="translate(19.693 11.674)" fill="#0a8979"/>
            <path id="Trazado_876249" data-name="Trazado 876249" d="M229.414,124.4c-4.612,6.08-12.946-.925-18.925.5-2.891.691-5.067,2.858-7.8,3.895-3.459,1.311-6.368-.52-9.485-1.792a10.48,10.48,0,0,0-6.2-.791,46.21,46.21,0,0,1-4.9,1.168c-2.24.182-4.36-.592-6.446-1.282-4.069-1.346-9.365-2.466-11.84,2.088-.336.619.648,1.094.982.478,3.562-6.55,12.917.627,18.383-.343,1.651-.293,3.216-1.02,4.891-1.191a10.144,10.144,0,0,1,5.008,1c2.187.9,4.308,2.161,6.733,2.261a10.7,10.7,0,0,0,5.82-1.9c3.595-2.115,6.435-3.238,10.656-2.2,4.632,1.135,10.425,3.454,13.945-1.186.424-.558-.4-1.273-.828-.712" transform="translate(15.057 11.419)" fill="#0a8979"/>
            <path id="Trazado_876250" data-name="Trazado 876250" d="M200.35,138.823c-6.138,5.791-16.891-4.849-22.062,3.472-.371.6.614,1.07.982.478,3.121-5.022,9.587-1.817,14.01-1.193,2.909.411,5.705.024,7.9-2.045.512-.483-.321-1.19-.828-.712" transform="translate(16.386 12.75)" fill="#0a8979"/>
            <path id="Trazado_876251" data-name="Trazado 876251" d="M229.993,137.241c-3.98-3.122-7.828.9-11.679,1.987-5.428,1.531-10.513-3.8-15.845-.706-.607.353.015,1.25.621.9,4.478-2.6,9,1.4,13.612,1.177,4.084-.2,8.663-5.6,12.579-2.529.553.434,1.267-.393.712-.828" transform="translate(18.594 12.512)" fill="#0a8979"/>
            <path id="Trazado_876252" data-name="Trazado 876252" d="M229.86,149.733c-4.3,3.332-8.265,1.623-13.113,1.228a7.646,7.646,0,0,0-6.493,2.125c-.486.509.344,1.219.829.712,3.213-3.361,7.9-.988,11.781-.753a11.034,11.034,0,0,0,7.616-2.413c.554-.428-.062-1.33-.62-.9" transform="translate(19.319 13.757)" fill="#0a8979"/>
            <path id="Trazado_876253" data-name="Trazado 876253" d="M234.581,163.6c-5.346,2.4-10.568-.962-15.925-1.461-4.064-.378-7.284,1.471-10.608,3.544a18.618,18.618,0,0,1-6.387,2.947c-2.944.53-5.761-.5-8.634-.988-3.223-.545-6.734-.247-8.873,2.491-.432.553.394,1.267.828.712,3.487-4.462,9.513-1.313,14.024-.986,3.651.265,6.665-1.408,9.663-3.277a24.59,24.59,0,0,1,5.691-2.964c2.808-.856,5.639-.278,8.4.462,4.063,1.089,8.144,2.364,12.192.548.636-.286.274-1.317-.369-1.029" transform="translate(16.921 14.903)" fill="#0a8979"/>
            <path id="Trazado_876254" data-name="Trazado 876254" d="M239.442,176.189c-5.69-3.239-11.869-2.956-17.621-.076-4.12,2.063-7.379,3.261-12,2.057-3.2-.834-6.364-2.192-9.732-1.976-3.059.194-5.7,1.765-8.43,2.994-4.076,1.834-7.85,1.688-12.133.651-5.573-1.35-12.158-3.123-16.557,1.771-.471.523.358,1.235.829.712,5.344-5.947,13.731-1.116,20.2-.559a15.684,15.684,0,0,0,8.026-1.546c3.059-1.377,5.912-3.1,9.39-2.918,6.036.31,11.108,4.1,17.193,1.6,3.2-1.317,6-3.321,9.491-3.857a16.7,16.7,0,0,1,10.858,2.132c.613.348,1.087-.636.478-.982" transform="translate(14.972 15.986)" fill="#0a8979"/>
            <path id="Trazado_876255" data-name="Trazado 876255" d="M65.531,123.795c-2.109,0-1.852,3.266.247,3.266s1.852-3.266-.247-3.266" transform="translate(5.891 11.383)" fill="#ffd15f"/>
            <path id="Trazado_876256" data-name="Trazado 876256" d="M73.981,123.255c-2.109,0-1.852,3.267.247,3.267s1.852-3.267-.247-3.267" transform="translate(6.668 11.333)" fill="#ffd15f"/>
            <path id="Trazado_876257" data-name="Trazado 876257" d="M85.127,124.154c-2.109,0-1.852,3.266.247,3.266s1.852-3.266-.247-3.266" transform="translate(7.693 11.416)" fill="#ffd15f"/>
            <path id="Trazado_876258" data-name="Trazado 876258" d="M98.25,123.615c-2.109,0-1.852,3.267.247,3.267s1.852-3.267-.247-3.267" transform="translate(8.9 11.366)" fill="#ffd15f"/>
            <path id="Trazado_876259" data-name="Trazado 876259" d="M106.7,123.705c-2.109,0-1.852,3.267.247,3.267s1.852-3.267-.247-3.267" transform="translate(9.677 11.374)" fill="#ffd15f"/>
            <path id="Trazado_876260" data-name="Trazado 876260" d="M119.913,123.255c-2.109,0-1.852,3.267.247,3.267s1.852-3.267-.247-3.267" transform="translate(10.891 11.333)" fill="#ffd15f"/>
            <path id="Trazado_876261" data-name="Trazado 876261" d="M102.565,118.312c-2.109,0-1.852,3.266.247,3.266s1.852-3.266-.247-3.266" transform="translate(9.296 10.878)" fill="#ffd15f"/>
            <path id="Trazado_876262" data-name="Trazado 876262" d="M114.52,119.031c-2.109,0-1.852,3.266.247,3.266s1.852-3.266-.247-3.266" transform="translate(10.396 10.945)" fill="#ffd15f"/>
            <path id="Trazado_876263" data-name="Trazado 876263" d="M111.823,129.008c-2.109,0-1.852,3.267.247,3.267s1.852-3.267-.247-3.267" transform="translate(10.148 11.862)" fill="#ffd15f"/>
            <path id="Trazado_876264" data-name="Trazado 876264" d="M100.767,129.458c-2.109,0-1.852,3.267.247,3.267s1.852-3.267-.247-3.267" transform="translate(9.131 11.903)" fill="#ffd15f"/>
            <path id="Trazado_876265" data-name="Trazado 876265" d="M90.43,128.829c-2.109,0-1.852,3.267.247,3.267s1.852-3.267-.247-3.267" transform="translate(8.181 11.845)" fill="#ffd15f"/>
            <path id="Trazado_876266" data-name="Trazado 876266" d="M80,129.817c-2.109,0-1.852,3.266.247,3.266s1.852-3.266-.247-3.266" transform="translate(7.222 11.936)" fill="#ffd15f"/>
            <path id="Trazado_876267" data-name="Trazado 876267" d="M72.453,132.963c-2.109,0-1.852,3.267.247,3.267s1.852-3.267-.247-3.267" transform="translate(6.528 12.226)" fill="#ffd15f"/>
            <path id="Trazado_876268" data-name="Trazado 876268" d="M77.217,141.5c-2.109,0-1.852,3.267.247,3.267s1.852-3.267-.247-3.267" transform="translate(6.966 13.011)" fill="#ffd15f"/>
            <path id="Trazado_876269" data-name="Trazado 876269" d="M80.183,135.93c-2.109,0-1.852,3.266.247,3.266s1.852-3.266-.247-3.266" transform="translate(7.238 12.498)" fill="#ffd15f"/>
            <path id="Trazado_876270" data-name="Trazado 876270" d="M80.632,148.424c-2.109,0-1.852,3.266.247,3.266s1.852-3.266-.247-3.266" transform="translate(7.28 13.647)" fill="#ffd15f"/>
            <path id="Trazado_876271" data-name="Trazado 876271" d="M87.374,143.93c-2.109,0-1.852,3.266.247,3.266s1.852-3.266-.247-3.266" transform="translate(7.9 13.234)" fill="#ffd15f"/>
            <path id="Trazado_876272" data-name="Trazado 876272" d="M84.587,153.368c-2.109,0-1.852,3.267.247,3.267s1.852-3.267-.247-3.267" transform="translate(7.643 14.102)" fill="#ffd15f"/>
            <path id="Trazado_876273" data-name="Trazado 876273" d="M92.857,147.615c-2.109,0-1.852,3.267.247,3.267s1.852-3.267-.247-3.267" transform="translate(8.404 13.573)" fill="#ffd15f"/>
            <path id="Trazado_876274" data-name="Trazado 876274" d="M100.318,146.447c-2.109,0-1.852,3.266.247,3.266s1.852-3.266-.247-3.266" transform="translate(9.09 13.465)" fill="#ffd15f"/>
            <path id="Trazado_876275" data-name="Trazado 876275" d="M96.273,153.278c-2.109,0-1.852,3.266.247,3.266s1.852-3.266-.247-3.266" transform="translate(8.718 14.093)" fill="#ffd15f"/>
            <path id="Trazado_876276" data-name="Trazado 876276" d="M56,177.637c-2.109,0-1.852,3.267.247,3.267s1.852-3.267-.247-3.267" transform="translate(5.015 16.333)" fill="#ffd15f"/>
            <path id="Trazado_876277" data-name="Trazado 876277" d="M60.587,169.278c-2.109,0-1.852,3.266.247,3.266s1.852-3.266-.247-3.266" transform="translate(5.437 15.565)" fill="#ffd15f"/>
            <path id="Trazado_876278" data-name="Trazado 876278" d="M69.621,164.963c-2.109,0-1.852,3.267.247,3.267s1.852-3.267-.247-3.267" transform="translate(6.267 15.168)" fill="#ffd15f"/>
            <path id="Trazado_876279" data-name="Trazado 876279" d="M69.621,173.053c-2.109,0-1.852,3.266.247,3.266s1.852-3.266-.247-3.266" transform="translate(6.267 15.912)" fill="#ffd15f"/>
            <path id="Trazado_876280" data-name="Trazado 876280" d="M64.5,179.39c-2.109,0-1.852,3.267.247,3.267s1.852-3.267-.247-3.267" transform="translate(5.796 16.494)" fill="#ffd15f"/>
            <path id="Trazado_876281" data-name="Trazado 876281" d="M79.194,178.447c-2.109,0-1.852,3.266.247,3.266s1.852-3.266-.247-3.266" transform="translate(7.147 16.408)" fill="#ffd15f"/>
            <path id="Trazado_876282" data-name="Trazado 876282" d="M79.329,167.93c-2.109,0-1.852,3.266.247,3.266s1.852-3.266-.247-3.266" transform="translate(7.16 15.441)" fill="#ffd15f"/>
            <path id="Trazado_876283" data-name="Trazado 876283" d="M91.329,165.233c-2.109,0-1.852,3.267.247,3.267s1.852-3.267-.247-3.267" transform="translate(8.263 15.193)" fill="#ffd15f"/>
            <path id="Trazado_876284" data-name="Trazado 876284" d="M86.2,173.323c-2.109,0-1.852,3.266.247,3.266s1.852-3.266-.247-3.266" transform="translate(7.792 15.937)" fill="#ffd15f"/>
            <path id="Trazado_876285" data-name="Trazado 876285" d="M94.7,178.447c-2.109,0-1.852,3.266.247,3.266s1.852-3.266-.247-3.266" transform="translate(8.573 16.408)" fill="#ffd15f"/>
            <path id="Trazado_876286" data-name="Trazado 876286" d="M97.936,169.952c-2.109,0-1.852,3.267.247,3.267s1.852-3.267-.247-3.267" transform="translate(8.871 15.627)" fill="#ffd15f"/>
            <path id="Trazado_876287" data-name="Trazado 876287" d="M101.172,179.525c-2.109,0-1.852,3.267.247,3.267s1.852-3.267-.247-3.267" transform="translate(9.168 16.507)" fill="#ffd15f"/>
            <path id="Trazado_876288" data-name="Trazado 876288" d="M111.689,177.637c-2.109,0-1.852,3.267.247,3.267s1.852-3.267-.247-3.267" transform="translate(10.135 16.333)" fill="#ffd15f"/>
          </g>
        </g>
        <g id="Grupo_1102321" data-name="Grupo 1102321" transform="translate(237.123 54.656)">
          <rect id="Rectángulo_401725" data-name="Rectángulo 401725" width="57.754" height="85.137" rx="10" transform="translate(0)" fill="#6cc6b7"/>
          <g id="Grupo_1102320" data-name="Grupo 1102320" transform="translate(10.64 8.543)">
            <ellipse id="Elipse_11619" data-name="Elipse 11619" cx="14.033" cy="13.453" rx="14.033" ry="13.453" transform="translate(4.239)" fill="#fff"/>
            <rect id="Rectángulo_401726" data-name="Rectángulo 401726" width="14.359" height="2.613" transform="translate(8.056 31.553)" fill="#f5a2aa"/>
            <rect id="Rectángulo_401727" data-name="Rectángulo 401727" width="35.022" height="2.613" rx="1.306" transform="translate(0 38.52)" fill="#c6e7ea"/>
            <rect id="Rectángulo_401728" data-name="Rectángulo 401728" width="35.197" height="3.309" rx="1.655" transform="translate(0.001 43.746)" fill="#c6e7ea"/>
            <rect id="Rectángulo_401729" data-name="Rectángulo 401729" width="26.267" height="2.613" rx="1.306" transform="translate(9.282 49.842)" fill="#c6e7ea"/>
            <rect id="Rectángulo_401730" data-name="Rectángulo 401730" width="35.197" height="2.786" rx="1.393" transform="translate(0.176 54.893)" fill="#c6e7ea"/>
            <path id="Trazado_876289" data-name="Trazado 876289" d="M2664.461,534.17s.372,2.311,5.25,3l.047,1.248s-.975,4.483-2.6,5.084c0,0-.232,7.118,3.532,6.563,0,0,3.252-.786,4.832-2.449s1.254-3.1.7-3.42-3.717-3.651-4.09-5.546-.883-6.748-5.854-5.962l-.418.046a3.22,3.22,0,0,0-3.253.416c-1.9,1.2-2.509,4.992-2.509,5.177a6.913,6.913,0,0,1-1.44,2.958c-.836.739-2.974,3-3.16,3.929a3.775,3.775,0,0,0,2.649,3.466c1.719.416,6.412.139,6.644-1.617s-2.6-7.164-2.6-7.164l-.046-1.895s2.37-2.5,2.323-3.836Z" transform="translate(-2647.263 -528.756)" fill="#6cc6b7"/>
          </g>
        </g>
      </g>
    </g>
  </g>
</svg>
