<svg xmlns="http://www.w3.org/2000/svg" xmlns:xlink="http://www.w3.org/1999/xlink" width="309" height="210.691" viewBox="0 0 309 210.691">
  <defs>
    <clipPath id="clip-path">
      <rect id="Rectángulo_401749" data-name="Rectángulo 401749" width="309" height="210.691" transform="translate(962.068 3190)" fill="#fff" stroke="#707070" stroke-width="1"/>
    </clipPath>
  </defs>
  <g id="t3" transform="translate(-962.068 -3190)" clip-path="url(#clip-path)">
    <g id="_5363" data-name="5363" transform="translate(988.715 3173.076)">
      <g id="OBJECTS" transform="translate(0 0)">
        <path id="Trazado_876291" data-name="Trazado 876291" d="M390.376,347.133h-17.21a15.63,15.63,0,0,1-15.586-15.586h0a15.63,15.63,0,0,1,15.586-15.586h17.21a15.63,15.63,0,0,1,15.586,15.586h0A15.63,15.63,0,0,1,390.376,347.133Z" transform="translate(-160.695 -176.166)" fill="#a595fa"/>
        <path id="Trazado_876292" data-name="Trazado 876292" d="M202.077,127.2h-1.55a9.7,9.7,0,0,0-.409-.928l1.184-1.184a3,3,0,0,0-4.247-4.241l-1.184,1.184c-.281-.14-.561-.269-.861-.384V119.9a3,3,0,1,0-6.005,0v1.452a10.587,10.587,0,0,0-1.074.366l-1.037-1.037a3,3,0,0,0-4.241,0,3.125,3.125,0,0,0-.653.97,3.051,3.051,0,0,0-.226,1.147,2.977,2.977,0,0,0,.879,2.124l.714.714a9.363,9.363,0,0,0-.671,1.33h-.983a3,3,0,0,0,0,6.005h.574a9.364,9.364,0,0,0,.616,1.7l-.415.415a3,3,0,1,0,4.241,4.247l.305-.305a9.263,9.263,0,0,0,1.739.726v.519a3,3,0,1,0,6,0v-.665a9.609,9.609,0,0,0,1.526-.7l.586.586a3,3,0,0,0,4.241-4.247l-.806-.806a9.649,9.649,0,0,0,.445-1.239h1.3a3,3,0,0,0,0-6.005Zm-10.35,9.16a6.115,6.115,0,1,1,6.115-6.115A6.118,6.118,0,0,1,191.727,136.361Z" transform="translate(-90.984 -98.586)" fill="#dcdcff"/>
        <path id="Trazado_876293" data-name="Trazado 876293" d="M72.085,392.5H69.8a13.078,13.078,0,0,0-.6-1.367l1.745-1.745a4.419,4.419,0,0,0-6.249-6.249l-1.745,1.745a13.029,13.029,0,0,0-1.263-.561v-2.575a4.421,4.421,0,0,0-8.843,0v2.136a13.785,13.785,0,0,0-1.581.543L49.725,382.9a4.424,4.424,0,0,0-6.255,0,4.481,4.481,0,0,0-.958,1.434,4.545,4.545,0,0,0-.336,1.7,4.369,4.369,0,0,0,1.294,3.125l1.05,1.05a14.089,14.089,0,0,0-.989,1.965H42.078a4.418,4.418,0,1,0,0,8.837h.848a13.888,13.888,0,0,0,.909,2.5l-.6.6a4.419,4.419,0,0,0,6.249,6.249l.445-.445A13.41,13.41,0,0,0,52.5,410.98v.763a4.418,4.418,0,1,0,8.837,0v-.976a13.964,13.964,0,0,0,2.252-1.037l.86.867a4.419,4.419,0,0,0,6.249-6.249l-1.184-1.184a13.846,13.846,0,0,0,.659-1.825h1.91a4.418,4.418,0,1,0,0-8.837ZM56.835,406.007A9.008,9.008,0,1,1,65.842,397,9.009,9.009,0,0,1,56.835,406.007Z" transform="translate(-36.012 -200.083)" fill="#dcdcff"/>
        <path id="Trazado_876294" data-name="Trazado 876294" d="M262.479,206.832h-2.49c-.2-.513-.415-1.007-.659-1.5l1.9-1.9a4.816,4.816,0,0,0-6.811-6.811l-1.9,1.9a13.321,13.321,0,0,0-1.379-.61v-2.8a4.821,4.821,0,0,0-9.642,0v2.331a14.656,14.656,0,0,0-1.721.592l-1.666-1.666a4.816,4.816,0,0,0-6.811,6.811l1.141,1.141a15.887,15.887,0,0,0-1.074,2.136h-1.581a4.821,4.821,0,1,0,0,9.642h.922a15.459,15.459,0,0,0,.989,2.728l-.659.659a4.816,4.816,0,0,0,6.811,6.811l.488-.488a15.009,15.009,0,0,0,2.8,1.166v.836a4.818,4.818,0,1,0,9.636,0v-1.062a15.4,15.4,0,0,0,2.453-1.129l.94.94a4.816,4.816,0,0,0,6.811-6.811l-1.288-1.288a14.852,14.852,0,0,0,.72-1.989h2.087a4.821,4.821,0,0,0,0-9.642Zm-16.618,14.714a9.819,9.819,0,1,1,9.819-9.819A9.816,9.816,0,0,1,245.862,221.546Z" transform="translate(-109.009 -127.192)" fill="#dcdcff"/>
        <circle id="Elipse_11620" data-name="Elipse 11620" cx="9.77" cy="9.77" r="9.77" transform="translate(35.689 100.206)" fill="#dcdcff"/>
        <circle id="Elipse_11621" data-name="Elipse 11621" cx="7.146" cy="7.146" r="7.146" transform="translate(44.153 17.118)" fill="#dcdcff"/>
        <path id="Trazado_876295" data-name="Trazado 876295" d="M213.265,195.757a3.887,3.887,0,1,1-3.887-3.887A3.886,3.886,0,0,1,213.265,195.757Z" transform="translate(-101.421 -127.804)" fill="#dcdcff"/>
        <path id="Trazado_876296" data-name="Trazado 876296" d="M186.435,90.777a3.887,3.887,0,1,1-3.887-3.887A3.886,3.886,0,0,1,186.435,90.777Z" transform="translate(-90.964 -86.89)" fill="#dcdcff"/>
        <circle id="Elipse_11622" data-name="Elipse 11622" cx="5.456" cy="5.456" r="5.456" transform="translate(118.206 49.252) rotate(-22.5)" fill="#dcdcff"/>
        <path id="Trazado_876297" data-name="Trazado 876297" d="M384.669,356.513,335,356.33c-8.178-.03-17.667,6.255-21.085,13.963l-20.334,45.85h79.536l20.206-45.55c3.417-7.708-.47-14.042-8.648-14.073Z" transform="translate(-135.752 -191.899)" fill="#a595fa"/>
        <circle id="Elipse_11623" data-name="Elipse 11623" cx="14.891" cy="14.891" r="14.891" transform="translate(60.838 45.814) rotate(-9.22)" fill="#332b33"/>
        <circle id="Elipse_11624" data-name="Elipse 11624" cx="2.978" cy="2.978" r="2.978" transform="translate(91.675 87.781)" fill="#ffc05a"/>
        <g id="Grupo_1102324" data-name="Grupo 1102324" transform="translate(21.112 108.451)">
          <path id="Trazado_876298" data-name="Trazado 876298" d="M230.3,305.416a10.644,10.644,0,0,1,1.733.86,9.351,9.351,0,0,1,.806.549l.378.3.183.153.043.043.012.012.4.391.391.391.33.342,1.233,1.312,2.35,2.563,4.6,5.1,9.093,10.2-5.773-1.886L292.54,322.2a3.434,3.434,0,0,1,1.013,6.774l-45.477,10.185a5.78,5.78,0,0,1-5.029-1.245l-.745-.641-10.289-8.873-5.151-4.394-2.557-2.148-1.239-1.019-.293-.238-.238-.177-.238-.177h-.006s-.006-.012.024.018l.14.122c.1.079.2.159.293.232a5,5,0,0,0,.641.415,6.6,6.6,0,0,0,1.391.6,8.569,8.569,0,0,1,5.529-16.221Z" transform="translate(-127.789 -280.328)" fill="#ae4e3e"/>
          <path id="Trazado_876299" data-name="Trazado 876299" d="M173.241,287.271a15.691,15.691,0,0,0,.928-7.647,12.783,12.783,0,0,0-1.837-4.888,19.581,19.581,0,0,0-6.573-6.164,31.41,31.41,0,0,0-5.767-2.71q-.43-.156-.861-.293c-1.117-.366-2.24-.683-3.381-.97-3.906,3.271-9.825,3.942-14.732,3.552a20.593,20.593,0,0,1-5.328-1.068,19,19,0,0,0-2.563-1.05c-1.1-.22-1.928.317-2.948.659-2.9.97-6.084.769-8.922,1.941-2.35.97-4.064,3.009-5.547,5a21.408,21.408,0,0,0-3.955,9.252,16.965,16.965,0,0,0-.146,4.614c.031.281.067.555.116.83a1.1,1.1,0,0,1,.812.452,38.87,38.87,0,0,1,5.6,10.655c.067.189.128.384.189.574a1.02,1.02,0,0,1,.3.305c2.35,4.058-.36,7.3.226,11.79-1.788,6.664-2.35,10.857-2.307,13.688a7.911,7.911,0,0,0-.22,1.874v2.069a8.117,8.117,0,0,0,7.415,8.062c-.043.293-.067.47-.067.488.14,1.623.677.488,1.166-.47a8.215,8.215,0,0,0,.958-.11h.055c11.144,1.031,23.007,4.1,34.047,2.258a15.067,15.067,0,0,0,6.145-2.032c3.961-2.71,4.022-11.742,3.18-16.532-.049-.293-.1-.58-.171-.86-1.08-4.974-3.3-9.819-2.954-14.9.439-6.524,5.023-12.315,7.152-18.381Z" transform="translate(-85.909 -264.6)" fill="#ffdcce"/>
          <path id="Trazado_876300" data-name="Trazado 876300" d="M116.5,316.634c-.232-.519-.476-1.031-.726-1.544C116.008,315.6,116.252,316.115,116.5,316.634Z" transform="translate(-87.566 -284.277)" fill="#ffbf80"/>
          <path id="Trazado_876301" data-name="Trazado 876301" d="M171.065,317.315a35.64,35.64,0,0,1-19.37,19.333c-1.013.415-.568,2.081.458,1.66a37.561,37.561,0,0,0,20.572-20.536c.421-1.025-1.245-1.471-1.66-.458Z" transform="translate(-101.344 -284.922)" fill="#fcc2ae"/>
          <path id="Trazado_876302" data-name="Trazado 876302" d="M146.932,433.313c.757-14.945,1.221-26.486,1.037-29.574l-22.5-1.989c0,3.277-.006,15.684.006,31.569h21.451Z" transform="translate(-91.346 -318.052)" fill="#8a4915"/>
          <path id="Trazado_876303" data-name="Trazado 876303" d="M187.366,430.3c-.311-17.936-.6-32.32-.781-36.287l-22.4,2.954c-.055,3.686.8,16.789,2.038,33.333H187.36Z" transform="translate(-106.435 -315.035)" fill="#8a4915"/>
          <path id="Trazado_876304" data-name="Trazado 876304" d="M125.43,382.52v18.473a17.879,17.879,0,0,0,17.826,17.826h10.289a17.879,17.879,0,0,0,17.826-17.826V382.52Z" transform="translate(-91.331 -310.557)" fill="#8a4915"/>
          <path id="Trazado_876305" data-name="Trazado 876305" d="M153.417,440.756c4.742.842,10.5.452,14.408-2.649.6-.476-.244-1.306-.836-.836-3.527,2.8-8.989,3.1-13.255,2.343-.745-.134-1.068,1.013-.317,1.141Z" transform="translate(-102.072 -331.841)" fill="#472a1c"/>
          <line id="Línea_582" data-name="Línea 582" x2="45.801" transform="translate(34.349 76.949)" fill="none" stroke="#c67b30" stroke-miterlimit="10" stroke-width="2.61"/>
          <path id="Trazado_876306" data-name="Trazado 876306" d="M170.173,388.59h-46.5a3.112,3.112,0,0,1-3.1-3.1h0a3.112,3.112,0,0,1,3.1-3.1h46.5a3.112,3.112,0,0,1,3.1,3.1h0A3.112,3.112,0,0,1,170.173,388.59Z" transform="translate(-89.437 -310.506)" fill="#fcc2ae"/>
          <path id="Trazado_876307" data-name="Trazado 876307" d="M94.833,321.988a34.431,34.431,0,0,1,.549-14.622,37.268,37.268,0,0,1,1.483-4.376L73.736,325.027a6.174,6.174,0,0,0-.635,8.239l26.992,31.374,3.485-7.042-17.3-27.462,8.55-8.147Z" transform="translate(-70.437 -279.562)" fill="#ae4e3e"/>
          <path id="Trazado_876308" data-name="Trazado 876308" d="M123.1,409.522c1.214-.5-1.337-5.663-1.337-5.663s3.747,6.518,4.736,6.3c1.556-.336-2.826-7.683-2.826-7.683s4.974,7.872,6.316,6.762-4.461-8.348-4.461-8.348,5.883,6.469,6.866,5.315-6.927-9.2-6.927-9.2,5.675.6,5.871-.543c.336-1.935-11.668-3.729-11.668-3.729l-5.395,3.894s7.592,13.389,8.812,12.889Z" transform="translate(-86.986 -314.54)" fill="#ae4e3e"/>
          <path id="Trazado_876309" data-name="Trazado 876309" d="M117.617,266.176a44.785,44.785,0,0,0-17.045,3.314,159.819,159.819,0,0,1-28.188,9.087,3.621,3.621,0,0,0-2.575,1.4,3.337,3.337,0,0,0-.214,1.9,27.676,27.676,0,0,0,12.089,20.139,25.043,25.043,0,0,1,4.992,3.637c1.282,1.41,2.063,3.21,3.289,4.669,3.173,3.784,11.449,3.814,16.374,3.5,3.546-11.882-4.144-21.366-.568-31.661,2.227-6.414,7.329-10.924,11.845-16Z" transform="translate(-69.555 -265.212)" fill="#ffdcce"/>
          <path id="Trazado_876310" data-name="Trazado 876310" d="M185.91,266.776a44.784,44.784,0,0,1,17.045,3.314,159.817,159.817,0,0,0,28.188,9.087,3.621,3.621,0,0,1,2.575,1.4,3.337,3.337,0,0,1,.214,1.9,27.676,27.676,0,0,1-12.089,20.139,25.044,25.044,0,0,0-4.992,3.637c-1.282,1.41-2.063,3.21-3.289,4.669a15.868,15.868,0,0,1-13.06,5.5c-1.465-4.913-13.664-17.02-12.877-21.341,1.111-6.133,2.838-11.986.738-18.027-2.227-6.414,2.057-5.218-2.453-10.289Z" transform="translate(-114.902 -265.446)" fill="#ffdcce"/>
          <path id="Trazado_876311" data-name="Trazado 876311" d="M114.686,297.76l4.485,29.159L109.56,306.09" transform="translate(-85.146 -277.523)" fill="none" stroke="#fcc2ae" stroke-linecap="round" stroke-linejoin="round" stroke-width="3.39"/>
          <path id="Trazado_876312" data-name="Trazado 876312" d="M132.4,401.65,124.81,412.2l4.156,4.241a7.73,7.73,0,0,0,11.613-.653l2.8-3.582-10.967-10.545Z" transform="translate(-91.089 -318.013)" fill="#8a4915"/>
          <path id="Trazado_876313" data-name="Trazado 876313" d="M129.027,418.524,124.81,412.2,132.4,401.65" transform="translate(-91.089 -318.013)" fill="none" stroke="#472a1c" stroke-linecap="round" stroke-linejoin="round" stroke-width="1.56"/>
          <path id="Trazado_876314" data-name="Trazado 876314" d="M208.092,301.75l-7.152,18.381,16.093-17.3" transform="translate(-120.76 -279.078)" fill="none" stroke="#fcc2ae" stroke-linecap="round" stroke-linejoin="round" stroke-width="3.39"/>
          <path id="Trazado_876315" data-name="Trazado 876315" d="M349.075,343.532c.775-1.221-4.8-4.229-4.8-4.229s7.512,3.454,8.263,2.636c1.178-1.294-7.427-5.09-7.427-5.09s9.471,3.894,9.972,2.038-9.313-4.644-9.313-4.644,9.392,2.051,9.539.4-12.065-3.839-12.065-3.839,5.474-3.07,4.919-4.229c-.934-1.947-12.834,4.089-12.834,4.089l-2.356,6.927s15.336,7.165,16.111,5.944Z" transform="translate(-172.216 -288.602)" fill="#ae4e3e"/>
          <path id="Trazado_876316" data-name="Trazado 876316" d="M135.821,267.5s-3.051,31.429,10.985,37.532c0,0,17.7-3.967,26.242-36.921" transform="translate(-95.272 -265.73)" fill="none" stroke="#a595fa" stroke-linecap="round" stroke-linejoin="round" stroke-width="5"/>
          <rect id="Rectángulo_401732" data-name="Rectángulo 401732" width="16.172" height="23.495" transform="translate(43.296 37.471)" fill="#a595fa"/>
          <rect id="Rectángulo_401733" data-name="Rectángulo 401733" width="16.886" height="12.205" transform="translate(45.432 58.421) rotate(-90)" fill="#fcf6f1"/>
          <rect id="Rectángulo_401734" data-name="Rectángulo 401734" width="3.662" height="5.084" transform="translate(50.106 56.389) rotate(-90)" fill="#dcdcff"/>
          <line id="Línea_583" data-name="Línea 583" y1="7.122" transform="translate(50.314 43.573)" fill="none" stroke="#2d201b" stroke-linecap="round" stroke-linejoin="round" stroke-width="1"/>
          <line id="Línea_584" data-name="Línea 584" y1="7.122" transform="translate(52.145 43.573)" fill="none" stroke="#2d201b" stroke-linecap="round" stroke-linejoin="round" stroke-width="1"/>
          <line id="Línea_585" data-name="Línea 585" y1="7.122" transform="translate(53.975 43.573)" fill="none" stroke="#2d201b" stroke-linecap="round" stroke-linejoin="round" stroke-width="1"/>
          <path id="Trazado_876317" data-name="Trazado 876317" d="M152.551,328.552h0a1.224,1.224,0,0,1-1.221-1.221v-2.441a1.224,1.224,0,0,1,1.221-1.22h0a1.224,1.224,0,0,1,1.221,1.22v2.441A1.224,1.224,0,0,1,152.551,328.552Z" transform="translate(-101.425 -287.621)" fill="#2d201b"/>
        </g>
        <path id="Trazado_876318" data-name="Trazado 876318" d="M168.856,252.286c-4.15-1.855-5.852-13.1-5.389-17.625l-8.892-1.172c.354,3.094-1.385,13.823-2.893,16.55-.781,1.422-1.733,2.911-3.253,3.485,2.49,2.832,6.5,4.022,10.265,3.82S166.689,255.368,168.856,252.286Z" transform="translate(-79.183 -144.025)" fill="#ae4e3e"/>
        <path id="Trazado_876319" data-name="Trazado 876319" d="M166.931,229.965h0a9.69,9.69,0,0,0,10.405-8.861l1.117-13.969a9.69,9.69,0,0,0-8.861-10.405h0a9.69,9.69,0,0,0-10.405,8.861L158.07,219.56A9.69,9.69,0,0,0,166.931,229.965Z" transform="translate(-82.928 -129.686)" fill="#ae4e3e"/>
        <path id="Trazado_876320" data-name="Trazado 876320" d="M162.488,211.714c1.349-1.977.568-4.723.69-6.969.159-2.984,3.57-4.241,5.907-2.789a13.381,13.381,0,0,0,6.225,2.276,4.576,4.576,0,0,0,3.033-.763,9.661,9.661,0,0,0-18.851,2.112l-.7,8.757a6.876,6.876,0,0,0,3.7-2.624Z" transform="translate(-83.22 -129.682)" fill="#332b33"/>
        <path id="Trazado_876321" data-name="Trazado 876321" d="M149.392,225.394a3.722,3.722,0,1,0,4.009-3.411A3.725,3.725,0,0,0,149.392,225.394Z" transform="translate(-79.553 -139.535)" fill="#ae4e3e"/>
        <path id="Trazado_876322" data-name="Trazado 876322" d="M179.908,236.77c0,.061.006.128.006.189a3.032,3.032,0,1,1-6.054,0c0-.061,0-.128.006-.189H179.9Z" transform="translate(-89.094 -145.303)" fill="#fcf6f1"/>
        <circle id="Elipse_11625" data-name="Elipse 11625" cx="2.978" cy="2.978" r="2.978" transform="translate(71.249 88.062)" fill="#ffc05a"/>
        <line id="Línea_586" data-name="Línea 586" x2="246.598" y2="0.763" transform="translate(0 223.578)" fill="none" stroke="#2d1a14" stroke-linecap="round" stroke-linejoin="round" stroke-width="2.33"/>
        <path id="Trazado_876323" data-name="Trazado 876323" d="M265.629,409.575a.995.995,0,1,1-.995-.995A.995.995,0,0,1,265.629,409.575Z" transform="translate(-124.084 -212.263)" fill="#fff"/>
        <line id="Línea_587" data-name="Línea 587" y1="50.042" x2="22.781" transform="translate(213.417 173.792)" fill="none" stroke="#2d1a14" stroke-linecap="round" stroke-linejoin="round" stroke-width="1.6"/>
        <path id="Trazado_876324" data-name="Trazado 876324" d="M63,231.3V217.67H76.2" transform="translate(-45.888 -137.859)" fill="none" stroke="#dcdcff" stroke-miterlimit="10" stroke-width="10"/>
        <g id="Grupo_1102325" data-name="Grupo 1102325" transform="translate(171.07 24.264)">
          <circle id="Elipse_11626" data-name="Elipse 11626" cx="19.758" cy="19.758" r="19.758" transform="translate(0 15.122) rotate(-22.5)" fill="#ffc05a"/>
          <path id="Trazado_876325" data-name="Trazado 876325" d="M328.3,174.308h0a7.655,7.655,0,0,1-7.632-7.632v-6.044A7.655,7.655,0,0,1,328.3,153h0a7.655,7.655,0,0,1,7.632,7.632v6.044A7.655,7.655,0,0,1,328.3,174.308Z" transform="translate(-301.69 -120.667)" fill="#ffc05a"/>
          <line id="Línea_588" data-name="Línea 588" y2="20.989" transform="translate(25.019 28.516)" fill="none" stroke="#2d1a14" stroke-linecap="round" stroke-linejoin="round" stroke-width="1.6"/>
          <line id="Línea_589" data-name="Línea 589" y2="20.989" transform="translate(28.678 28.516)" fill="none" stroke="#2d1a14" stroke-linecap="round" stroke-linejoin="round" stroke-width="1.6"/>
          <path id="Trazado_876326" data-name="Trazado 876326" d="M321,186.15v3.826a7.475,7.475,0,0,0,14.95,0V186.15H321Z" transform="translate(-301.863 -138.005)" fill="#a595fa"/>
          <path id="Trazado_876327" data-name="Trazado 876327" d="M335.883,190.9a7.183,7.183,0,0,0,.062-.911V186.16H321v3.826a7.189,7.189,0,0,0,.062.911h14.821Z" transform="translate(-301.863 -138.01)" fill="#c2c0f2"/>
          <path id="Trazado_876328" data-name="Trazado 876328" d="M334.624,211.744h0A2.634,2.634,0,0,1,332,209.12v-3.5A2.634,2.634,0,0,1,334.624,203h0a2.634,2.634,0,0,1,2.624,2.624v3.5A2.634,2.634,0,0,1,334.624,211.744Z" transform="translate(-307.616 -146.817)" fill="#a595fa"/>
          <path id="Trazado_876329" data-name="Trazado 876329" d="M332,213v1.35a2.624,2.624,0,1,0,5.247,0V213Z" transform="translate(-307.616 -152.047)" fill="#7369d1"/>
          <path id="Trazado_876330" data-name="Trazado 876330" d="M305.191,124.13a17.627,17.627,0,0,0-1.183,12.34" transform="translate(-292.665 -105.569)" fill="none" stroke="#fcf6f1" stroke-linecap="round" stroke-linejoin="round" stroke-width="5"/>
          <path id="Trazado_876331" data-name="Trazado 876331" d="M315.993,110.33a15.946,15.946,0,0,0-3.043,2.619" transform="translate(-297.653 -98.352)" fill="none" stroke="#fcf6f1" stroke-linecap="round" stroke-linejoin="round" stroke-width="5"/>
          <path id="Trazado_876332" data-name="Trazado 876332" d="M359.621,157.88a12.221,12.221,0,0,1-3.291,4.193" transform="translate(-320.34 -123.22)" fill="none" stroke="#fcf6f1" stroke-linecap="round" stroke-linejoin="round" stroke-width="5"/>
          <path id="Trazado_876333" data-name="Trazado 876333" d="M366.8,139.67a20.81,20.81,0,0,1-.482,4.312" transform="translate(-325.565 -113.696)" fill="none" stroke="#fcf6f1" stroke-linecap="round" stroke-linejoin="round" stroke-width="5"/>
          <path id="Trazado_876334" data-name="Trazado 876334" d="M352.428,123.684a3.344,3.344,0,1,1-3.344-3.344A3.345,3.345,0,0,1,352.428,123.684Z" transform="translate(-314.801 -103.587)" fill="#fcf6f1"/>
          <circle id="Elipse_11627" data-name="Elipse 11627" cx="1.67" cy="1.67" r="1.67" transform="translate(32.174 26.608)" fill="#fcf6f1"/>
          <path id="Trazado_876335" data-name="Trazado 876335" d="M319.968,158.319a1.989,1.989,0,1,1-1.989-1.989A1.991,1.991,0,0,1,319.968,158.319Z" transform="translate(-299.243 -122.409)" fill="#fcf6f1"/>
        </g>
        <path id="Trazado_876336" data-name="Trazado 876336" d="M253.688,129.09l2.569,4.7,4.7,2.569-4.7,2.569-2.569,4.7-2.569-4.7-4.7-2.569,4.7-2.569Z" transform="translate(-117.373 -103.337)" fill="#ffc05a"/>
        <path id="Trazado_876337" data-name="Trazado 876337" d="M209.579,219.74l1.709,3.131,3.125,1.709-3.125,1.709-1.709,3.125-1.709-3.125-3.131-1.709,3.131-1.709Z" transform="translate(-101.129 -138.666)" fill="#ffc05a"/>
        <path id="Trazado_876338" data-name="Trazado 876338" d="M90.913,136.74l1.709,3.131,3.125,1.709-3.125,1.709-1.709,3.125L89.2,143.288l-3.125-1.709,3.125-1.709Z" transform="translate(-54.883 -106.318)" fill="#ffc05a"/>
        <path id="Trazado_876339" data-name="Trazado 876339" d="M152.7,101.43l1.275,2.325,2.331,1.275-2.331,1.275-1.275,2.331-1.275-2.331-2.331-1.275,2.331-1.275Z" transform="translate(-79.44 -92.557)" fill="#ffc05a"/>
        <path id="Trazado_876340" data-name="Trazado 876340" d="M398.611,160.18l1.275,2.331,2.331,1.275-2.331,1.275-1.275,2.325-1.275-2.325-2.325-1.275,2.325-1.275Z" transform="translate(-175.283 -115.453)" fill="#ffc05a"/>
        <path id="Trazado_876341" data-name="Trazado 876341" d="M433.975,129.59l2.966,5.419,5.425,2.966-5.425,2.966-2.966,5.425-2.966-5.425-5.419-2.966,5.419-2.966Z" transform="translate(-187.201 -103.532)" fill="#ffc05a"/>
        <path id="Trazado_876342" data-name="Trazado 876342" d="M53.091,261.97l2.166,3.955,3.955,2.166-3.955,2.166-2.166,3.955-2.166-3.955-3.955-2.166,3.955-2.166Z" transform="translate(-39.641 -155.124)" fill="#ffc05a"/>
        <path id="Trazado_876343" data-name="Trazado 876343" d="M52.169,336.88l1.751,3.2,3.2,1.751-3.2,1.751-1.751,3.2-1.751-3.2-3.2-1.751,3.2-1.751Z" transform="translate(-39.738 -184.319)" fill="#ffc05a"/>
        <path id="Trazado_876344" data-name="Trazado 876344" d="M454.382,336.1l-1.782-2.948-3.1-1.526,2.954-1.788,1.526-3.094,1.782,2.954,3.1,1.52L455.908,333Z" transform="translate(-196.519 -180.367)" fill="#ffc05a"/>
        <g id="Grupo_1102327" data-name="Grupo 1102327" transform="translate(207.044 95.956)">
          <rect id="Rectángulo_401735" data-name="Rectángulo 401735" width="58.227" height="85.833" rx="10" transform="translate(0)" fill="#676df7"/>
          <g id="Grupo_1102326" data-name="Grupo 1102326" transform="translate(10.727 8.613)">
            <ellipse id="Elipse_11628" data-name="Elipse 11628" cx="14.148" cy="13.563" rx="14.148" ry="13.563" transform="translate(4.274)" fill="#fff"/>
            <rect id="Rectángulo_401736" data-name="Rectángulo 401736" width="14.477" height="2.634" transform="translate(8.121 31.811)" fill="#f5a2aa"/>
            <rect id="Rectángulo_401737" data-name="Rectángulo 401737" width="35.309" height="2.634" rx="1.317" transform="translate(0 38.835)" fill="#c6e7ea"/>
            <rect id="Rectángulo_401738" data-name="Rectángulo 401738" width="35.485" height="3.337" rx="1.668" transform="translate(0.001 44.104)" fill="#c6e7ea"/>
            <rect id="Rectángulo_401739" data-name="Rectángulo 401739" width="26.481" height="2.634" rx="1.317" transform="translate(9.357 50.249)" fill="#c6e7ea"/>
            <rect id="Rectángulo_401740" data-name="Rectángulo 401740" width="35.485" height="2.809" rx="1.405" transform="translate(0.177 55.342)" fill="#c6e7ea"/>
            <path id="Trazado_876345" data-name="Trazado 876345" d="M2664.534,534.184s.375,2.33,5.293,3.029l.047,1.258s-.983,4.519-2.624,5.126c0,0-.235,7.176,3.561,6.616,0,0,3.279-.792,4.872-2.469s1.264-3.122.7-3.448-3.747-3.681-4.123-5.591-.89-6.8-5.9-6.011l-.421.047a3.246,3.246,0,0,0-3.279.42c-1.92,1.212-2.53,5.032-2.53,5.219a6.972,6.972,0,0,1-1.452,2.982c-.843.745-3,3.029-3.186,3.961a3.806,3.806,0,0,0,2.67,3.494c1.733.42,6.465.14,6.7-1.631s-2.624-7.223-2.624-7.223l-.046-1.91s2.389-2.516,2.342-3.867Z" transform="translate(-2647.196 -528.726)" fill="#6cc6b7"/>
          </g>
        </g>
        <g id="Grupo_1102334" data-name="Grupo 1102334" transform="translate(96.197 84.783)">
          <path id="Trazado_876346" data-name="Trazado 876346" d="M330.106,248.563a3.253,3.253,0,1,1-3.253-3.253A3.256,3.256,0,0,1,330.106,248.563Z" transform="translate(-243.649 -233.414)" fill="#dcdcff"/>
          <g id="Grupo_1102328" data-name="Grupo 1102328" transform="translate(60.343 20.794)">
            <ellipse id="Elipse_11629" data-name="Elipse 11629" cx="14.744" cy="14.549" rx="14.744" ry="14.549" fill="#2d201b"/>
            <ellipse id="Elipse_11630" data-name="Elipse 11630" cx="15.635" cy="15.428" rx="15.635" ry="15.428" transform="translate(28.31 1.178)" fill="#2d201b"/>
          </g>
          <path id="Trazado_876347" data-name="Trazado 876347" d="M262.813,364.118l-13.048,3.314-26.785-9.722-3.021,5.914,25.955,17.051a10.509,10.509,0,0,0,7.384,1.6l26.077-4.083Z" transform="translate(-203.257 -277.22)" fill="#f3725f"/>
          <g id="Grupo_1102331" data-name="Grupo 1102331" transform="translate(53.728 17.346)">
            <g id="Grupo_1102330" data-name="Grupo 1102330">
              <path id="Trazado_876348" data-name="Trazado 876348" d="M334.66,281.256a42.331,42.331,0,0,0,3.778,5.395c1.758,2.13,4.437,4.266,7.006,3.247,1.867-.738,2.368-3,3.356-4.754a35.974,35.974,0,0,0,1.886-3.893h-16.02Z" transform="translate(-301.687 -264.767)" fill="#2d201b"/>
              <g id="Grupo_1102329" data-name="Grupo 1102329">
                <path id="Trazado_876349" data-name="Trazado 876349" d="M313.07,318.92c-2.844,1.959-6.164,3.088-9.307,4.528s-6.255,3.32-8.062,6.267c-2.661,4.327-1.9,9.929-.275,14.738s4.064,9.435,4.571,14.488a10.639,10.639,0,0,1-.055,2.954c-.391,2.16-1.721,4.009-2.8,5.92a27.71,27.71,0,0,0-2.813,7.158,11.332,11.332,0,0,0,.031,6.652,9.1,9.1,0,0,0,4.955,4.833,19.827,19.827,0,0,0,6.933,1.391c11.241.635,22.458-2.453,33.7-1.727a10.578,10.578,0,0,0,3.924-.183,7.635,7.635,0,0,0,3.948-3.6,17.917,17.917,0,0,0,1.6-14.653,25.521,25.521,0,0,1-1.153-3.625c-.458-2.655.549-5.315,1.373-7.879a60.221,60.221,0,0,0,2.862-17.869,16.78,16.78,0,0,0-.909-6.42,13.416,13.416,0,0,0-2.7-4.046c-4.113-4.418-9.972-6.9-15.91-7.97s-12.028-.873-18.058-.659" transform="translate(-285.779 -279.448)" fill="#c2c0f2"/>
                <path id="Trazado_876350" data-name="Trazado 876350" d="M345.246,313.322a12.094,12.094,0,0,1-5.932-12.462h-8.623c.11,3.369-1.9,5.755-3.753,8.568-.964,1.465-2.118,2.99-3.808,3.472,2.435,3.265,6.658,4.894,10.729,5S342.646,316.458,345.246,313.322Z" transform="translate(-297.194 -272.409)" fill="#f3725f"/>
                <path id="Trazado_876351" data-name="Trazado 876351" d="M328.866,309.876a13.88,13.88,0,0,0,6.963-2.966,11.384,11.384,0,0,0,3.344-6.06h-6.255c.11,3.369-1.9,5.755-3.753,8.568-.1.153-.2.3-.305.452Z" transform="translate(-299.427 -272.405)" fill="#2d201b"/>
                <path id="Trazado_876352" data-name="Trazado 876352" d="M333.374,285.339h0a9.043,9.043,0,0,1-9.014-9.014V263.254a9.043,9.043,0,0,1,9.014-9.014h0a9.043,9.043,0,0,1,9.014,9.014v13.072A9.043,9.043,0,0,1,333.374,285.339Z" transform="translate(-297.673 -254.24)" fill="#f3725f"/>
                <path id="Trazado_876353" data-name="Trazado 876353" d="M358.027,282.389a3.472,3.472,0,1,1-3.1-3.1A3.47,3.47,0,0,1,358.027,282.389Z" transform="translate(-308.095 -263.995)" fill="#f3725f"/>
                <path id="Trazado_876354" data-name="Trazado 876354" d="M336.575,290.07a3.61,3.61,0,0,1-7.2.067Z" transform="translate(-299.629 -268.204)" fill="#fff"/>
                <path id="Trazado_876355" data-name="Trazado 876355" d="M303.918,377.89a33.92,33.92,0,0,1-23.288-27,125.26,125.26,0,0,1,8.989-17.033,14.975,14.975,0,0,1,4.138-4.54,5.637,5.637,0,0,1,5.852-.378,7.928,7.928,0,0,1,2.685,3.643c6.78,14.823,6.939,29.891,1.623,45.3Z" transform="translate(-280.63 -283.096)" fill="#c2c0f2"/>
              </g>
              <path id="Trazado_876356" data-name="Trazado 876356" d="M342.33,275.158a26.1,26.1,0,0,0,.9-9.008,21.091,21.091,0,0,1,2.118,11.333" transform="translate(-304.676 -258.882)" fill="#f3725f"/>
            </g>
            <path id="Trazado_876357" data-name="Trazado 876357" d="M349.583,443.541s-2.166-9.581-5.8-15.861l-45.264.122-.616,2.569c-3.07,5.663-3.259,12.736-3.259,12.736a26.811,26.811,0,0,1,3.21-.092,3.138,3.138,0,0,0,.592.055c1.013-.012,2.2-.031,3.546-.049,4.943.018,6.1.922,6.1.922h5.291c15.342-.208,36.946.97,36.207-.409Z" transform="translate(-286.09 -321.835)" fill="#332b33"/>
          </g>
          <path id="Trazado_876358" data-name="Trazado 876358" d="M334.533,259.219a7.707,7.707,0,0,1-5.084-5.956c-5.706,3.259-13.341,2.148-18.345-2.136a20.594,20.594,0,0,1-6.975-16.6c.214-2.813,1.044-6.042,3.564-7.641a7.684,7.684,0,0,1,8.422.4c3.015,2.191,4.437,6.1,4.553,9.862,1.312-2.765,4.449-3.668,7.445-3.247a12.175,12.175,0,0,1,7.525,4.748,18.9,18.9,0,0,1,3.625,15.5" transform="translate(-236.041 -225.817)" fill="#2d201b"/>
          <path id="Trazado_876359" data-name="Trazado 876359" d="M380.9,349.5A22.152,22.152,0,0,0,378.312,342a5.612,5.612,0,0,0-5.572-2.813,13.157,13.157,0,0,0-5.383,2c-2.557,1.5-3.594,4.431-4.522,7.14a40.275,40.275,0,0,0-2.105,11.375v.183c1.965,3.082,4.406,7.7,6.792,10.46a15.973,15.973,0,0,0,7.567,4.87c2.832-2.9,4.333-6.933,5.279-10.875A36.567,36.567,0,0,0,380.9,349.5Z" transform="translate(-258.119 -269.99)" fill="#c2c0f2"/>
          <g id="Grupo_1102332" data-name="Grupo 1102332" transform="translate(0 65.081)">
            <path id="Trazado_876360" data-name="Trazado 876360" d="M218.231,355.537l-3.912,3.332-11.119-6.06,1.507-8.379,9.923,1.587c.635,3.5,1.343,6.982,3.607,9.52Z" transform="translate(-196.725 -337.125)" fill="#f3725f"/>
            <path id="Trazado_876361" data-name="Trazado 876361" d="M217.261,346.518a5.616,5.616,0,0,1-1.379-6.322,6.816,6.816,0,0,1-1.312-6.017.436.436,0,0,1,.116-.244c.256-.244.6.189.684.531a12.283,12.283,0,0,0,1.69,4.132c.622.879,1.44,1.605,2.057,2.484,1.788,2.545,1.666,5.975.97,9.008" transform="translate(-201.076 -333.007)" fill="#f3725f"/>
            <path id="Trazado_876362" data-name="Trazado 876362" d="M210.223,343.726a5.743,5.743,0,0,0-2.124-2.343c-.61-.378-1.282-.641-1.892-1.019-2.16-1.33-3.21-3.851-4.388-6.1-.452-.86-1.123-1.812-2.1-1.8a22.036,22.036,0,0,0,4.022,7.988c-.055-.207-.445-.153-.622-.031a8.08,8.08,0,0,0-3.173,4.925,18.357,18.357,0,0,0,6.756,5.846c1.324.763,9.2,4.479,10.607,3.875a2.383,2.383,0,0,0,.934-3.338c-.482-1.019-3.521-2.966-3.887-4.028a14.765,14.765,0,0,0-4.479-6.536" transform="translate(-195.369 -332.46)" fill="#f3725f"/>
            <path id="Trazado_876363" data-name="Trazado 876363" d="M201.794,343.61a38.039,38.039,0,0,1-3.826-4.73,11.64,11.64,0,0,1-2.008-5.511,4.324,4.324,0,0,1,1.88,1.782,12.731,12.731,0,0,0,1.214,2.728c.586.684,3.521,3.826,5.206,6.194" transform="translate(-193.903 -332.815)" fill="#f3725f"/>
            <path id="Trazado_876364" data-name="Trazado 876364" d="M199.213,347.615a39.233,39.233,0,0,1-3.753-5.065,12.914,12.914,0,0,1-1.91-5.95,4.269,4.269,0,0,1,1.855,1.9,13.889,13.889,0,0,0,1.166,2.935c.58.732,3.46,4.095,5.114,6.634" transform="translate(-192.964 -334.073)" fill="#f3725f"/>
            <path id="Trazado_876365" data-name="Trazado 876365" d="M201.756,355.45a38.832,38.832,0,0,1-5.291-3.43,12.946,12.946,0,0,1-3.875-4.9,4.253,4.253,0,0,1,2.4,1.129,13.93,13.93,0,0,0,2.124,2.343c.8.482,4.675,2.618,7.116,4.418" transform="translate(-192.59 -338.173)" fill="#f3725f"/>
          </g>
          <path id="Trazado_876366" data-name="Trazado 876366" d="M347.08,427.837H299.448a2.407,2.407,0,0,1-2.4-2.4h0a2.407,2.407,0,0,1,2.4-2.4H347.08a2.407,2.407,0,0,1,2.4,2.4h0A2.407,2.407,0,0,1,347.08,427.837Z" transform="translate(-233.301 -302.681)" fill="#c2c0f2"/>
          <path id="Trazado_876367" data-name="Trazado 876367" d="M308.165,363.393s-4.626-2.9-1.593-8.953" transform="translate(-236.61 -275.945)" fill="none" stroke="#8383d6" stroke-linecap="round" stroke-linejoin="round" stroke-width="1.85"/>
          <path id="Trazado_876368" data-name="Trazado 876368" d="M330.485,364.033s-4.626-2.9-1.593-8.953" transform="translate(-245.309 -276.195)" fill="none" stroke="#8383d6" stroke-linecap="round" stroke-linejoin="round" stroke-width="1.85"/>
          <circle id="Elipse_11631" data-name="Elipse 11631" cx="3.418" cy="3.418" r="3.418" transform="translate(95.873 38.016)" fill="#c2c0f2"/>
          <path id="Trazado_876369" data-name="Trazado 876369" d="M341,385.521a46.465,46.465,0,0,1-15.568-3.771l-5.779,11.607L284.8,408.437l1.587,5.322,42.615-9.5a8.176,8.176,0,0,0,5.6-4.467l6.768-14.244c-.122-.006-.25-.012-.372-.024Z" transform="translate(-228.527 -286.589)" fill="#f3725f"/>
          <g id="Grupo_1102333" data-name="Grupo 1102333" transform="translate(38.993 120.994)">
            <path id="Trazado_876370" data-name="Trazado 876370" d="M266.368,424.643c.6.085,1.2.165,1.8.232a1.433,1.433,0,0,1-.384,1.062l-9.38,9.307a1.071,1.071,0,0,1-1.642-.116,1.468,1.468,0,0,1,.128-1.874l8.861-8.794a2.235,2.235,0,0,0,.622.183Z" transform="translate(-256.484 -424.228)" fill="#f3725f"/>
            <path id="Trazado_876371" data-name="Trazado 876371" d="M279.361,424.08l1.782,4.351-8.44,7.946-6.853-3.7,4.211-8.178c3.222.445,6.457.824,9.307-.421Z" transform="translate(-260.134 -424.08)" fill="#f3725f"/>
          </g>
          <path id="Trazado_876372" data-name="Trazado 876372" d="M207.34,350.94a7.444,7.444,0,0,1,6.048,5.132" transform="translate(-198.339 -274.581)" fill="none" stroke="#2d201b" stroke-linecap="round" stroke-linejoin="round" stroke-width="1"/>
          <rect id="Rectángulo_401741" data-name="Rectángulo 401741" width="16.886" height="12.205" transform="translate(89.148 80.057)" fill="#fcf6f1"/>
          <path id="Trazado_876373" data-name="Trazado 876373" d="M351.289,353.572h0a1.633,1.633,0,0,1-1.629-1.629v-7.323a1.633,1.633,0,0,1,1.629-1.629h0a1.633,1.633,0,0,1,1.629,1.629v7.323A1.633,1.633,0,0,1,351.289,353.572Z" transform="translate(-253.805 -271.483)" fill="#2d201b"/>
          <rect id="Rectángulo_401742" data-name="Rectángulo 401742" width="3.662" height="5.084" transform="translate(91.18 84.738)" fill="#dcdcff"/>
          <line id="Línea_590" data-name="Línea 590" x2="7.122" transform="translate(96.874 84.939)" fill="none" stroke="#2d201b" stroke-linecap="round" stroke-linejoin="round" stroke-width="1"/>
          <line id="Línea_591" data-name="Línea 591" x2="7.122" transform="translate(96.874 86.77)" fill="none" stroke="#2d201b" stroke-linecap="round" stroke-linejoin="round" stroke-width="1"/>
          <line id="Línea_592" data-name="Línea 592" x2="7.122" transform="translate(96.874 88.601)" fill="none" stroke="#2d201b" stroke-linecap="round" stroke-linejoin="round" stroke-width="1"/>
        </g>
        <g id="Grupo_1102335" data-name="Grupo 1102335" transform="translate(77.96 182.055)">
          <path id="Trazado_876374" data-name="Trazado 876374" d="M171.918,424.9l-9-32.735c-.952-3.466,1.459-6.951,4.815-6.951h48.95a5.026,5.026,0,0,1,4.638,3.344l10.8,28.115c1.379,3.588-1.1,7.531-4.705,7.482-17.069-.244-56.8-.653-55.5.751Z" transform="translate(-162.707 -385.21)" fill="#dcdcff"/>
          <rect id="Rectángulo_401743" data-name="Rectángulo 401743" width="88.056" height="7.177" rx="3.588" transform="translate(5.513 35.554)" fill="#a2a2f9"/>
          <path id="Trazado_876375" data-name="Trazado 876375" d="M245.515,449.327H231.229a1.462,1.462,0,0,1-1.459-1.459h0a1.462,1.462,0,0,1,1.459-1.459h14.286a1.462,1.462,0,0,1,1.459,1.459h0A1.462,1.462,0,0,1,245.515,449.327Z" transform="translate(-188.843 -409.062)" fill="#2d1a14"/>
          <path id="Trazado_876376" data-name="Trazado 876376" d="M206,419.953h0a2.641,2.641,0,0,1-2.636-2.636h0A2.641,2.641,0,0,1,206,414.68h0a2.641,2.641,0,0,1,2.636,2.636h0A2.641,2.641,0,0,1,206,419.953Z" transform="translate(-178.55 -396.695)" fill="#2d1a14"/>
          <line id="Línea_593" data-name="Línea 593" x2="12.346" y2="31.179" transform="translate(53.584 3.247)" fill="none" stroke="#2d1a14" stroke-linecap="round" stroke-linejoin="round" stroke-width="1.6"/>
        </g>
      </g>
    </g>
    <g id="Grupo_1102336" data-name="Grupo 1102336" transform="translate(966.98 3217.911)">
      <rect id="Rectángulo_401744" data-name="Rectángulo 401744" width="55.257" height="81.456" rx="8" transform="translate(0 0)" fill="#00a1bd"/>
      <rect id="Rectángulo_401745" data-name="Rectángulo 401745" width="13.738" height="2.5" transform="translate(19.383 39.395)" fill="#ec4e50"/>
      <rect id="Rectángulo_401746" data-name="Rectángulo 401746" width="33.508" height="2.5" rx="1.25" transform="translate(7.321 46.061)" fill="#c6e7ea"/>
      <path id="Trazado_876377" data-name="Trazado 876377" d="M1328.005,1205.35h30.925a1.376,1.376,0,0,1,1.375,1.375v.415a1.376,1.376,0,0,1-1.375,1.375h-30.925a1.376,1.376,0,0,1-1.375-1.375v-.415A1.376,1.376,0,0,1,1328.005,1205.35Z" transform="translate(-1319.477 -1154.289)" fill="#c6e7ea"/>
      <rect id="Rectángulo_401747" data-name="Rectángulo 401747" width="25.131" height="2.5" rx="1.25" transform="translate(6.818 56.893)" fill="#c6e7ea"/>
      <rect id="Rectángulo_401748" data-name="Rectángulo 401748" width="33.676" height="2.666" rx="1.333" transform="translate(6.985 61.724)" fill="#c6e7ea"/>
      <ellipse id="Elipse_11632" data-name="Elipse 11632" cx="13.427" cy="12.872" rx="13.427" ry="12.872" transform="translate(13.602 7.329)" fill="#fff"/>
      <path id="Trazado_876378" data-name="Trazado 876378" d="M1472.217,622.213l-.043,2.379s-2.093,2.251-4.057,1.487-2.52-1.487-2.435-3.951c0,0,.214-.255-.342-.722s-2.733-1.232-2.221-3.441,3.289-3.569,3.289-3.569.64-3.866,1.409-4.971l.769-1.1s3.8-3.7,7.474-.595c0,0,4.058-.765,4.826,2.974,0,0,.214,1.614.3,3.144s-.128,1.02.342,1.7,2.947,2.676,2.691,4.248-2.392,2.166-2.392,2.719-.983,3.526-3.459,3.186-2.392-1.062-2.392-1.062l-.085-2.166s3.075-1.36,3.118-2.932a2.6,2.6,0,0,1-.9-2.549,13.085,13.085,0,0,0-.128-3.569s-1.879-2.422-2.562-2.634c0,0-2.691.213-3.16,1.147s-.641,3.7-1.58,4.885a6.09,6.09,0,0,1-1.666,1.572s.726,3.313,3.2,3.823Z" transform="translate(-1446.601 -596.197)" fill="#00a1bd"/>
    </g>
  </g>
</svg>
